<svg width="992" height="156" viewBox="0 0 992 156" fill="none" xmlns="http://www.w3.org/2000/svg">
<rect y="6" width="992" height="144" rx="8" fill="#FEFEFE"/>
<rect y="38" width="992" height="78" fill="#4C93F4"/>
<rect x="814" y="30" width="58" height="95" fill="#4C93F4"/>
<path d="M899 38C899 34.5856 899.673 31.2047 900.979 28.0502C902.286 24.8958 904.201 22.0295 906.615 19.6152C909.03 17.2009 911.896 15.2857 915.05 13.9791C918.205 12.6725 921.586 12 925 12C928.414 12 931.795 12.6725 934.95 13.9791C938.104 15.2858 940.97 17.2009 943.385 19.6153C945.799 22.0296 947.714 24.8958 949.021 28.0503C950.328 31.2047 951 34.5857 951 38.0001L949.648 38.0001C949.648 34.7632 949.01 31.5581 947.772 28.5677C946.533 25.5772 944.718 22.86 942.429 20.5713C940.14 18.2825 937.423 16.4669 934.432 15.2282C931.442 13.9895 928.237 13.352 925 13.352C921.763 13.352 918.558 13.9895 915.568 15.2282C912.577 16.4669 909.86 18.2824 907.571 20.5712C905.282 22.86 903.467 25.5772 902.228 28.5676C900.99 31.558 900.352 34.7632 900.352 38L899 38Z" fill="#ACAEF7"/>
<path d="M920 38C920 34.5856 920.673 31.2047 921.979 28.0502C923.286 24.8958 925.201 22.0295 927.615 19.6152C930.03 17.2009 932.896 15.2857 936.05 13.9791C939.205 12.6725 942.586 12 946 12C949.414 12 952.795 12.6725 955.95 13.9791C959.104 15.2858 961.97 17.2009 964.385 19.6153C966.799 22.0296 968.714 24.8958 970.021 28.0503C971.328 31.2047 972 34.5857 972 38.0001L970.648 38.0001C970.648 34.7632 970.01 31.5581 968.772 28.5677C967.533 25.5772 965.718 22.86 963.429 20.5713C961.14 18.2825 958.423 16.4669 955.432 15.2282C952.442 13.9895 949.237 13.352 946 13.352C942.763 13.352 939.558 13.9895 936.568 15.2282C933.577 16.4669 930.86 18.2824 928.571 20.5712C926.282 22.86 924.467 25.5772 923.228 28.5676C921.99 31.558 921.352 34.7632 921.352 38L920 38Z" fill="#ACAEF7"/>
<path d="M905 38C905 34.5856 905.673 31.2047 906.979 28.0502C908.286 24.8958 910.201 22.0295 912.615 19.6152C915.03 17.2009 917.896 15.2857 921.05 13.9791C924.205 12.6725 927.586 12 931 12C934.414 12 937.795 12.6725 940.95 13.9791C944.104 15.2858 946.97 17.2009 949.385 19.6153C951.799 22.0296 953.714 24.8958 955.021 28.0503C956.328 31.2047 957 34.5857 957 38.0001L955.648 38.0001C955.648 34.7632 955.01 31.5581 953.772 28.5677C952.533 25.5772 950.718 22.86 948.429 20.5713C946.14 18.2825 943.423 16.4669 940.432 15.2282C937.442 13.9895 934.237 13.352 931 13.352C927.763 13.352 924.558 13.9895 921.568 15.2282C918.577 16.4669 915.86 18.2824 913.571 20.5712C911.282 22.86 909.467 25.5772 908.228 28.5676C906.99 31.558 906.352 34.7632 906.352 38L905 38Z" fill="#ACAEF7"/>
<path d="M837.125 51.0059C831.041 52.6699 827.375 57.3434 827.375 61.7504C827.375 66.1574 831.041 70.8309 837.125 72.4884V51.0059ZM846.875 83.5123V104.988C852.959 103.331 856.625 98.6573 856.625 94.2503C856.625 89.8433 852.959 85.1698 846.875 83.5123Z" fill="#FEFEFE"/>
<path fill-rule="evenodd" clip-rule="evenodd" d="M907 78C907 113.9 877.9 143 842 143C806.101 143 777 113.9 777 78C777 42.1005 806.101 13 842 13C877.9 13 907 42.1005 907 78ZM842 34.125C843.293 34.125 844.533 34.6386 845.447 35.5529C846.361 36.4671 846.875 37.7071 846.875 39V41.0605C857.47 42.9585 866.375 50.921 866.375 61.75C866.375 63.0429 865.861 64.2829 864.947 65.1972C864.033 66.1114 862.793 66.625 861.5 66.625C860.207 66.625 858.967 66.1114 858.053 65.1972C857.139 64.2829 856.625 63.0429 856.625 61.75C856.625 57.343 852.959 52.6695 846.875 51.0055V73.5605C857.47 75.4585 866.375 83.421 866.375 94.25C866.375 105.079 857.47 113.042 846.875 114.94V117C846.875 118.293 846.361 119.533 845.447 120.447C844.533 121.361 843.293 121.875 842 121.875C840.707 121.875 839.467 121.361 838.553 120.447C837.639 119.533 837.125 118.293 837.125 117V114.94C826.53 113.042 817.625 105.079 817.625 94.25C817.625 92.9571 818.139 91.7171 819.053 90.8029C819.967 89.8886 821.207 89.375 822.5 89.375C823.793 89.375 825.033 89.8886 825.947 90.8029C826.861 91.7171 827.375 92.9571 827.375 94.25C827.375 98.657 831.041 103.331 837.125 104.988V82.4395C826.53 80.5415 817.625 72.579 817.625 61.75C817.625 50.921 826.53 42.9585 837.125 41.0605V39C837.125 37.7071 837.639 36.4671 838.553 35.5529C839.467 34.6386 840.707 34.125 842 34.125Z" fill="#FEFEFE"/>
</svg>
