<svg width="974" height="195" viewBox="0 0 974 195" fill="none" xmlns="http://www.w3.org/2000/svg">
<path d="M14.8477 180.441H966.081" stroke="#CCCCCC" stroke-dasharray="4 2"/>
<path d="M14.8477 136.324H966.081" stroke="#CCCCCC" stroke-dasharray="4 2"/>
<path d="M14.8477 92.2051H966.081" stroke="#CCCCCC" stroke-dasharray="4 2"/>
<path d="M14.8477 48.0879H966.081" stroke="#CCCCCC" stroke-dasharray="4 2"/>
<path d="M14.8477 3.9707H966.081" stroke="#CCCCCC" stroke-dasharray="4 2"/>
<path d="M15.3418 3.5293V180.882" stroke="#CCCCCC" stroke-dasharray="4 2"/>
<path d="M173.715 3.5293V180.882" stroke="#CCCCCC" stroke-dasharray="4 2"/>
<path d="M332.09 3.5293V180.882" stroke="#CCCCCC" stroke-dasharray="4 2"/>
<path d="M490.463 3.5293V180.882" stroke="#CCCCCC" stroke-dasharray="4 2"/>
<path d="M648.838 3.5293V180.882" stroke="#CCCCCC" stroke-dasharray="4 2"/>
<path d="M807.211 3.5293V180.882" stroke="#CCCCCC" stroke-dasharray="4 2"/>
<path d="M965.586 3.5293V180.882" stroke="#CCCCCC" stroke-dasharray="4 2"/>
<path d="M4.49216 180.174V181.041C4.49216 181.507 4.45049 181.9 4.36716 182.221C4.28382 182.541 4.16403 182.799 4.00778 182.994C3.85153 183.189 3.66273 183.331 3.44137 183.42C3.22262 183.506 2.97523 183.549 2.69919 183.549C2.48044 183.549 2.27861 183.521 2.09372 183.467C1.90882 183.412 1.74216 183.325 1.59372 183.205C1.44789 183.083 1.32289 182.924 1.21872 182.729C1.11455 182.533 1.03512 182.296 0.980437 182.018C0.92575 181.739 0.898406 181.413 0.898406 181.041V180.174C0.898406 179.708 0.940073 179.317 1.02341 179.002C1.10934 178.687 1.23044 178.434 1.38669 178.244C1.54294 178.051 1.73044 177.913 1.94919 177.83C2.17054 177.747 2.41794 177.705 2.69137 177.705C2.91273 177.705 3.11585 177.732 3.30075 177.787C3.48825 177.839 3.65492 177.924 3.80075 178.041C3.94658 178.156 4.07028 178.309 4.17184 178.502C4.27601 178.692 4.35544 178.925 4.41012 179.201C4.46481 179.477 4.49216 179.801 4.49216 180.174ZM3.76559 181.158V180.053C3.76559 179.798 3.74997 179.574 3.71872 179.381C3.69007 179.186 3.6471 179.019 3.58981 178.881C3.53252 178.743 3.4596 178.631 3.37106 178.545C3.28512 178.459 3.18486 178.396 3.07028 178.357C2.9583 178.316 2.832 178.295 2.69137 178.295C2.5195 178.295 2.36716 178.327 2.23434 178.393C2.10153 178.455 1.98955 178.555 1.89841 178.693C1.80986 178.831 1.74216 179.012 1.69528 179.236C1.64841 179.46 1.62497 179.732 1.62497 180.053V181.158C1.62497 181.413 1.63929 181.639 1.66794 181.834C1.69919 182.029 1.74476 182.199 1.80466 182.342C1.86455 182.482 1.93747 182.598 2.02341 182.689C2.10934 182.781 2.2083 182.848 2.32028 182.893C2.43486 182.934 2.56117 182.955 2.69919 182.955C2.87627 182.955 3.03122 182.921 3.16403 182.854C3.29684 182.786 3.40752 182.68 3.49606 182.537C3.58721 182.391 3.65492 182.205 3.69919 181.979C3.74346 181.749 3.76559 181.476 3.76559 181.158Z" fill="#333333"/>
<path d="M3.29684 133.635V139.354H2.57419V134.537L1.11716 135.068V134.416L3.18356 133.635H3.29684Z" fill="#333333"/>
<path d="M1.97653 92.0352H2.49216C2.74476 92.0352 2.95309 91.9935 3.11716 91.9102C3.28382 91.8242 3.40752 91.7083 3.48825 91.5625C3.57158 91.4141 3.61325 91.2474 3.61325 91.0625C3.61325 90.8438 3.57679 90.6602 3.50387 90.5117C3.43096 90.3633 3.32158 90.2513 3.17575 90.1758C3.02992 90.1003 2.84502 90.0625 2.62106 90.0625C2.41794 90.0625 2.23825 90.1029 2.082 90.1836C1.92835 90.2617 1.80726 90.3737 1.71872 90.5195C1.63278 90.6654 1.58981 90.8372 1.58981 91.0352H0.867156C0.867156 90.7461 0.940073 90.4831 1.08591 90.2461C1.23174 90.0091 1.43617 89.8203 1.69919 89.6797C1.96481 89.5391 2.2721 89.4688 2.62106 89.4688C2.96481 89.4688 3.26559 89.5299 3.52341 89.6523C3.78122 89.7721 3.98174 89.9518 4.12497 90.1914C4.2682 90.4284 4.33981 90.724 4.33981 91.0781C4.33981 91.2214 4.30596 91.375 4.23825 91.5391C4.17315 91.7005 4.07028 91.8516 3.92966 91.9922C3.79164 92.1328 3.61195 92.2487 3.39059 92.3398C3.16924 92.4284 2.90361 92.4727 2.59372 92.4727H1.97653V92.0352ZM1.97653 92.6289V92.1953H2.59372C2.9557 92.1953 3.25518 92.2383 3.49216 92.3242C3.72914 92.4102 3.91533 92.5247 4.05075 92.668C4.18877 92.8112 4.28512 92.9688 4.33981 93.1406C4.3971 93.3099 4.42575 93.4792 4.42575 93.6484C4.42575 93.9141 4.38018 94.1497 4.28903 94.3555C4.20049 94.5612 4.07419 94.7357 3.91012 94.8789C3.74867 95.0221 3.55856 95.1302 3.33981 95.2031C3.12106 95.276 2.88278 95.3125 2.62497 95.3125C2.37757 95.3125 2.1445 95.2773 1.92575 95.207C1.7096 95.1367 1.5182 95.0352 1.35153 94.9023C1.18486 94.7669 1.05466 94.6016 0.960906 94.4062C0.867156 94.2083 0.820281 93.9831 0.820281 93.7305H1.54294C1.54294 93.9284 1.58591 94.1016 1.67184 94.25C1.76039 94.3984 1.88539 94.5143 2.04684 94.5977C2.21091 94.6784 2.40361 94.7188 2.62497 94.7188C2.84632 94.7188 3.03643 94.681 3.19528 94.6055C3.35674 94.5273 3.48044 94.4102 3.56637 94.2539C3.65492 94.0977 3.69919 93.901 3.69919 93.6641C3.69919 93.4271 3.64971 93.2331 3.55075 93.082C3.45179 92.9284 3.31117 92.8151 3.12887 92.7422C2.94919 92.6667 2.73695 92.6289 2.49216 92.6289H1.97653Z" fill="#333333"/>
<path d="M1.83591 48.4102L1.25778 48.2617L1.54294 45.4297H4.46091V46.0977H2.15622L1.98434 47.6445C2.08851 47.5846 2.22002 47.5286 2.37887 47.4766C2.54033 47.4245 2.72523 47.3984 2.93356 47.3984C3.19658 47.3984 3.43226 47.444 3.64059 47.5352C3.84893 47.6237 4.02601 47.7513 4.17184 47.918C4.32028 48.0846 4.43356 48.2852 4.51169 48.5195C4.58981 48.7539 4.62887 49.0156 4.62887 49.3047C4.62887 49.5781 4.59111 49.8294 4.51559 50.0586C4.44268 50.2878 4.332 50.4883 4.18356 50.6602C4.03512 50.8294 3.84762 50.9609 3.62106 51.0547C3.3971 51.1484 3.13278 51.1953 2.82809 51.1953C2.59893 51.1953 2.38148 51.1641 2.17575 51.1016C1.97262 51.0365 1.79033 50.9388 1.62887 50.8086C1.47002 50.6758 1.33981 50.5117 1.23825 50.3164C1.13929 50.1185 1.07679 49.8867 1.05075 49.6211H1.73825C1.7695 49.8346 1.832 50.0143 1.92575 50.1602C2.0195 50.306 2.1419 50.4167 2.29294 50.4922C2.44658 50.5651 2.62497 50.6016 2.82809 50.6016C2.99997 50.6016 3.15231 50.5716 3.28512 50.5117C3.41794 50.4518 3.52992 50.3659 3.62106 50.2539C3.71221 50.1419 3.78122 50.0065 3.82809 49.8477C3.87757 49.6888 3.90231 49.5104 3.90231 49.3125C3.90231 49.1328 3.87757 48.9661 3.82809 48.8125C3.77861 48.6589 3.7044 48.5247 3.60544 48.4102C3.50908 48.2956 3.39059 48.207 3.24997 48.1445C3.10934 48.0794 2.94789 48.0469 2.76559 48.0469C2.52341 48.0469 2.33981 48.0794 2.21481 48.1445C2.09242 48.2096 1.96611 48.2982 1.83591 48.4102Z" fill="#333333"/>
<path d="M4.59762 1.3125V1.71875L2.24216 7H1.48044L3.832 1.90625H0.753875V1.3125H4.59762Z" fill="#333333"/>
<path d="M9.95268 187.875L8.06987 193.059H7.30034L9.46831 187.371H9.9644L9.95268 187.875ZM11.5308 193.059L9.64409 187.875L9.63237 187.371H10.1285L12.3042 193.059H11.5308ZM11.4331 190.953V191.57H8.23784V190.953H11.4331ZM13.6792 189.645V194.684H12.9527V188.832H13.6167L13.6792 189.645ZM16.5269 190.91V190.992C16.5269 191.299 16.4904 191.585 16.4175 191.848C16.3446 192.108 16.2378 192.335 16.0972 192.527C15.9592 192.72 15.7886 192.87 15.5855 192.977C15.3824 193.083 15.1493 193.137 14.8863 193.137C14.618 193.137 14.3811 193.092 14.1753 193.004C13.9696 192.915 13.7951 192.786 13.6519 192.617C13.5087 192.448 13.3941 192.245 13.3081 192.008C13.2248 191.771 13.1675 191.504 13.1363 191.207V190.77C13.1675 190.457 13.2261 190.177 13.3121 189.93C13.398 189.682 13.5113 189.471 13.6519 189.297C13.7951 189.12 13.9683 188.986 14.1714 188.895C14.3746 188.801 14.6089 188.754 14.8746 188.754C15.1402 188.754 15.3759 188.806 15.5816 188.91C15.7873 189.012 15.9605 189.158 16.1011 189.348C16.2417 189.538 16.3472 189.766 16.4175 190.031C16.4904 190.294 16.5269 190.587 16.5269 190.91ZM15.8003 190.992V190.91C15.8003 190.699 15.7782 190.501 15.7339 190.316C15.6897 190.129 15.6206 189.965 15.5269 189.824C15.4358 189.681 15.3186 189.569 15.1753 189.488C15.0321 189.405 14.8615 189.363 14.6636 189.363C14.4813 189.363 14.3225 189.395 14.1871 189.457C14.0542 189.52 13.941 189.604 13.8472 189.711C13.7535 189.815 13.6766 189.935 13.6167 190.07C13.5595 190.203 13.5165 190.341 13.4878 190.484V191.496C13.5399 191.678 13.6128 191.85 13.7066 192.012C13.8003 192.171 13.9253 192.299 14.0816 192.398C14.2378 192.495 14.4345 192.543 14.6714 192.543C14.8667 192.543 15.0347 192.503 15.1753 192.422C15.3186 192.339 15.4358 192.225 15.5269 192.082C15.6206 191.939 15.6897 191.775 15.7339 191.59C15.7782 191.402 15.8003 191.203 15.8003 190.992ZM18.1714 189.496V193.059H17.4488V188.832H18.1519L18.1714 189.496ZM19.4917 188.809L19.4878 189.48C19.4279 189.467 19.3706 189.46 19.316 189.457C19.2639 189.452 19.204 189.449 19.1363 189.449C18.9696 189.449 18.8225 189.475 18.6949 189.527C18.5673 189.579 18.4592 189.652 18.3706 189.746C18.2821 189.84 18.2118 189.952 18.1597 190.082C18.1102 190.21 18.0777 190.35 18.0621 190.504L17.8589 190.621C17.8589 190.366 17.8837 190.126 17.9331 189.902C17.9852 189.678 18.0647 189.48 18.1714 189.309C18.2782 189.134 18.4136 188.999 18.5777 188.902C18.7443 188.803 18.9423 188.754 19.1714 188.754C19.2235 188.754 19.2834 188.76 19.3511 188.773C19.4188 188.784 19.4657 188.796 19.4917 188.809ZM20.9449 188.832V193.059H20.2183V188.832H20.9449ZM20.1636 187.711C20.1636 187.594 20.1988 187.495 20.2691 187.414C20.342 187.333 20.4488 187.293 20.5894 187.293C20.7274 187.293 20.8329 187.333 20.9058 187.414C20.9813 187.495 21.0191 187.594 21.0191 187.711C21.0191 187.823 20.9813 187.919 20.9058 188C20.8329 188.078 20.7274 188.117 20.5894 188.117C20.4488 188.117 20.342 188.078 20.2691 188C20.1988 187.919 20.1636 187.823 20.1636 187.711ZM22.8902 187.059V193.059H22.1636V187.059H22.8902Z" fill="#333333"/>
<path d="M168.692 187.371H169.423L171.286 192.008L173.145 187.371H173.88L171.567 193.059H170.997L168.692 187.371ZM168.454 187.371H169.098L169.204 190.84V193.059H168.454V187.371ZM173.469 187.371H174.114V193.059H173.364V190.84L173.469 187.371ZM177.083 193.137C176.788 193.137 176.522 193.087 176.282 192.988C176.045 192.887 175.841 192.745 175.669 192.562C175.499 192.38 175.369 192.164 175.278 191.914C175.187 191.664 175.141 191.391 175.141 191.094V190.93C175.141 190.586 175.192 190.28 175.294 190.012C175.395 189.741 175.533 189.512 175.708 189.324C175.882 189.137 176.08 188.995 176.302 188.898C176.523 188.802 176.752 188.754 176.989 188.754C177.291 188.754 177.552 188.806 177.77 188.91C177.992 189.014 178.173 189.16 178.313 189.348C178.454 189.533 178.558 189.751 178.626 190.004C178.693 190.254 178.727 190.527 178.727 190.824V191.148H175.571V190.559H178.005V190.504C177.994 190.316 177.955 190.134 177.887 189.957C177.822 189.78 177.718 189.634 177.575 189.52C177.432 189.405 177.236 189.348 176.989 189.348C176.825 189.348 176.674 189.383 176.536 189.453C176.398 189.521 176.279 189.622 176.18 189.758C176.081 189.893 176.005 190.059 175.95 190.254C175.895 190.449 175.868 190.674 175.868 190.93V191.094C175.868 191.294 175.895 191.483 175.95 191.66C176.007 191.835 176.089 191.988 176.196 192.121C176.305 192.254 176.437 192.358 176.591 192.434C176.747 192.509 176.924 192.547 177.122 192.547C177.377 192.547 177.593 192.495 177.77 192.391C177.947 192.286 178.102 192.147 178.235 191.973L178.673 192.32C178.581 192.458 178.466 192.59 178.325 192.715C178.184 192.84 178.011 192.941 177.805 193.02C177.602 193.098 177.361 193.137 177.083 193.137ZM180.356 188.832V193.059H179.63V188.832H180.356ZM179.575 187.711C179.575 187.594 179.61 187.495 179.68 187.414C179.753 187.333 179.86 187.293 180.001 187.293C180.139 187.293 180.244 187.333 180.317 187.414C180.393 187.495 180.43 187.594 180.43 187.711C180.43 187.823 180.393 187.919 180.317 188C180.244 188.078 180.139 188.117 180.001 188.117C179.86 188.117 179.753 188.078 179.68 188C179.61 187.919 179.575 187.823 179.575 187.711Z" fill="#333333"/>
<path d="M327.873 191.398V187.371H328.623V191.398C328.623 191.773 328.547 192.09 328.393 192.348C328.239 192.605 328.027 192.802 327.756 192.938C327.488 193.07 327.179 193.137 326.83 193.137C326.481 193.137 326.172 193.077 325.901 192.957C325.63 192.837 325.418 192.655 325.264 192.41C325.11 192.165 325.034 191.857 325.034 191.484H325.787C325.787 191.724 325.832 191.921 325.92 192.074C326.009 192.228 326.131 192.341 326.287 192.414C326.446 192.487 326.627 192.523 326.83 192.523C327.028 192.523 327.205 192.482 327.362 192.398C327.521 192.312 327.646 192.186 327.737 192.02C327.828 191.85 327.873 191.643 327.873 191.398ZM332.377 192.082V188.832H333.104V193.059H332.412L332.377 192.082ZM332.514 191.191L332.815 191.184C332.815 191.465 332.785 191.725 332.725 191.965C332.668 192.202 332.574 192.408 332.444 192.582C332.313 192.757 332.143 192.893 331.932 192.992C331.721 193.089 331.465 193.137 331.162 193.137C330.957 193.137 330.768 193.107 330.596 193.047C330.427 192.987 330.281 192.895 330.159 192.77C330.036 192.645 329.941 192.482 329.873 192.281C329.808 192.081 329.776 191.84 329.776 191.559V188.832H330.498V191.566C330.498 191.757 330.519 191.914 330.561 192.039C330.605 192.161 330.664 192.259 330.737 192.332C330.812 192.402 330.896 192.452 330.987 192.48C331.08 192.509 331.177 192.523 331.276 192.523C331.583 192.523 331.827 192.465 332.006 192.348C332.186 192.228 332.315 192.068 332.393 191.867C332.474 191.664 332.514 191.439 332.514 191.191ZM334.928 189.734V193.059H334.205V188.832H334.889L334.928 189.734ZM334.756 190.785L334.455 190.773C334.458 190.484 334.501 190.217 334.584 189.973C334.668 189.725 334.785 189.51 334.936 189.328C335.087 189.146 335.267 189.005 335.475 188.906C335.686 188.805 335.919 188.754 336.174 188.754C336.382 188.754 336.57 188.783 336.737 188.84C336.903 188.895 337.045 188.983 337.162 189.105C337.282 189.228 337.373 189.387 337.436 189.582C337.498 189.775 337.53 190.01 337.53 190.289V193.059H336.803V190.281C336.803 190.06 336.771 189.883 336.705 189.75C336.64 189.615 336.545 189.517 336.42 189.457C336.295 189.395 336.142 189.363 335.959 189.363C335.78 189.363 335.616 189.401 335.467 189.477C335.321 189.552 335.195 189.656 335.088 189.789C334.984 189.922 334.902 190.074 334.842 190.246C334.785 190.415 334.756 190.595 334.756 190.785ZM339.412 188.832V193.059H338.686V188.832H339.412ZM338.631 187.711C338.631 187.594 338.666 187.495 338.737 187.414C338.81 187.333 338.916 187.293 339.057 187.293C339.195 187.293 339.3 187.333 339.373 187.414C339.449 187.495 339.487 187.594 339.487 187.711C339.487 187.823 339.449 187.919 339.373 188C339.3 188.078 339.195 188.117 339.057 188.117C338.916 188.117 338.81 188.078 338.737 188C338.666 187.919 338.631 187.823 338.631 187.711Z" fill="#333333"/>
<path d="M488.144 191.398V187.371H488.894V191.398C488.894 191.773 488.818 192.09 488.664 192.348C488.51 192.605 488.298 192.802 488.027 192.938C487.759 193.07 487.45 193.137 487.102 193.137C486.753 193.137 486.443 193.077 486.172 192.957C485.901 192.837 485.689 192.655 485.535 192.41C485.381 192.165 485.305 191.857 485.305 191.484H486.059C486.059 191.724 486.103 191.921 486.191 192.074C486.28 192.228 486.402 192.341 486.559 192.414C486.717 192.487 486.898 192.523 487.102 192.523C487.299 192.523 487.477 192.482 487.633 192.398C487.792 192.312 487.917 192.186 488.008 192.02C488.099 191.85 488.144 191.643 488.144 191.398ZM492.648 192.082V188.832H493.375V193.059H492.684L492.648 192.082ZM492.785 191.191L493.086 191.184C493.086 191.465 493.056 191.725 492.996 191.965C492.939 192.202 492.845 192.408 492.715 192.582C492.585 192.757 492.414 192.893 492.203 192.992C491.992 193.089 491.736 193.137 491.434 193.137C491.228 193.137 491.039 193.107 490.867 193.047C490.698 192.987 490.552 192.895 490.43 192.77C490.307 192.645 490.212 192.482 490.144 192.281C490.079 192.081 490.047 191.84 490.047 191.559V188.832H490.769V191.566C490.769 191.757 490.79 191.914 490.832 192.039C490.876 192.161 490.935 192.259 491.008 192.332C491.083 192.402 491.167 192.452 491.258 192.48C491.352 192.509 491.448 192.523 491.547 192.523C491.854 192.523 492.098 192.465 492.277 192.348C492.457 192.228 492.586 192.068 492.664 191.867C492.745 191.664 492.785 191.439 492.785 191.191ZM495.262 187.059V193.059H494.535V187.059H495.262ZM497.207 188.832V193.059H496.48V188.832H497.207ZM496.426 187.711C496.426 187.594 496.461 187.495 496.531 187.414C496.604 187.333 496.711 187.293 496.852 187.293C496.99 187.293 497.095 187.333 497.168 187.414C497.243 187.495 497.281 187.594 497.281 187.711C497.281 187.823 497.243 187.919 497.168 188C497.095 188.078 496.99 188.117 496.852 188.117C496.711 188.117 496.604 188.078 496.531 188C496.461 187.919 496.426 187.823 496.426 187.711Z" fill="#333333"/>
<path d="M645.841 187.875L643.958 193.059H643.188L645.356 187.371H645.852L645.841 187.875ZM647.419 193.059L645.532 187.875L645.52 187.371H646.016L648.192 193.059H647.419ZM647.321 190.953V191.57H644.126V190.953H647.321ZM651.583 188.832H652.239V192.969C652.239 193.341 652.163 193.659 652.012 193.922C651.861 194.185 651.65 194.384 651.38 194.52C651.111 194.658 650.802 194.727 650.45 194.727C650.304 194.727 650.132 194.703 649.934 194.656C649.739 194.612 649.546 194.535 649.356 194.426C649.169 194.319 649.011 194.174 648.884 193.992L649.262 193.562C649.44 193.776 649.624 193.924 649.817 194.008C650.012 194.091 650.205 194.133 650.395 194.133C650.624 194.133 650.822 194.09 650.989 194.004C651.156 193.918 651.285 193.79 651.376 193.621C651.469 193.454 651.516 193.249 651.516 193.004V189.762L651.583 188.832ZM648.673 190.992V190.91C648.673 190.587 648.71 190.294 648.786 190.031C648.864 189.766 648.975 189.538 649.118 189.348C649.264 189.158 649.44 189.012 649.645 188.91C649.851 188.806 650.083 188.754 650.341 188.754C650.606 188.754 650.838 188.801 651.036 188.895C651.236 188.986 651.406 189.12 651.544 189.297C651.684 189.471 651.795 189.682 651.876 189.93C651.956 190.177 652.012 190.457 652.044 190.77V191.129C652.015 191.439 651.959 191.717 651.876 191.965C651.795 192.212 651.684 192.423 651.544 192.598C651.406 192.772 651.236 192.906 651.036 193C650.835 193.091 650.601 193.137 650.333 193.137C650.08 193.137 649.851 193.083 649.645 192.977C649.442 192.87 649.268 192.72 649.122 192.527C648.976 192.335 648.864 192.108 648.786 191.848C648.71 191.585 648.673 191.299 648.673 190.992ZM649.395 190.91V190.992C649.395 191.203 649.416 191.401 649.458 191.586C649.502 191.771 649.568 191.934 649.657 192.074C649.748 192.215 649.864 192.326 650.005 192.406C650.145 192.484 650.313 192.523 650.509 192.523C650.748 192.523 650.946 192.473 651.102 192.371C651.259 192.27 651.382 192.135 651.473 191.969C651.567 191.802 651.64 191.621 651.692 191.426V190.484C651.663 190.341 651.619 190.203 651.559 190.07C651.502 189.935 651.427 189.815 651.333 189.711C651.242 189.604 651.128 189.52 650.993 189.457C650.858 189.395 650.699 189.363 650.516 189.363C650.318 189.363 650.148 189.405 650.005 189.488C649.864 189.569 649.748 189.681 649.657 189.824C649.568 189.965 649.502 190.129 649.458 190.316C649.416 190.501 649.395 190.699 649.395 190.91ZM655.798 191.938C655.798 191.833 655.774 191.737 655.727 191.648C655.683 191.557 655.591 191.475 655.45 191.402C655.312 191.327 655.104 191.262 654.825 191.207C654.591 191.158 654.378 191.099 654.188 191.031C654.001 190.964 653.841 190.882 653.708 190.785C653.578 190.689 653.477 190.576 653.407 190.445C653.337 190.315 653.302 190.163 653.302 189.988C653.302 189.822 653.338 189.664 653.411 189.516C653.486 189.367 653.592 189.236 653.727 189.121C653.865 189.007 654.031 188.917 654.223 188.852C654.416 188.786 654.631 188.754 654.868 188.754C655.206 188.754 655.496 188.814 655.735 188.934C655.975 189.053 656.158 189.214 656.286 189.414C656.413 189.612 656.477 189.832 656.477 190.074H655.755C655.755 189.957 655.719 189.844 655.649 189.734C655.581 189.622 655.481 189.53 655.348 189.457C655.218 189.384 655.058 189.348 654.868 189.348C654.667 189.348 654.505 189.379 654.38 189.441C654.257 189.501 654.167 189.578 654.11 189.672C654.055 189.766 654.028 189.865 654.028 189.969C654.028 190.047 654.041 190.117 654.067 190.18C654.096 190.24 654.145 190.296 654.216 190.348C654.286 190.397 654.385 190.444 654.512 190.488C654.64 190.533 654.803 190.577 655.001 190.621C655.347 190.699 655.632 190.793 655.856 190.902C656.08 191.012 656.247 191.146 656.356 191.305C656.466 191.464 656.52 191.656 656.52 191.883C656.52 192.068 656.481 192.237 656.403 192.391C656.328 192.544 656.217 192.677 656.071 192.789C655.928 192.898 655.756 192.984 655.555 193.047C655.358 193.107 655.135 193.137 654.887 193.137C654.515 193.137 654.2 193.07 653.942 192.938C653.684 192.805 653.489 192.633 653.356 192.422C653.223 192.211 653.157 191.988 653.157 191.754H653.884C653.894 191.952 653.951 192.109 654.055 192.227C654.16 192.341 654.287 192.423 654.438 192.473C654.589 192.52 654.739 192.543 654.887 192.543C655.085 192.543 655.251 192.517 655.384 192.465C655.519 192.413 655.622 192.341 655.692 192.25C655.762 192.159 655.798 192.055 655.798 191.938Z" fill="#333333"/>
<path d="M804.671 191.621C804.671 191.488 804.65 191.371 804.609 191.27C804.569 191.165 804.499 191.072 804.398 190.988C804.299 190.905 804.161 190.826 803.984 190.75C803.809 190.674 803.588 190.598 803.319 190.52C803.038 190.436 802.784 190.344 802.558 190.242C802.331 190.138 802.137 190.02 801.976 189.887C801.814 189.754 801.691 189.602 801.605 189.43C801.519 189.258 801.476 189.061 801.476 188.84C801.476 188.618 801.521 188.414 801.612 188.227C801.704 188.039 801.834 187.876 802.003 187.738C802.175 187.598 802.379 187.488 802.616 187.41C802.853 187.332 803.118 187.293 803.409 187.293C803.836 187.293 804.198 187.375 804.495 187.539C804.795 187.701 805.023 187.913 805.179 188.176C805.335 188.436 805.413 188.715 805.413 189.012H804.663C804.663 188.798 804.618 188.609 804.527 188.445C804.435 188.279 804.297 188.148 804.112 188.055C803.928 187.958 803.693 187.91 803.409 187.91C803.141 187.91 802.92 187.951 802.745 188.031C802.571 188.112 802.441 188.221 802.355 188.359C802.271 188.497 802.23 188.655 802.23 188.832C802.23 188.952 802.254 189.061 802.304 189.16C802.356 189.257 802.435 189.346 802.542 189.43C802.652 189.513 802.79 189.59 802.956 189.66C803.125 189.73 803.327 189.798 803.562 189.863C803.885 189.954 804.163 190.056 804.398 190.168C804.632 190.28 804.825 190.406 804.976 190.547C805.129 190.685 805.243 190.842 805.316 191.02C805.391 191.194 805.429 191.392 805.429 191.613C805.429 191.845 805.382 192.055 805.288 192.242C805.194 192.43 805.06 192.59 804.886 192.723C804.711 192.855 804.502 192.958 804.257 193.031C804.015 193.102 803.744 193.137 803.444 193.137C803.181 193.137 802.922 193.1 802.667 193.027C802.415 192.954 802.184 192.845 801.976 192.699C801.77 192.553 801.605 192.374 801.48 192.16C801.357 191.944 801.296 191.694 801.296 191.41H802.046C802.046 191.605 802.084 191.773 802.159 191.914C802.235 192.052 802.338 192.167 802.468 192.258C802.601 192.349 802.75 192.417 802.917 192.461C803.086 192.503 803.262 192.523 803.444 192.523C803.707 192.523 803.93 192.487 804.112 192.414C804.295 192.341 804.433 192.237 804.527 192.102C804.623 191.966 804.671 191.806 804.671 191.621ZM808.034 193.137C807.74 193.137 807.473 193.087 807.234 192.988C806.997 192.887 806.792 192.745 806.62 192.562C806.451 192.38 806.321 192.164 806.23 191.914C806.138 191.664 806.093 191.391 806.093 191.094V190.93C806.093 190.586 806.144 190.28 806.245 190.012C806.347 189.741 806.485 189.512 806.659 189.324C806.834 189.137 807.032 188.995 807.253 188.898C807.474 188.802 807.704 188.754 807.941 188.754C808.243 188.754 808.503 188.806 808.722 188.91C808.943 189.014 809.124 189.16 809.265 189.348C809.405 189.533 809.51 189.751 809.577 190.004C809.645 190.254 809.679 190.527 809.679 190.824V191.148H806.523V190.559H808.956V190.504C808.946 190.316 808.907 190.134 808.839 189.957C808.774 189.78 808.67 189.634 808.527 189.52C808.383 189.405 808.188 189.348 807.941 189.348C807.777 189.348 807.625 189.383 807.487 189.453C807.349 189.521 807.231 189.622 807.132 189.758C807.033 189.893 806.956 190.059 806.902 190.254C806.847 190.449 806.819 190.674 806.819 190.93V191.094C806.819 191.294 806.847 191.483 806.902 191.66C806.959 191.835 807.041 191.988 807.148 192.121C807.257 192.254 807.388 192.358 807.542 192.434C807.698 192.509 807.875 192.547 808.073 192.547C808.329 192.547 808.545 192.495 808.722 192.391C808.899 192.286 809.054 192.147 809.187 191.973L809.624 192.32C809.533 192.458 809.417 192.59 809.277 192.715C809.136 192.84 808.963 192.941 808.757 193.02C808.554 193.098 808.313 193.137 808.034 193.137ZM811.245 189.645V194.684H810.519V188.832H811.183L811.245 189.645ZM814.093 190.91V190.992C814.093 191.299 814.056 191.585 813.984 191.848C813.911 192.108 813.804 192.335 813.663 192.527C813.525 192.72 813.355 192.87 813.152 192.977C812.948 193.083 812.715 193.137 812.452 193.137C812.184 193.137 811.947 193.092 811.741 193.004C811.536 192.915 811.361 192.786 811.218 192.617C811.075 192.448 810.96 192.245 810.874 192.008C810.791 191.771 810.734 191.504 810.702 191.207V190.77C810.734 190.457 810.792 190.177 810.878 189.93C810.964 189.682 811.077 189.471 811.218 189.297C811.361 189.12 811.534 188.986 811.737 188.895C811.941 188.801 812.175 188.754 812.441 188.754C812.706 188.754 812.942 188.806 813.148 188.91C813.353 189.012 813.527 189.158 813.667 189.348C813.808 189.538 813.913 189.766 813.984 190.031C814.056 190.294 814.093 190.587 814.093 190.91ZM813.366 190.992V190.91C813.366 190.699 813.344 190.501 813.3 190.316C813.256 190.129 813.187 189.965 813.093 189.824C813.002 189.681 812.885 189.569 812.741 189.488C812.598 189.405 812.428 189.363 812.23 189.363C812.047 189.363 811.888 189.395 811.753 189.457C811.62 189.52 811.507 189.604 811.413 189.711C811.319 189.815 811.243 189.935 811.183 190.07C811.125 190.203 811.082 190.341 811.054 190.484V191.496C811.106 191.678 811.179 191.85 811.273 192.012C811.366 192.171 811.491 192.299 811.648 192.398C811.804 192.495 812 192.543 812.237 192.543C812.433 192.543 812.601 192.503 812.741 192.422C812.885 192.339 813.002 192.225 813.093 192.082C813.187 191.939 813.256 191.775 813.3 191.59C813.344 191.402 813.366 191.203 813.366 190.992ZM816.784 188.832V189.387H814.499V188.832H816.784ZM815.273 187.805H815.995V192.012C815.995 192.155 816.017 192.263 816.062 192.336C816.106 192.409 816.163 192.457 816.234 192.48C816.304 192.504 816.379 192.516 816.46 192.516C816.52 192.516 816.582 192.51 816.648 192.5C816.715 192.487 816.766 192.477 816.8 192.469L816.804 193.059C816.747 193.077 816.671 193.094 816.577 193.109C816.486 193.128 816.375 193.137 816.245 193.137C816.068 193.137 815.905 193.102 815.757 193.031C815.609 192.961 815.49 192.844 815.402 192.68C815.316 192.513 815.273 192.289 815.273 192.008V187.805Z" fill="#333333"/>
<path d="M966.518 190.035V190.395C966.518 190.822 966.464 191.204 966.357 191.543C966.251 191.882 966.097 192.169 965.896 192.406C965.696 192.643 965.455 192.824 965.174 192.949C964.895 193.074 964.583 193.137 964.236 193.137C963.9 193.137 963.592 193.074 963.31 192.949C963.032 192.824 962.79 192.643 962.584 192.406C962.381 192.169 962.223 191.882 962.111 191.543C961.999 191.204 961.943 190.822 961.943 190.395V190.035C961.943 189.608 961.998 189.227 962.107 188.891C962.219 188.552 962.377 188.264 962.58 188.027C962.783 187.788 963.024 187.605 963.303 187.48C963.584 187.355 963.893 187.293 964.228 187.293C964.575 187.293 964.887 187.355 965.166 187.48C965.447 187.605 965.688 187.788 965.889 188.027C966.092 188.264 966.247 188.552 966.353 188.891C966.463 189.227 966.518 189.608 966.518 190.035ZM965.771 190.395V190.027C965.771 189.689 965.736 189.389 965.666 189.129C965.598 188.868 965.498 188.65 965.365 188.473C965.232 188.296 965.07 188.161 964.877 188.07C964.687 187.979 964.471 187.934 964.228 187.934C963.994 187.934 963.782 187.979 963.592 188.07C963.404 188.161 963.243 188.296 963.107 188.473C962.975 188.65 962.872 188.868 962.799 189.129C962.726 189.389 962.689 189.689 962.689 190.027V190.395C962.689 190.736 962.726 191.038 962.799 191.301C962.872 191.561 962.976 191.781 963.111 191.961C963.249 192.138 963.412 192.272 963.6 192.363C963.79 192.454 964.002 192.5 964.236 192.5C964.481 192.5 964.699 192.454 964.889 192.363C965.079 192.272 965.239 192.138 965.369 191.961C965.502 191.781 965.602 191.561 965.67 191.301C965.738 191.038 965.771 190.736 965.771 190.395ZM968.264 187.059V193.059H967.537V187.059H968.264ZM970.846 188.832L969.002 190.805L967.971 191.875L967.912 191.105L968.65 190.223L969.963 188.832H970.846ZM970.185 193.059L968.678 191.043L969.053 190.398L971.037 193.059H970.185ZM973.361 188.832V189.387H971.076V188.832H973.361ZM971.85 187.805H972.572V192.012C972.572 192.155 972.594 192.263 972.639 192.336C972.683 192.409 972.74 192.457 972.81 192.48C972.881 192.504 972.956 192.516 973.037 192.516C973.097 192.516 973.159 192.51 973.225 192.5C973.292 192.487 973.343 192.477 973.377 192.469L973.381 193.059C973.324 193.077 973.248 193.094 973.154 193.109C973.063 193.128 972.952 193.137 972.822 193.137C972.645 193.137 972.482 193.102 972.334 193.031C972.185 192.961 972.067 192.844 971.978 192.68C971.893 192.513 971.85 192.289 971.85 192.008V187.805Z" fill="#333333"/>
<path opacity="0.2" fill-rule="evenodd" clip-rule="evenodd" d="M14.8477 155.545L173.387 130.209L331.926 180.881L490.465 155.545L649.003 104.873L807.542 180.881L966.081 130.209V180.881H14.8477V155.545Z" fill="#0CE66E"/>
<path d="M14.8477 155.545L173.387 130.209L331.926 180.881L490.465 155.545L649.003 104.873L807.542 180.881L966.081 130.209" stroke="#0E9CFF"/>
<path d="M14.848 157.87C16.1092 157.87 17.3328 156.934 17.3328 155.546C17.3328 154.158 16.1092 153.223 14.848 153.223C13.5869 153.223 12.3633 154.158 12.3633 155.546C12.3633 156.934 13.5869 157.87 14.848 157.87Z" fill="white" stroke="#0CE66E" stroke-width="2"/>
<path d="M173.387 132.534C174.648 132.534 175.872 131.598 175.872 130.21C175.872 128.822 174.648 127.887 173.387 127.887C172.126 127.887 170.902 128.822 170.902 130.21C170.902 131.598 172.126 132.534 173.387 132.534Z" fill="white" stroke="#0CE66E" stroke-width="2"/>
<path d="M331.926 183.206C333.187 183.206 334.411 182.27 334.411 180.882C334.411 179.494 333.187 178.559 331.926 178.559C330.665 178.559 329.441 179.494 329.441 180.882C329.441 182.27 330.665 183.206 331.926 183.206Z" fill="white" stroke="#0CE66E" stroke-width="2"/>
<path d="M490.465 157.87C491.726 157.87 492.95 156.934 492.95 155.546C492.95 154.158 491.726 153.223 490.465 153.223C489.204 153.223 487.98 154.158 487.98 155.546C487.98 156.934 489.204 157.87 490.465 157.87Z" fill="white" stroke="#0CE66E" stroke-width="2"/>
<path d="M649.004 107.198C650.265 107.198 651.489 106.263 651.489 104.874C651.489 103.486 650.265 102.551 649.004 102.551C647.743 102.551 646.52 103.486 646.52 104.874C646.52 106.263 647.743 107.198 649.004 107.198Z" fill="white" stroke="#0CE66E" stroke-width="2"/>
<path d="M807.543 183.206C808.804 183.206 810.028 182.27 810.028 180.882C810.028 179.494 808.804 178.559 807.543 178.559C806.282 178.559 805.059 179.494 805.059 180.882C805.059 182.27 806.282 183.206 807.543 183.206Z" fill="white" stroke="#0CE66E" stroke-width="2"/>
<path d="M966.082 132.534C967.344 132.534 968.567 131.598 968.567 130.21C968.567 128.822 967.344 127.887 966.082 127.887C964.821 127.887 963.598 128.822 963.598 130.21C963.598 131.598 964.821 132.534 966.082 132.534Z" fill="white" stroke="#0CE66E" stroke-width="2"/>
</svg>
