<svg width="991" height="352" viewBox="0 0 991 352" fill="none" xmlns="http://www.w3.org/2000/svg">
<rect width="991" height="352" rx="8" fill="#FEFEFE"/>
<path d="M157 109.5L919 109.5" stroke="#D9DAEF" stroke-width="2" stroke-linecap="round" stroke-dasharray="5 5"/>
<path d="M157 170L919 170" stroke="#D9DAEF" stroke-width="2" stroke-linecap="round" stroke-dasharray="5 5"/>
<path d="M157 230L919 230" stroke="#D9DAEF" stroke-width="2" stroke-linecap="round" stroke-dasharray="5 5"/>
<path d="M39.848 116L36.968 110.996H35.402V116H33.35V103.49H37.67C38.63 103.49 39.44 103.658 40.1 103.994C40.772 104.33 41.27 104.78 41.594 105.344C41.93 105.908 42.098 106.538 42.098 107.234C42.098 108.05 41.858 108.794 41.378 109.466C40.91 110.126 40.184 110.576 39.2 110.816L42.296 116H39.848ZM35.402 109.358H37.67C38.438 109.358 39.014 109.166 39.398 108.782C39.794 108.398 39.992 107.882 39.992 107.234C39.992 106.586 39.8 106.082 39.416 105.722C39.032 105.35 38.45 105.164 37.67 105.164H35.402V109.358ZM46.775 107.54C47.123 107.084 47.597 106.7 48.197 106.388C48.797 106.076 49.475 105.92 50.231 105.92C51.095 105.92 51.881 106.136 52.589 106.568C53.309 106.988 53.873 107.582 54.281 108.35C54.689 109.118 54.893 110 54.893 110.996C54.893 111.992 54.689 112.886 54.281 113.678C53.873 114.458 53.309 115.07 52.589 115.514C51.881 115.946 51.095 116.162 50.231 116.162C49.475 116.162 48.803 116.012 48.215 115.712C47.627 115.4 47.147 115.016 46.775 114.56V120.716H44.723V106.082H46.775V107.54ZM52.805 110.996C52.805 110.312 52.661 109.724 52.373 109.232C52.097 108.728 51.725 108.35 51.257 108.098C50.801 107.834 50.309 107.702 49.781 107.702C49.265 107.702 48.773 107.834 48.305 108.098C47.849 108.362 47.477 108.746 47.189 109.25C46.913 109.754 46.775 110.348 46.775 111.032C46.775 111.716 46.913 112.316 47.189 112.832C47.477 113.336 47.849 113.72 48.305 113.984C48.773 114.248 49.265 114.38 49.781 114.38C50.309 114.38 50.801 114.248 51.257 113.984C51.725 113.708 52.097 113.312 52.373 112.796C52.661 112.28 52.805 111.68 52.805 110.996ZM61.076 113.264V111.716L67.124 103.04H69.608V111.482H71.282V113.264H69.608V116H67.592V113.264H61.076ZM67.682 105.128L63.434 111.482H67.682V105.128ZM80.0383 105.92C79.9063 105.368 79.6663 104.954 79.3183 104.678C78.9703 104.402 78.4843 104.264 77.8603 104.264C76.9123 104.264 76.2043 104.63 75.7363 105.362C75.2683 106.082 75.0223 107.282 74.9983 108.962C75.3103 108.434 75.7663 108.026 76.3663 107.738C76.9663 107.45 77.6143 107.306 78.3103 107.306C79.1023 107.306 79.7983 107.48 80.3983 107.828C81.0103 108.164 81.4843 108.656 81.8203 109.304C82.1683 109.952 82.3423 110.726 82.3423 111.626C82.3423 112.466 82.1743 113.216 81.8383 113.876C81.5143 114.536 81.0283 115.058 80.3803 115.442C79.7323 115.814 78.9523 116 78.0403 116C76.8043 116 75.8323 115.73 75.1243 115.19C74.4283 114.638 73.9363 113.864 73.6483 112.868C73.3723 111.872 73.2343 110.63 73.2343 109.142C73.2343 104.75 74.7823 102.554 77.8783 102.554C79.0783 102.554 80.0203 102.878 80.7043 103.526C81.4003 104.174 81.8083 104.972 81.9283 105.92H80.0383ZM77.8603 109.034C77.1283 109.034 76.5043 109.256 75.9883 109.7C75.4843 110.132 75.2323 110.762 75.2323 111.59C75.2323 112.418 75.4663 113.078 75.9343 113.57C76.4143 114.05 77.0803 114.29 77.9323 114.29C78.6883 114.29 79.2823 114.056 79.7143 113.588C80.1583 113.12 80.3803 112.496 80.3803 111.716C80.3803 110.9 80.1643 110.252 79.7323 109.772C79.3123 109.28 78.6883 109.034 77.8603 109.034ZM85.6292 116.126C85.2572 116.126 84.9452 116 84.6932 115.748C84.4412 115.496 84.3152 115.184 84.3152 114.812C84.3152 114.44 84.4412 114.128 84.6932 113.876C84.9452 113.624 85.2572 113.498 85.6292 113.498C85.9892 113.498 86.2952 113.624 86.5472 113.876C86.7992 114.128 86.9252 114.44 86.9252 114.812C86.9252 115.184 86.7992 115.496 86.5472 115.748C86.2952 116 85.9892 116.126 85.6292 116.126ZM88.873 109.268C88.873 107.192 89.221 105.572 89.917 104.408C90.625 103.232 91.837 102.644 93.553 102.644C95.269 102.644 96.475 103.232 97.171 104.408C97.879 105.572 98.233 107.192 98.233 109.268C98.233 111.368 97.879 113.012 97.171 114.2C96.475 115.376 95.269 115.964 93.553 115.964C91.837 115.964 90.625 115.376 89.917 114.2C89.221 113.012 88.873 111.368 88.873 109.268ZM96.217 109.268C96.217 108.296 96.151 107.474 96.019 106.802C95.899 106.13 95.647 105.584 95.263 105.164C94.879 104.732 94.309 104.516 93.553 104.516C92.797 104.516 92.227 104.732 91.843 105.164C91.459 105.584 91.201 106.13 91.069 106.802C90.949 107.474 90.889 108.296 90.889 109.268C90.889 110.276 90.949 111.122 91.069 111.806C91.189 112.49 91.441 113.042 91.825 113.462C92.221 113.882 92.797 114.092 93.553 114.092C94.309 114.092 94.879 113.882 95.263 113.462C95.659 113.042 95.917 112.49 96.037 111.806C96.157 111.122 96.217 110.276 96.217 109.268ZM100.404 109.268C100.404 107.192 100.752 105.572 101.448 104.408C102.156 103.232 103.368 102.644 105.084 102.644C106.8 102.644 108.006 103.232 108.702 104.408C109.41 105.572 109.764 107.192 109.764 109.268C109.764 111.368 109.41 113.012 108.702 114.2C108.006 115.376 106.8 115.964 105.084 115.964C103.368 115.964 102.156 115.376 101.448 114.2C100.752 113.012 100.404 111.368 100.404 109.268ZM107.748 109.268C107.748 108.296 107.682 107.474 107.55 106.802C107.43 106.13 107.178 105.584 106.794 105.164C106.41 104.732 105.84 104.516 105.084 104.516C104.328 104.516 103.758 104.732 103.374 105.164C102.99 105.584 102.732 106.13 102.6 106.802C102.48 107.474 102.42 108.296 102.42 109.268C102.42 110.276 102.48 111.122 102.6 111.806C102.72 112.49 102.972 113.042 103.356 113.462C103.752 113.882 104.328 114.092 105.084 114.092C105.84 114.092 106.41 113.882 106.794 113.462C107.19 113.042 107.448 112.49 107.568 111.806C107.688 111.122 107.748 110.276 107.748 109.268ZM111.935 109.268C111.935 107.192 112.283 105.572 112.979 104.408C113.687 103.232 114.899 102.644 116.615 102.644C118.331 102.644 119.537 103.232 120.233 104.408C120.941 105.572 121.295 107.192 121.295 109.268C121.295 111.368 120.941 113.012 120.233 114.2C119.537 115.376 118.331 115.964 116.615 115.964C114.899 115.964 113.687 115.376 112.979 114.2C112.283 113.012 111.935 111.368 111.935 109.268ZM119.279 109.268C119.279 108.296 119.213 107.474 119.081 106.802C118.961 106.13 118.709 105.584 118.325 105.164C117.941 104.732 117.371 104.516 116.615 104.516C115.859 104.516 115.289 104.732 114.905 105.164C114.521 105.584 114.263 106.13 114.131 106.802C114.011 107.474 113.951 108.296 113.951 109.268C113.951 110.276 114.011 111.122 114.131 111.806C114.251 112.49 114.503 113.042 114.887 113.462C115.283 113.882 115.859 114.092 116.615 114.092C117.371 114.092 117.941 113.882 118.325 113.462C118.721 113.042 118.979 112.49 119.099 111.806C119.219 111.122 119.279 110.276 119.279 109.268ZM127.661 111.05L132.233 116H129.461L125.789 111.734V116H123.737V102.68H125.789V110.42L129.389 106.082H132.233L127.661 111.05Z" fill="#6F707C"/>
<path d="M39.848 177L36.968 171.996H35.402V177H33.35V164.49H37.67C38.63 164.49 39.44 164.658 40.1 164.994C40.772 165.33 41.27 165.78 41.594 166.344C41.93 166.908 42.098 167.538 42.098 168.234C42.098 169.05 41.858 169.794 41.378 170.466C40.91 171.126 40.184 171.576 39.2 171.816L42.296 177H39.848ZM35.402 170.358H37.67C38.438 170.358 39.014 170.166 39.398 169.782C39.794 169.398 39.992 168.882 39.992 168.234C39.992 167.586 39.8 167.082 39.416 166.722C39.032 166.35 38.45 166.164 37.67 166.164H35.402V170.358ZM46.775 168.54C47.123 168.084 47.597 167.7 48.197 167.388C48.797 167.076 49.475 166.92 50.231 166.92C51.095 166.92 51.881 167.136 52.589 167.568C53.309 167.988 53.873 168.582 54.281 169.35C54.689 170.118 54.893 171 54.893 171.996C54.893 172.992 54.689 173.886 54.281 174.678C53.873 175.458 53.309 176.07 52.589 176.514C51.881 176.946 51.095 177.162 50.231 177.162C49.475 177.162 48.803 177.012 48.215 176.712C47.627 176.4 47.147 176.016 46.775 175.56V181.716H44.723V167.082H46.775V168.54ZM52.805 171.996C52.805 171.312 52.661 170.724 52.373 170.232C52.097 169.728 51.725 169.35 51.257 169.098C50.801 168.834 50.309 168.702 49.781 168.702C49.265 168.702 48.773 168.834 48.305 169.098C47.849 169.362 47.477 169.746 47.189 170.25C46.913 170.754 46.775 171.348 46.775 172.032C46.775 172.716 46.913 173.316 47.189 173.832C47.477 174.336 47.849 174.72 48.305 174.984C48.773 175.248 49.265 175.38 49.781 175.38C50.309 175.38 50.801 175.248 51.257 174.984C51.725 174.708 52.097 174.312 52.373 173.796C52.661 173.28 52.805 172.68 52.805 171.996ZM61.076 174.264V172.716L67.124 164.04H69.608V172.482H71.282V174.264H69.608V177H67.592V174.264H61.076ZM67.682 166.128L63.434 172.482H67.682V166.128ZM72.7303 174.264V172.716L78.7783 164.04H81.2623V172.482H82.9363V174.264H81.2623V177H79.2463V174.264H72.7303ZM79.3363 166.128L75.0883 172.482H79.3363V166.128ZM85.7346 177.126C85.3626 177.126 85.0506 177 84.7986 176.748C84.5466 176.496 84.4206 176.184 84.4206 175.812C84.4206 175.44 84.5466 175.128 84.7986 174.876C85.0506 174.624 85.3626 174.498 85.7346 174.498C86.0946 174.498 86.4006 174.624 86.6526 174.876C86.9046 175.128 87.0306 175.44 87.0306 175.812C87.0306 176.184 86.9046 176.496 86.6526 176.748C86.4006 177 86.0946 177.126 85.7346 177.126ZM88.9784 170.268C88.9784 168.192 89.3264 166.572 90.0224 165.408C90.7304 164.232 91.9424 163.644 93.6584 163.644C95.3744 163.644 96.5804 164.232 97.2764 165.408C97.9844 166.572 98.3384 168.192 98.3384 170.268C98.3384 172.368 97.9844 174.012 97.2764 175.2C96.5804 176.376 95.3744 176.964 93.6584 176.964C91.9424 176.964 90.7304 176.376 90.0224 175.2C89.3264 174.012 88.9784 172.368 88.9784 170.268ZM96.3224 170.268C96.3224 169.296 96.2564 168.474 96.1244 167.802C96.0044 167.13 95.7524 166.584 95.3684 166.164C94.9844 165.732 94.4144 165.516 93.6584 165.516C92.9024 165.516 92.3324 165.732 91.9484 166.164C91.5644 166.584 91.3064 167.13 91.1744 167.802C91.0544 168.474 90.9944 169.296 90.9944 170.268C90.9944 171.276 91.0544 172.122 91.1744 172.806C91.2944 173.49 91.5464 174.042 91.9304 174.462C92.3264 174.882 92.9024 175.092 93.6584 175.092C94.4144 175.092 94.9844 174.882 95.3684 174.462C95.7644 174.042 96.0224 173.49 96.1424 172.806C96.2624 172.122 96.3224 171.276 96.3224 170.268ZM100.51 170.268C100.51 168.192 100.858 166.572 101.554 165.408C102.262 164.232 103.474 163.644 105.19 163.644C106.906 163.644 108.112 164.232 108.808 165.408C109.516 166.572 109.87 168.192 109.87 170.268C109.87 172.368 109.516 174.012 108.808 175.2C108.112 176.376 106.906 176.964 105.19 176.964C103.474 176.964 102.262 176.376 101.554 175.2C100.858 174.012 100.51 172.368 100.51 170.268ZM107.854 170.268C107.854 169.296 107.788 168.474 107.656 167.802C107.536 167.13 107.284 166.584 106.9 166.164C106.516 165.732 105.946 165.516 105.19 165.516C104.434 165.516 103.864 165.732 103.48 166.164C103.096 166.584 102.838 167.13 102.706 167.802C102.586 168.474 102.526 169.296 102.526 170.268C102.526 171.276 102.586 172.122 102.706 172.806C102.826 173.49 103.078 174.042 103.462 174.462C103.858 174.882 104.434 175.092 105.19 175.092C105.946 175.092 106.516 174.882 106.9 174.462C107.296 174.042 107.554 173.49 107.674 172.806C107.794 172.122 107.854 171.276 107.854 170.268ZM112.041 170.268C112.041 168.192 112.389 166.572 113.085 165.408C113.793 164.232 115.005 163.644 116.721 163.644C118.437 163.644 119.643 164.232 120.339 165.408C121.047 166.572 121.401 168.192 121.401 170.268C121.401 172.368 121.047 174.012 120.339 175.2C119.643 176.376 118.437 176.964 116.721 176.964C115.005 176.964 113.793 176.376 113.085 175.2C112.389 174.012 112.041 172.368 112.041 170.268ZM119.385 170.268C119.385 169.296 119.319 168.474 119.187 167.802C119.067 167.13 118.815 166.584 118.431 166.164C118.047 165.732 117.477 165.516 116.721 165.516C115.965 165.516 115.395 165.732 115.011 166.164C114.627 166.584 114.369 167.13 114.237 167.802C114.117 168.474 114.057 169.296 114.057 170.268C114.057 171.276 114.117 172.122 114.237 172.806C114.357 173.49 114.609 174.042 114.993 174.462C115.389 174.882 115.965 175.092 116.721 175.092C117.477 175.092 118.047 174.882 118.431 174.462C118.827 174.042 119.085 173.49 119.205 172.806C119.325 172.122 119.385 171.276 119.385 170.268ZM127.766 172.05L132.338 177H129.566L125.894 172.734V177H123.842V163.68H125.894V171.42L129.494 167.082H132.338L127.766 172.05Z" fill="#6F707C"/>
<path d="M39.848 237L36.968 231.996H35.402V237H33.35V224.49H37.67C38.63 224.49 39.44 224.658 40.1 224.994C40.772 225.33 41.27 225.78 41.594 226.344C41.93 226.908 42.098 227.538 42.098 228.234C42.098 229.05 41.858 229.794 41.378 230.466C40.91 231.126 40.184 231.576 39.2 231.816L42.296 237H39.848ZM35.402 230.358H37.67C38.438 230.358 39.014 230.166 39.398 229.782C39.794 229.398 39.992 228.882 39.992 228.234C39.992 227.586 39.8 227.082 39.416 226.722C39.032 226.35 38.45 226.164 37.67 226.164H35.402V230.358ZM46.775 228.54C47.123 228.084 47.597 227.7 48.197 227.388C48.797 227.076 49.475 226.92 50.231 226.92C51.095 226.92 51.881 227.136 52.589 227.568C53.309 227.988 53.873 228.582 54.281 229.35C54.689 230.118 54.893 231 54.893 231.996C54.893 232.992 54.689 233.886 54.281 234.678C53.873 235.458 53.309 236.07 52.589 236.514C51.881 236.946 51.095 237.162 50.231 237.162C49.475 237.162 48.803 237.012 48.215 236.712C47.627 236.4 47.147 236.016 46.775 235.56V241.716H44.723V227.082H46.775V228.54ZM52.805 231.996C52.805 231.312 52.661 230.724 52.373 230.232C52.097 229.728 51.725 229.35 51.257 229.098C50.801 228.834 50.309 228.702 49.781 228.702C49.265 228.702 48.773 228.834 48.305 229.098C47.849 229.362 47.477 229.746 47.189 230.25C46.913 230.754 46.775 231.348 46.775 232.032C46.775 232.716 46.913 233.316 47.189 233.832C47.477 234.336 47.849 234.72 48.305 234.984C48.773 235.248 49.265 235.38 49.781 235.38C50.309 235.38 50.801 235.248 51.257 234.984C51.725 234.708 52.097 234.312 52.373 233.796C52.661 233.28 52.805 232.68 52.805 231.996ZM61.076 234.264V232.716L67.124 224.04H69.608V232.482H71.282V234.264H69.608V237H67.592V234.264H61.076ZM67.682 226.128L63.434 232.482H67.682V226.128ZM74.1163 234.21C75.2683 233.214 76.1743 232.398 76.8343 231.762C77.5063 231.114 78.0643 230.442 78.5083 229.746C78.9523 229.05 79.1743 228.354 79.1743 227.658C79.1743 226.938 79.0003 226.374 78.6523 225.966C78.3163 225.558 77.7823 225.354 77.0503 225.354C76.3423 225.354 75.7903 225.582 75.3943 226.038C75.0103 226.482 74.8063 227.082 74.7823 227.838H72.8023C72.8383 226.47 73.2463 225.426 74.0263 224.706C74.8183 223.974 75.8203 223.608 77.0323 223.608C78.3403 223.608 79.3603 223.968 80.0923 224.688C80.8363 225.408 81.2083 226.368 81.2083 227.568C81.2083 228.432 80.9863 229.266 80.5423 230.07C80.1103 230.862 79.5883 231.576 78.9763 232.212C78.3763 232.836 77.6083 233.562 76.6723 234.39L75.8623 235.11H81.5683V236.82H72.8203V235.326L74.1163 234.21ZM84.469 237.126C84.097 237.126 83.785 237 83.533 236.748C83.281 236.496 83.155 236.184 83.155 235.812C83.155 235.44 83.281 235.128 83.533 234.876C83.785 234.624 84.097 234.498 84.469 234.498C84.829 234.498 85.135 234.624 85.387 234.876C85.639 235.128 85.765 235.44 85.765 235.812C85.765 236.184 85.639 236.496 85.387 236.748C85.135 237 84.829 237.126 84.469 237.126ZM87.7128 230.268C87.7128 228.192 88.0608 226.572 88.7568 225.408C89.4648 224.232 90.6768 223.644 92.3928 223.644C94.1088 223.644 95.3148 224.232 96.0108 225.408C96.7188 226.572 97.0728 228.192 97.0728 230.268C97.0728 232.368 96.7188 234.012 96.0108 235.2C95.3148 236.376 94.1088 236.964 92.3928 236.964C90.6768 236.964 89.4648 236.376 88.7568 235.2C88.0608 234.012 87.7128 232.368 87.7128 230.268ZM95.0568 230.268C95.0568 229.296 94.9908 228.474 94.8588 227.802C94.7388 227.13 94.4868 226.584 94.1028 226.164C93.7188 225.732 93.1488 225.516 92.3928 225.516C91.6368 225.516 91.0668 225.732 90.6828 226.164C90.2988 226.584 90.0408 227.13 89.9088 227.802C89.7888 228.474 89.7288 229.296 89.7288 230.268C89.7288 231.276 89.7888 232.122 89.9088 232.806C90.0288 233.49 90.2808 234.042 90.6648 234.462C91.0608 234.882 91.6368 235.092 92.3928 235.092C93.1488 235.092 93.7188 234.882 94.1028 234.462C94.4988 234.042 94.7568 233.49 94.8768 232.806C94.9968 232.122 95.0568 231.276 95.0568 230.268ZM99.2441 230.268C99.2441 228.192 99.5921 226.572 100.288 225.408C100.996 224.232 102.208 223.644 103.924 223.644C105.64 223.644 106.846 224.232 107.542 225.408C108.25 226.572 108.604 228.192 108.604 230.268C108.604 232.368 108.25 234.012 107.542 235.2C106.846 236.376 105.64 236.964 103.924 236.964C102.208 236.964 100.996 236.376 100.288 235.2C99.5921 234.012 99.2441 232.368 99.2441 230.268ZM106.588 230.268C106.588 229.296 106.522 228.474 106.39 227.802C106.27 227.13 106.018 226.584 105.634 226.164C105.25 225.732 104.68 225.516 103.924 225.516C103.168 225.516 102.598 225.732 102.214 226.164C101.83 226.584 101.572 227.13 101.44 227.802C101.32 228.474 101.26 229.296 101.26 230.268C101.26 231.276 101.32 232.122 101.44 232.806C101.56 233.49 101.812 234.042 102.196 234.462C102.592 234.882 103.168 235.092 103.924 235.092C104.68 235.092 105.25 234.882 105.634 234.462C106.03 234.042 106.288 233.49 106.408 232.806C106.528 232.122 106.588 231.276 106.588 230.268ZM110.775 230.268C110.775 228.192 111.123 226.572 111.819 225.408C112.527 224.232 113.739 223.644 115.455 223.644C117.171 223.644 118.377 224.232 119.073 225.408C119.781 226.572 120.135 228.192 120.135 230.268C120.135 232.368 119.781 234.012 119.073 235.2C118.377 236.376 117.171 236.964 115.455 236.964C113.739 236.964 112.527 236.376 111.819 235.2C111.123 234.012 110.775 232.368 110.775 230.268ZM118.119 230.268C118.119 229.296 118.053 228.474 117.921 227.802C117.801 227.13 117.549 226.584 117.165 226.164C116.781 225.732 116.211 225.516 115.455 225.516C114.699 225.516 114.129 225.732 113.745 226.164C113.361 226.584 113.103 227.13 112.971 227.802C112.851 228.474 112.791 229.296 112.791 230.268C112.791 231.276 112.851 232.122 112.971 232.806C113.091 233.49 113.343 234.042 113.727 234.462C114.123 234.882 114.699 235.092 115.455 235.092C116.211 235.092 116.781 234.882 117.165 234.462C117.561 234.042 117.819 233.49 117.939 232.806C118.059 232.122 118.119 231.276 118.119 230.268ZM126.501 232.05L131.073 237H128.301L124.629 232.734V237H122.577V223.68H124.629V231.42L128.229 227.082H131.073L126.501 232.05Z" fill="#6F707C"/>
<path d="M211.832 267.307L214.166 276.018C214.455 277.096 214.353 278.036 213.86 278.839C213.379 279.639 212.605 280.182 211.538 280.468C210.472 280.753 209.524 280.672 208.696 280.223C207.879 279.771 207.326 279.006 207.038 277.928L209.037 277.392C209.192 277.922 209.438 278.31 209.777 278.554C210.127 278.796 210.558 278.848 211.068 278.712C211.578 278.575 211.924 278.314 212.107 277.93C212.286 277.534 212.306 277.075 212.167 276.554L209.833 267.843L211.832 267.307ZM224.403 266.622L226.97 276.202L224.988 276.733L224.685 275.603C224.478 276.081 224.15 276.504 223.703 276.873C223.263 277.227 222.759 277.48 222.191 277.632C221.438 277.834 220.718 277.859 220.031 277.707C219.356 277.553 218.763 277.215 218.25 276.694C217.75 276.17 217.383 275.473 217.15 274.603L215.64 268.97L217.605 268.444L219.035 273.781C219.265 274.639 219.657 275.242 220.21 275.591C220.76 275.928 221.406 275.998 222.148 275.799C222.889 275.6 223.414 275.217 223.722 274.65C224.038 274.068 224.081 273.349 223.851 272.491L222.421 267.153L224.403 266.622ZM231.81 264.47C232.564 264.268 233.278 264.244 233.953 264.399C234.639 264.55 235.233 264.888 235.734 265.412C236.234 265.937 236.601 266.634 236.834 267.503L238.348 273.154L236.384 273.68L234.949 268.325C234.719 267.467 234.329 266.87 233.779 266.533C233.226 266.184 232.578 266.109 231.837 266.308C231.095 266.506 230.566 266.897 230.25 267.478C229.942 268.045 229.903 268.758 230.133 269.615L231.568 274.97L229.585 275.502L227.019 265.921L229.001 265.39L229.294 266.486C229.513 266.005 229.842 265.587 230.282 265.233C230.733 264.877 231.242 264.622 231.81 264.47Z" fill="#535464"/>
<path d="M493.85 266.401L496.184 275.112C496.473 276.19 496.37 277.13 495.878 277.933C495.396 278.733 494.622 279.276 493.556 279.561C492.489 279.847 491.542 279.766 490.714 279.317C489.897 278.865 489.344 278.1 489.055 277.022L491.055 276.486C491.209 277.016 491.456 277.403 491.795 277.648C492.145 277.89 492.575 277.942 493.085 277.805C493.595 277.669 493.942 277.408 494.124 277.024C494.304 276.628 494.324 276.169 494.184 275.647L491.85 266.937L493.85 266.401ZM506.421 265.716L508.988 275.296L507.006 275.827L506.703 274.697C506.496 275.175 506.168 275.598 505.72 275.967C505.281 276.32 504.777 276.573 504.209 276.726C503.456 276.927 502.736 276.953 502.049 276.801C501.374 276.647 500.78 276.309 500.268 275.788C499.767 275.263 499.4 274.567 499.167 273.697L497.658 268.064L499.623 267.538L501.053 272.875C501.283 273.733 501.674 274.336 502.227 274.685C502.777 275.022 503.423 275.091 504.165 274.892C504.907 274.694 505.432 274.311 505.739 273.744C506.056 273.162 506.099 272.442 505.869 271.585L504.439 266.247L506.421 265.716ZM510.138 261.198L513.585 274.064L511.603 274.595L508.156 261.729L510.138 261.198Z" fill="#535464"/>
<path d="M772.376 277.124L767.317 278.48L767.109 281.182L765.04 281.736L766.127 268.475L768.422 267.86L775.994 278.801L773.907 279.36L772.376 277.124ZM771.387 275.656L767.917 270.567L767.44 276.714L771.387 275.656ZM783.985 266.392L786.552 275.972L784.57 276.503L784.267 275.373C784.06 275.851 783.732 276.274 783.284 276.643C782.845 276.997 782.341 277.25 781.773 277.402C781.02 277.604 780.3 277.629 779.613 277.477C778.938 277.323 778.344 276.985 777.832 276.464C777.331 275.94 776.964 275.243 776.731 274.373L775.222 268.74L777.187 268.214L778.617 273.551C778.847 274.409 779.238 275.012 779.791 275.361C780.341 275.698 780.987 275.767 781.729 275.569C782.471 275.37 782.996 274.987 783.304 274.42C783.62 273.838 783.663 273.119 783.433 272.261L782.003 266.923L783.985 266.392ZM790.418 264.501C791.16 264.302 791.855 264.277 792.504 264.426C793.161 264.561 793.711 264.805 794.154 265.158L793.781 263.767L795.78 263.232L798.389 272.968C798.625 273.849 798.649 274.681 798.462 275.464C798.277 276.259 797.884 276.948 797.283 277.532C796.693 278.112 795.911 278.533 794.937 278.794C793.639 279.142 792.479 279.124 791.457 278.739C790.437 278.366 789.73 277.674 789.335 276.661L791.299 276.135C791.584 276.593 792.009 276.908 792.577 277.078C793.159 277.258 793.792 277.256 794.476 277.073C795.276 276.858 795.854 276.443 796.21 275.825C796.578 275.205 796.638 274.431 796.39 273.504L795.961 271.904C795.746 272.446 795.391 272.952 794.895 273.42C794.408 273.873 793.799 274.198 793.069 274.394C792.234 274.617 791.413 274.614 790.606 274.383C789.807 274.137 789.104 273.692 788.497 273.047C787.898 272.388 787.469 271.577 787.211 270.615C786.954 269.653 786.922 268.748 787.118 267.901C787.325 267.05 787.716 266.33 788.291 265.742C788.874 265.138 789.583 264.724 790.418 264.501ZM795.062 268.549C794.885 267.888 794.592 267.351 794.183 266.939C793.786 266.524 793.334 266.248 792.825 266.111C792.316 265.974 791.807 265.973 791.297 266.11C790.787 266.247 790.345 266.502 789.973 266.875C789.598 267.236 789.337 267.698 789.189 268.259C789.05 268.806 789.068 269.409 789.246 270.07C789.423 270.731 789.711 271.274 790.111 271.701C790.523 272.125 790.985 272.412 791.497 272.56C792.017 272.694 792.527 272.694 793.025 272.561C793.535 272.424 793.976 272.169 794.348 271.796C794.72 271.423 794.974 270.957 795.111 270.399C795.255 269.826 795.239 269.209 795.062 268.549Z" fill="#535464"/>
<path d="M222.3 137.023C221.753 136.948 221.248 137.331 221.173 137.878C221.098 138.425 221.481 138.929 222.028 139.004L222.3 137.023ZM222.028 139.004L447.865 169.991L448.136 168.009L222.3 137.023L222.028 139.004Z" fill="#FF872E"/>
<line x1="524.122" y1="109.007" x2="760.122" y2="138.007" stroke="#FF872E" stroke-width="2"/>
<path d="M919 109.999C919.486 109.738 919.67 109.132 919.409 108.645C919.148 108.158 918.542 107.975 918.055 108.236L919 109.999ZM807 169.999L919 109.999L918.055 108.236L806.055 168.236L807 169.999Z" fill="#FF872E"/>
<line x1="447.385" y1="169.211" x2="524.385" y2="109.211" stroke="#FF872E" stroke-width="2"/>
<line x1="759.543" y1="138.16" x2="807.543" y2="169.16" stroke="#FF872E" stroke-width="2"/>
</svg>
