<svg width="55" height="55" viewBox="0 0 55 55" fill="none" xmlns="http://www.w3.org/2000/svg">
<circle cx="27.5" cy="27.5" r="27.5" fill="#1ABC9C"/>
<path d="M23.4688 36.5049C22.7917 37.182 22.1484 37.5205 21.5391 37.5205C21.1497 37.5205 20.8874 37.3766 20.752 37.0889C20.9466 36.8519 21.0439 36.4964 21.0439 36.0225V35.832C21.0439 35.7812 21.0397 35.7347 21.0312 35.6924C20.6081 35.3115 20.3965 34.863 20.3965 34.3467C20.3965 33.8219 20.6419 33.2887 21.1328 32.7471C20.9889 32.4593 20.917 32.1546 20.917 31.833C20.917 31.5029 20.9635 31.1982 21.0566 30.9189C21.1582 30.6312 21.2936 30.3815 21.4629 30.1699C21.8184 29.7044 22.1654 29.4717 22.5039 29.4717C22.8509 29.4717 23.0964 29.6071 23.2402 29.8779C22.9355 30.1995 22.7832 30.7031 22.7832 31.3887C22.7832 32.0742 22.8805 32.6709 23.0752 33.1787C23.2783 33.6865 23.5618 34.1224 23.9258 34.4863C24.7044 35.2819 25.6989 35.6797 26.9092 35.6797C27.7217 35.6797 28.4115 35.4469 28.9785 34.9814C29.5879 34.4821 29.8926 33.8008 29.8926 32.9375C29.8926 32.3281 29.7487 31.833 29.4609 31.4521C29.0124 30.8597 28.3099 30.2334 27.3535 29.5732C26.6172 29.057 26.029 28.7988 25.5889 28.7988C25.1403 28.7988 24.6452 28.9808 24.1035 29.3447C24.2474 28.9131 24.3193 28.5111 24.3193 28.1387C24.3193 28.054 24.2389 27.944 24.0781 27.8086L23.6084 27.3896C22.1273 26.027 21.2513 24.7617 20.9805 23.5938C20.8874 23.1875 20.8408 22.6797 20.8408 22.0703C20.8408 21.4525 20.9889 20.8304 21.2852 20.2041C21.5898 19.5693 22.0046 19.0319 22.5293 18.5918C23.6211 17.6608 25.0091 17.1953 26.6934 17.1953C27.7174 17.1953 28.6569 17.3604 29.5117 17.6904C29.8757 17.8343 30.2904 17.9062 30.7559 17.9062C30.9505 17.9062 31.124 17.8978 31.2764 17.8809C31.4372 17.8555 31.5768 17.7666 31.6953 17.6143C31.8053 17.4535 31.8604 17.3096 31.8604 17.1826C31.8604 17.0557 31.8434 16.9499 31.8096 16.8652C31.8688 16.8398 31.9492 16.8271 32.0508 16.8271C32.1608 16.8271 32.2793 16.8652 32.4062 16.9414C32.5332 17.0091 32.6475 17.1064 32.749 17.2334C32.9775 17.5212 33.0918 17.847 33.0918 18.2109C33.0918 18.5664 32.9902 18.8372 32.7871 19.0234C33.0749 19.2773 33.2188 19.6709 33.2188 20.2041C33.2188 20.7288 33.041 21.1689 32.6855 21.5244C32.7533 21.7529 32.7871 21.9603 32.7871 22.1465C32.7871 22.3242 32.7533 22.4977 32.6855 22.667C32.6263 22.8278 32.5417 22.9674 32.4316 23.0859C32.1862 23.3483 31.9535 23.4795 31.7334 23.4795C31.3864 23.4795 31.0944 23.4202 30.8574 23.3018C31.0013 22.9632 31.0732 22.5993 31.0732 22.21C31.0732 21.8206 30.9844 21.4229 30.8066 21.0166C30.6374 20.6019 30.3962 20.2422 30.083 19.9375C29.4229 19.3112 28.5596 18.998 27.4932 18.998C26.8161 18.998 26.2617 19.2054 25.8301 19.6201C25.4238 20.0094 25.2207 20.4792 25.2207 21.0293C25.2207 21.444 25.3223 21.791 25.5254 22.0703C25.8809 22.5527 26.4437 23.0521 27.2139 23.5684L27.8232 23.9746C28.1618 24.1862 28.3903 24.292 28.5088 24.292C28.6273 24.292 28.7458 24.2793 28.8643 24.2539C28.9827 24.2285 29.1139 24.1947 29.2578 24.1523C29.5625 24.0508 29.8587 23.9069 30.1465 23.7207L29.9814 24.4316C29.9307 24.6686 29.9053 24.8421 29.9053 24.9521C29.9053 25.1299 29.9941 25.2907 30.1719 25.4346C31.7546 26.8057 32.8125 27.9525 33.3457 28.875C33.8112 29.679 34.0439 30.5465 34.0439 31.4775C34.0439 32.4085 33.8916 33.2083 33.5869 33.877C33.2822 34.5456 32.8379 35.138 32.2539 35.6543C30.9674 36.8053 29.2959 37.3809 27.2393 37.3809C25.792 37.3809 24.5352 37.0889 23.4688 36.5049ZM22.6055 21.1309C22.2839 21.2663 22.123 21.6175 22.123 22.1846C22.123 23.3441 22.8975 24.6178 24.4463 26.0059L25.208 26.6914C25.4704 26.9284 25.5846 27.1104 25.5508 27.2373C25.5254 27.3643 25.5 27.4658 25.4746 27.542C25.4577 27.6182 25.4365 27.6901 25.4111 27.7578C25.3857 27.8255 25.3688 27.8763 25.3604 27.9102C25.6566 27.7324 25.8978 27.6436 26.084 27.6436C26.4564 27.6436 26.8076 27.7451 27.1377 27.9482C28.7712 28.9639 29.8799 29.8695 30.4639 30.665C30.887 31.249 31.1071 31.9769 31.124 32.8486C31.124 33.1618 31.1029 33.4242 31.0605 33.6357C31.5091 33.348 31.7334 32.891 31.7334 32.2646C31.7334 31.6553 31.6488 31.1855 31.4795 30.8555C31.3187 30.5254 31.1283 30.2334 30.9082 29.9795C30.6882 29.7171 30.4004 29.4336 30.0449 29.1289C29.6979 28.8242 29.2663 28.4941 28.75 28.1387L26.9473 26.9072C25.4661 25.9339 24.3405 24.9056 23.5703 23.8223C22.8932 22.8659 22.5716 21.9688 22.6055 21.1309Z" fill="white"/>
</svg>
