<svg width="120" height="120" viewBox="0 0 120 120" fill="none" xmlns="http://www.w3.org/2000/svg">
<circle cx="60" cy="60" r="60" fill="#FFC063"/>
<path d="M60 5C29.6275 5 5 29.6227 5 59.9976C5 90.3725 29.6251 114.995 60 114.995C90.3773 114.995 115 90.3725 115 59.9976C115 29.6227 90.3773 5 60 5ZM60 21.4449C70.0501 21.4449 78.194 29.5913 78.194 39.6365C78.194 49.6842 70.0501 57.8281 60 57.8281C49.9548 57.8281 41.8108 49.6842 41.8108 39.6365C41.8108 29.5913 49.9548 21.4449 60 21.4449ZM59.9879 100.616C49.9644 100.616 40.7841 96.9654 33.7031 90.9233C31.9782 89.452 30.9828 87.2946 30.9828 85.031C30.9828 74.8432 39.2282 66.6896 49.4184 66.6896H70.5864C80.779 66.6896 88.993 74.8432 88.993 85.031C88.993 87.2971 88.0025 89.4496 86.2751 90.9209C79.1966 96.9654 70.0138 100.616 59.9879 100.616Z" fill="#DFDEDE"/>
<circle cx="104" cy="100" r="15" fill="#FF872E"/>
<path d="M108.929 98.9286H105.286C105.167 98.9286 105.071 98.8326 105.071 98.7143V95.0714C105.071 94.4797 104.592 94 104 94C103.408 94 102.929 94.4797 102.929 95.0714V98.7143C102.929 98.8326 102.833 98.9286 102.714 98.9286H99.0714C98.4797 98.9286 98 99.4083 98 100C98 100.592 98.4797 101.071 99.0714 101.071H102.714C102.833 101.071 102.929 101.167 102.929 101.286V104.929C102.929 105.52 103.408 106 104 106C104.592 106 105.071 105.52 105.071 104.929V101.286C105.071 101.167 105.167 101.071 105.286 101.071H108.929C109.52 101.071 110 100.592 110 100C110 99.4083 109.52 98.9286 108.929 98.9286Z" fill="white"/>
</svg>
