<svg xmlns="http://www.w3.org/2000/svg" width="130" height="19" viewBox="0 0 130 19" fill="none">
  <path d="M17.9741 7.31909C17.9121 7.13073 17.7471 6.99345 17.5485 6.96501L11.9684 6.16505L9.47288 1.1767C9.38407 0.999126 9.20073 0.886719 9.00003 0.886719C8.79929 0.886719 8.61598 0.999126 8.52714 1.1767L6.03148 6.16505L0.451505 6.96501C0.252908 6.99345 0.0878505 7.13073 0.0258351 7.31906C-0.0362154 7.50742 0.0155343 7.71417 0.159288 7.85238L4.1969 11.7353L3.24388 17.2181C3.20992 17.4133 3.29127 17.6105 3.45366 17.7269C3.54552 17.7927 3.65433 17.8262 3.76367 17.8262C3.84762 17.8262 3.93185 17.8065 4.00899 17.7665L8.99999 15.1778L13.9908 17.7664C14.1685 17.8586 14.3838 17.8433 14.5461 17.7269C14.7085 17.6105 14.7899 17.4132 14.756 17.218L13.8027 11.7353L17.8407 7.85234C17.9844 7.71417 18.0362 7.50742 17.9741 7.31909Z" fill="#FEC348"/>
  <path d="M45.9741 7.52012C45.9121 7.32919 45.7471 7.19004 45.5485 7.16121L39.9684 6.35034L37.4729 1.29394C37.3841 1.11394 37.2007 1 37 1C36.7993 1 36.616 1.11394 36.5271 1.29394L34.0315 6.35034L28.4515 7.16121C28.2529 7.19004 28.0879 7.32919 28.0258 7.52009C27.9638 7.71102 28.0155 7.92058 28.1593 8.06068L32.1969 11.9965L31.2439 17.5541C31.2099 17.752 31.2913 17.9519 31.4537 18.0699C31.5455 18.1366 31.6543 18.1706 31.7637 18.1706C31.8476 18.1706 31.9319 18.1506 32.009 18.11L37 15.486L41.9908 18.11C42.1685 18.2034 42.3838 18.1879 42.5461 18.0699C42.7085 17.9519 42.7899 17.7519 42.756 17.5541L41.8027 11.9965L45.8407 8.06065C45.9844 7.92058 46.0362 7.71102 45.9741 7.52012Z" fill="#FEC348"/>
  <path d="M73.9741 7.31909C73.9121 7.13073 73.7471 6.99345 73.5485 6.96501L67.9684 6.16505L65.4729 1.1767C65.3841 0.999126 65.2007 0.886719 65 0.886719C64.7993 0.886719 64.616 0.999126 64.5271 1.1767L62.0315 6.16505L56.4515 6.96501C56.2529 6.99345 56.0879 7.13073 56.0258 7.31906C55.9638 7.50742 56.0155 7.71417 56.1593 7.85238L60.1969 11.7353L59.2439 17.2181C59.2099 17.4133 59.2913 17.6105 59.4537 17.7269C59.5455 17.7927 59.6543 17.8262 59.7637 17.8262C59.8476 17.8262 59.9319 17.8065 60.009 17.7665L65 15.1778L69.9908 17.7664C70.1685 17.8586 70.3838 17.8433 70.5461 17.7269C70.7085 17.6105 70.7899 17.4132 70.756 17.218L69.8027 11.7353L73.8407 7.85234C73.9844 7.71417 74.0362 7.50742 73.9741 7.31909Z" fill="#FEC348"/>
  <path d="M101.974 7.31909C101.912 7.13073 101.747 6.99345 101.549 6.96501L95.9684 6.16505L93.4729 1.1767C93.3841 0.999126 93.2007 0.886719 93 0.886719C92.7993 0.886719 92.616 0.999126 92.5271 1.1767L90.0315 6.16505L84.4515 6.96501C84.2529 6.99345 84.0879 7.13073 84.0258 7.31906C83.9638 7.50742 84.0155 7.71417 84.1593 7.85238L88.1969 11.7353L87.2439 17.2181C87.2099 17.4133 87.2913 17.6105 87.4537 17.7269C87.5455 17.7927 87.6543 17.8262 87.7637 17.8262C87.8476 17.8262 87.9319 17.8065 88.009 17.7665L93 15.1778L97.9908 17.7664C98.1685 17.8586 98.3838 17.8433 98.5461 17.7269C98.7085 17.6105 98.7899 17.4132 98.756 17.218L97.8027 11.7353L101.841 7.85234C101.984 7.71417 102.036 7.50742 101.974 7.31909Z" fill="#FEC348"/>
  <path d="M129.974 7.31909C129.912 7.13073 129.747 6.99345 129.549 6.96501L123.968 6.16505L121.473 1.1767C121.384 0.999126 121.201 0.886719 121 0.886719C120.799 0.886719 120.616 0.999126 120.527 1.1767L118.031 6.16505L112.452 6.96501C112.253 6.99345 112.088 7.13073 112.026 7.31906C111.964 7.50742 112.016 7.71417 112.159 7.85238L116.197 11.7353L115.244 17.2181C115.21 17.4133 115.291 17.6105 115.454 17.7269C115.546 17.7927 115.654 17.8262 115.764 17.8262C115.848 17.8262 115.932 17.8065 116.009 17.7665L121 15.1778L125.991 17.7664C126.169 17.8586 126.384 17.8433 126.546 17.7269C126.709 17.6105 126.79 17.4132 126.756 17.218L125.803 11.7353L129.841 7.85234C129.984 7.71417 130.036 7.50742 129.974 7.31909Z" fill="#FEC348"/>
</svg>
