<svg width="472" height="370" viewBox="0 0 472 370" fill="none" xmlns="http://www.w3.org/2000/svg">
<path d="M415.914 361.042H426.246L385.856 210.305H375.516L415.914 361.042Z" fill="url(#paint0_linear_2321_1978)"/>
<path d="M400.983 243.287C397.716 266.81 401.931 288.74 411.201 303.777C424.27 291.877 434.365 271.923 437.665 248.432C440.965 224.942 436.718 202.978 427.447 187.941C414.403 199.842 404.308 219.763 400.983 243.287Z" fill="url(#paint1_linear_2321_1978)"/>
<path d="M430.704 239.529C426.908 250.201 423.769 261.096 421.303 272.152C416.925 291.403 418.036 314.297 418.036 314.297" stroke="#112244" stroke-linecap="round" stroke-linejoin="round"/>
<path d="M406.594 233.256C406.594 233.256 409.224 255.309 412.466 272.363C415.709 289.418 417.906 311.871 417.906 311.871" stroke="#112244" stroke-linecap="round" stroke-linejoin="round"/>
<path d="M401.326 270.33C401.326 270.33 406.594 284.714 410.441 294.017C414.288 303.32 417.907 312.925 417.907 312.925" stroke="#112244" stroke-linecap="round" stroke-linejoin="round"/>
<path d="M422.015 148.238C419.85 164.075 422.758 178.826 429.031 188.914C437.787 180.877 444.55 167.449 446.706 151.611C448.863 135.774 445.963 121.023 439.69 110.936C430.934 118.973 424.179 132.401 422.015 148.238Z" fill="url(#paint2_linear_2321_1978)"/>
<path d="M404.789 184.74C405.606 166.313 406.847 133.062 407.55 113.68C394.767 129.509 386.566 153.751 386.566 180.974C386.566 207.879 394.579 231.876 407.117 247.713C405.712 229.115 404.037 201.508 404.789 184.74Z" fill="url(#paint3_linear_2321_1978)"/>
<path d="M429.627 180.965C429.627 153.35 421.198 128.781 408.097 112.977C407.909 113.197 407.738 113.442 407.55 113.671C406.847 133.053 405.614 166.312 404.789 184.731C404.038 201.507 405.72 229.106 407.109 247.696C407.435 248.113 407.754 248.513 408.089 248.954C421.19 233.15 429.627 208.573 429.627 180.965Z" fill="url(#paint4_linear_2321_1978)"/>
<path d="M334.815 361.042H324.482L364.88 210.305H375.213L334.815 361.042Z" fill="url(#paint5_linear_2321_1978)"/>
<path d="M431.555 210.632C424.416 226.371 422.881 242.56 426.262 254.959C437.811 249.331 448.969 237.504 456.099 221.756C463.23 206.009 464.749 189.788 461.4 177.43C449.843 183.057 438.693 194.884 431.555 210.632Z" fill="url(#paint6_linear_2321_1978)"/>
<path d="M441.723 360.993H394.325L387.293 299.562H448.764L441.723 360.993Z" fill="url(#paint7_linear_2321_1978)"/>
<path d="M387.293 299.562L394.325 360.993H412.466L407.214 299.562H387.293Z" fill="url(#paint8_linear_2321_1978)"/>
<path d="M451.166 297.807H384.893V312.942H451.166V297.807Z" fill="#FFD46A"/>
<path d="M259.851 318.047H194.174V331.94H259.851V318.047Z" fill="#223762"/>
<path d="M256.078 318.047H190.4V331.94H256.078V318.047Z" fill="#A7BDE5"/>
<path d="M198.307 329.399C200.743 329.399 202.718 327.425 202.718 324.989C202.718 322.553 200.743 320.578 198.307 320.578C195.871 320.578 193.896 322.553 193.896 324.989C193.896 327.425 195.871 329.399 198.307 329.399Z" fill="#617FAA"/>
<path d="M196.027 324.989C196.028 324.007 196.357 323.054 196.963 322.281C197.568 321.508 198.415 320.961 199.368 320.725C198.715 320.552 198.031 320.532 197.369 320.665C196.707 320.798 196.084 321.081 195.549 321.493C195.013 321.905 194.58 322.435 194.282 323.041C193.983 323.647 193.828 324.313 193.828 324.989C193.828 325.664 193.983 326.331 194.282 326.937C194.58 327.543 195.013 328.072 195.549 328.484C196.084 328.896 196.707 329.18 197.369 329.313C198.031 329.446 198.715 329.425 199.368 329.252C198.415 329.017 197.568 328.469 196.963 327.696C196.357 326.924 196.028 325.97 196.027 324.989Z" fill="#223762"/>
<path d="M210.844 329.399C213.28 329.399 215.255 327.425 215.255 324.989C215.255 322.553 213.28 320.578 210.844 320.578C208.408 320.578 206.434 322.553 206.434 324.989C206.434 327.425 208.408 329.399 210.844 329.399Z" fill="#617FAA"/>
<path d="M208.565 324.989C208.565 324.007 208.894 323.054 209.5 322.281C210.105 321.508 210.952 320.961 211.905 320.725C211.252 320.552 210.568 320.532 209.906 320.665C209.244 320.798 208.621 321.081 208.086 321.493C207.551 321.905 207.117 322.435 206.819 323.041C206.52 323.647 206.365 324.313 206.365 324.989C206.365 325.664 206.52 326.331 206.819 326.937C207.117 327.543 207.551 328.072 208.086 328.484C208.621 328.896 209.244 329.18 209.906 329.313C210.568 329.446 211.252 329.425 211.905 329.252C210.952 329.017 210.105 328.469 209.5 327.696C208.894 326.924 208.565 325.97 208.565 324.989Z" fill="#223762"/>
<path d="M222.842 329.399C225.278 329.399 227.253 327.425 227.253 324.989C227.253 322.553 225.278 320.578 222.842 320.578C220.406 320.578 218.432 322.553 218.432 324.989C218.432 327.425 220.406 329.399 222.842 329.399Z" fill="#617FAA"/>
<path d="M220.531 324.989C220.532 324.007 220.861 323.054 221.467 322.281C222.072 321.508 222.919 320.961 223.872 320.725C223.219 320.552 222.535 320.532 221.873 320.665C221.211 320.798 220.588 321.081 220.053 321.493C219.517 321.905 219.084 322.435 218.785 323.041C218.487 323.647 218.332 324.313 218.332 324.989C218.332 325.664 218.487 326.331 218.785 326.937C219.084 327.543 219.517 328.072 220.053 328.484C220.588 328.896 221.211 329.18 221.873 329.313C222.535 329.446 223.219 329.425 223.872 329.252C222.919 329.017 222.072 328.469 221.467 327.696C220.861 326.924 220.532 325.97 220.531 324.989Z" fill="#223762"/>
<path d="M247.239 329.399C249.675 329.399 251.649 327.425 251.649 324.989C251.649 322.553 249.675 320.578 247.239 320.578C244.803 320.578 242.828 322.553 242.828 324.989C242.828 327.425 244.803 329.399 247.239 329.399Z" fill="#617FAA"/>
<path d="M244.953 324.989C244.954 324.007 245.283 323.054 245.888 322.281C246.494 321.508 247.341 320.961 248.294 320.725C247.641 320.552 246.957 320.532 246.295 320.665C245.633 320.798 245.01 321.081 244.474 321.493C243.939 321.905 243.506 322.435 243.207 323.041C242.909 323.647 242.754 324.313 242.754 324.989C242.754 325.664 242.909 326.331 243.207 326.937C243.506 327.543 243.939 328.072 244.474 328.484C245.01 328.896 245.633 329.18 246.295 329.313C246.957 329.446 247.641 329.425 248.294 329.252C247.341 329.017 246.494 328.469 245.888 327.696C245.283 326.924 244.954 325.97 244.953 324.989Z" fill="#223762"/>
<path d="M308.016 194.826V238.116C308.016 242.9 307.073 247.639 305.242 252.059C303.411 256.48 300.727 260.497 297.344 263.88C293.96 267.264 289.944 269.947 285.523 271.779C281.102 273.61 276.364 274.552 271.579 274.552C266.794 274.552 262.056 275.495 257.635 277.326C253.215 279.157 249.198 281.841 245.815 285.224C242.431 288.608 239.747 292.624 237.916 297.045C236.085 301.466 235.143 306.204 235.143 310.989V326.222" stroke="#7A87A1" stroke-linecap="round" stroke-linejoin="round"/>
<path d="M122.887 16.2174L122.108 15.4377C121.671 15.0007 120.962 15.0007 120.525 15.4377L58.1958 77.7671C57.7588 78.2041 57.7588 78.9126 58.1958 79.3496L58.9755 80.1293C59.4125 80.5663 60.121 80.5663 60.558 80.1293L122.887 17.7999C123.324 17.3629 123.324 16.6544 122.887 16.2174Z" fill="#223762"/>
<path d="M409.028 193.447C410.377 193.447 411.47 191.498 411.47 189.094C411.47 186.689 410.377 184.74 409.028 184.74C407.679 184.74 406.586 186.689 406.586 189.094C406.586 191.498 407.679 193.447 409.028 193.447Z" fill="url(#paint9_linear_2321_1978)"/>
<path d="M416.395 195.627C418.096 193.927 418.701 191.776 417.747 190.822C416.793 189.868 414.642 190.473 412.942 192.174C411.242 193.874 410.636 196.025 411.59 196.979C412.544 197.933 414.695 197.327 416.395 195.627Z" fill="url(#paint10_linear_2321_1978)"/>
<path opacity="0.48" d="M144.571 53.3235C149.022 50.4869 150.33 44.5794 147.494 40.1286C144.657 35.6778 138.75 34.3692 134.299 37.2058C129.848 40.0423 128.54 45.9499 131.376 50.4006C134.213 54.8514 140.12 56.16 144.571 53.3235Z" fill="#EF8C48"/>
<path d="M416.243 219.385C418.575 217.053 419.405 214.103 418.097 212.795C416.789 211.487 413.839 212.318 411.507 214.649C409.175 216.981 408.345 219.931 409.653 221.239C410.961 222.547 413.911 221.717 416.243 219.385Z" fill="url(#paint11_linear_2321_1978)"/>
<path d="M415.532 230.343C416.924 227.353 416.693 224.297 415.016 223.516C413.34 222.735 410.852 224.526 409.46 227.515C408.068 230.504 408.299 233.561 409.975 234.341C411.652 235.122 414.139 233.332 415.532 230.343Z" fill="url(#paint12_linear_2321_1978)"/>
<path d="M118.126 11.4498L117.346 10.6701C116.909 10.2332 116.2 10.2332 115.763 10.6701L53.4341 72.9995C52.9971 73.4365 52.9971 74.145 53.4341 74.582L54.2138 75.3617C54.6508 75.7987 55.3593 75.7987 55.7963 75.3617L118.126 13.0323C118.563 12.5953 118.563 11.8868 118.126 11.4498Z" fill="#223762"/>
<path d="M60.4939 73.3195L59.4102 73.5235C58.8029 73.6378 58.4032 74.2228 58.5175 74.8301L82.317 201.269C82.4313 201.876 83.0164 202.276 83.6237 202.162L84.7073 201.958C85.3147 201.844 85.7143 201.259 85.6 200.651L61.8005 74.2122C61.6862 73.6049 61.1012 73.2052 60.4939 73.3195Z" fill="#223762"/>
<path d="M137.684 48.8134L143.097 45.3334C144.222 44.6099 144.548 43.1111 143.825 41.9857L121.811 7.74268C121.088 6.61728 119.589 6.29145 118.464 7.01492L113.05 10.4949C111.925 11.2184 111.599 12.7172 112.323 13.8426L134.336 48.0856C135.06 49.211 136.558 49.5368 137.684 48.8134Z" fill="url(#paint13_linear_2321_1978)"/>
<path d="M143.092 51.0021C146.261 48.9826 147.192 44.7767 145.173 41.6079C143.153 38.4391 138.947 37.5074 135.779 39.5269C132.61 41.5464 131.678 45.7524 133.698 48.9212C135.717 52.09 139.923 53.0217 143.092 51.0021Z" fill="#EF8C48"/>
<path d="M125.947 24.112C135.356 18.1168 149.773 23.9078 158.153 37.0498L124.068 58.768C115.696 45.626 116.538 30.1072 125.947 24.112Z" fill="url(#paint14_linear_2321_1978)"/>
<path d="M158.153 37.0501L148.997 42.8819C142.871 33.2766 134.899 26.3258 127.434 23.2792C136.818 18.7297 150.205 24.5779 158.153 37.0501Z" fill="#223762"/>
<path d="M52.7858 74.7585L53.8614 74.556C54.15 74.4995 54.4491 74.5587 54.6943 74.721C54.9395 74.8832 55.1109 75.1355 55.1716 75.4231L78.9756 201.886C79.0309 202.18 78.9673 202.484 78.7986 202.731C78.63 202.977 78.3702 203.147 78.0764 203.202L77.0008 203.405C76.7092 203.46 76.4077 203.397 76.1626 203.229C75.9176 203.062 75.7491 202.804 75.6942 202.512L51.8886 76.0411C51.8337 75.7494 51.8969 75.4479 52.0644 75.2029C52.2318 74.9578 52.4897 74.7893 52.7813 74.7344L52.7858 74.7585Z" fill="#223762"/>
<path d="M59.339 84.1194C63.8409 84.1194 67.4904 80.4698 67.4904 75.9679C67.4904 71.4659 63.8409 67.8164 59.339 67.8164C54.837 67.8164 51.1875 71.4659 51.1875 75.9679C51.1875 80.4698 54.837 84.1194 59.339 84.1194Z" fill="#223762"/>
<path d="M57.8194 84.1194C62.3214 84.1194 65.9709 80.4698 65.9709 75.9679C65.9709 71.4659 62.3214 67.8164 57.8194 67.8164C53.3175 67.8164 49.668 71.4659 49.668 75.9679C49.668 80.4698 53.3175 84.1194 57.8194 84.1194Z" fill="#4C93F4"/>
<path d="M57.8202 80.0526C60.0757 80.0526 61.9041 78.2242 61.9041 75.9687C61.9041 73.7132 60.0757 71.8848 57.8202 71.8848C55.5648 71.8848 53.7363 73.7132 53.7363 75.9687C53.7363 78.2242 55.5648 80.0526 57.8202 80.0526Z" fill="#223762"/>
<path d="M426.245 198.143H32.3691V210.296H426.245V198.143Z" fill="url(#paint15_linear_2321_1978)"/>
<path d="M426.588 198.143H354.115V210.296H426.588V198.143Z" fill="#3769A5"/>
<path d="M426.245 206.352H32.3691V210.305H426.245V206.352Z" fill="#83A4D6"/>
<path d="M426.245 206.352H354.115V210.305H426.245V206.352Z" fill="#223762"/>
<path d="M42.7014 361.042H32.3691L72.759 210.305H83.0912L42.7014 361.042Z" fill="url(#paint16_linear_2321_1978)"/>
<path d="M82.3811 361.042H72.0488L112.439 210.305H122.771L82.3811 361.042Z" fill="url(#paint17_linear_2321_1978)"/>
<path d="M163.47 361.042H173.802L133.412 210.305H123.08L163.47 361.042Z" fill="url(#paint18_linear_2321_1978)"/>
<path d="M123.792 361.042H134.124L93.7346 210.305H83.4023L123.792 361.042Z" fill="url(#paint19_linear_2321_1978)"/>
<path d="M295.135 361.042H284.803L325.193 210.305H335.525L295.135 361.042Z" fill="url(#paint20_linear_2321_1978)"/>
<path d="M376.226 361.042H386.558L346.168 210.305H335.836L376.226 361.042Z" fill="url(#paint21_linear_2321_1978)"/>
<path d="M287.817 198.142H321.15L295.92 122.631H272.576L287.817 198.142Z" fill="#3769A5"/>
<path d="M285.571 198.142H318.912L293.681 122.631H270.338L285.571 198.142Z" fill="#223762"/>
<path d="M319.77 195.154H262.195V198.144H319.77V195.154Z" fill="#3769A5"/>
<path d="M296.173 195.154H262.195V198.144H296.173V195.154Z" fill="#4C93F4"/>
<path d="M360.201 175.902H225.881C225.276 175.912 224.675 175.794 224.119 175.554C223.563 175.314 223.064 174.959 222.656 174.512C222.248 174.064 221.94 173.535 221.753 172.959C221.565 172.384 221.502 171.774 221.569 171.173L229.116 84.9369C229.247 83.6559 229.843 82.4675 230.791 81.5962C231.739 80.7248 232.974 80.2309 234.261 80.2077H368.565C369.17 80.1971 369.771 80.3156 370.327 80.5553C370.883 80.795 371.382 81.1503 371.79 81.5978C372.198 82.0452 372.506 82.5744 372.693 83.1501C372.881 83.7259 372.943 84.335 372.877 84.9369L365.33 171.173C365.199 172.451 364.605 173.637 363.661 174.508C362.716 175.379 361.485 175.875 360.201 175.902Z" fill="#223762"/>
<path d="M357.472 175.902H223.16C222.555 175.912 221.954 175.794 221.398 175.554C220.842 175.314 220.343 174.959 219.935 174.512C219.527 174.064 219.219 173.535 219.032 172.959C218.844 172.384 218.782 171.774 218.848 171.173L226.395 84.9369C226.526 83.6559 227.123 82.4675 228.071 81.5962C229.019 80.7248 230.253 80.2309 231.541 80.2077H365.844C366.449 80.1971 367.05 80.3156 367.606 80.5553C368.162 80.795 368.661 81.1503 369.069 81.5978C369.477 82.0452 369.785 82.5744 369.972 83.1501C370.16 83.7259 370.223 84.335 370.157 84.9369L362.65 171.189C362.514 172.472 361.912 173.661 360.957 174.53C360.003 175.399 358.763 175.887 357.472 175.902Z" fill="#4C93F4"/>
<path d="M356.002 174.595H224.86C224.254 174.605 223.653 174.487 223.097 174.247C222.541 174.008 222.043 173.652 221.635 173.205C221.227 172.757 220.919 172.228 220.731 171.652C220.544 171.077 220.481 170.468 220.547 169.866L227.898 86.2845C228.03 85.0036 228.626 83.8152 229.574 82.9438C230.522 82.0725 231.756 81.5785 233.044 81.5553H364.137C364.743 81.5447 365.343 81.6632 365.899 81.9029C366.455 82.1426 366.954 82.498 367.362 82.9454C367.77 83.3928 368.078 83.922 368.266 84.4978C368.453 85.0735 368.516 85.6826 368.45 86.2845L361.099 169.866C360.968 171.138 360.379 172.32 359.441 173.19C358.503 174.061 357.281 174.56 356.002 174.595Z" fill="#D6E3FA"/>
<path d="M357.057 174.595H226.004C225.527 174.603 225.054 174.51 224.616 174.322C224.177 174.133 223.784 173.853 223.463 173.501C223.141 173.148 222.899 172.731 222.751 172.278C222.603 171.824 222.554 171.344 222.606 170.87L230.096 85.2387C230.2 84.2247 230.674 83.2844 231.428 82.5975C232.181 81.9105 233.161 81.5249 234.18 81.5142H365.2C365.677 81.5055 366.15 81.5986 366.588 81.7873C367.026 81.9759 367.419 82.2557 367.741 82.6082C368.062 82.9606 368.305 83.3775 368.453 83.8311C368.601 84.2847 368.65 84.7646 368.598 85.2387L361.108 170.829C361.014 171.845 360.548 172.791 359.801 173.485C359.054 174.18 358.077 174.575 357.057 174.595Z" fill="#D6E3FA"/>
<path d="M222.687 169.865L230.038 86.2838C230.17 85.0029 230.766 83.8145 231.714 82.9432C232.662 82.0718 233.897 81.5779 235.184 81.5547H233.036C231.749 81.5779 230.514 82.0718 229.566 82.9432C228.618 83.8145 228.022 85.0029 227.89 86.2838L220.539 169.865C220.473 170.467 220.536 171.076 220.723 171.652C220.911 172.228 221.219 172.757 221.627 173.204C222.035 173.652 222.534 174.007 223.09 174.247C223.646 174.486 224.246 174.605 224.852 174.594H227C226.395 174.605 225.794 174.486 225.238 174.247C224.682 174.007 224.183 173.652 223.775 173.204C223.367 172.757 223.059 172.228 222.871 171.652C222.684 171.076 222.621 170.467 222.687 169.865Z" fill="#223762"/>
<path d="M219.976 158.234L218.817 171.474C218.758 172.042 218.82 172.616 218.999 173.159C219.178 173.701 219.471 174.199 219.857 174.619C220.243 175.04 220.714 175.374 221.238 175.599C221.763 175.825 222.33 175.936 222.9 175.926H357.604C358.852 175.901 360.048 175.422 360.969 174.579C361.889 173.735 362.47 172.585 362.603 171.344L363.746 158.275L219.976 158.234Z" fill="url(#paint22_linear_2321_1978)"/>
<path d="M292.603 164.638C292.651 164.15 292.769 163.671 292.955 163.217C292.499 162.957 291.984 162.819 291.46 162.816C289.426 162.816 287.613 164.719 287.376 167.072C287.139 169.424 288.65 171.327 290.643 171.327C291.471 171.274 292.265 170.977 292.924 170.472C293.582 169.967 294.076 169.279 294.343 168.493C293.715 168.084 293.217 167.503 292.909 166.82C292.601 166.137 292.495 165.379 292.603 164.638Z" fill="#D6E3FA"/>
<path d="M105.92 74.1387C109.445 75.0463 112.728 76.7195 115.533 79.0394L110.829 81.5387L117.29 80.6321C118.661 81.9942 119.867 83.513 120.883 85.157L112.274 87.6074L121.757 86.7089C121.929 87.0438 122.092 87.395 122.256 87.7462L112.618 92.3937L122.974 89.4615C123.211 90.0986 123.432 90.7438 123.62 91.4054C124.356 93.9981 124.665 96.6934 124.534 99.3854L115.386 100.472L124.42 100.79C124.42 101.011 124.371 101.239 124.347 101.46L116.489 102.685L124.175 102.546C123.859 104.311 123.352 106.037 122.664 107.692L116.693 107.815L121.684 109.767C120.605 111.814 119.244 113.701 117.641 115.37C112.952 94.9012 105.92 74.1387 105.92 74.1387Z" fill="url(#paint23_linear_2321_1978)"/>
<path d="M113.614 107.831L108.631 110.976C107.47 110.085 106.391 109.093 105.405 108.011L111.482 102.547L103.363 105.43C101.818 103.186 100.654 100.702 99.9162 98.0791C99.8591 97.8667 99.8101 97.6543 99.7611 97.442L108.133 94.0442L99.1975 94.5424C99.1076 93.8808 99.0505 93.211 99.0178 92.5494L107.545 88.6044L98.9769 91.4631C98.9668 89.6425 99.1585 87.8263 99.5487 86.0479L107.529 82.7808L99.9898 84.4225C100.31 83.3265 100.706 82.254 101.174 81.2125L106.549 79.3584L101.533 80.4448C102.661 78.1389 104.141 76.0226 105.92 74.1719C105.92 74.1719 112.952 94.9345 117.608 115.387C116.122 115.005 114.676 114.485 113.287 113.835L113.614 107.831Z" fill="url(#paint24_linear_2321_1978)"/>
<path d="M129.101 86.3418C123.644 89.2853 118.903 93.396 115.216 98.3811L124.045 100.546L112.994 101.73C111.311 104.524 109.962 107.507 108.976 110.617L124.225 111.066L108.167 113.516C108.02 114.145 107.898 114.782 107.783 115.427L125.663 119.078L107.309 118.539C107.179 119.683 107.081 120.834 107.048 122.011C106.911 126.577 107.524 131.135 108.861 135.504L124.445 133.495L109.637 137.758C109.768 138.118 109.899 138.477 110.046 138.828L123.547 137.595L110.789 140.543C112.049 143.313 113.608 145.936 115.436 148.368L125.368 146.106L117.944 151.398C120.573 154.315 123.597 156.85 126.929 158.929C126.128 123.366 129.101 86.3418 129.101 86.3418Z" fill="url(#paint25_linear_2321_1978)"/>
<path d="M130.432 144.863L139.939 147.984C141.482 146.039 142.849 143.962 144.023 141.776L131.69 135.315L146.343 136.696C147.961 132.383 148.855 127.832 148.989 123.227C148.989 122.851 148.989 122.484 148.989 122.116L133.732 119.992L148.712 117.093C148.581 115.966 148.393 114.855 148.172 113.752L132.433 110.787L147.797 111.939C147.051 108.943 145.975 106.039 144.587 103.281L130.048 101.28L143.182 100.757C142.205 99.0858 141.113 97.4838 139.915 95.9628L130.252 95.146L139 94.852C136.168 91.5258 132.837 88.6601 129.125 86.3574C129.125 86.3574 126.152 123.382 126.985 158.937C129.294 157.695 131.481 156.24 133.519 154.591L130.432 144.863Z" fill="url(#paint26_linear_2321_1978)"/>
<path d="M140.282 88.752C136.358 90.0198 132.759 92.13 129.737 94.935L134.237 97.9816L127.703 96.9361C126.098 98.6671 124.667 100.552 123.431 102.564L131.942 105.488L122.321 104.483C122.092 104.9 121.888 105.3 121.675 105.774L130.954 111.426L120.712 107.905C120.385 108.722 120.066 109.539 119.78 110.356C118.679 113.551 118 116.876 117.763 120.247L127.017 121.489L117.689 121.987C117.689 122.264 117.689 122.542 117.689 122.804L125.596 124.233L117.722 124.151C117.803 126.292 118.09 128.42 118.58 130.506L124.697 130.596L119.307 133.046C120.102 135.495 121.246 137.817 122.704 139.94C130.252 114.538 140.282 88.752 140.282 88.752Z" fill="url(#paint27_linear_2321_1978)"/>
<path d="M127.826 130.554L132.49 134.393C133.824 133.256 135.066 132.017 136.206 130.685L130.685 123.988L138.64 127.467C140.546 124.642 142.071 121.577 143.173 118.352C143.263 118.09 143.337 117.821 143.418 117.535L135.25 113.451L144.366 113.966C144.545 113.149 144.692 112.332 144.815 111.515L136.59 106.721L145.011 110.159C145.265 107.936 145.312 105.694 145.15 103.462L137.39 99.5576L144.938 101.404C144.749 100.064 144.476 98.7386 144.121 97.434L138.852 95.196L143.859 96.4783C143.056 93.7279 141.821 91.1226 140.2 88.7598C140.2 88.7598 130.17 114.546 122.623 139.923C124.233 139.417 125.79 138.755 127.271 137.946L127.826 130.554Z" fill="url(#paint28_linear_2321_1978)"/>
<path d="M107.528 106.549C103.909 109.67 101.02 113.549 99.0667 117.91L106.091 118.082L97.9232 120.81C97.1176 123.191 96.594 125.658 96.3631 128.161L107.953 125.972L96.2324 130.481C96.2324 130.979 96.2324 131.485 96.2324 131.983L110.338 131.771L96.3958 134.409C96.4856 135.291 96.6081 136.182 96.7715 137.072C97.4456 140.569 98.693 143.93 100.463 147.02L111.898 142.936L101.427 148.654C101.591 148.899 101.746 149.152 101.909 149.397L111.898 146.171L102.75 150.516C104.16 152.398 105.77 154.121 107.553 155.654L114.675 152.297L109.93 157.508C112.408 159.274 115.122 160.685 117.991 161.698C111.433 134.997 107.528 106.549 107.528 106.549Z" fill="url(#paint29_linear_2321_1978)"/>
<path d="M118.253 150.524L125.947 151.341C126.793 149.617 127.485 147.821 128.013 145.974L117.616 143.107L128.887 141.719C129.394 138.191 129.314 134.603 128.65 131.101C128.593 130.815 128.52 130.545 128.463 130.284L116.595 131.215L127.417 126.535C127.131 125.718 126.804 124.901 126.461 124.085L114.103 124.444L125.898 122.81C124.839 120.672 123.546 118.659 122.043 116.807L110.73 117.706L120.532 115.1C119.515 114.002 118.423 112.976 117.264 112.029L109.832 113.009L116.366 111.375C113.677 109.336 110.687 107.727 107.504 106.605C107.504 106.605 111.408 135.054 117.934 161.755C119.46 160.434 120.86 158.973 122.116 157.393L118.253 150.524Z" fill="url(#paint30_linear_2321_1978)"/>
<path d="M136.697 198.144H103.87L98.9941 155.598H141.573L136.697 198.144Z" fill="url(#paint31_linear_2321_1978)"/>
<path d="M98.9941 155.598L103.87 198.144H116.432L112.79 155.598H98.9941Z" fill="url(#paint32_linear_2321_1978)"/>
<path d="M143.231 154.379H97.3281V164.866H143.231V154.379Z" fill="#FFD46A"/>
<path d="M201.622 198.144H157.688L169.972 139.303H213.907L201.622 198.144Z" fill="#223762"/>
<path d="M198.787 198.144H154.061L166.565 139.303H211.292L198.787 198.144Z" fill="url(#paint33_linear_2321_1978)"/>
<path d="M195.922 192.898H159.158L169.441 144.545H206.197L195.922 192.898Z" fill="#3769A5"/>
<path d="M169.441 144.545L159.158 192.898H161.772L172.047 144.545H169.441Z" fill="#223762"/>
<path d="M206.898 171.328L211.905 198.143H201.205L206.898 171.328Z" fill="#223762"/>
<path d="M165.177 176.875L183.514 161.699L190.4 166.543L204.497 152.543L195.921 192.9H161.771L165.177 176.875Z" fill="#D6E3FA"/>
<path d="M182.705 154.935C182.166 157.704 179.617 159.95 176.987 159.95C174.357 159.95 172.716 157.704 173.255 154.935C173.794 152.166 176.342 149.92 178.972 149.92C181.602 149.92 183.244 152.166 182.705 154.935Z" fill="#D6E3FA"/>
<path d="M248.539 154.935H231.484L237.545 85.6797H254.591L248.539 154.935Z" fill="white"/>
<path d="M355.406 154.935H252.41L258.471 85.6797H361.467L355.406 154.935Z" fill="white"/>
<path d="M244.569 94.0041H238.182L238.745 87.625H245.124L244.569 94.0041Z" fill="#FFD46A"/>
<path d="M252.165 94.0041H245.777L246.341 87.625H252.72L252.165 94.0041Z" fill="#FF9F5B"/>
<path d="M243.858 101.706H237.471L238.034 95.3184H244.413L243.858 101.706Z" fill="#FFD46A"/>
<path d="M251.453 101.706H245.074L245.63 95.3184H252.009L251.453 101.706Z" fill="#FF9F5B"/>
<path d="M243.147 109.401H236.768L237.323 103.021H243.702L243.147 109.401Z" fill="#FF9F5B"/>
<path d="M250.744 109.401H244.365L244.921 103.021H251.3L250.744 109.401Z" fill="#FFD46A"/>
<path d="M350.09 106.369H344.617L345.091 100.889H350.572L350.09 106.369Z" fill="#FFD46A"/>
<path d="M356.615 106.369H351.135L351.617 100.889H357.089L356.615 106.369Z" fill="#FF9F5B"/>
<path d="M349.485 112.977H344.004L344.486 107.496H349.958L349.485 112.977Z" fill="#FFD46A"/>
<path d="M356.002 112.977H350.521L351.003 107.496H356.484L356.002 112.977Z" fill="#FF9F5B"/>
<path d="M348.871 119.584H343.398L343.872 114.104H349.353L348.871 119.584Z" fill="#FF9F5B"/>
<path d="M355.399 119.584H349.918L350.4 114.104H355.872L355.399 119.584Z" fill="#FFD46A"/>
<path d="M337.854 148.548H266.99L271.156 100.889H342.028L337.854 148.548Z" fill="#4C93F4"/>
<path d="M358.819 96.5352H259.842L260.569 88.2285H359.538L358.819 96.5352Z" fill="#D6E3FA"/>
<path d="M271.156 100.889L337.854 148.548H266.99L271.156 100.889Z" fill="#D6E3FA"/>
<path d="M310.433 193.969H288.977V198.143H310.433V193.969Z" fill="#3769A5"/>
<path d="M289.655 195.154H221.119V198.144H289.655V195.154Z" fill="#4C93F4"/>
<path d="M310.327 194.45L289.654 198.085V195.144L310.327 191.51V194.45Z" fill="#223762"/>
<path d="M241.792 191.51H310.328L289.655 195.144H221.119L241.792 191.51Z" fill="#D6E3FA"/>
<path d="M310.433 198.142C311.769 198.142 312.851 196.657 312.851 194.826C312.851 192.994 311.769 191.51 310.433 191.51C309.098 191.51 308.016 192.994 308.016 194.826C308.016 196.657 309.098 198.142 310.433 198.142Z" fill="#223762"/>
<path d="M345.679 198.143C345.882 198.145 346.082 198.09 346.256 197.986C346.43 197.882 346.573 197.733 346.668 197.553C346.763 197.374 346.807 197.172 346.796 196.969C346.784 196.767 346.717 196.571 346.602 196.404C345.038 194.217 342.975 192.435 340.585 191.205C338.194 189.975 335.544 189.334 332.856 189.334C330.167 189.334 327.518 189.975 325.127 191.205C322.736 192.435 320.673 194.217 319.109 196.404C318.994 196.571 318.927 196.767 318.916 196.969C318.904 197.172 318.948 197.374 319.044 197.553C319.139 197.733 319.281 197.882 319.455 197.986C319.63 198.09 319.829 198.145 320.032 198.143H345.679Z" fill="#4C93F4"/>
<path d="M330.853 195.504C331.886 193.278 333.264 191.23 334.937 189.435C334.241 189.349 333.54 189.305 332.838 189.305C330.15 189.302 327.5 189.942 325.108 191.171C322.717 192.4 320.655 194.182 319.092 196.37C318.977 196.537 318.91 196.733 318.898 196.935C318.887 197.138 318.931 197.34 319.026 197.519C319.121 197.699 319.264 197.849 319.438 197.953C319.612 198.057 319.812 198.111 320.015 198.11H331.776C330.878 198.142 330.331 196.623 330.853 195.504Z" fill="#223762"/>
<path d="M235.307 329.399C237.743 329.399 239.718 327.425 239.718 324.989C239.718 322.553 237.743 320.578 235.307 320.578C232.871 320.578 230.896 322.553 230.896 324.989C230.896 327.425 232.871 329.399 235.307 329.399Z" fill="#223762"/>
<path d="M382.613 35.3828H346.773C345.884 35.3828 345.164 36.1032 345.164 36.9919V64.1662C345.164 65.0548 345.884 65.7752 346.773 65.7752H382.613C383.502 65.7752 384.223 65.0548 384.223 64.1662V36.9919C384.223 36.1032 383.502 35.3828 382.613 35.3828Z" fill="#223762"/>
<path d="M381.453 35.3828H345.613C344.724 35.3828 344.004 36.1032 344.004 36.9919V64.1662C344.004 65.0548 344.724 65.7752 345.613 65.7752H381.453C382.342 65.7752 383.062 65.0548 383.062 64.1662V36.9919C383.062 36.1032 382.342 35.3828 381.453 35.3828Z" fill="url(#paint34_linear_2321_1978)"/>
<path d="M345.516 37.7598L363.534 54.2261L381.233 37.7598" stroke="#112244" stroke-width="0.5" stroke-linecap="round" stroke-linejoin="round"/>
<path d="M345.605 42.7756C349.362 42.7756 352.408 39.4881 352.408 35.4327C352.408 31.3774 349.362 28.0898 345.605 28.0898C341.847 28.0898 338.801 31.3774 338.801 35.4327C338.801 39.4881 341.847 42.7756 345.605 42.7756Z" fill="#FF9F5B"/>
<path d="M344.616 42.7756C348.374 42.7756 351.42 39.4881 351.42 35.4327C351.42 31.3774 348.374 28.0898 344.616 28.0898C340.859 28.0898 337.812 31.3774 337.812 35.4327C337.812 39.4881 340.859 42.7756 344.616 42.7756Z" fill="#FFD46A"/>
<path d="M344.934 30.6055H344.289C343.919 30.6055 343.619 30.9053 343.619 31.2752V39.5819C343.619 39.9518 343.919 40.2517 344.289 40.2517H344.934C345.304 40.2517 345.604 39.9518 345.604 39.5819V31.2752C345.604 30.9053 345.304 30.6055 344.934 30.6055Z" fill="white"/>
<path d="M221.96 11.7949H205.854V53.075H233.64V23.7853L221.96 11.7949Z" fill="url(#paint35_linear_2321_1978)"/>
<path d="M223.651 59.1512H195.855V17.8711H211.971L223.651 29.8696V59.1512Z" fill="url(#paint36_linear_2321_1978)"/>
<path d="M211.971 17.8711V29.8696H223.651L211.971 17.8711Z" fill="white"/>
<path d="M209.684 24.666H199.58V28.0883H209.684V24.666Z" fill="#EAF1FC"/>
<path d="M219.877 31.6914H199.58V35.1137H219.877V31.6914Z" fill="#EAF1FC"/>
<path d="M219.877 38.543H199.58V41.9653H219.877V38.543Z" fill="#EAF1FC"/>
<path d="M219.877 45.3887H199.58V48.811H219.877V45.3887Z" fill="#EAF1FC"/>
<path d="M219.877 52.2422H199.58V55.6645H219.877V52.2422Z" fill="#EAF1FC"/>
<path d="M320.26 0H295.487C294.588 0 293.726 0.357122 293.09 0.992804C292.455 1.62848 292.098 2.49065 292.098 3.38964V18.6471C292.1 19.5454 292.458 20.4064 293.093 21.0416C293.728 21.6768 294.589 22.0346 295.487 22.0368H300.894L305.999 29.0121H307.87L314.845 22.0368H320.252C321.152 22.0368 322.015 21.6799 322.652 21.0445C323.289 20.409 323.648 19.5469 323.65 18.6471V3.39781C323.651 2.95199 323.564 2.51034 323.394 2.09814C323.224 1.68595 322.975 1.31131 322.66 0.995689C322.345 0.680066 321.971 0.429658 321.559 0.258802C321.148 0.0879464 320.706 -1.29429e-06 320.26 0Z" fill="url(#paint37_linear_2321_1978)"/>
<path d="M318.389 0H293.616C292.717 0 291.855 0.357122 291.219 0.992804C290.584 1.62848 290.227 2.49065 290.227 3.38964V18.6471C290.229 19.5454 290.587 20.4064 291.222 21.0416C291.857 21.6768 292.718 22.0346 293.616 22.0368H299.023L305.999 29.0121L312.974 22.0368H318.381C319.281 22.0368 320.144 21.6799 320.781 21.0445C321.418 20.409 321.777 19.5469 321.779 18.6471V3.39781C321.78 2.95199 321.693 2.51034 321.523 2.09814C321.353 1.68595 321.104 1.31131 320.789 0.995689C320.474 0.680066 320.1 0.429658 319.688 0.258802C319.276 0.0879464 318.835 -1.29429e-06 318.389 0Z" fill="url(#paint38_linear_2321_1978)"/>
<path d="M305.999 18.0664C309.315 18.0664 312.003 15.0714 312.003 11.3769C312.003 7.68247 309.315 4.6875 305.999 4.6875C302.684 4.6875 299.996 7.68247 299.996 11.3769C299.996 15.0714 302.684 18.0664 305.999 18.0664Z" fill="url(#paint39_linear_2321_1978)"/>
<path d="M268.002 34.0918H259.956C256.072 34.0918 252.924 37.2403 252.924 41.1243V49.1696C252.924 53.0535 256.072 56.2021 259.956 56.2021H268.002C271.886 56.2021 275.034 53.0535 275.034 49.1696V41.1243C275.034 37.2403 271.886 34.0918 268.002 34.0918Z" fill="url(#paint40_linear_2321_1978)"/>
<path d="M268.214 34.0918H256.494C253.625 34.0918 251.299 36.4176 251.299 39.2865V51.0073C251.299 53.8763 253.625 56.2021 256.494 56.2021H268.214C271.083 56.2021 273.409 53.8763 273.409 51.0073V39.2865C273.409 36.4176 271.083 34.0918 268.214 34.0918Z" fill="url(#paint41_linear_2321_1978)"/>
<path d="M264.597 38.3398H260.121C257.595 38.3398 255.547 40.3877 255.547 42.9138V47.3898C255.547 49.9159 257.595 51.9637 260.121 51.9637H264.597C267.123 51.9637 269.171 49.9159 269.171 47.3898V42.9138C269.171 40.3877 267.123 38.3398 264.597 38.3398Z" fill="#D6E3FA"/>
<path d="M263.568 41.4766H261.15C259.788 41.4766 258.684 42.5809 258.684 43.9432V46.3609C258.684 47.7232 259.788 48.8276 261.15 48.8276H263.568C264.93 48.8276 266.035 47.7232 266.035 46.3609V43.9432C266.035 42.5809 264.93 41.4766 263.568 41.4766Z" fill="url(#paint42_linear_2321_1978)"/>
<path d="M189.542 80.9922H178.638C174.46 80.9922 171.074 84.3784 171.074 88.5556V99.4596C171.074 103.637 174.46 107.023 178.638 107.023H189.542C193.719 107.023 197.105 103.637 197.105 99.4596V88.5556C197.105 84.3784 193.719 80.9922 189.542 80.9922Z" fill="url(#paint43_linear_2321_1978)"/>
<path d="M190 80.9922H174.359C171.49 80.9922 169.164 83.3179 169.164 86.1869V101.828C169.164 104.697 171.49 107.023 174.359 107.023H190C192.869 107.023 195.195 104.697 195.195 101.828V86.1869C195.195 83.3179 192.869 80.9922 190 80.9922Z" fill="url(#paint44_linear_2321_1978)"/>
<path d="M185.001 85.9902H179.357C176.488 85.9902 174.162 88.316 174.162 91.185V96.8289C174.162 99.6979 176.488 102.024 179.357 102.024H185.001C187.87 102.024 190.196 99.6979 190.196 96.8289V91.185C190.196 88.316 187.87 85.9902 185.001 85.9902Z" fill="#D6E3FA"/>
<path d="M183.595 89.6738H180.761C179.155 89.6738 177.854 90.9757 177.854 92.5816V95.4158C177.854 97.0217 179.155 98.3235 180.761 98.3235H183.595C185.201 98.3235 186.503 97.0217 186.503 95.4158V92.5816C186.503 90.9757 185.201 89.6738 183.595 89.6738Z" fill="url(#paint45_linear_2321_1978)"/>
<path d="M385.332 55.8359C385.332 55.8359 403.873 80.078 396.767 91.4639C389.661 102.85 380.758 92.2807 379.746 88.5072C378.733 84.7337 382.376 79.5226 388.461 78.8202C394.546 78.1177 400.5 97.696 393.059 106.762C385.618 115.829 372.754 112.096 372.754 112.096" stroke="#112244" stroke-width="0.5" stroke-linecap="round" stroke-linejoin="round" stroke-dasharray="3 3"/>
<path d="M395.061 105.561C396.78 105.561 398.173 104.271 398.173 102.678C398.173 101.086 396.78 99.7949 395.061 99.7949C393.342 99.7949 391.949 101.086 391.949 102.678C391.949 104.271 393.342 105.561 395.061 105.561Z" fill="#FFD46A"/>
<path d="M262.358 58.1875C261.795 60.3069 261.711 62.5252 262.113 64.6811C262.514 66.8371 263.39 68.8766 264.678 70.6516C269.089 76.5814 278.351 77.341 278.351 77.341" stroke="#112244" stroke-width="0.5" stroke-linecap="round" stroke-linejoin="round" stroke-dasharray="3 3"/>
<path d="M209.684 62.1895C209.684 62.1895 207.299 67.9641 205.829 78.7048C204.358 89.4454 222.564 94.7463 222.564 94.7463" stroke="#112244" stroke-width="0.5" stroke-linecap="round" stroke-linejoin="round" stroke-dasharray="3 3"/>
<path d="M182.141 109.4C182.141 109.4 180.459 114.129 185.017 122.631C189.574 131.134 197.481 133.25 202.798 129.166C208.115 125.082 208.213 111.687 205.73 108.803C203.247 105.92 201.646 107.586 201.164 112.299C200.682 117.012 210.239 125.939 215.107 128.088C219.975 130.236 220.489 128.904 220.489 128.904" stroke="#112244" stroke-width="0.5" stroke-linecap="round" stroke-linejoin="round" stroke-dasharray="3 3"/>
<path d="M263.151 70.3743C264.743 70.3743 266.034 68.981 266.034 67.2623C266.034 65.5437 264.743 64.1504 263.151 64.1504C261.558 64.1504 260.268 65.5437 260.268 67.2623C260.268 68.981 261.558 70.3743 263.151 70.3743Z" fill="#FFD46A"/>
<path d="M212.641 93.2688C214.233 93.2688 215.524 91.8755 215.524 90.1569C215.524 88.4382 214.233 87.0449 212.641 87.0449C211.049 87.0449 209.758 88.4382 209.758 90.1569C209.758 91.8755 211.049 93.2688 212.641 93.2688Z" fill="#FFD46A"/>
<path d="M206.873 116.089C208.466 116.089 209.757 114.696 209.757 112.977C209.757 111.259 208.466 109.865 206.873 109.865C205.281 109.865 203.99 111.259 203.99 112.977C203.99 114.696 205.281 116.089 206.873 116.089Z" fill="#FFD46A"/>
<path d="M306.939 31.6914C306.939 31.6914 306.318 39.7285 315.286 42.8813C324.255 46.0341 336.106 49.9873 336.866 59.8622C337.625 69.7371 326.248 77.3413 326.248 77.3413" stroke="#112244" stroke-width="0.5" stroke-linecap="round" stroke-linejoin="round" stroke-dasharray="3 3"/>
<path d="M310.27 42.7746C311.862 42.7746 313.153 41.3814 313.153 39.6627C313.153 37.944 311.862 36.5508 310.27 36.5508C308.678 36.5508 307.387 37.944 307.387 39.6627C307.387 41.3814 308.678 42.7746 310.27 42.7746Z" fill="#FFD46A"/>
<path d="M173.803 169.728L179.986 172.717L185.793 168.16L189.109 169.981L197.922 161.699L201.059 168.723L204.497 152.543L190.4 166.543L183.514 161.699L173.803 169.728Z" fill="white"/>
<path d="M163.65 184.036H169.555V178.923H171.606V184.036H179.357L182.305 186.985H188.472L192.507 182.95V178.008H195.39L197.783 175.615H199.588L195.921 192.898H161.771L163.65 184.036Z" fill="url(#paint46_linear_2321_1978)"/>
<path d="M372.453 241.792C379.975 260.847 392.529 275.549 405.941 282.901C387.408 261.966 368.704 188.971 368.704 188.971C363.95 203.428 364.849 222.712 372.453 241.792Z" fill="url(#paint47_linear_2321_1978)"/>
<path d="M402.166 229.998C394.602 210.918 382.048 196.249 368.678 188.914C368.678 188.914 387.39 261.942 405.915 282.844C410.628 268.362 409.729 249.078 402.166 229.998Z" fill="url(#paint48_linear_2321_1978)"/>
<path d="M402.166 229.998C394.602 210.918 382.048 196.249 368.678 188.914C368.678 188.914 387.39 261.942 405.915 282.844C410.628 268.362 409.729 249.078 402.166 229.998Z" fill="url(#paint49_linear_2321_1978)"/>
<path d="M390.497 247.005C391.458 246.602 391.656 244.889 390.94 243.179C390.223 241.469 388.863 240.409 387.902 240.812C386.941 241.215 386.743 242.927 387.459 244.637C388.176 246.347 389.535 247.407 390.497 247.005Z" fill="url(#paint50_linear_2321_1978)"/>
<path d="M402.622 248.956C403.583 248.553 403.781 246.84 403.065 245.13C402.348 243.42 400.988 242.361 400.027 242.763C399.066 243.166 398.868 244.878 399.584 246.588C400.301 248.298 401.66 249.358 402.622 248.956Z" fill="url(#paint51_linear_2321_1978)"/>
<path d="M396.376 246.37C397.078 244.655 396.866 242.944 395.902 242.549C394.937 242.154 393.586 243.225 392.884 244.94C392.181 246.656 392.393 248.367 393.357 248.762C394.322 249.157 395.673 248.086 396.376 246.37Z" fill="url(#paint52_linear_2321_1978)"/>
<path d="M397.368 252.859C398.07 251.143 397.858 249.432 396.894 249.037C395.93 248.642 394.578 249.713 393.876 251.429C393.173 253.144 393.385 254.855 394.35 255.25C395.314 255.645 396.665 254.574 397.368 252.859Z" fill="url(#paint53_linear_2321_1978)"/>
<path d="M403.339 263.318C404.303 260.964 404.016 258.617 402.696 258.077C401.377 257.537 399.526 259.008 398.562 261.362C397.598 263.716 397.886 266.063 399.205 266.603C400.524 267.143 402.375 265.673 403.339 263.318Z" fill="url(#paint54_linear_2321_1978)"/>
<path d="M406.104 271.315C406.203 268.773 405.129 266.667 403.705 266.611C402.28 266.556 401.045 268.571 400.946 271.114C400.846 273.656 401.92 275.762 403.345 275.818C404.769 275.873 406.004 273.858 406.104 271.315Z" fill="url(#paint55_linear_2321_1978)"/>
<path d="M337.389 109.898H273.721L274.186 104.557H337.854L337.389 109.898Z" fill="white"/>
<path d="M336.432 118.205H272.756L273.23 112.863H336.898L336.432 118.205Z" fill="white"/>
<path d="M336.106 127.213H272.438L272.903 121.871H336.579L336.106 127.213Z" fill="white"/>
<path d="M471.577 370.009H0L32.369 361.041H441.723L471.577 370.009Z" fill="url(#paint56_linear_2321_1978)"/>
<path opacity="0.45" d="M344.07 162.775H325.365V175.926H344.07V162.775Z" fill="url(#paint57_linear_2321_1978)"/>
<path d="M319.777 178.654L322.628 177.837C325.478 177.02 325.364 171.09 325.364 171.09V161.199H344.068V171.09C344.068 171.09 344.183 177.012 341.332 177.837L338.482 178.654H319.777Z" fill="url(#paint58_linear_2321_1978)"/>
<defs>
<linearGradient id="paint0_linear_2321_1978" x1="400.885" y1="247.991" x2="400.885" y2="206.343" gradientUnits="userSpaceOnUse">
<stop stop-color="#3769A5"/>
<stop offset="1" stop-color="#08448B"/>
</linearGradient>
<linearGradient id="paint1_linear_2321_1978" x1="399.881" y1="245.859" x2="438.776" y2="245.859" gradientUnits="userSpaceOnUse">
<stop stop-color="#223762"/>
<stop offset="1" stop-color="#041B48"/>
</linearGradient>
<linearGradient id="paint2_linear_2321_1978" x1="14867.7" y1="18663.5" x2="11181" y2="21201.7" gradientUnits="userSpaceOnUse">
<stop stop-color="#223762"/>
<stop offset="1" stop-color="#041B48"/>
</linearGradient>
<linearGradient id="paint3_linear_2321_1978" x1="10317.2" y1="42985.7" x2="10856.3" y2="42985.7" gradientUnits="userSpaceOnUse">
<stop stop-color="#3769A5"/>
<stop offset="1" stop-color="#08448B"/>
</linearGradient>
<linearGradient id="paint4_linear_2321_1978" x1="427.104" y1="115.786" x2="388.813" y2="289.63" gradientUnits="userSpaceOnUse">
<stop stop-color="#4C93F4"/>
<stop offset="1" stop-color="#0B63DA"/>
</linearGradient>
<linearGradient id="paint5_linear_2321_1978" x1="22053.3" y1="60845.7" x2="22053.3" y2="53159.7" gradientUnits="userSpaceOnUse">
<stop stop-color="#3769A5"/>
<stop offset="1" stop-color="#08448B"/>
</linearGradient>
<linearGradient id="paint6_linear_2321_1978" x1="22592.6" y1="24122.2" x2="17829.9" y2="28205" gradientUnits="userSpaceOnUse">
<stop stop-color="#3769A5"/>
<stop offset="1" stop-color="#08448B"/>
</linearGradient>
<linearGradient id="paint7_linear_2321_1978" x1="471.985" y1="304.635" x2="389.319" y2="341.512" gradientUnits="userSpaceOnUse">
<stop stop-color="#FF9F5B"/>
<stop offset="1" stop-color="#E5670E"/>
</linearGradient>
<linearGradient id="paint8_linear_2321_1978" x1="14748.6" y1="31198.9" x2="14336.5" y2="31198.9" gradientUnits="userSpaceOnUse">
<stop stop-color="#FF9F5B"/>
<stop offset="1" stop-color="#E5670E"/>
</linearGradient>
<linearGradient id="paint9_linear_2321_1978" x1="2911.52" y1="2781.31" x2="2860.04" y2="2857.67" gradientUnits="userSpaceOnUse">
<stop stop-color="#4C93F4"/>
<stop offset="1" stop-color="#0B63DA"/>
</linearGradient>
<linearGradient id="paint10_linear_2321_1978" x1="4500.58" y1="2509.91" x2="4449.48" y2="2543.12" gradientUnits="userSpaceOnUse">
<stop stop-color="#4C93F4"/>
<stop offset="1" stop-color="#0B63DA"/>
</linearGradient>
<linearGradient id="paint11_linear_2321_1978" x1="6302.66" y1="3485.78" x2="6232.59" y2="3531.33" gradientUnits="userSpaceOnUse">
<stop stop-color="#4C93F4"/>
<stop offset="1" stop-color="#0B63DA"/>
</linearGradient>
<linearGradient id="paint12_linear_2321_1978" x1="7046.84" y1="3251.97" x2="6996.6" y2="3318.76" gradientUnits="userSpaceOnUse">
<stop stop-color="#4C93F4"/>
<stop offset="1" stop-color="#0B63DA"/>
</linearGradient>
<linearGradient id="paint13_linear_2321_1978" x1="2212.71" y1="7498.27" x2="1627.79" y2="7319.13" gradientUnits="userSpaceOnUse">
<stop stop-color="#4C93F4"/>
<stop offset="1" stop-color="#0B63DA"/>
</linearGradient>
<linearGradient id="paint14_linear_2321_1978" x1="7299.22" y1="6181.82" x2="6501.85" y2="5105.3" gradientUnits="userSpaceOnUse">
<stop stop-color="#4C93F4"/>
<stop offset="1" stop-color="#0B63DA"/>
</linearGradient>
<linearGradient id="paint15_linear_2321_1978" x1="326.811" y1="198.673" x2="-92.9986" y2="222.581" gradientUnits="userSpaceOnUse">
<stop stop-color="#A7BDE5"/>
<stop offset="1" stop-color="#2F66CB"/>
</linearGradient>
<linearGradient id="paint16_linear_2321_1978" x1="3617.41" y1="67463.1" x2="3617.41" y2="47888.4" gradientUnits="userSpaceOnUse">
<stop stop-color="#A7BDE5"/>
<stop offset="1" stop-color="#2F66CB"/>
</linearGradient>
<linearGradient id="paint17_linear_2321_1978" x1="6121.17" y1="60845.7" x2="6121.17" y2="53159.7" gradientUnits="userSpaceOnUse">
<stop stop-color="#3769A5"/>
<stop offset="1" stop-color="#08448B"/>
</linearGradient>
<linearGradient id="paint18_linear_2321_1978" x1="9341.31" y1="60845.7" x2="9341.31" y2="53159.7" gradientUnits="userSpaceOnUse">
<stop stop-color="#3769A5"/>
<stop offset="1" stop-color="#08448B"/>
</linearGradient>
<linearGradient id="paint19_linear_2321_1978" x1="6837.56" y1="67463.1" x2="6837.56" y2="47888.4" gradientUnits="userSpaceOnUse">
<stop stop-color="#A7BDE5"/>
<stop offset="1" stop-color="#2F66CB"/>
</linearGradient>
<linearGradient id="paint20_linear_2321_1978" x1="19546" y1="67463.1" x2="19546" y2="47888.4" gradientUnits="userSpaceOnUse">
<stop stop-color="#A7BDE5"/>
<stop offset="1" stop-color="#2F66CB"/>
</linearGradient>
<linearGradient id="paint21_linear_2321_1978" x1="22766.2" y1="67463.1" x2="22766.2" y2="47888.4" gradientUnits="userSpaceOnUse">
<stop stop-color="#A7BDE5"/>
<stop offset="1" stop-color="#2F66CB"/>
</linearGradient>
<linearGradient id="paint22_linear_2321_1978" x1="61359.2" y1="5190.05" x2="57971.4" y2="12876.9" gradientUnits="userSpaceOnUse">
<stop stop-color="#3769A5"/>
<stop offset="1" stop-color="#08448B"/>
</linearGradient>
<linearGradient id="paint23_linear_2321_1978" x1="2762.62" y1="8475.39" x2="1558.89" y2="9777.63" gradientUnits="userSpaceOnUse">
<stop stop-color="#223762"/>
<stop offset="1" stop-color="#041B48"/>
</linearGradient>
<linearGradient id="paint24_linear_2321_1978" x1="2718.7" y1="8439.54" x2="1515.42" y2="9740.94" gradientUnits="userSpaceOnUse">
<stop stop-color="#223762"/>
<stop offset="1" stop-color="#041B48"/>
</linearGradient>
<linearGradient id="paint25_linear_2321_1978" x1="3757.05" y1="15570.7" x2="1734.53" y2="17042.1" gradientUnits="userSpaceOnUse">
<stop stop-color="#223762"/>
<stop offset="1" stop-color="#041B48"/>
</linearGradient>
<linearGradient id="paint26_linear_2321_1978" x1="4023.48" y1="15889" x2="1998.9" y2="17367.4" gradientUnits="userSpaceOnUse">
<stop stop-color="#223762"/>
<stop offset="1" stop-color="#041B48"/>
</linearGradient>
<linearGradient id="paint27_linear_2321_1978" x1="3786.43" y1="11576.3" x2="1733.82" y2="13320.6" gradientUnits="userSpaceOnUse">
<stop stop-color="#4C93F4"/>
<stop offset="1" stop-color="#0B63DA"/>
</linearGradient>
<linearGradient id="paint28_linear_2321_1978" x1="4400.03" y1="10989.1" x2="1935.72" y2="12088.1" gradientUnits="userSpaceOnUse">
<stop stop-color="#3769A5"/>
<stop offset="1" stop-color="#08448B"/>
</linearGradient>
<linearGradient id="paint29_linear_2321_1978" x1="3526.98" y1="12348" x2="1368.24" y2="13987.9" gradientUnits="userSpaceOnUse">
<stop stop-color="#4C93F4"/>
<stop offset="1" stop-color="#0B63DA"/>
</linearGradient>
<linearGradient id="paint30_linear_2321_1978" x1="4195.45" y1="11812" x2="1746.01" y2="12784.7" gradientUnits="userSpaceOnUse">
<stop stop-color="#3769A5"/>
<stop offset="1" stop-color="#08448B"/>
</linearGradient>
<linearGradient id="paint31_linear_2321_1978" x1="7305.88" y1="12599.5" x2="5680.5" y2="14078.4" gradientUnits="userSpaceOnUse">
<stop stop-color="#FF9F5B"/>
<stop offset="1" stop-color="#E5670E"/>
</linearGradient>
<linearGradient id="paint32_linear_2321_1978" x1="2952.77" y1="12336.6" x2="1884.37" y2="12734.7" gradientUnits="userSpaceOnUse">
<stop stop-color="#FF9F5B"/>
<stop offset="1" stop-color="#E5670E"/>
</linearGradient>
<linearGradient id="paint33_linear_2321_1978" x1="15050.9" y1="15415" x2="11572.2" y2="19626.8" gradientUnits="userSpaceOnUse">
<stop stop-color="#4C93F4"/>
<stop offset="1" stop-color="#0B63DA"/>
</linearGradient>
<linearGradient id="paint34_linear_2321_1978" x1="18827.6" y1="4101.58" x2="17251.6" y2="6028.15" gradientUnits="userSpaceOnUse">
<stop stop-color="#4C93F4"/>
<stop offset="1" stop-color="#0B63DA"/>
</linearGradient>
<linearGradient id="paint35_linear_2321_1978" x1="7208.98" y1="5722.9" x2="8154.29" y2="5722.9" gradientUnits="userSpaceOnUse">
<stop stop-color="#223762"/>
<stop offset="1" stop-color="#041B48"/>
</linearGradient>
<linearGradient id="paint36_linear_2321_1978" x1="7038.72" y1="6707.31" x2="7837.82" y2="5883.09" gradientUnits="userSpaceOnUse">
<stop stop-color="#4C93F4"/>
<stop offset="1" stop-color="#0B63DA"/>
</linearGradient>
<linearGradient id="paint37_linear_2321_1978" x1="11575.8" y1="3377.29" x2="12795" y2="3377.29" gradientUnits="userSpaceOnUse">
<stop stop-color="#223762"/>
<stop offset="1" stop-color="#041B48"/>
</linearGradient>
<linearGradient id="paint38_linear_2321_1978" x1="11501.4" y1="3377.29" x2="12720.6" y2="3377.29" gradientUnits="userSpaceOnUse">
<stop stop-color="#4C93F4"/>
<stop offset="1" stop-color="#0B63DA"/>
</linearGradient>
<linearGradient id="paint39_linear_2321_1978" x1="4709.92" y1="1510.75" x2="4886.54" y2="1510.75" gradientUnits="userSpaceOnUse">
<stop stop-color="#223762"/>
<stop offset="1" stop-color="#041B48"/>
</linearGradient>
<linearGradient id="paint40_linear_2321_1978" x1="7099.59" y1="3437.3" x2="7698.34" y2="3437.3" gradientUnits="userSpaceOnUse">
<stop stop-color="#223762"/>
<stop offset="1" stop-color="#041B48"/>
</linearGradient>
<linearGradient id="paint41_linear_2321_1978" x1="7053.96" y1="3437.3" x2="7652.7" y2="3437.3" gradientUnits="userSpaceOnUse">
<stop stop-color="#4C93F4"/>
<stop offset="1" stop-color="#0B63DA"/>
</linearGradient>
<linearGradient id="paint42_linear_2321_1978" x1="2586.83" y1="1172.95" x2="2652.99" y2="1172.95" gradientUnits="userSpaceOnUse">
<stop stop-color="#223762"/>
<stop offset="1" stop-color="#041B48"/>
</linearGradient>
<linearGradient id="paint43_linear_2321_1978" x1="5623.23" y1="5644.56" x2="6452.83" y2="5644.56" gradientUnits="userSpaceOnUse">
<stop stop-color="#223762"/>
<stop offset="1" stop-color="#041B48"/>
</linearGradient>
<linearGradient id="paint44_linear_2321_1978" x1="5560.4" y1="5644.56" x2="6390.01" y2="5644.56" gradientUnits="userSpaceOnUse">
<stop stop-color="#4C93F4"/>
<stop offset="1" stop-color="#0B63DA"/>
</linearGradient>
<linearGradient id="paint45_linear_2321_1978" x1="2061.33" y1="1938.38" x2="2152.93" y2="1938.38" gradientUnits="userSpaceOnUse">
<stop stop-color="#223762"/>
<stop offset="1" stop-color="#041B48"/>
</linearGradient>
<linearGradient id="paint46_linear_2321_1978" x1="9096.03" y1="5754.42" x2="8172.98" y2="6312.67" gradientUnits="userSpaceOnUse">
<stop stop-color="#4C93F4"/>
<stop offset="1" stop-color="#0B63DA"/>
</linearGradient>
<linearGradient id="paint47_linear_2321_1978" x1="18476.6" y1="30622.2" x2="23212.4" y2="38368.9" gradientUnits="userSpaceOnUse">
<stop stop-color="#3769A5"/>
<stop offset="1" stop-color="#08448B"/>
</linearGradient>
<linearGradient id="paint48_linear_2321_1978" x1="18964.2" y1="30317.8" x2="23701.4" y2="38060.4" gradientUnits="userSpaceOnUse">
<stop stop-color="#4C93F4"/>
<stop offset="1" stop-color="#0B63DA"/>
</linearGradient>
<linearGradient id="paint49_linear_2321_1978" x1="18808.1" y1="28916.4" x2="25598.3" y2="40016.3" gradientUnits="userSpaceOnUse">
<stop stop-color="#4C93F4"/>
<stop offset="1" stop-color="#0B63DA"/>
</linearGradient>
<linearGradient id="paint50_linear_2321_1978" x1="3144.78" y1="3593.03" x2="3134.1" y2="3646.79" gradientUnits="userSpaceOnUse">
<stop stop-color="#4C93F4"/>
<stop offset="1" stop-color="#0B63DA"/>
</linearGradient>
<linearGradient id="paint51_linear_2321_1978" x1="3221.77" y1="3620.69" x2="3211.16" y2="3674.48" gradientUnits="userSpaceOnUse">
<stop stop-color="#4C93F4"/>
<stop offset="1" stop-color="#0B63DA"/>
</linearGradient>
<linearGradient id="paint52_linear_2321_1978" x1="3899.9" y1="2146.16" x2="3879.43" y2="2176.18" gradientUnits="userSpaceOnUse">
<stop stop-color="#4C93F4"/>
<stop offset="1" stop-color="#0B63DA"/>
</linearGradient>
<linearGradient id="paint53_linear_2321_1978" x1="3914.15" y1="2187.15" x2="3893.68" y2="2217.17" gradientUnits="userSpaceOnUse">
<stop stop-color="#4C93F4"/>
<stop offset="1" stop-color="#0B63DA"/>
</linearGradient>
<linearGradient id="paint54_linear_2321_1978" x1="5416.46" y1="2888.02" x2="5388.48" y2="2929.12" gradientUnits="userSpaceOnUse">
<stop stop-color="#4C93F4"/>
<stop offset="1" stop-color="#0B63DA"/>
</linearGradient>
<linearGradient id="paint55_linear_2321_1978" x1="5381.32" y1="2331.94" x2="5369.15" y2="2380.11" gradientUnits="userSpaceOnUse">
<stop stop-color="#4C93F4"/>
<stop offset="1" stop-color="#0B63DA"/>
</linearGradient>
<linearGradient id="paint56_linear_2321_1978" x1="0" y1="5259.16" x2="272270" y2="5259.16" gradientUnits="userSpaceOnUse">
<stop stop-color="#223762"/>
<stop offset="1" stop-color="#041B48"/>
</linearGradient>
<linearGradient id="paint57_linear_2321_1978" x1="7947.92" y1="4292.85" x2="8002.93" y2="4014.03" gradientUnits="userSpaceOnUse">
<stop stop-color="#223762"/>
<stop offset="1" stop-color="#041B48"/>
</linearGradient>
<linearGradient id="paint58_linear_2321_1978" x1="331.923" y1="162.98" x2="331.923" y2="200.388" gradientUnits="userSpaceOnUse">
<stop stop-color="#FFC063"/>
<stop offset="0.95" stop-color="#E44D0B"/>
</linearGradient>
</defs>
</svg>
