<svg width="18" height="18" viewBox="0 0 18 18" fill="none" xmlns="http://www.w3.org/2000/svg">
<path d="M11.6241 10.4991H11.0316L10.8216 10.2966C11.2903 9.7521 11.6329 9.11071 11.8248 8.41834C12.0167 7.72597 12.0532 6.99974 11.9316 6.29163C11.5791 4.20663 9.83913 2.54163 7.73913 2.28663C7.00084 2.19323 6.25097 2.26996 5.5469 2.51094C4.84282 2.75193 4.20321 3.15079 3.677 3.677C3.15079 4.20321 2.75193 4.84282 2.51094 5.5469C2.26996 6.25097 2.19323 7.00084 2.28663 7.73913C2.54163 9.83913 4.20663 11.5791 6.29163 11.9316C6.99974 12.0532 7.72597 12.0167 8.41834 11.8248C9.11071 11.6329 9.7521 11.2903 10.2966 10.8216L10.4991 11.0316V11.6241L13.6866 14.8116C13.9941 15.1191 14.4966 15.1191 14.8041 14.8116C15.1116 14.5041 15.1116 14.0016 14.8041 13.6941L11.6241 10.4991ZM7.12413 10.4991C5.25663 10.4991 3.74913 8.99163 3.74913 7.12413C3.74913 5.25663 5.25663 3.74913 7.12413 3.74913C8.99163 3.74913 10.4991 5.25663 10.4991 7.12413C10.4991 8.99163 8.99163 10.4991 7.12413 10.4991Z" fill="white"/>
</svg>
