<svg width="150" height="150" viewBox="0 0 150 150" fill="none" xmlns="http://www.w3.org/2000/svg">
<path d="M142.079 44.25C142.319 45.12 142.016 46.08 141.509 46.83L125.339 70.89C124.739 71.82 123.479 72.33 122.426 72.33C122.126 72.33 121.286 72.27 120.959 72.18L107.999 69V126C107.999 127.74 106.769 129 104.999 129H41.9995C40.2295 129 38.9995 127.74 38.9995 126V69L27.3595 72.21C26.0095 72.63 24.8395 72.09 24.0895 70.92L8.03947 46.92C7.52947 46.14 7.37947 45.27 7.61947 44.4C7.82947 43.5 8.45947 42.9 9.26947 42.48L41.9995 27H56.9995C58.7695 27 59.9995 28.23 59.9995 30C59.9995 36.18 68.6695 40.56 74.8495 40.56C81.0295 40.56 89.9995 36.21 89.9995 30C89.9995 28.26 91.2295 27 92.9995 27H107.999L140.399 42.18C141.239 42.6 141.839 43.35 142.079 44.25Z" fill="black"/>
</svg>
