<svg width="150" height="150" viewBox="0 0 150 150" fill="none" xmlns="http://www.w3.org/2000/svg">
<g clip-path="url(#clip0_2429_2631)">
<path d="M67.5657 9.37573C65.8076 7.61819 63.4235 6.63086 60.9376 6.63086C58.4516 6.63086 56.0675 7.61819 54.3094 9.37573L1.36881 62.307C0.488625 63.1872 -0.00585939 64.381 -0.00585937 65.6257C-0.00585936 66.8705 0.488625 68.0643 1.36881 68.9445C2.249 69.8247 3.44279 70.3192 4.68756 70.3192C5.93233 70.3192 7.12612 69.8247 8.00631 68.9445L9.37506 67.5664V117.188C9.37506 120.918 10.8566 124.495 13.4939 127.132C16.1311 129.769 19.708 131.251 23.4376 131.251H28.5938C28.2812 129.708 28.1241 128.137 28.1251 126.563V88.2664C25.8857 87.4739 23.8835 86.1271 22.3054 84.3516C20.7273 82.576 19.6247 80.4297 19.1005 78.1128C18.5762 75.7959 18.6475 73.3839 19.3075 71.102C19.9676 68.8201 21.1949 66.7425 22.8751 65.0632L73.0594 14.8695L67.5657 9.37573Z" fill="black"/>
<path d="M82.4344 18.7507C84.1925 16.9932 86.5766 16.0059 89.0626 16.0059C91.5485 16.0059 93.9326 16.9932 95.6907 18.7507L112.5 35.5601V23.4382C112.5 22.195 112.994 21.0027 113.873 20.1237C114.752 19.2446 115.944 18.7507 117.188 18.7507H126.563C127.806 18.7507 128.998 19.2446 129.877 20.1237C130.756 21.0027 131.25 22.195 131.25 23.4382V54.3101L148.631 71.682C149.511 72.5622 150.006 73.756 150.006 75.0007C150.006 76.2455 149.511 77.4393 148.631 78.3195C147.751 79.1997 146.557 79.6942 145.313 79.6942C144.068 79.6942 142.874 79.1997 141.994 78.3195L140.625 76.9414V126.563C140.625 130.293 139.143 133.87 136.506 136.507C133.869 139.144 130.292 140.626 126.563 140.626H51.5626C47.833 140.626 44.2561 139.144 41.6189 136.507C38.9816 133.87 37.5001 130.293 37.5001 126.563V76.9414L36.1313 78.3195C35.6955 78.7553 35.1781 79.101 34.6087 79.3369C34.0392 79.5728 33.4289 79.6942 32.8126 79.6942C32.1962 79.6942 31.5859 79.5728 31.0165 79.3369C30.447 79.101 29.9296 78.7553 29.4938 78.3195C29.058 77.8837 28.7123 77.3663 28.4764 76.7968C28.2405 76.2274 28.1191 75.6171 28.1191 75.0007C28.1191 74.3844 28.2405 73.7741 28.4764 73.2046C28.7123 72.6352 29.058 72.1178 29.4938 71.682L82.4344 18.7507Z" fill="black"/>
</g>
<defs>
<clipPath id="clip0_2429_2631">
<rect width="150" height="150" fill="white"/>
</clipPath>
</defs>
</svg>
