<svg width="218" height="200" viewBox="0 0 218 200" fill="none" xmlns="http://www.w3.org/2000/svg">
<path opacity="0.49" d="M201.699 122.513C201.699 122.513 190.781 148.564 187.077 155.153C183.372 161.741 177.782 171.58 188.718 177.442C199.654 183.304 202.519 183.031 209.079 174.148C214.381 166.971 213.437 126.588 210.444 122.149C207.452 117.711 205.799 118.666 204.296 119.349C202.792 120.032 201.699 122.513 201.699 122.513Z" fill="url(#paint0_linear_2288_1157)"/>
<path opacity="0.49" d="M60.4057 46.312C107.711 46.5989 136.56 9.379 159.045 2.22048C192.851 -8.53364 237.444 19.2905 208.686 96.2872C179.929 173.284 165.03 192.835 113.232 199.394C71.7881 204.66 35.2909 174.541 20.7487 150.501C-2.00164 112.892 13.0963 46.0287 60.4057 46.312Z" fill="url(#paint1_linear_2288_1157)"/>
<path opacity="0.1" d="M192.761 135.78V93.5954H167.185V39.349L154.158 28.8164L140.462 39.8901V93.5954H108.232V50.6479H96.6099L76.1186 67.2131H46.4095V101.756H10.7549C9.12419 118.765 12.3493 136.623 20.7536 150.5C22.3038 153.046 23.984 155.511 25.7874 157.884H181.426C185.229 151.517 188.955 144.188 192.761 135.78Z" fill="#4C93F4"/>
<path d="M124.975 191.908L95.8066 195.555H127.368V191.908H124.975Z" fill="url(#paint2_linear_2288_1157)"/>
<path d="M129.761 191.908L158.932 195.555H127.367V191.908H129.761Z" fill="url(#paint3_linear_2288_1157)"/>
<path d="M129.751 147.707H124.975V191.908H129.751V147.707Z" fill="url(#paint4_linear_2288_1157)"/>
<path d="M131.744 149.982H122.98V158.147H131.744V149.982Z" fill="url(#paint5_linear_2288_1157)"/>
<path d="M82.8513 195.547H87.3912L69.6456 129.326H65.1094L82.8513 195.547Z" fill="url(#paint6_linear_2288_1157)"/>
<path d="M47.2294 195.547H42.6895L60.4314 129.326H64.9713L47.2294 195.547Z" fill="url(#paint7_linear_2288_1157)"/>
<path d="M187.89 195.547H192.43L174.685 129.326H170.148L187.89 195.547Z" fill="url(#paint8_linear_2288_1157)"/>
<path d="M152.268 195.547H147.729L165.47 129.326H170.01L152.268 195.547Z" fill="url(#paint9_linear_2288_1157)"/>
<path d="M60.0796 195.547H64.6195L46.8739 129.326H42.334L60.0796 195.547Z" fill="url(#paint10_linear_2288_1157)"/>
<path d="M114.576 188.44C114.576 188.44 115.302 191.69 115.331 192.936C115.336 193.821 115.214 194.701 114.968 195.551H94.6365C94.6365 195.551 91.9671 195.696 91.2988 194.672C90.6305 193.648 91.662 192.569 94.3678 191.491C98.8387 189.711 106.295 188.443 106.295 188.443L107.185 184.125L114.576 188.44Z" fill="url(#paint11_linear_2288_1157)"/>
<path d="M79.5398 188.44C79.5398 188.44 80.2662 191.69 80.2953 192.936C80.2999 193.821 80.1776 194.701 79.9321 195.551H59.5897C59.5897 195.551 56.9202 195.696 56.2519 194.672C55.5837 193.648 56.6151 192.569 59.3209 191.491C63.7918 189.711 71.2481 188.443 71.2481 188.443L72.138 184.125L79.5398 188.44Z" fill="url(#paint12_linear_2288_1157)"/>
<path d="M95.8059 143.818H85.582V148.405H95.8059V143.818Z" fill="url(#paint13_linear_2288_1157)"/>
<path d="M163.483 91.1621H121.055C120.024 91.1621 119.185 92.1681 119.178 93.4175V93.4902C119.087 99.0196 118.706 104.54 118.037 110.03C117.523 114.453 116.727 118.838 115.655 123.159C114.565 127.423 113.112 131.346 111.34 134.258C109.356 137.495 106.694 140.263 103.539 142.372C100.393 144.453 96.8522 145.71 93.3002 145.706C90.8816 145.707 88.4996 145.115 86.3632 143.981C85.4153 143.484 84.3148 144.014 83.9044 145.162C83.494 146.309 83.9298 147.642 84.8778 148.14C87.1906 149.365 89.7424 150.071 92.3559 150.21L92.4104 150.239H134.933L153.819 138.849L160.015 128.219L163.799 99.5773L163.483 91.1621Z" fill="url(#paint14_linear_2288_1157)"/>
<path d="M119.624 85.6738L99.5322 115.092L77.5918 119.491L78.8303 125.302C78.8303 125.302 103.36 125.167 105.63 124.633C107.9 124.1 125.816 100.735 125.816 100.735L119.624 85.6738Z" fill="url(#paint15_linear_2288_1157)"/>
<path d="M104.919 132.633C98.382 133.566 94.9935 134.234 92.146 137.841C89.2986 141.447 70.6777 185.637 70.6777 185.637C70.6777 185.637 73.329 187.893 76.6413 188.179L79.9537 188.452L103.452 148.137L104.919 132.633Z" fill="url(#paint16_linear_2288_1157)"/>
<path d="M94.4306 141.708C95.157 148.245 93.4863 155.727 92.7563 159.533C92.0262 163.339 79.409 175.288 76.6051 181.63C75.7148 183.589 75.0119 185.628 74.5059 187.72C75.1942 187.952 75.9073 188.102 76.6305 188.167L79.9428 188.44L103.441 148.125L104.894 132.639C100.899 133.209 98.0879 133.685 95.8507 134.785C94.6496 136.882 94.1519 139.308 94.4306 141.708Z" fill="url(#paint17_linear_2288_1157)"/>
<path d="M140.966 79.207C140.966 79.207 148.502 81.4407 152.029 85.6755C155.555 89.9103 147.554 139.428 147.554 139.428L145.037 139.141L109.637 135.099C109.637 135.099 114.387 90.3316 118.194 86.5907C122 82.8498 128.207 80.4637 128.207 80.4637L140.966 79.207Z" fill="url(#paint18_linear_2288_1157)"/>
<path d="M114.591 134.588C114.985 134.601 115.366 134.725 115.691 134.947C116.016 135.169 116.271 135.479 116.426 135.841L120.817 136.343C120.945 135.867 121.24 135.453 121.647 135.176C122.055 134.899 122.548 134.778 123.038 134.833C123.527 134.889 123.981 135.119 124.315 135.48C124.65 135.842 124.844 136.311 124.862 136.804L129.025 137.287C129.025 137.221 129.025 137.156 129.025 137.087C129.028 136.789 129.095 136.494 129.222 136.224C129.35 135.955 129.534 135.715 129.762 135.523C129.99 135.331 130.258 135.191 130.545 135.112C130.833 135.032 131.135 135.016 131.429 135.064C131.724 135.113 132.004 135.224 132.252 135.391C132.499 135.558 132.708 135.776 132.863 136.031C133.018 136.286 133.116 136.571 133.151 136.867C133.186 137.164 133.156 137.464 133.063 137.748L137.494 138.253C137.357 137.964 137.29 137.647 137.298 137.327C137.306 136.999 137.392 136.678 137.548 136.39C137.704 136.103 137.927 135.856 138.197 135.671C138.467 135.485 138.777 135.367 139.102 135.325C139.427 135.283 139.757 135.319 140.066 135.429C140.374 135.539 140.652 135.722 140.876 135.96C141.101 136.199 141.265 136.488 141.356 136.802C141.447 137.117 141.462 137.449 141.4 137.77C141.338 138.092 141.201 138.394 140.999 138.652L145.125 139.125L146.385 139.27C145.984 138.984 145.699 138.563 145.581 138.085C145.464 137.606 145.522 137.102 145.745 136.662C145.967 136.223 146.34 135.878 146.796 135.69C147.251 135.502 147.759 135.484 148.227 135.638C148.419 134.385 148.648 132.859 148.902 131.131C148.566 131.322 148.182 131.416 147.796 131.4C147.409 131.385 147.034 131.261 146.714 131.043C146.395 130.825 146.142 130.521 145.987 130.167C145.831 129.812 145.778 129.421 145.834 129.038C145.889 128.655 146.051 128.295 146.301 128C146.552 127.705 146.88 127.485 147.248 127.367C147.617 127.249 148.011 127.237 148.387 127.332C148.762 127.427 149.103 127.626 149.371 127.906C151.499 113.015 154.546 88.5791 152.116 85.659C149.687 82.739 145.343 80.7705 142.884 79.8298C142.69 80.1947 142.39 80.4926 142.024 80.6845C141.658 80.8765 141.242 80.9535 140.832 80.9057C140.421 80.8578 140.034 80.6873 139.722 80.4163C139.41 80.1453 139.187 79.7865 139.081 79.3867L134.458 79.8407C134.288 80.0734 134.07 80.2675 133.82 80.4103C133.569 80.5532 133.292 80.6416 133.005 80.6697C132.718 80.6978 132.428 80.665 132.155 80.5735C131.881 80.4819 131.63 80.3337 131.418 80.1385L128.306 80.4436C128.306 80.4436 122.088 82.8116 118.281 86.5525C118.186 86.6522 118.1 86.7604 118.024 86.8757C117.94 87.2198 117.768 87.5364 117.526 87.7946C116.876 89.4133 116.363 91.0838 115.993 92.7885C116.286 92.8124 116.571 92.8986 116.828 93.0415C117.085 93.1844 117.309 93.3806 117.484 93.617C117.659 93.8534 117.781 94.1244 117.843 94.412C117.905 94.6996 117.904 94.997 117.841 95.2844C117.779 95.5717 117.655 95.8424 117.479 96.0781C117.304 96.3139 117.079 96.5093 116.822 96.6513C116.564 96.7933 116.279 96.8785 115.986 96.9013C115.693 96.9242 115.398 96.884 115.122 96.7836C114.817 98.3163 114.515 99.9543 114.221 101.665C114.547 101.402 114.945 101.245 115.362 101.214C115.779 101.183 116.196 101.28 116.557 101.491C116.918 101.703 117.206 102.019 117.384 102.398C117.561 102.777 117.619 103.201 117.549 103.613C117.48 104.026 117.287 104.408 116.996 104.708C116.704 105.008 116.328 105.213 115.918 105.295C115.508 105.376 115.082 105.332 114.698 105.166C114.314 105 113.989 104.722 113.767 104.367C111.512 118.245 109.725 135.053 109.725 135.053L112.877 135.416C113.076 135.151 113.335 134.937 113.633 134.793C113.932 134.649 114.26 134.579 114.591 134.588ZM149.153 85.3068C149.562 85.3184 149.959 85.4512 150.293 85.6884C150.627 85.9256 150.883 86.2565 151.028 86.6392C151.174 87.0219 151.203 87.4392 151.112 87.8384C151.02 88.2376 150.812 88.6007 150.515 88.8817C150.217 89.1628 149.842 89.3492 149.438 89.4174C149.035 89.4856 148.62 89.4325 148.246 89.2648C147.872 89.0971 147.557 88.8223 147.339 88.4753C147.122 88.1283 147.012 87.7246 147.024 87.3152C147.032 87.0433 147.093 86.7756 147.204 86.5273C147.315 86.279 147.474 86.055 147.672 85.8681C147.869 85.6813 148.102 85.5352 148.356 85.4382C148.61 85.3413 148.881 85.2954 149.153 85.3031V85.3068ZM148.909 93.7437C149.319 93.7554 149.715 93.8882 150.049 94.1254C150.383 94.3625 150.639 94.6934 150.785 95.0761C150.931 95.4588 150.96 95.8762 150.868 96.2753C150.777 96.6745 150.569 97.0376 150.271 97.3187C149.973 97.5998 149.599 97.7862 149.195 97.8544C148.791 97.9225 148.376 97.8694 148.003 97.7017C147.629 97.534 147.314 97.2593 147.096 96.9123C146.879 96.5652 146.769 96.1615 146.781 95.7522C146.797 95.2037 147.03 94.684 147.43 94.3074C147.829 93.9308 148.361 93.7281 148.909 93.7437ZM148.662 102.181C149.072 102.192 149.469 102.325 149.802 102.562C150.136 102.799 150.392 103.13 150.538 103.513C150.684 103.896 150.713 104.313 150.621 104.712C150.53 105.111 150.322 105.475 150.024 105.756C149.726 106.037 149.352 106.223 148.948 106.291C148.544 106.359 148.129 106.306 147.756 106.139C147.382 105.971 147.067 105.696 146.849 105.349C146.632 105.002 146.522 104.598 146.534 104.189C146.55 103.641 146.784 103.121 147.183 102.744C147.582 102.368 148.114 102.165 148.662 102.181ZM148.415 110.618C148.825 110.629 149.222 110.762 149.555 110.999C149.889 111.236 150.145 111.567 150.291 111.95C150.437 112.333 150.466 112.75 150.374 113.149C150.283 113.548 150.075 113.912 149.777 114.193C149.479 114.474 149.105 114.66 148.701 114.728C148.297 114.796 147.882 114.743 147.509 114.576C147.135 114.408 146.82 114.133 146.602 113.786C146.385 113.439 146.275 113.035 146.287 112.626C146.303 112.078 146.537 111.558 146.936 111.181C147.335 110.805 147.867 110.602 148.415 110.618ZM148.183 119.058C148.592 119.07 148.989 119.203 149.323 119.44C149.657 119.677 149.913 120.008 150.059 120.391C150.204 120.773 150.233 121.191 150.142 121.59C150.051 121.989 149.843 122.352 149.545 122.633C149.247 122.914 148.873 123.101 148.469 123.169C148.065 123.237 147.65 123.184 147.276 123.016C146.903 122.849 146.587 122.574 146.37 122.227C146.152 121.88 146.043 121.476 146.055 121.067C146.071 120.518 146.304 119.999 146.703 119.622C147.102 119.245 147.635 119.043 148.183 119.058ZM140.89 85.0634C141.299 85.0751 141.696 85.2079 142.03 85.4451C142.364 85.6823 142.62 86.0131 142.766 86.3958C142.911 86.7785 142.94 87.1959 142.849 87.595C142.758 87.9942 142.55 88.3573 142.252 88.6384C141.954 88.9195 141.58 89.1059 141.176 89.1741C140.772 89.2422 140.357 89.1891 139.983 89.0214C139.61 88.8537 139.294 88.579 139.077 88.232C138.859 87.8849 138.75 87.4812 138.762 87.0719C138.778 86.5253 139.01 86.0074 139.406 85.6311C139.803 85.2548 140.333 85.0507 140.879 85.0634H140.89ZM140.643 93.5004C141.053 93.512 141.449 93.6449 141.783 93.882C142.117 94.1192 142.373 94.4501 142.519 94.8328C142.665 95.2155 142.694 95.6328 142.602 96.032C142.511 96.4312 142.303 96.7943 142.005 97.0753C141.707 97.3564 141.333 97.5428 140.929 97.611C140.525 97.6792 140.11 97.6261 139.736 97.4584C139.363 97.2907 139.047 97.0159 138.83 96.6689C138.612 96.3219 138.503 95.9182 138.515 95.5088C138.531 94.9623 138.763 94.4443 139.159 94.068C139.556 93.6917 140.086 93.4877 140.632 93.5004H140.643ZM140.396 101.937C140.806 101.949 141.202 102.082 141.536 102.319C141.87 102.556 142.126 102.887 142.272 103.27C142.418 103.652 142.447 104.07 142.355 104.469C142.264 104.868 142.056 105.231 141.758 105.512C141.46 105.793 141.086 105.98 140.682 106.048C140.278 106.116 139.863 106.063 139.489 105.895C139.116 105.728 138.8 105.453 138.583 105.106C138.365 104.759 138.256 104.355 138.268 103.946C138.285 103.4 138.517 102.883 138.914 102.507C139.31 102.132 139.839 101.928 140.385 101.941L140.396 101.937ZM140.149 110.374C140.559 110.386 140.955 110.519 141.289 110.756C141.623 110.993 141.879 111.324 142.025 111.707C142.171 112.089 142.2 112.507 142.108 112.906C142.017 113.305 141.809 113.668 141.511 113.949C141.213 114.23 140.839 114.417 140.435 114.485C140.031 114.553 139.616 114.5 139.242 114.332C138.869 114.165 138.553 113.89 138.336 113.543C138.118 113.196 138.009 112.792 138.021 112.383C138.038 111.836 138.271 111.319 138.668 110.943C139.065 110.567 139.595 110.364 140.142 110.378L140.149 110.374ZM139.902 118.811C140.312 118.823 140.708 118.956 141.042 119.193C141.376 119.43 141.632 119.761 141.778 120.144C141.924 120.526 141.953 120.944 141.861 121.343C141.77 121.742 141.562 122.105 141.264 122.386C140.966 122.667 140.592 122.854 140.188 122.922C139.784 122.99 139.369 122.937 138.996 122.769C138.622 122.602 138.306 122.327 138.089 121.98C137.872 121.633 137.762 121.229 137.774 120.82C137.791 120.273 138.024 119.756 138.421 119.38C138.818 119.004 139.348 118.801 139.895 118.815L139.902 118.811ZM139.663 127.03C140.072 127.042 140.469 127.175 140.802 127.412C141.136 127.649 141.392 127.98 141.538 128.363C141.684 128.745 141.713 129.163 141.621 129.562C141.53 129.961 141.322 130.324 141.024 130.605C140.727 130.886 140.352 131.073 139.948 131.141C139.544 131.209 139.129 131.156 138.756 130.988C138.382 130.821 138.067 130.546 137.849 130.199C137.632 129.852 137.522 129.448 137.534 129.039C137.551 128.492 137.784 127.975 138.181 127.599C138.579 127.223 139.109 127.02 139.655 127.034L139.663 127.03ZM132.606 84.8237C133.015 84.8354 133.412 84.9682 133.746 85.2054C134.08 85.4425 134.336 85.7734 134.481 86.1561C134.627 86.5388 134.656 86.9562 134.565 87.3553C134.473 87.7545 134.265 88.1176 133.968 88.3987C133.67 88.6798 133.295 88.8662 132.891 88.9344C132.488 89.0025 132.073 88.9494 131.699 88.7817C131.325 88.614 131.01 88.3393 130.792 87.9923C130.575 87.6452 130.465 87.2415 130.477 86.8322C130.494 86.2837 130.727 85.764 131.126 85.3874C131.525 85.0108 132.057 84.8081 132.606 84.8237ZM132.359 93.2607C132.768 93.2723 133.165 93.4052 133.499 93.6423C133.833 93.8795 134.089 94.2104 134.234 94.5931C134.38 94.9758 134.409 95.3931 134.318 95.7923C134.226 96.1915 134.018 96.5546 133.721 96.8356C133.423 97.1167 133.048 97.3031 132.644 97.3713C132.241 97.4395 131.826 97.3864 131.452 97.2187C131.078 97.051 130.763 96.7762 130.545 96.4292C130.328 96.0822 130.218 95.6785 130.23 95.2691C130.247 94.7206 130.48 94.201 130.879 93.8244C131.278 93.4478 131.81 93.245 132.359 93.2607ZM132.112 101.694C132.521 101.706 132.918 101.838 133.252 102.076C133.586 102.313 133.842 102.644 133.987 103.026C134.133 103.409 134.162 103.826 134.071 104.226C133.979 104.625 133.771 104.988 133.474 105.269C133.176 105.55 132.801 105.736 132.397 105.805C131.994 105.873 131.579 105.82 131.205 105.652C130.831 105.484 130.516 105.21 130.299 104.863C130.081 104.516 129.971 104.112 129.983 103.702C130 103.154 130.233 102.634 130.632 102.258C131.031 101.881 131.563 101.678 132.112 101.694ZM131.865 110.131C132.274 110.143 132.671 110.275 133.005 110.513C133.339 110.75 133.595 111.081 133.74 111.463C133.886 111.846 133.915 112.263 133.824 112.663C133.732 113.062 133.524 113.425 133.227 113.706C132.929 113.987 132.554 114.173 132.15 114.242C131.747 114.31 131.332 114.257 130.958 114.089C130.584 113.921 130.269 113.647 130.052 113.299C129.834 112.952 129.724 112.549 129.736 112.139C129.755 111.592 129.989 111.073 130.389 110.698C130.788 110.323 131.321 110.122 131.868 110.138L131.865 110.131ZM131.618 118.568C132.027 118.58 132.424 118.712 132.758 118.95C133.092 119.187 133.348 119.518 133.493 119.9C133.639 120.283 133.668 120.7 133.577 121.1C133.485 121.499 133.278 121.862 132.98 122.143C132.682 122.424 132.307 122.61 131.904 122.679C131.5 122.747 131.085 122.694 130.711 122.526C130.337 122.358 130.022 122.083 129.805 121.736C129.587 121.389 129.477 120.986 129.49 120.576C129.508 120.028 129.742 119.51 130.142 119.135C130.541 118.76 131.074 118.559 131.621 118.575L131.618 118.568ZM131.378 126.787C131.787 126.799 132.184 126.931 132.518 127.169C132.852 127.406 133.108 127.737 133.254 128.119C133.399 128.502 133.428 128.919 133.337 129.319C133.246 129.718 133.038 130.081 132.74 130.362C132.442 130.643 132.068 130.829 131.664 130.898C131.26 130.966 130.845 130.913 130.471 130.745C130.098 130.577 129.782 130.303 129.565 129.955C129.347 129.608 129.238 129.205 129.25 128.795C129.268 128.248 129.502 127.729 129.902 127.354C130.302 126.979 130.834 126.778 131.382 126.794L131.378 126.787ZM124.329 84.5804C124.738 84.592 125.135 84.7249 125.468 84.962C125.802 85.1992 126.058 85.5301 126.204 85.9128C126.35 86.2955 126.379 86.7128 126.287 87.112C126.196 87.5112 125.988 87.8743 125.69 88.1553C125.393 88.4364 125.018 88.6228 124.614 88.691C124.21 88.7592 123.795 88.7061 123.422 88.5384C123.048 88.3707 122.733 88.096 122.515 87.7489C122.298 87.4019 122.188 86.9982 122.2 86.5888C122.216 86.0403 122.45 85.5207 122.849 85.1441C123.248 84.7675 123.78 84.5647 124.329 84.5804ZM124.082 93.0173C124.491 93.029 124.888 93.1618 125.222 93.399C125.555 93.6362 125.811 93.967 125.957 94.3497C126.103 94.7324 126.132 95.1498 126.041 95.549C125.949 95.9481 125.741 96.3112 125.443 96.5923C125.146 96.8734 124.771 97.0598 124.367 97.128C123.963 97.1962 123.548 97.143 123.175 96.9753C122.801 96.8076 122.486 96.5329 122.268 96.1859C122.051 95.8389 121.941 95.4351 121.953 95.0258C121.97 94.4773 122.205 93.958 122.604 93.5821C123.004 93.2061 123.537 93.0043 124.085 93.0209L124.082 93.0173ZM123.849 101.458C124.259 101.47 124.655 101.602 124.989 101.84C125.323 102.077 125.579 102.408 125.725 102.79C125.871 103.173 125.9 103.59 125.808 103.99C125.717 104.389 125.509 104.752 125.211 105.033C124.913 105.314 124.539 105.5 124.135 105.569C123.731 105.637 123.316 105.584 122.942 105.416C122.569 105.248 122.253 104.973 122.036 104.626C121.818 104.279 121.709 103.876 121.721 103.466C121.737 102.918 121.97 102.398 122.369 102.022C122.768 101.645 123.301 101.442 123.849 101.458ZM123.602 109.895C124.012 109.907 124.408 110.039 124.742 110.277C125.076 110.514 125.332 110.845 125.478 111.227C125.624 111.61 125.653 112.027 125.561 112.426C125.47 112.826 125.262 113.189 124.964 113.47C124.666 113.751 124.292 113.937 123.888 114.006C123.484 114.074 123.069 114.021 122.695 113.853C122.322 113.685 122.006 113.41 121.789 113.063C121.571 112.716 121.462 112.313 121.474 111.903C121.49 111.357 121.722 110.839 122.118 110.463C122.515 110.086 123.045 109.882 123.591 109.895H123.602ZM123.355 118.332C123.765 118.343 124.161 118.476 124.495 118.713C124.829 118.951 125.085 119.282 125.231 119.664C125.377 120.047 125.406 120.464 125.314 120.863C125.223 121.263 125.015 121.626 124.717 121.907C124.419 122.188 124.045 122.374 123.641 122.442C123.237 122.511 122.822 122.458 122.448 122.29C122.075 122.122 121.759 121.847 121.542 121.5C121.324 121.153 121.215 120.75 121.227 120.34C121.244 119.794 121.477 119.276 121.874 118.901C122.271 118.525 122.801 118.322 123.348 118.335L123.355 118.332ZM123.123 126.554C123.531 126.569 123.926 126.704 124.258 126.942C124.59 127.181 124.843 127.512 124.987 127.895C125.131 128.277 125.158 128.694 125.066 129.092C124.974 129.49 124.766 129.851 124.468 130.131C124.17 130.411 123.796 130.597 123.394 130.665C122.991 130.733 122.577 130.68 122.204 130.513C121.831 130.346 121.516 130.072 121.298 129.727C121.08 129.381 120.969 128.979 120.98 128.57C120.987 128.297 121.048 128.027 121.16 127.778C121.272 127.528 121.432 127.303 121.631 127.115C121.83 126.928 122.065 126.782 122.321 126.686C122.577 126.589 122.849 126.545 123.123 126.554ZM115.332 109.655C115.742 109.667 116.138 109.8 116.472 110.037C116.806 110.274 117.062 110.605 117.208 110.988C117.354 111.37 117.383 111.788 117.291 112.187C117.2 112.586 116.992 112.949 116.694 113.23C116.396 113.511 116.022 113.698 115.618 113.766C115.214 113.834 114.799 113.781 114.426 113.613C114.052 113.445 113.736 113.171 113.519 112.824C113.302 112.477 113.192 112.073 113.204 111.664C113.22 111.118 113.451 110.6 113.847 110.224C114.243 109.848 114.772 109.643 115.318 109.655H115.332ZM115.085 118.092C115.495 118.104 115.891 118.237 116.225 118.474C116.559 118.711 116.815 119.042 116.961 119.425C117.107 119.807 117.136 120.225 117.044 120.624C116.953 121.023 116.745 121.386 116.447 121.667C116.149 121.948 115.775 122.135 115.371 122.203C114.967 122.271 114.552 122.218 114.179 122.05C113.805 121.882 113.489 121.608 113.272 121.261C113.055 120.914 112.945 120.51 112.957 120.101C112.973 119.554 113.205 119.036 113.602 118.66C113.998 118.283 114.528 118.079 115.074 118.092H115.085ZM114.846 126.311C115.255 126.323 115.652 126.456 115.986 126.693C116.319 126.93 116.575 127.261 116.721 127.644C116.867 128.026 116.896 128.444 116.805 128.843C116.713 129.242 116.505 129.605 116.207 129.886C115.91 130.167 115.535 130.354 115.131 130.422C114.727 130.49 114.313 130.437 113.939 130.269C113.565 130.101 113.25 129.827 113.032 129.48C112.815 129.133 112.705 128.729 112.717 128.32C112.733 127.773 112.965 127.255 113.362 126.879C113.759 126.503 114.288 126.298 114.835 126.311H114.846Z" fill="url(#paint19_linear_2288_1157)"/>
<path d="M142.117 94.5371C142.117 94.5371 144.568 98.9862 144.438 102.19C143.824 117.08 110.385 128.459 110.385 128.459L109.633 135.08L147.55 139.41L153.078 103.57L142.117 94.5371Z" fill="url(#paint20_linear_2288_1157)"/>
<path d="M146.675 139.306C146.675 139.306 115.999 125.886 103.742 131.839C94.5383 136.299 106.146 188.047 106.146 188.047C106.146 188.047 109.607 189.648 112.349 189.383L115.091 189.115L117.067 143.883L135.561 147.929L145.774 144.057L146.675 139.306Z" fill="url(#paint21_linear_2288_1157)"/>
<path d="M145.786 144.048L146.687 139.326C142.056 137.363 137.329 135.637 132.522 134.154C132.007 135.418 131.295 136.827 130.507 137.474C128.909 138.789 114.09 136.159 110.015 137.474C105.94 138.789 109.147 141.614 111.468 144.872C113.789 148.13 108.399 155.209 110.015 164.154L111.617 173.099L112.158 189.399H112.373L115.115 189.131L117.09 143.899L135.584 147.945L145.786 144.048Z" fill="url(#paint22_linear_2288_1157)"/>
<path d="M134.668 118.402C132.852 118.058 130.994 117.991 129.158 118.203C126.274 118.566 124.633 121.195 124.633 121.195C124.633 121.195 133.088 123.545 134.366 123.578C135.645 123.61 137.595 122.521 137.595 122.521L134.668 118.402Z" fill="url(#paint23_linear_2288_1157)"/>
<path d="M127.271 143.818H117.047V148.62H127.271V143.818Z" fill="url(#paint24_linear_2288_1157)"/>
<path d="M152.25 86.0054C152.25 86.0054 163.349 107.514 162.971 111.066C162.594 114.618 137.127 123.073 137.127 123.073C137.127 123.073 134.276 118.682 134.159 118.05C133.992 117.153 151.916 107.405 151.916 107.405C151.916 107.405 142.437 98.1069 141.768 93.2075C141.1 88.308 145.618 84.8867 148.458 84.8867C151.298 84.8867 152.25 86.0054 152.25 86.0054Z" fill="url(#paint25_linear_2288_1157)"/>
<path d="M160.81 93.4067V93.4793C160.721 99.0123 160.342 104.537 159.674 110.03C159.159 114.453 158.363 118.838 157.291 123.159C156.202 127.423 154.749 131.346 152.976 134.259C150.991 137.495 148.328 140.263 145.171 142.372C142.026 144.453 138.485 145.71 134.933 145.706C132.514 145.707 130.132 145.115 127.996 143.981C127.048 143.484 125.948 144.014 125.537 145.162C125.127 146.309 125.563 147.642 126.511 148.14C129.104 149.517 131.996 150.238 134.933 150.239C139.211 150.239 143.341 148.743 146.962 146.353C150.616 143.906 153.695 140.694 155.984 136.939C158.199 133.307 159.783 128.785 160.974 124.049C162.754 116.949 163.636 109.329 164.086 103.456C164.537 97.5834 164.551 93.4612 164.551 93.4103C164.551 92.1609 163.72 91.1404 162.688 91.1367C161.657 91.1331 160.818 92.1428 160.81 93.3922V93.4067Z" fill="url(#paint26_linear_2288_1157)"/>
<path d="M130.283 79.2067L128.213 80.4634C128.213 80.4634 127.632 81.099 129.524 82.8314C131.416 84.5638 133.882 84.3677 136.53 83.1655C139.178 81.9634 140.961 79.2067 140.961 79.2067L139.309 78.7891L130.283 79.2067Z" fill="white"/>
<path d="M128.934 72.7387L130.274 79.2072C130.274 79.2072 131.236 80.4311 133.949 80.4638C136.662 80.4965 139.299 78.7895 139.299 78.7895L139.379 72.2012L128.934 72.7387Z" fill="url(#paint27_linear_2288_1157)"/>
<path d="M125.362 49.3516C125.362 49.3516 124.763 58.5984 124.636 61.8308C124.509 65.0633 128.526 65.8913 128.526 65.8913L134.387 59.7606L131.798 50.0961L125.362 49.3516Z" fill="url(#paint28_linear_2288_1157)"/>
<path d="M125.392 60.3924C125.581 64.0243 125.842 68.4371 127.368 72.2833C128.893 76.1295 136.473 76.9685 138.99 73.914C141.507 70.8596 142.411 65.971 142.411 65.971C142.411 65.971 145.022 66.1526 145.698 64.2023C146.373 62.2519 146.221 59.3355 145.004 58.7544C143.787 58.1733 142.625 59.5171 142.625 59.5171C142.625 59.5171 143.097 55.7544 140.403 53.39C137.708 51.0257 127.487 51.8247 126.921 52.3005C126.354 52.7762 125.203 56.7459 125.392 60.3924Z" fill="url(#paint29_linear_2288_1157)"/>
<path d="M140.918 64.2857C140.918 64.2857 141.891 59.6078 141.539 57.494C141.187 55.3802 140.017 53.9819 137.598 53.1357C135.179 52.2894 128.206 53.1139 126.67 52.6635C125.134 52.2132 124.226 51.4686 124.767 48.396C125.308 45.3234 129.739 41.0123 136.026 41.6588C142.313 42.3053 145.28 45.1346 147.339 47.0341C149.398 48.9335 148.124 54.1163 147.561 58.471C146.998 62.8256 145.48 68.7493 144.187 70.8195C142.894 72.8897 140.054 72.4248 140.054 72.4248L142.371 65.5641C142.371 65.5641 143.413 66.029 144.619 64.6089C145.825 63.1888 146.304 60.6792 145.61 59.4698C144.917 58.2603 142.977 58.5436 142.342 60.1017C141.706 61.6598 140.918 64.2857 140.918 64.2857Z" fill="url(#paint30_linear_2288_1157)"/>
<path d="M163.124 123.985H143.824L149.221 98.1367H168.521L163.124 123.985Z" fill="#223762"/>
<path d="M164.816 123.985H145.164L150.659 98.1367H170.311L164.816 123.985Z" fill="url(#paint31_linear_2288_1157)"/>
<path d="M160.318 106.17L166.851 123.984H156.533L159.283 106.17H160.318Z" fill="#223762"/>
<path d="M159.281 106.17L165.814 123.984H155.496L159.281 106.17Z" fill="#4C93F4"/>
<path d="M125.816 122.15L135.143 123.959L130.908 123.985H125.816V122.15Z" fill="#3769A5"/>
<path d="M125.992 122.365L135.072 123.96V122.667L125.992 121.072V122.365Z" fill="#4C93F4"/>
<path d="M95.9294 121.072C95.341 121.072 94.8652 121.726 94.8652 122.525C94.8652 123.324 95.341 123.978 95.9294 123.978H126.027V121.072H95.9294Z" fill="#223762"/>
<path d="M24.4542 195.547H19.918L37.6599 129.326H42.1998L24.4542 195.547Z" fill="url(#paint32_linear_2288_1157)"/>
<path d="M31.0128 143.826C32.4656 154.159 30.5988 163.801 26.5274 170.397C20.7962 165.171 16.358 156.418 14.9052 146.085C13.4525 135.752 15.3193 126.109 19.3907 119.514C25.1182 124.733 29.5637 133.482 31.0128 143.826Z" fill="url(#paint33_linear_2288_1157)"/>
<path d="M17.959 142.166C19.6265 146.855 21.0055 151.641 22.0885 156.498C24.0134 164.953 23.5412 175.02 23.5412 175.02" stroke="#112244" stroke-linecap="round" stroke-linejoin="round"/>
<path d="M28.5505 139.408C28.5505 139.408 27.3955 149.109 25.9718 156.587C24.5481 164.065 23.582 173.944 23.582 173.944" stroke="#112244" stroke-linecap="round" stroke-linejoin="round"/>
<path d="M30.8713 155.699C30.8713 155.699 28.5577 162.019 26.8762 166.112C25.1946 170.205 23.6074 174.418 23.6074 174.418" stroke="#112244" stroke-linecap="round" stroke-linejoin="round"/>
<path d="M21.7917 102.059C22.7432 109.014 21.4648 115.497 18.7082 119.928C14.862 116.398 11.8947 110.485 10.9431 103.541C9.99155 96.5967 11.27 90.1028 14.0266 85.6719C17.8547 89.2057 20.8256 95.104 21.7917 102.059Z" fill="url(#paint34_linear_2288_1157)"/>
<path d="M29.342 118.098C28.9788 110.002 28.4376 95.3947 28.1289 86.8633C33.7439 93.8148 37.3467 104.467 37.3467 116.427C37.3467 128.249 33.8238 138.789 28.3214 145.744C28.9352 137.594 29.6725 125.467 29.342 118.098Z" fill="url(#paint35_linear_2288_1157)"/>
<path d="M18.4355 116.441C18.4355 104.311 22.1365 93.5165 27.8785 86.5723C27.9584 86.6703 28.0383 86.7757 28.1182 86.8773C28.427 95.3942 28.9681 110.002 29.3313 118.112C29.6618 125.481 28.9245 137.608 28.3107 145.773C28.1655 145.954 28.0275 146.136 27.8785 146.325C22.1546 139.366 18.4355 128.572 18.4355 116.441Z" fill="url(#paint36_linear_2288_1157)"/>
<path d="M17.5821 129.469C20.7165 136.369 21.3956 143.495 19.9065 148.939C14.8218 146.466 9.93328 141.272 6.79893 134.354C3.66459 127.435 2.98542 120.327 4.4745 114.883C9.5483 117.356 14.4478 122.553 17.5821 129.469Z" fill="url(#paint37_linear_2288_1157)"/>
<path d="M13.1142 195.526H33.936L37.0268 168.537H10.0234L13.1142 195.526Z" fill="url(#paint38_linear_2288_1157)"/>
<path d="M37.0282 168.537L33.9375 195.526H25.9727L28.2789 168.537H37.0282Z" fill="url(#paint39_linear_2288_1157)"/>
<path d="M8.9705 174.418H38.084V167.768H8.9705V174.418Z" fill="#FFD46A"/>
<path d="M184.155 71.6388L184.067 71.1528C184.019 70.8882 183.766 70.7126 183.502 70.7603L156.367 75.6622C156.103 75.71 155.927 75.9631 155.975 76.2276L156.063 76.7137C156.11 76.9782 156.364 77.1539 156.628 77.1061L183.762 72.2043C184.027 72.1565 184.203 71.9033 184.155 71.6388Z" fill="#223762"/>
<path d="M27.4796 121.922C28.0713 121.922 28.551 121.065 28.551 120.008C28.551 118.951 28.0713 118.094 27.4796 118.094C26.8879 118.094 26.4082 118.951 26.4082 120.008C26.4082 121.065 26.8879 121.922 27.4796 121.922Z" fill="url(#paint40_linear_2288_1157)"/>
<path d="M26.3531 123.475C26.7715 123.056 26.5048 122.111 25.7573 121.364C25.0098 120.616 24.0647 120.349 23.6463 120.768C23.2279 121.186 23.4946 122.131 24.2421 122.879C24.9896 123.626 25.9347 123.893 26.3531 123.475Z" fill="url(#paint41_linear_2288_1157)"/>
<path opacity="0.48" d="M151.57 90.4235C152.816 88.4681 152.241 85.8727 150.286 84.6265C148.331 83.3803 145.735 83.9552 144.489 85.9106C143.243 87.866 143.818 90.4614 145.773 91.7076C147.728 92.9539 150.324 92.3789 151.57 90.4235Z" fill="#EF8C48"/>
<path d="M27.2049 134.134C27.7793 133.56 27.4137 132.263 26.3882 131.238C25.3627 130.212 24.0657 129.846 23.4913 130.421C22.9168 130.995 23.2825 132.292 24.308 133.318C25.3334 134.343 26.6304 134.709 27.2049 134.134Z" fill="url(#paint42_linear_2288_1157)"/>
<path d="M27.0583 139.898C27.7948 139.555 27.8955 138.211 27.2832 136.896C26.671 135.582 25.5777 134.794 24.8413 135.137C24.1048 135.48 24.0041 136.824 24.6163 138.138C25.2286 139.453 26.3219 140.241 27.0583 139.898Z" fill="url(#paint43_linear_2288_1157)"/>
<path d="M183.625 68.7287L183.538 68.2426C183.49 67.9781 183.237 67.8024 182.972 67.8502L155.838 72.7519C155.573 72.7997 155.398 73.0529 155.445 73.3174L155.533 73.8034C155.581 74.0679 155.834 74.2436 156.099 74.1958L183.233 69.2941C183.498 69.2463 183.673 68.9932 183.625 68.7287Z" fill="#223762"/>
<path d="M169.945 125.662L170.43 125.754C170.694 125.803 170.949 125.63 170.998 125.365L181.455 69.8102C181.505 69.5461 181.331 69.2916 181.067 69.2419L180.582 69.1505C180.318 69.1008 180.063 69.2746 180.013 69.5388L169.556 125.094C169.507 125.358 169.68 125.613 169.945 125.662Z" fill="#223762"/>
<path d="M159.635 72.5359L157.271 71.029C156.769 70.7088 156.102 70.8565 155.782 71.3589L146.17 86.4401C145.85 86.9424 145.998 87.6093 146.5 87.9294L148.865 89.4364C149.367 89.7565 150.034 89.6088 150.354 89.1064L159.965 74.0253C160.286 73.5229 160.138 72.8561 159.635 72.5359Z" fill="url(#paint44_linear_2288_1157)"/>
<path d="M150.55 89.7743C151.437 88.3821 151.028 86.5344 149.636 85.6471C148.244 84.7599 146.396 85.1692 145.509 86.5614C144.622 87.9535 145.031 89.8013 146.423 90.6885C147.815 91.5757 149.663 91.1664 150.55 89.7743Z" fill="url(#paint45_linear_2288_1157)"/>
<path d="M153.949 78.8615C149.816 76.2284 143.482 78.7707 139.803 84.5455L154.774 94.0684C158.453 88.3118 158.082 81.4983 153.949 78.8615Z" fill="url(#paint46_linear_2288_1157)"/>
<path d="M139.801 84.5459L143.825 87.11C146.516 82.8897 150.021 79.8462 153.301 78.506C149.175 76.4976 143.295 79.0653 139.801 84.5459Z" fill="#223762"/>
<path d="M172.853 126.209L173.338 126.301C173.602 126.35 173.857 126.176 173.906 125.912L184.364 70.3571C184.413 70.0929 184.239 69.8385 183.975 69.7888L183.49 69.6974C183.226 69.6477 182.971 69.8215 182.922 70.0857L172.464 125.641C172.415 125.905 172.589 126.16 172.853 126.209Z" fill="#223762"/>
<path d="M181.099 73.8965C183.076 73.8965 184.68 72.2932 184.68 70.3155C184.68 68.3377 183.076 66.7344 181.099 66.7344C179.121 66.7344 177.518 68.3377 177.518 70.3155C177.518 72.2932 179.121 73.8965 181.099 73.8965Z" fill="#223762"/>
<path d="M181.767 73.8965C183.744 73.8965 185.348 72.2932 185.348 70.3155C185.348 68.3377 183.744 66.7344 181.767 66.7344C179.789 66.7344 178.186 68.3377 178.186 70.3155C178.186 72.2932 179.789 73.8965 181.767 73.8965Z" fill="#4C93F4"/>
<path d="M181.767 72.1098C182.758 72.1098 183.561 71.3065 183.561 70.3157C183.561 69.3248 182.758 68.5215 181.767 68.5215C180.776 68.5215 179.973 69.3248 179.973 70.3157C179.973 71.3065 180.776 72.1098 181.767 72.1098Z" fill="#223762"/>
<path d="M19.9133 129.326L192.945 129.326V123.987L19.9133 123.987V129.326Z" fill="url(#paint47_linear_2288_1157)"/>
<path d="M161.108 129.326H192.945V123.987H161.108V129.326Z" fill="#3769A5"/>
<path d="M19.9133 129.326L192.945 129.326V127.59L19.9133 127.59V129.326Z" fill="#83A4D6"/>
<path d="M161.257 129.326H192.945V127.59H161.257V129.326Z" fill="#223762"/>
<path d="M165.837 195.547H170.377L152.632 129.326H148.092L165.837 195.547Z" fill="url(#paint48_linear_2288_1157)"/>
<path d="M130.212 195.547H125.672L143.417 129.326H147.957L130.212 195.547Z" fill="url(#paint49_linear_2288_1157)"/>
<path d="M104.799 123.984H79.5061V122.67H103.924C104.155 122.67 104.376 122.761 104.54 122.925C104.703 123.088 104.795 123.31 104.795 123.541V123.981L104.799 123.984Z" fill="#3769A5"/>
<path d="M61.7429 114.221H120.754C121.02 114.226 121.284 114.174 121.529 114.069C121.773 113.964 121.992 113.807 122.172 113.611C122.351 113.414 122.486 113.182 122.569 112.929C122.651 112.676 122.679 112.408 122.65 112.144L119.334 74.2594C119.277 73.6969 119.015 73.1749 118.599 72.7921C118.183 72.4094 117.641 72.1923 117.075 72.1819H58.071C57.805 72.1773 57.541 72.2293 57.2967 72.3345C57.0523 72.4398 56.8332 72.5959 56.6538 72.7924C56.4745 72.989 56.3391 73.2214 56.2565 73.4744C56.174 73.7273 56.1462 73.9949 56.1752 74.2594L59.4911 112.144C59.5486 112.705 59.8091 113.226 60.2239 113.609C60.6386 113.991 61.1788 114.209 61.7429 114.221Z" fill="#223762"/>
<path d="M60.1235 114.221H119.128C119.394 114.226 119.658 114.174 119.902 114.069C120.146 113.964 120.366 113.807 120.545 113.611C120.724 113.414 120.86 113.182 120.942 112.929C121.025 112.676 121.052 112.408 121.024 112.144L117.708 74.2594C117.65 73.6969 117.388 73.1749 116.972 72.7921C116.556 72.4094 116.014 72.1923 115.449 72.1819H56.448C56.182 72.1773 55.918 72.2293 55.6736 72.3345C55.4293 72.4398 55.2101 72.5959 55.0308 72.7924C54.8515 72.989 54.716 73.2214 54.6335 73.4744C54.5509 73.7273 54.5232 73.9949 54.5521 74.2594L57.8681 112.144C57.9256 112.706 58.1867 113.227 58.6022 113.61C59.0176 113.993 59.5587 114.21 60.1235 114.221Z" fill="url(#paint50_linear_2288_1157)"/>
<path d="M61.9059 123.984C61.8166 123.985 61.729 123.961 61.6524 123.915C61.5758 123.869 61.5132 123.803 61.4713 123.724C61.4294 123.645 61.4099 123.556 61.4148 123.467C61.4197 123.378 61.4489 123.292 61.4991 123.218C62.1861 122.258 63.0923 121.475 64.1424 120.935C65.1926 120.395 66.3564 120.113 67.5372 120.113C68.718 120.113 69.8819 120.395 70.932 120.935C71.9821 121.475 72.8883 122.258 73.5753 123.218C73.6255 123.292 73.6547 123.378 73.6596 123.467C73.6645 123.556 73.645 123.645 73.6031 123.724C73.5613 123.803 73.4987 123.869 73.4221 123.915C73.3455 123.961 73.2578 123.985 73.1685 123.984H61.9059Z" fill="#4C93F4"/>
<path d="M68.4214 122.837C67.9612 121.858 67.3483 120.958 66.6055 120.171C66.9115 120.133 67.2196 120.114 67.528 120.113C68.7093 120.112 69.8738 120.393 70.9245 120.934C71.9751 121.474 72.8814 122.257 73.5679 123.219C73.6181 123.292 73.6473 123.379 73.6522 123.468C73.6571 123.557 73.6376 123.646 73.5957 123.724C73.5538 123.803 73.4912 123.869 73.4146 123.915C73.3381 123.961 73.2504 123.985 73.1611 123.985H68.0038C68.4105 123.985 68.643 123.317 68.4214 122.837Z" fill="#223762"/>
<path d="M43.5642 143.158C40.241 151.54 34.7277 157.991 28.8477 161.208C36.9868 152.012 45.1913 119.932 45.1913 119.932C47.2833 126.306 46.8874 134.775 43.5642 143.158Z" fill="url(#paint51_linear_2288_1157)"/>
<path d="M30.508 137.979C33.8312 129.596 39.3445 123.153 45.2246 119.932C45.2246 119.932 37.0055 152.012 28.8809 161.208C26.7744 154.834 27.1703 146.368 30.508 137.979Z" fill="url(#paint52_linear_2288_1157)"/>
<path d="M30.508 137.979C33.8312 129.596 39.3445 123.153 45.2246 119.932C45.2246 119.932 37.0055 152.012 28.8809 161.208C26.7744 154.834 27.1703 146.368 30.508 137.979Z" fill="url(#paint53_linear_2288_1157)"/>
<path d="M36.9567 144.411C37.2713 143.66 37.1845 142.907 36.7627 142.731C36.3408 142.554 35.7438 143.02 35.4291 143.771C35.1145 144.522 35.2013 145.274 35.6231 145.451C36.045 145.628 36.642 145.162 36.9567 144.411Z" fill="url(#paint54_linear_2288_1157)"/>
<path d="M31.6285 145.27C31.9431 144.519 31.8562 143.767 31.4344 143.59C31.0126 143.413 30.4156 143.879 30.101 144.63C29.7863 145.381 29.8732 146.133 30.295 146.31C30.7168 146.487 31.3138 146.021 31.6285 145.27Z" fill="url(#paint55_linear_2288_1157)"/>
<path d="M34.3605 146.222C34.7837 146.049 34.8766 145.297 34.568 144.544C34.2594 143.79 33.6661 143.319 33.2429 143.493C32.8196 143.666 32.7267 144.418 33.0354 145.171C33.344 145.925 33.9373 146.395 34.3605 146.222Z" fill="url(#paint56_linear_2288_1157)"/>
<path d="M33.9249 149.072C34.3481 148.898 34.4411 148.147 34.1324 147.393C33.8238 146.64 33.2305 146.169 32.8073 146.342C32.3841 146.516 32.2912 147.267 32.5998 148.021C32.9084 148.774 33.5017 149.245 33.9249 149.072Z" fill="url(#paint57_linear_2288_1157)"/>
<path d="M31.7884 154.059C32.3694 153.822 32.4971 152.79 32.0737 151.757C31.6503 150.723 30.8361 150.077 30.2551 150.315C29.6741 150.553 29.5464 151.584 29.9697 152.618C30.3931 153.652 31.2074 154.297 31.7884 154.059Z" fill="url(#paint58_linear_2288_1157)"/>
<path d="M29.964 158.118C30.5913 158.093 31.0645 157.168 31.0208 156.052C30.9772 154.935 30.4332 154.05 29.8058 154.075C29.1785 154.099 28.7053 155.024 28.749 156.141C28.7927 157.257 29.3366 158.142 29.964 158.118Z" fill="url(#paint59_linear_2288_1157)"/>
<path d="M0 199.484H207.165L192.946 195.547H13.1149L0 199.484Z" fill="url(#paint60_linear_2288_1157)"/>
<path d="M86.0697 123.985H71.4258L82.5068 90.8145H92.7633L86.0697 123.985Z" fill="#3769A5"/>
<path d="M84.9173 123.985H70.2734L81.3544 90.8145H91.611L84.9173 123.985Z" fill="#223762"/>
<path d="M86.9151 82.0602C86.8192 81.7212 86.7727 81.3702 86.7771 81.0179C86.4093 80.9655 86.0343 81.008 85.6875 81.1414C84.3292 81.6716 83.6173 83.4258 84.0967 85.0602C84.5762 86.6946 86.0652 87.6025 87.4272 87.0541C88.495 86.6364 89.156 85.4597 89.156 84.1813C88.6176 84.0817 88.1196 83.8285 87.7219 83.4521C87.3243 83.0757 87.0441 82.5923 86.9151 82.0602Z" fill="#D6E3FA"/>
<path d="M128.803 61.7109C128.803 61.7109 127.982 66.3634 128.131 67.522C128.28 68.6806 131.28 67.8344 131.28 67.8344" stroke="#EB6057" stroke-linecap="round" stroke-linejoin="round"/>
<path d="M140.965 49.0722C137.697 47.8046 127.814 50.7428 126.412 49.37C125.977 48.945 125.639 47.9463 125.381 46.7695C125.09 47.2816 124.882 47.8371 124.767 48.4148C124.226 51.4874 125.13 52.2319 126.67 52.6823C128.21 53.1327 135.169 52.3191 137.588 53.1653C140.007 54.0116 141.176 55.4135 141.528 57.5237C141.881 59.6338 140.907 64.3153 140.907 64.3153C140.907 64.3153 144.238 50.3397 140.965 49.0722Z" fill="url(#paint61_linear_2288_1157)"/>
<path d="M126.039 123.985C126.626 123.985 127.103 123.333 127.103 122.529C127.103 121.724 126.626 121.072 126.039 121.072C125.451 121.072 124.975 121.724 124.975 122.529C124.975 123.333 125.451 123.985 126.039 123.985Z" fill="#4C93F4"/>
<path d="M142.884 61.4399C142.884 61.4399 143.766 60.8443 144.06 61.6433C144.355 62.4424 144.326 63.2051 143.316 63.6954C143.154 63.7649 142.972 63.7731 142.804 63.7183C142.636 63.6635 142.494 63.5495 142.404 63.3976" stroke="#EB6057" stroke-linecap="round" stroke-linejoin="round"/>
<defs>
<linearGradient id="paint0_linear_2288_1157" x1="218.053" y1="132.711" x2="183.114" y2="175.284" gradientUnits="userSpaceOnUse">
<stop stop-color="#EAF1FC"/>
<stop offset="1" stop-color="#C0D4F4"/>
</linearGradient>
<linearGradient id="paint1_linear_2288_1157" x1="123408" y1="43822.3" x2="-22963.8" y2="105315" gradientUnits="userSpaceOnUse">
<stop stop-color="#EAF1FC"/>
<stop offset="1" stop-color="#C0D4F4"/>
</linearGradient>
<linearGradient id="paint2_linear_2288_1157" x1="116.839" y1="195.555" x2="123.249" y2="197.781" gradientUnits="userSpaceOnUse">
<stop stop-color="#223762"/>
<stop offset="1" stop-color="#041B48"/>
</linearGradient>
<linearGradient id="paint3_linear_2288_1157" x1="34988.4" y1="2155.26" x2="34926.2" y2="2342.24" gradientUnits="userSpaceOnUse">
<stop stop-color="#223762"/>
<stop offset="1" stop-color="#041B48"/>
</linearGradient>
<linearGradient id="paint4_linear_2288_1157" x1="1646.46" y1="22079.1" x2="1972.82" y2="22047.7" gradientUnits="userSpaceOnUse">
<stop stop-color="#223762"/>
<stop offset="1" stop-color="#041B48"/>
</linearGradient>
<linearGradient id="paint5_linear_2288_1157" x1="3094.09" y1="3698.22" x2="3208.54" y2="3588.59" gradientUnits="userSpaceOnUse">
<stop stop-color="#223762"/>
<stop offset="1" stop-color="#041B48"/>
</linearGradient>
<linearGradient id="paint6_linear_2288_1157" x1="76.2485" y1="176.378" x2="76.2485" y2="116.469" gradientUnits="userSpaceOnUse">
<stop stop-color="#3769A5"/>
<stop offset="1" stop-color="#08448B"/>
</linearGradient>
<linearGradient id="paint7_linear_2288_1157" x1="-22644.9" y1="32288.1" x2="-22644.9" y2="21365" gradientUnits="userSpaceOnUse">
<stop stop-color="#3769A5"/>
<stop offset="1" stop-color="#08448B"/>
</linearGradient>
<linearGradient id="paint8_linear_2288_1157" x1="-30337" y1="26727.6" x2="-30337" y2="23392" gradientUnits="userSpaceOnUse">
<stop stop-color="#3769A5"/>
<stop offset="1" stop-color="#08448B"/>
</linearGradient>
<linearGradient id="paint9_linear_2288_1157" x1="-28984" y1="26727.6" x2="-28984" y2="23392" gradientUnits="userSpaceOnUse">
<stop stop-color="#3769A5"/>
<stop offset="1" stop-color="#08448B"/>
</linearGradient>
<linearGradient id="paint10_linear_2288_1157" x1="53.4767" y1="172.996" x2="53.4767" y2="128.658" gradientUnits="userSpaceOnUse">
<stop stop-color="#A7BDE5"/>
<stop offset="1" stop-color="#2F66CB"/>
</linearGradient>
<linearGradient id="paint11_linear_2288_1157" x1="7244.71" y1="6692.66" x2="7217.67" y2="6491.37" gradientUnits="userSpaceOnUse">
<stop stop-color="#223762"/>
<stop offset="1" stop-color="#041B48"/>
</linearGradient>
<linearGradient id="paint12_linear_2288_1157" x1="4873.65" y1="6692.66" x2="4846.69" y2="6491.41" gradientUnits="userSpaceOnUse">
<stop stop-color="#223762"/>
<stop offset="1" stop-color="#041B48"/>
</linearGradient>
<linearGradient id="paint13_linear_2288_1157" x1="2702.99" y1="2090.82" x2="2697.32" y2="2046.37" gradientUnits="userSpaceOnUse">
<stop stop-color="#223762"/>
<stop offset="1" stop-color="#041B48"/>
</linearGradient>
<linearGradient id="paint14_linear_2288_1157" x1="29413.9" y1="24825.5" x2="29293.8" y2="24251.9" gradientUnits="userSpaceOnUse">
<stop stop-color="#223762"/>
<stop offset="1" stop-color="#041B48"/>
</linearGradient>
<linearGradient id="paint15_linear_2288_1157" x1="96.4269" y1="117.958" x2="107.464" y2="108.344" gradientUnits="userSpaceOnUse">
<stop stop-color="#FFC063"/>
<stop offset="0.95" stop-color="#E44D0B"/>
</linearGradient>
<linearGradient id="paint16_linear_2288_1157" x1="6429.71" y1="27736.2" x2="9781.24" y2="25901.8" gradientUnits="userSpaceOnUse">
<stop stop-color="#3769A5"/>
<stop offset="1" stop-color="#08448B"/>
</linearGradient>
<linearGradient id="paint17_linear_2288_1157" x1="5818.5" y1="27602.3" x2="8869.53" y2="26119.9" gradientUnits="userSpaceOnUse">
<stop stop-color="#223762"/>
<stop offset="1" stop-color="#041B48"/>
</linearGradient>
<linearGradient id="paint18_linear_2288_1157" x1="143.472" y1="79.4286" x2="110.062" y2="183.051" gradientUnits="userSpaceOnUse">
<stop stop-color="#FFC063"/>
<stop offset="1" stop-color="#E58F0F"/>
</linearGradient>
<linearGradient id="paint19_linear_2288_1157" x1="17183.7" y1="13166.8" x2="10173" y2="28886.7" gradientUnits="userSpaceOnUse">
<stop stop-color="#FFC063"/>
<stop offset="0.95" stop-color="#E44D0B"/>
</linearGradient>
<linearGradient id="paint20_linear_2288_1157" x1="13224.4" y1="14546.1" x2="18420.9" y2="14546.1" gradientUnits="userSpaceOnUse">
<stop stop-color="#FFC063"/>
<stop offset="0.95" stop-color="#E44D0B"/>
</linearGradient>
<linearGradient id="paint21_linear_2288_1157" x1="95.0903" y1="173.163" x2="121.592" y2="149.519" gradientUnits="userSpaceOnUse">
<stop stop-color="#4C93F4"/>
<stop offset="1" stop-color="#0B63DA"/>
</linearGradient>
<linearGradient id="paint22_linear_2288_1157" x1="15849.8" y1="26901.5" x2="15717.2" y2="26843.5" gradientUnits="userSpaceOnUse">
<stop stop-color="#3769A5"/>
<stop offset="1" stop-color="#08448B"/>
</linearGradient>
<linearGradient id="paint23_linear_2288_1157" x1="126.914" y1="122.75" x2="140.294" y2="117.807" gradientUnits="userSpaceOnUse">
<stop stop-color="#F8A695"/>
<stop offset="1" stop-color="#E56045"/>
</linearGradient>
<linearGradient id="paint24_linear_2288_1157" x1="3621.99" y1="2186.24" x2="3615.63" y2="2138.47" gradientUnits="userSpaceOnUse">
<stop stop-color="#223762"/>
<stop offset="1" stop-color="#041B48"/>
</linearGradient>
<linearGradient id="paint25_linear_2288_1157" x1="10885.3" y1="10055.6" x2="14749" y2="13126.9" gradientUnits="userSpaceOnUse">
<stop stop-color="#FFC063"/>
<stop offset="0.95" stop-color="#E44D0B"/>
</linearGradient>
<linearGradient id="paint26_linear_2288_1157" x1="12828.9" y1="28930.7" x2="13452.9" y2="28278.8" gradientUnits="userSpaceOnUse">
<stop stop-color="#3769A5"/>
<stop offset="1" stop-color="#08448B"/>
</linearGradient>
<linearGradient id="paint27_linear_2288_1157" x1="3902.55" y1="1963.27" x2="3900.03" y2="1846.87" gradientUnits="userSpaceOnUse">
<stop stop-color="#F8A695"/>
<stop offset="1" stop-color="#E56045"/>
</linearGradient>
<linearGradient id="paint28_linear_2288_1157" x1="3521.58" y1="2846.14" x2="3470.6" y2="2927.01" gradientUnits="userSpaceOnUse">
<stop stop-color="#223762"/>
<stop offset="1" stop-color="#041B48"/>
</linearGradient>
<linearGradient id="paint29_linear_2288_1157" x1="7534.53" y1="5089.4" x2="7976.03" y2="3620.71" gradientUnits="userSpaceOnUse">
<stop stop-color="#F8A695"/>
<stop offset="1" stop-color="#E56045"/>
</linearGradient>
<linearGradient id="paint30_linear_2288_1157" x1="8698.35" y1="5081.34" x2="9041.99" y2="6972.71" gradientUnits="userSpaceOnUse">
<stop stop-color="#223762"/>
<stop offset="1" stop-color="#041B48"/>
</linearGradient>
<linearGradient id="paint31_linear_2288_1157" x1="8811.34" y1="6837.84" x2="7301.69" y2="8666.15" gradientUnits="userSpaceOnUse">
<stop stop-color="#4C93F4"/>
<stop offset="1" stop-color="#0B63DA"/>
</linearGradient>
<linearGradient id="paint32_linear_2288_1157" x1="-21270.6" y1="31671.6" x2="-21270.6" y2="23587.4" gradientUnits="userSpaceOnUse">
<stop stop-color="#A7BDE5"/>
<stop offset="1" stop-color="#2F66CB"/>
</linearGradient>
<linearGradient id="paint33_linear_2288_1157" x1="16016.3" y1="20426.5" x2="15212.4" y2="20426.5" gradientUnits="userSpaceOnUse">
<stop stop-color="#223762"/>
<stop offset="1" stop-color="#041B48"/>
</linearGradient>
<linearGradient id="paint34_linear_2288_1157" x1="9927.44" y1="8283.54" x2="11527.6" y2="9385.5" gradientUnits="userSpaceOnUse">
<stop stop-color="#223762"/>
<stop offset="1" stop-color="#041B48"/>
</linearGradient>
<linearGradient id="paint35_linear_2288_1157" x1="-8939.33" y1="18944" x2="-8705.29" y2="18944" gradientUnits="userSpaceOnUse">
<stop stop-color="#3769A5"/>
<stop offset="1" stop-color="#08448B"/>
</linearGradient>
<linearGradient id="paint36_linear_2288_1157" x1="9806.7" y1="14532.3" x2="16286.5" y2="19936.4" gradientUnits="userSpaceOnUse">
<stop stop-color="#4C93F4"/>
<stop offset="1" stop-color="#0B63DA"/>
</linearGradient>
<linearGradient id="paint37_linear_2288_1157" x1="-14777" y1="10651.3" x2="-16843.9" y2="12424.3" gradientUnits="userSpaceOnUse">
<stop stop-color="#3769A5"/>
<stop offset="1" stop-color="#08448B"/>
</linearGradient>
<linearGradient id="paint38_linear_2288_1157" x1="-0.17863" y1="170.767" x2="36.1369" y2="186.965" gradientUnits="userSpaceOnUse">
<stop stop-color="#FF9F5B"/>
<stop offset="1" stop-color="#E5670E"/>
</linearGradient>
<linearGradient id="paint39_linear_2288_1157" x1="-9667.33" y1="13695.1" x2="-9846.1" y2="13695.1" gradientUnits="userSpaceOnUse">
<stop stop-color="#FF9F5B"/>
<stop offset="1" stop-color="#E5670E"/>
</linearGradient>
<linearGradient id="paint40_linear_2288_1157" x1="1658.47" y1="1262.22" x2="1680.85" y2="1295.36" gradientUnits="userSpaceOnUse">
<stop stop-color="#4C93F4"/>
<stop offset="1" stop-color="#0B63DA"/>
</linearGradient>
<linearGradient id="paint41_linear_2288_1157" x1="1054.75" y1="1328.6" x2="1094.02" y2="1336.2" gradientUnits="userSpaceOnUse">
<stop stop-color="#4C93F4"/>
<stop offset="1" stop-color="#0B63DA"/>
</linearGradient>
<linearGradient id="paint42_linear_2288_1157" x1="1443.17" y1="1875.68" x2="1496.99" y2="1886.16" gradientUnits="userSpaceOnUse">
<stop stop-color="#4C93F4"/>
<stop offset="1" stop-color="#0B63DA"/>
</linearGradient>
<linearGradient id="paint43_linear_2288_1157" x1="1888.16" y1="2000.24" x2="1935.13" y2="2028.52" gradientUnits="userSpaceOnUse">
<stop stop-color="#4C93F4"/>
<stop offset="1" stop-color="#0B63DA"/>
</linearGradient>
<linearGradient id="paint44_linear_2288_1157" x1="5824.53" y1="5113.25" x2="6077.66" y2="5033.57" gradientUnits="userSpaceOnUse">
<stop stop-color="#4C93F4"/>
<stop offset="1" stop-color="#0B63DA"/>
</linearGradient>
<linearGradient id="paint45_linear_2288_1157" x1="2526.35" y1="1599.69" x2="2551.47" y2="1566.64" gradientUnits="userSpaceOnUse">
<stop stop-color="#FFC063"/>
<stop offset="0.95" stop-color="#E44D0B"/>
</linearGradient>
<linearGradient id="paint46_linear_2288_1157" x1="21744.4" y1="4219.12" x2="22090.1" y2="3751.89" gradientUnits="userSpaceOnUse">
<stop stop-color="#4C93F4"/>
<stop offset="1" stop-color="#0B63DA"/>
</linearGradient>
<linearGradient id="paint47_linear_2288_1157" x1="180500" y1="1949.95" x2="200502" y2="38869.8" gradientUnits="userSpaceOnUse">
<stop stop-color="#A7BDE5"/>
<stop offset="1" stop-color="#2F66CB"/>
</linearGradient>
<linearGradient id="paint48_linear_2288_1157" x1="-29010.9" y1="29600.2" x2="-29010.9" y2="21104.1" gradientUnits="userSpaceOnUse">
<stop stop-color="#A7BDE5"/>
<stop offset="1" stop-color="#2F66CB"/>
</linearGradient>
<linearGradient id="paint49_linear_2288_1157" x1="-27657.6" y1="29600.2" x2="-27657.6" y2="21104.1" gradientUnits="userSpaceOnUse">
<stop stop-color="#A7BDE5"/>
<stop offset="1" stop-color="#2F66CB"/>
</linearGradient>
<linearGradient id="paint50_linear_2288_1157" x1="18625.5" y1="8107.3" x2="15473.1" y2="16796.7" gradientUnits="userSpaceOnUse">
<stop stop-color="#4C93F4"/>
<stop offset="1" stop-color="#0B63DA"/>
</linearGradient>
<linearGradient id="paint51_linear_2288_1157" x1="-17513.1" y1="13508.1" x2="-15456.4" y2="16869.7" gradientUnits="userSpaceOnUse">
<stop stop-color="#3769A5"/>
<stop offset="1" stop-color="#08448B"/>
</linearGradient>
<linearGradient id="paint52_linear_2288_1157" x1="16992.5" y1="13375.6" x2="14936" y2="16737.8" gradientUnits="userSpaceOnUse">
<stop stop-color="#4C93F4"/>
<stop offset="1" stop-color="#0B63DA"/>
</linearGradient>
<linearGradient id="paint53_linear_2288_1157" x1="17060.4" y1="12767.6" x2="14112.7" y2="17586.7" gradientUnits="userSpaceOnUse">
<stop stop-color="#4C93F4"/>
<stop offset="1" stop-color="#0B63DA"/>
</linearGradient>
<linearGradient id="paint54_linear_2288_1157" x1="3151.35" y1="1641.4" x2="3148.4" y2="1656.87" gradientUnits="userSpaceOnUse">
<stop stop-color="#4C93F4"/>
<stop offset="1" stop-color="#0B63DA"/>
</linearGradient>
<linearGradient id="paint55_linear_2288_1157" x1="3116.5" y1="1641.97" x2="3113.57" y2="1657.46" gradientUnits="userSpaceOnUse">
<stop stop-color="#4C93F4"/>
<stop offset="1" stop-color="#0B63DA"/>
</linearGradient>
<linearGradient id="paint56_linear_2288_1157" x1="1093.98" y1="1343.05" x2="1113.74" y2="1356.3" gradientUnits="userSpaceOnUse">
<stop stop-color="#4C93F4"/>
<stop offset="1" stop-color="#0B63DA"/>
</linearGradient>
<linearGradient id="paint57_linear_2288_1157" x1="1096.83" y1="1366.7" x2="1116.58" y2="1379.92" gradientUnits="userSpaceOnUse">
<stop stop-color="#4C93F4"/>
<stop offset="1" stop-color="#0B63DA"/>
</linearGradient>
<linearGradient id="paint58_linear_2288_1157" x1="1542.19" y1="1827.8" x2="1569.31" y2="1845.99" gradientUnits="userSpaceOnUse">
<stop stop-color="#4C93F4"/>
<stop offset="1" stop-color="#0B63DA"/>
</linearGradient>
<linearGradient id="paint59_linear_2288_1157" x1="1705.31" y1="1748.47" x2="1724.56" y2="1774.85" gradientUnits="userSpaceOnUse">
<stop stop-color="#4C93F4"/>
<stop offset="1" stop-color="#0B63DA"/>
</linearGradient>
<linearGradient id="paint60_linear_2288_1157" x1="298084" y1="2336.61" x2="179917" y2="2336.61" gradientUnits="userSpaceOnUse">
<stop stop-color="#223762"/>
<stop offset="1" stop-color="#041B48"/>
</linearGradient>
<linearGradient id="paint61_linear_2288_1157" x1="7101.72" y1="2880.24" x2="6701.18" y2="2521.96" gradientUnits="userSpaceOnUse">
<stop stop-color="#223762"/>
<stop offset="1" stop-color="#041B48"/>
</linearGradient>
</defs>
</svg>
