<svg width="45" height="45" viewBox="0 0 45 45" fill="none" xmlns="http://www.w3.org/2000/svg">
<circle cx="22.5" cy="22.5" r="22" stroke="#3B41E3"/>
<circle cx="22.5" cy="22.5" r="17.5" fill="#3B41E3"/>
<path d="M19.3508 26.52C20.3748 25.6347 21.1801 24.9093 21.7668 24.344C22.3641 23.768 22.8601 23.1707 23.2548 22.552C23.6495 21.9333 23.8468 21.3147 23.8468 20.696C23.8468 20.056 23.6921 19.5547 23.3828 19.192C23.0841 18.8293 22.6095 18.648 21.9588 18.648C21.3295 18.648 20.8388 18.8507 20.4868 19.256C20.1455 19.6507 19.9641 20.184 19.9428 20.856H18.1828C18.2148 19.64 18.5775 18.712 19.2708 18.072C19.9748 17.4213 20.8655 17.096 21.9428 17.096C23.1055 17.096 24.0121 17.416 24.6628 18.056C25.3241 18.696 25.6548 19.5493 25.6548 20.616C25.6548 21.384 25.4575 22.1253 25.0628 22.84C24.6788 23.544 24.2148 24.1787 23.6708 24.744C23.1375 25.2987 22.4548 25.944 21.6228 26.68L20.9028 27.32H25.9748V28.84H18.1988V27.512L19.3508 26.52Z" fill="white"/>
</svg>
