<svg width="192" height="200" viewBox="0 0 192 200" fill="none" xmlns="http://www.w3.org/2000/svg">
<path opacity="0.49" d="M41.3044 149.471C41.5582 108.599 8.47963 83.6893 2.11639 64.243C-7.44291 35.0415 17.2905 -3.48476 85.7057 21.3611C154.121 46.2069 171.527 59.0779 177.364 103.826C182.034 139.635 155.264 171.169 133.901 183.734C100.475 203.386 41.0506 190.342 41.3044 149.471Z" fill="url(#paint0_linear_2288_1264)"/>
<path d="M34.3145 122.722C32.641 143.425 41.06 162.652 51.5283 175.424C63.9143 164.503 72.7541 146.672 74.4276 125.957C76.1011 105.242 70.2358 86.2421 59.7642 73.4707C47.375 84.4112 35.9752 102.02 34.3145 122.722Z" fill="url(#paint1_linear_2288_1264)"/>
<path d="M42.0769 43.412C41.5887 61.1654 45.4175 77.0783 51.7647 87.4182C58.6708 77.4381 63.3701 61.7597 63.8584 44.0062C64.3466 26.2528 60.5274 10.3463 54.1802 0C47.2741 9.98009 42.5748 25.6585 42.0769 43.412Z" fill="url(#paint2_linear_2288_1264)"/>
<path d="M28.9077 73.2364C27.8863 57.1372 25.8112 28.1124 24.5874 11.1973C14.9703 26.1626 10.1328 48.0147 12.7025 71.6817C15.253 95.0789 24.4878 115.168 36.877 127.749C33.9122 111.721 29.8393 87.8869 28.9077 73.2364Z" fill="url(#paint3_linear_2288_1264)"/>
<path d="M50.1404 67.6097C47.5386 43.6054 37.8797 23.0446 24.9958 10.543C24.8545 10.755 24.726 10.983 24.5879 11.1854C25.8117 28.1133 27.8867 57.1382 28.9082 73.2374C29.8397 87.8911 33.9127 111.725 36.8775 127.754C37.1987 128.075 37.5199 128.431 37.8411 128.753C47.7474 113.768 52.7487 91.614 50.1404 67.6097Z" fill="url(#paint4_linear_2288_1264)"/>
<path d="M52.0361 83.9899C49.2865 98.8524 51.3936 112.899 56.8543 122.722C65.4788 115.52 72.4588 103.128 75.2084 88.2749C77.958 73.422 75.8508 59.3657 70.3902 49.543C61.7753 56.7446 54.7953 69.1273 52.0361 83.9899Z" fill="url(#paint5_linear_2288_1264)"/>
<path d="M33.4243 80.3979C34.5953 80.2705 35.3603 78.473 35.1329 76.3831C34.9055 74.2933 33.7718 72.7024 32.6008 72.8298C31.4298 72.9572 30.6648 74.7547 30.8922 76.8446C31.1196 78.9345 32.2532 80.5253 33.4243 80.3979Z" fill="url(#paint6_linear_2288_1264)"/>
<path d="M40.0298 81.6019C41.3467 79.9634 41.6701 78.0369 40.7519 77.2989C39.8338 76.561 38.0219 77.2911 36.7049 78.9296C35.3879 80.5682 35.0646 82.4947 35.9828 83.2326C36.9009 83.9706 38.7128 83.2405 40.0298 81.6019Z" fill="url(#paint7_linear_2288_1264)"/>
<path d="M42.1454 102.265C43.9525 100.017 44.3951 97.3728 43.134 96.3593C41.873 95.3457 39.3857 96.3467 37.5786 98.595C35.7716 100.843 35.3289 103.488 36.59 104.501C37.8511 105.515 40.3383 104.514 42.1454 102.265Z" fill="url(#paint8_linear_2288_1264)"/>
<path d="M42.5711 111.863C43.4988 109.131 43.009 106.495 41.477 105.975C39.9451 105.455 37.9512 107.247 37.0235 109.978C36.0958 112.71 36.5856 115.346 38.1176 115.866C39.6495 116.386 41.6435 114.594 42.5711 111.863Z" fill="url(#paint9_linear_2288_1264)"/>
<path d="M8.68769 125.668C16.7855 141.687 28.8791 153.462 41.1142 158.788C23.3189 142.027 1.23554 79.9238 1.23554 79.9238C-1.72605 92.933 0.589901 109.652 8.68769 125.668Z" fill="url(#paint10_linear_2288_1264)"/>
<path d="M33.6628 113.041C25.5618 97.0252 13.4681 85.2495 1.23633 79.9238C1.23633 79.9238 23.3197 142.03 41.1149 158.788C44.0765 145.779 41.7574 129.057 33.6628 113.041Z" fill="url(#paint11_linear_2288_1264)"/>
<path d="M33.6628 113.041C25.5618 97.0252 13.4681 85.2495 1.23633 79.9238C1.23633 79.9238 23.3197 142.03 41.1149 158.788C44.0765 145.779 41.7574 129.057 33.6628 113.041Z" fill="url(#paint12_linear_2288_1264)"/>
<path d="M24.8351 128.789C25.6392 128.363 25.6753 126.856 24.9159 125.423C24.1564 123.991 22.8889 123.175 22.0848 123.601C21.2807 124.027 21.2446 125.534 22.0041 126.967C22.7636 128.4 24.0311 129.215 24.8351 128.789Z" fill="url(#paint13_linear_2288_1264)"/>
<path d="M35.5539 129.52C36.3579 129.093 36.3941 127.586 35.6346 126.154C34.8751 124.721 33.6076 123.905 32.8035 124.332C31.9995 124.758 31.9633 126.265 32.7228 127.697C33.4823 129.13 34.7498 129.946 35.5539 129.52Z" fill="url(#paint14_linear_2288_1264)"/>
<path d="M29.9204 127.77C30.3964 126.22 30.077 124.747 29.207 124.48C28.337 124.213 27.2459 125.253 26.77 126.803C26.294 128.353 26.6135 129.826 27.4834 130.093C28.3534 130.36 29.4445 129.32 29.9204 127.77Z" fill="url(#paint15_linear_2288_1264)"/>
<path d="M31.7359 132.749C32.2062 131.192 31.8791 129.716 31.0054 129.452C30.1318 129.188 29.0423 130.236 28.5721 131.793C28.1019 133.349 28.429 134.825 29.3026 135.089C30.1763 135.353 31.2657 134.305 31.7359 132.749Z" fill="url(#paint16_linear_2288_1264)"/>
<path d="M37.3376 141.971C37.9906 139.845 37.5535 137.824 36.3613 137.458C35.1691 137.092 33.6733 138.519 33.0203 140.646C32.3673 142.772 32.8044 144.793 33.9965 145.159C35.1887 145.525 36.6846 144.098 37.3376 141.971Z" fill="url(#paint17_linear_2288_1264)"/>
<path d="M38.3313 152.86C39.5768 152.796 40.4933 150.943 40.3784 148.721C40.2635 146.499 39.1607 144.751 37.9153 144.815C36.6698 144.879 35.7533 146.733 35.8682 148.954C35.9831 151.176 37.0858 152.925 38.3313 152.86Z" fill="url(#paint18_linear_2288_1264)"/>
<path d="M83.28 86.541H71.0739C70.6301 86.541 70.2044 86.7174 69.8906 87.0312C69.5767 87.3451 69.4004 87.7707 69.4004 88.2146V95.7374C69.4004 96.1812 69.5767 96.6069 69.8906 96.9207C70.2044 97.2346 70.6301 97.4109 71.0739 97.4109H73.74L76.2454 100.861H77.1705L80.6236 97.4109H83.2896C83.7335 97.4109 84.1592 97.2346 84.473 96.9207C84.7869 96.6069 84.9632 96.1812 84.9632 95.7374V88.2146C84.9632 87.994 84.9196 87.7756 84.8349 87.5719C84.7502 87.3682 84.626 87.1833 84.4696 87.0278C84.3132 86.8723 84.1276 86.7492 83.9234 86.6657C83.7192 86.5821 83.5006 86.5398 83.28 86.541Z" fill="url(#paint19_linear_2288_1264)"/>
<path d="M82.3542 86.541H70.1481C69.7043 86.541 69.2786 86.7173 68.9648 87.0312C68.6509 87.345 68.4746 87.7707 68.4746 88.2145V95.7373C68.4746 96.1812 68.6509 96.6069 68.9648 96.9207C69.2786 97.2346 69.7043 97.4109 70.1481 97.4109H72.8142L76.2448 100.861L79.685 97.4205H82.351C82.7949 97.4205 83.2205 97.2442 83.5344 96.9303C83.8482 96.6165 84.0245 96.1908 84.0245 95.747V88.2145C84.0245 87.7712 83.8487 87.3461 83.5355 87.0323C83.2224 86.7186 82.7975 86.5419 82.3542 86.541Z" fill="url(#paint20_linear_2288_1264)"/>
<path opacity="0.49" d="M144.047 35.1726C145.03 38.555 141.416 41.3206 138.484 39.4511C131.555 35.0313 117.656 27.8521 106.925 25.1411C91.8661 21.3347 104.393 3.11872 116.317 2.01375C128.24 0.908776 142.297 29.3651 143.996 35.012L144.047 35.1726Z" fill="url(#paint21_linear_2288_1264)"/>
<path opacity="0.45" d="M162.757 85.7188H145.309V103.167H162.757V85.7188Z" fill="url(#paint22_linear_2288_1264)"/>
<path d="M140.096 100.54L142.755 99.7624C145.415 98.985 145.325 93.4666 145.325 93.4666V84.2285H162.757V93.473C162.757 93.473 162.863 98.9947 160.188 99.7688L157.544 100.54H140.096Z" fill="url(#paint23_linear_2288_1264)"/>
<path opacity="0.45" d="M191.056 106.699L173.742 104.533L171.577 121.847L188.89 124.012L191.056 106.699Z" fill="url(#paint24_linear_2288_1264)"/>
<path d="M166.729 118.586L169.465 118.146C172.202 117.706 172.78 112.216 172.78 112.216L173.927 103.059L191.24 105.224L190.094 114.381C190.094 114.381 189.515 119.871 186.779 120.311L184.055 120.754L166.729 118.586Z" fill="url(#paint25_linear_2288_1264)"/>
<path opacity="0.45" d="M163.669 55.7082L146.504 61.1172L151.913 78.2827L169.078 72.8738L163.669 55.7082Z" fill="url(#paint26_linear_2288_1264)"/>
<path d="M145.965 77.3072L148.342 75.7205C150.719 74.1337 148.904 68.7341 148.904 68.7341L146.042 59.6534L163.204 54.2441L166.066 63.3248C166.066 63.3248 167.881 68.7212 165.504 70.3112L163.127 71.898L145.965 77.3072Z" fill="url(#paint27_linear_2288_1264)"/>
<path d="M56.1153 121.419C56.1153 121.419 56.7577 114.77 54.4579 111.67C52.158 108.571 49.1321 107.591 48.4158 106.852C47.6995 106.113 39.9358 98.4203 38.3008 97.8036C37.6841 97.5723 35.4099 97.0552 36.5791 100.441C37.7483 103.826 43.8642 106.91 43.5623 107.941C43.2604 108.972 40.1639 109.833 39.0428 112.958C37.9218 116.084 37.4368 119.261 40.8063 120.195C44.1758 121.13 51.1654 126.494 51.1654 126.494L56.1153 121.419Z" fill="url(#paint28_linear_2288_1264)"/>
<path d="M51.2271 124.004C51.2271 124.004 47.819 121.604 47.819 120.249C47.819 118.893 49.1456 112.354 49.1456 112.354C49.1456 112.354 47.2376 117.814 43.3638 120.358C43.0426 120.557 42.7663 120.731 42.4805 120.891C45.911 122.571 50.6393 126.159 51.0247 126.452L51.1372 125.025L51.2271 124.004Z" fill="url(#paint29_linear_2288_1264)"/>
<path d="M95.487 106.621L78.7389 138L57.147 116.46C57.147 116.46 51.4261 120.35 50.4754 123.912L49.5117 127.474C49.5117 127.474 74.5085 152.108 78.0001 154.238C81.4917 156.367 101.426 142.298 101.426 142.298L95.487 106.621Z" fill="url(#paint30_linear_2288_1264)"/>
<path d="M125.273 102.039C125.273 102.039 141.333 107.731 145.188 111.733C149.042 115.736 142.907 154.757 142.92 162.395C142.933 170.033 143.99 197.497 143.99 197.497C143.99 197.497 118.974 202.402 105.932 198.477C92.7048 194.497 89.7786 193.337 89.7786 193.337C89.7786 193.337 89.3385 144.192 89.5569 135.41C89.7753 126.628 92.3643 110.314 95.4737 106.603C98.583 102.893 108.059 102.428 108.059 102.428L125.273 102.039Z" fill="url(#paint31_linear_2288_1264)"/>
<path d="M102.466 145.072C102.466 145.072 112.796 157.24 120.64 162.961C128.484 168.681 128.841 178.379 126.393 183.904C123.946 189.429 102.505 188.642 96.5204 190.399C94.1814 191.118 91.9372 192.116 89.8359 193.37C90.2503 193.527 93.6423 194.774 105.942 198.477C118.98 202.402 143.999 197.497 143.999 197.497C143.999 197.497 142.939 170.034 142.939 162.395C142.939 159.951 143.562 154.291 144.291 147.597L102.466 145.072Z" fill="url(#paint32_linear_2288_1264)"/>
<path d="M108.004 102.163L104.24 102.902C104.24 102.902 103.877 105.603 106.992 108.324C110.108 111.044 114.101 110.627 118.293 108.59C122.484 106.554 125.273 102.041 125.273 102.041L122.594 101.434L108.004 102.163Z" fill="white"/>
<path d="M105.678 92.0862L108.071 102.468C108.071 102.468 109.677 104.395 114.042 104.35C118.407 104.305 122.596 101.459 122.596 101.459L122.471 90.8398L105.678 92.0862Z" fill="url(#paint33_linear_2288_1264)"/>
<path d="M98.9849 54.5488C98.9849 54.5488 98.3746 69.4692 98.3264 74.6825C98.2783 79.8958 104.751 81.0746 104.751 81.0746L113.95 70.9885L109.408 55.506L98.9849 54.5488Z" fill="url(#paint34_linear_2288_1264)"/>
<path d="M99.4606 72.3345C99.9071 78.1966 100.498 85.2762 103.103 91.4178C105.708 97.5594 117.953 98.6129 121.917 93.5924C125.88 88.5718 127.12 80.6636 127.12 80.6636C127.12 80.6636 131.338 80.8563 132.346 77.6859C133.355 74.5155 132.989 69.8226 131.017 68.9425C129.044 68.0624 127.201 70.2659 127.201 70.2659C127.201 70.2659 127.769 64.1628 123.346 60.4625C118.923 56.7621 102.467 58.4452 101.584 59.2483C100.7 60.0513 99.0141 66.4724 99.4606 72.3345Z" fill="url(#paint35_linear_2288_1264)"/>
<path d="M124.613 78.0293C124.613 78.0293 126.001 70.4551 125.349 67.0631C124.697 63.6711 122.76 61.4611 118.828 60.1891C114.896 58.9171 103.731 60.5103 101.219 59.8358C98.7073 59.1613 97.2361 58.0049 97.9878 53.0357C98.7394 48.0665 105.697 40.9485 115.847 41.7451C125.998 42.5417 130.893 46.9841 134.282 49.9681C137.67 52.9522 135.82 61.3487 135.081 68.3833C134.343 75.4179 132.126 85.0221 130.125 88.4174C128.124 91.8126 123.527 91.1637 123.527 91.1637L127.025 80.0048C127.025 80.0048 128.725 80.7114 130.61 78.3794C132.496 76.0474 133.18 71.9873 132.007 70.06C130.835 68.1327 127.732 68.6724 126.794 71.2003C125.856 73.7283 124.613 78.0293 124.613 78.0293Z" fill="url(#paint36_linear_2288_1264)"/>
<path d="M105.003 74.3281C105.003 74.3281 103.86 81.8574 104.145 83.714C104.431 85.5706 109.23 84.093 109.23 84.093" stroke="#EB6057" stroke-linecap="round" stroke-linejoin="round"/>
<path d="M124.11 53.4955C118.791 51.5682 102.987 56.7076 100.662 54.5394C99.9456 53.8713 99.3771 52.2909 98.8984 50.3926C98.4501 51.2295 98.1388 52.1328 97.9766 53.0683C97.2249 58.0407 98.6897 59.2067 101.208 59.8684C103.726 60.5301 114.885 58.9497 118.817 60.2217C122.749 61.4937 124.685 63.7037 125.338 67.0957C125.99 70.4877 124.615 78.0555 124.615 78.0555C124.615 78.0555 129.43 55.4131 124.11 53.4955Z" fill="url(#paint37_linear_2288_1264)"/>
<path d="M127.678 73.3452C127.678 73.3452 129.075 72.3527 129.583 73.6247C130.091 74.8967 130.068 76.1334 128.462 76.9621C127.566 77.4247 126.984 76.5188 126.984 76.5188" stroke="#EB6057" stroke-linecap="round" stroke-linejoin="round"/>
<path d="M101.526 132.865C101.526 132.865 99.4992 129.257 97.5141 127.725C95.529 126.193 91.4785 126.418 91.4785 126.418L93.1167 131.878L101.526 132.865Z" fill="url(#paint38_linear_2288_1264)"/>
<path d="M97.0351 149.364L93.354 110.699C93.292 110.166 93.0461 109.671 92.6586 109.299C92.2712 108.927 91.7663 108.702 91.2308 108.663L64.0048 107.442C63.5905 107.419 63.1824 107.55 62.8581 107.808L61.3516 108.82L62.3152 110.079L65.9192 147.966C65.9812 148.5 66.2271 148.995 66.6146 149.366C67.0021 149.738 67.507 149.963 68.0424 150.003L94.2181 151.175L94.822 151.953L96.2931 150.954L96.3477 150.915L96.4023 150.876C96.6285 150.7 96.8055 150.468 96.9163 150.203C97.0271 149.938 97.068 149.649 97.0351 149.364Z" fill="#223762"/>
<path d="M93.6649 152.327L66.4389 151.106C65.9034 151.066 65.3985 150.841 65.011 150.47C64.6235 150.098 64.3776 149.603 64.3156 149.07L60.6378 110.408C60.6051 110.166 60.627 109.918 60.702 109.685C60.7769 109.452 60.903 109.238 61.071 109.059C61.2391 108.881 61.4448 108.742 61.6732 108.653C61.9017 108.564 62.1471 108.527 62.3916 108.545L89.6176 109.766C90.1531 109.806 90.6579 110.031 91.0454 110.402C91.4329 110.774 91.6788 111.269 91.7408 111.803L95.4187 150.464C95.4514 150.707 95.4294 150.954 95.3545 151.187C95.2795 151.421 95.1534 151.634 94.9854 151.813C94.8174 151.991 94.6117 152.13 94.3832 152.219C94.1548 152.308 93.9094 152.345 93.6649 152.327Z" fill="url(#paint39_linear_2288_1264)"/>
<path d="M77.2834 122.704C77.144 122.32 77.0639 121.917 77.0457 121.509C76.591 121.442 76.1267 121.487 75.6934 121.64C74.0552 122.235 73.2908 124.229 73.9846 126.099C74.6784 127.968 76.5543 128.99 78.2053 128.408C79.4902 127.943 80.229 126.603 80.1487 125.145C79.4962 125.032 78.8861 124.745 78.3821 124.316C77.8781 123.887 77.4987 123.33 77.2834 122.704Z" fill="#D6E3FA"/>
<path d="M83.4886 145.609L73.5984 145.166L73.4121 143.203L83.3023 143.646L83.4886 145.609Z" fill="url(#paint40_linear_2288_1264)"/>
<path d="M84.899 147.158L72.4712 146.599L72.3652 145.504L84.7962 146.06L84.899 147.158Z" fill="url(#paint41_linear_2288_1264)"/>
<path d="M104.375 135.018C104.375 135.018 98.1307 130.145 95.4421 128.806C92.7535 127.467 85.0348 127.441 83.4833 128.27C81.9319 129.098 82.0475 133.891 82.5871 135.571C83.1268 137.251 89.0692 139.981 92.6219 141.031C96.1745 142.082 103.331 144.208 103.331 144.208L104.375 135.018Z" fill="url(#paint42_linear_2288_1264)"/>
<path d="M128.706 124.328C128.706 124.328 126.942 136.155 125.134 137.251C123.325 138.346 113.207 137.469 113.207 137.469L128.07 152.29C128.07 152.29 138.381 152.046 138.743 151.798C139.106 151.551 140.099 135.31 140.099 135.31L128.706 124.328Z" fill="url(#paint43_linear_2288_1264)"/>
<path d="M130.543 114.088C130.543 114.088 133.973 109.215 139.36 109.691C140.372 109.781 141.258 109.9 142.026 110.035C143.302 110.257 144.465 110.905 145.327 111.872C146.188 112.84 146.697 114.07 146.77 115.363C147.339 125.196 148.656 150.697 147.384 156.122C147.335 156.336 147.28 156.545 147.22 156.749C145.264 163.394 137.365 166.215 131.439 162.627L101.341 144.398C101.341 144.398 99.4653 138.144 101.736 135.558L104.01 132.988C104.01 132.988 127.96 144.851 130.221 145.249C132.483 145.647 126.116 128.867 127.385 122.732C128.654 116.597 130.543 114.088 130.543 114.088Z" fill="url(#paint44_linear_2288_1264)"/>
<defs>
<linearGradient id="paint0_linear_2288_1264" x1="-264.116" y1="-153.164" x2="-286.396" y2="-173.68" gradientUnits="userSpaceOnUse">
<stop stop-color="#EAF1FC"/>
<stop offset="1" stop-color="#C0D4F4"/>
</linearGradient>
<linearGradient id="paint1_linear_2288_1264" x1="33.5105" y1="125.933" x2="75.1052" y2="122.606" gradientUnits="userSpaceOnUse">
<stop stop-color="#223762"/>
<stop offset="1" stop-color="#041B48"/>
</linearGradient>
<linearGradient id="paint2_linear_2288_1264" x1="4624.72" y1="30303.7" x2="-3936.92" y2="34730.7" gradientUnits="userSpaceOnUse">
<stop stop-color="#223762"/>
<stop offset="1" stop-color="#041B48"/>
</linearGradient>
<linearGradient id="paint3_linear_2288_1264" x1="12.689" y1="71.4379" x2="30.929" y2="69.4532" gradientUnits="userSpaceOnUse">
<stop stop-color="#3769A5"/>
<stop offset="1" stop-color="#08448B"/>
</linearGradient>
<linearGradient id="paint4_linear_2288_1264" x1="41.7919" y1="11.1885" x2="24.9479" y2="165.923" gradientUnits="userSpaceOnUse">
<stop stop-color="#4C93F4"/>
<stop offset="1" stop-color="#0B63DA"/>
</linearGradient>
<linearGradient id="paint5_linear_2288_1264" x1="14941.2" y1="50183.5" x2="7555.58" y2="57562.9" gradientUnits="userSpaceOnUse">
<stop stop-color="#3769A5"/>
<stop offset="1" stop-color="#08448B"/>
</linearGradient>
<linearGradient id="paint6_linear_2288_1264" x1="389.738" y1="2554.57" x2="306.278" y2="2712.95" gradientUnits="userSpaceOnUse">
<stop stop-color="#4C93F4"/>
<stop offset="1" stop-color="#0B63DA"/>
</linearGradient>
<linearGradient id="paint7_linear_2288_1264" x1="5197.02" y1="-5977.43" x2="5105.36" y2="-5902.53" gradientUnits="userSpaceOnUse">
<stop stop-color="#4C93F4"/>
<stop offset="1" stop-color="#0B63DA"/>
</linearGradient>
<linearGradient id="paint8_linear_2288_1264" x1="7622.81" y1="-8001.98" x2="7496.9" y2="-7899.13" gradientUnits="userSpaceOnUse">
<stop stop-color="#4C93F4"/>
<stop offset="1" stop-color="#0B63DA"/>
</linearGradient>
<linearGradient id="paint9_linear_2288_1264" x1="4786.78" y1="-3672.31" x2="4703.71" y2="-3532.56" gradientUnits="userSpaceOnUse">
<stop stop-color="#4C93F4"/>
<stop offset="1" stop-color="#0B63DA"/>
</linearGradient>
<linearGradient id="paint10_linear_2288_1264" x1="-1641.89" y1="28540.9" x2="7724.2" y2="43627.8" gradientUnits="userSpaceOnUse">
<stop stop-color="#3769A5"/>
<stop offset="1" stop-color="#08448B"/>
</linearGradient>
<linearGradient id="paint11_linear_2288_1264" x1="-561.735" y1="27870.8" x2="8804.58" y2="42958.5" gradientUnits="userSpaceOnUse">
<stop stop-color="#4C93F4"/>
<stop offset="1" stop-color="#0B63DA"/>
</linearGradient>
<linearGradient id="paint12_linear_2288_1264" x1="-1153.74" y1="25298.7" x2="12271.3" y2="46924.8" gradientUnits="userSpaceOnUse">
<stop stop-color="#4C93F4"/>
<stop offset="1" stop-color="#0B63DA"/>
</linearGradient>
<linearGradient id="paint13_linear_2288_1264" x1="2009.76" y1="8412" x2="1998.62" y2="8518.01" gradientUnits="userSpaceOnUse">
<stop stop-color="#4C93F4"/>
<stop offset="1" stop-color="#0B63DA"/>
</linearGradient>
<linearGradient id="paint14_linear_2288_1264" x1="2150.85" y1="8455.33" x2="2139.69" y2="8561.29" gradientUnits="userSpaceOnUse">
<stop stop-color="#4C93F4"/>
<stop offset="1" stop-color="#0B63DA"/>
</linearGradient>
<linearGradient id="paint15_linear_2288_1264" x1="2161.94" y1="-1306.18" x2="2127.71" y2="-1244.53" gradientUnits="userSpaceOnUse">
<stop stop-color="#4C93F4"/>
<stop offset="1" stop-color="#0B63DA"/>
</linearGradient>
<linearGradient id="paint16_linear_2288_1264" x1="2198.65" y1="-1250.72" x2="2164.61" y2="-1188.74" gradientUnits="userSpaceOnUse">
<stop stop-color="#4C93F4"/>
<stop offset="1" stop-color="#0B63DA"/>
</linearGradient>
<linearGradient id="paint17_linear_2288_1264" x1="3306.9" y1="-1770.72" x2="3259.96" y2="-1686.17" gradientUnits="userSpaceOnUse">
<stop stop-color="#4C93F4"/>
<stop offset="1" stop-color="#0B63DA"/>
</linearGradient>
<linearGradient id="paint18_linear_2288_1264" x1="686.742" y1="3246.05" x2="611.447" y2="3371.37" gradientUnits="userSpaceOnUse">
<stop stop-color="#4C93F4"/>
<stop offset="1" stop-color="#0B63DA"/>
</linearGradient>
<linearGradient id="paint19_linear_2288_1264" x1="69.9497" y1="95.4001" x2="75.7122" y2="92.946" gradientUnits="userSpaceOnUse">
<stop stop-color="#FFC063"/>
<stop offset="0.95" stop-color="#E44D0B"/>
</linearGradient>
<linearGradient id="paint20_linear_2288_1264" x1="3846.95" y1="3792.47" x2="3619.95" y2="5001.09" gradientUnits="userSpaceOnUse">
<stop stop-color="#FFC063"/>
<stop offset="0.95" stop-color="#E44D0B"/>
</linearGradient>
<linearGradient id="paint21_linear_2288_1264" x1="149367" y1="40350.8" x2="147603" y2="43602" gradientUnits="userSpaceOnUse">
<stop stop-color="#EAF1FC"/>
<stop offset="1" stop-color="#C0D4F4"/>
</linearGradient>
<linearGradient id="paint22_linear_2288_1264" x1="8390.33" y1="5652.25" x2="8698.82" y2="4551.26" gradientUnits="userSpaceOnUse">
<stop stop-color="#223762"/>
<stop offset="1" stop-color="#041B48"/>
</linearGradient>
<linearGradient id="paint23_linear_2288_1264" x1="10765" y1="5209.7" x2="10983.3" y2="4127.8" gradientUnits="userSpaceOnUse">
<stop stop-color="#4C93F4"/>
<stop offset="1" stop-color="#0B63DA"/>
</linearGradient>
<linearGradient id="paint24_linear_2288_1264" x1="10587.2" y1="4092.05" x2="11030.1" y2="3037.89" gradientUnits="userSpaceOnUse">
<stop stop-color="#223762"/>
<stop offset="1" stop-color="#041B48"/>
</linearGradient>
<linearGradient id="paint25_linear_2288_1264" x1="14855.7" y1="4574.85" x2="15236.8" y2="3440.14" gradientUnits="userSpaceOnUse">
<stop stop-color="#4C93F4"/>
<stop offset="1" stop-color="#0B63DA"/>
</linearGradient>
<linearGradient id="paint26_linear_2288_1264" x1="5286.5" y1="11742.7" x2="5247.58" y2="10526.9" gradientUnits="userSpaceOnUse">
<stop stop-color="#223762"/>
<stop offset="1" stop-color="#041B48"/>
</linearGradient>
<linearGradient id="paint27_linear_2288_1264" x1="6161.99" y1="13965.6" x2="6938.72" y2="16430.6" gradientUnits="userSpaceOnUse">
<stop stop-color="#FFC063"/>
<stop offset="0.95" stop-color="#E44D0B"/>
</linearGradient>
<linearGradient id="paint28_linear_2288_1264" x1="42.0515" y1="110.727" x2="62.6061" y2="124.219" gradientUnits="userSpaceOnUse">
<stop stop-color="#F8A695"/>
<stop offset="1" stop-color="#E56045"/>
</linearGradient>
<linearGradient id="paint29_linear_2288_1264" x1="1245.74" y1="4350.29" x2="1702.63" y2="4406.48" gradientUnits="userSpaceOnUse">
<stop stop-color="#F8A695"/>
<stop offset="1" stop-color="#E56045"/>
</linearGradient>
<linearGradient id="paint30_linear_2288_1264" x1="8522.68" y1="15647.7" x2="9411.77" y2="15779.8" gradientUnits="userSpaceOnUse">
<stop stop-color="#FFC063"/>
<stop offset="0.95" stop-color="#E44D0B"/>
</linearGradient>
<linearGradient id="paint31_linear_2288_1264" x1="150.794" y1="94.0026" x2="72.4326" y2="240.221" gradientUnits="userSpaceOnUse">
<stop stop-color="#FFC063"/>
<stop offset="1" stop-color="#E58F0F"/>
</linearGradient>
<linearGradient id="paint32_linear_2288_1264" x1="11146.8" y1="23591.1" x2="15382.1" y2="24535.2" gradientUnits="userSpaceOnUse">
<stop stop-color="#FFC063"/>
<stop offset="0.95" stop-color="#E44D0B"/>
</linearGradient>
<linearGradient id="paint33_linear_2288_1264" x1="5641.51" y1="5711.55" x2="5624.17" y2="5364.72" gradientUnits="userSpaceOnUse">
<stop stop-color="#F8A695"/>
<stop offset="1" stop-color="#E56045"/>
</linearGradient>
<linearGradient id="paint34_linear_2288_1264" x1="5154.12" y1="9949.28" x2="5010.67" y2="10188.6" gradientUnits="userSpaceOnUse">
<stop stop-color="#223762"/>
<stop offset="1" stop-color="#041B48"/>
</linearGradient>
<linearGradient id="paint35_linear_2288_1264" x1="10929.7" y1="14848.4" x2="12098.7" y2="10497.2" gradientUnits="userSpaceOnUse">
<stop stop-color="#F8A695"/>
<stop offset="1" stop-color="#E56045"/>
</linearGradient>
<linearGradient id="paint36_linear_2288_1264" x1="13130.3" y1="18077" x2="14264.6" y2="23580.1" gradientUnits="userSpaceOnUse">
<stop stop-color="#223762"/>
<stop offset="1" stop-color="#041B48"/>
</linearGradient>
<linearGradient id="paint37_linear_2288_1264" x1="10813.1" y1="6837.36" x2="9634.03" y2="5804.98" gradientUnits="userSpaceOnUse">
<stop stop-color="#223762"/>
<stop offset="1" stop-color="#041B48"/>
</linearGradient>
<linearGradient id="paint38_linear_2288_1264" x1="1646.64" y1="3927.24" x2="1697.72" y2="3902.97" gradientUnits="userSpaceOnUse">
<stop stop-color="#F8A695"/>
<stop offset="1" stop-color="#E56045"/>
</linearGradient>
<linearGradient id="paint39_linear_2288_1264" x1="2293.14" y1="17268.9" x2="4346.26" y2="11645.4" gradientUnits="userSpaceOnUse">
<stop stop-color="#4C93F4"/>
<stop offset="1" stop-color="#0B63DA"/>
</linearGradient>
<linearGradient id="paint40_linear_2288_1264" x1="1521.69" y1="1103.64" x2="1519.63" y2="1116.83" gradientUnits="userSpaceOnUse">
<stop stop-color="#4C93F4"/>
<stop offset="1" stop-color="#0B63DA"/>
</linearGradient>
<linearGradient id="paint41_linear_2288_1264" x1="1845.12" y1="846.463" x2="1844.16" y2="855.705" gradientUnits="userSpaceOnUse">
<stop stop-color="#4C93F4"/>
<stop offset="1" stop-color="#0B63DA"/>
</linearGradient>
<linearGradient id="paint42_linear_2288_1264" x1="7088.36" y1="6060.9" x2="7649.51" y2="6264.41" gradientUnits="userSpaceOnUse">
<stop stop-color="#F8A695"/>
<stop offset="1" stop-color="#E56045"/>
</linearGradient>
<linearGradient id="paint43_linear_2288_1264" x1="10266.3" y1="8713.61" x2="13104.3" y2="11552.2" gradientUnits="userSpaceOnUse">
<stop stop-color="#FFC063"/>
<stop offset="0.95" stop-color="#E44D0B"/>
</linearGradient>
<linearGradient id="paint44_linear_2288_1264" x1="24765.4" y1="11551" x2="11535.2" y2="35473.7" gradientUnits="userSpaceOnUse">
<stop stop-color="#FFC063"/>
<stop offset="1" stop-color="#E58F0F"/>
</linearGradient>
</defs>
</svg>
