<svg width="80" height="80" viewBox="0 0 80 80" fill="none" xmlns="http://www.w3.org/2000/svg">
<g clip-path="url(#clip0_2427_1495)">
<path d="M69.2344 0H11.2344C10.6094 5.82812 5.84375 10.5937 0 11.2031V69.25C5.84375 70.0156 10.3125 74.3125 11.2344 80H69.3906C69.8594 74.3125 74.4688 69.7188 80 69.0938V11.2031C74.3125 10.2812 69.8438 5.6875 69.2344 0ZM63.4531 63.2656C57.7812 63.2656 60.5156 62.9531 54.8438 62.9531C49.25 62.9531 51.5625 63.2656 46.0781 63.2656C45.1562 63.2656 45.3125 61.9844 46.0781 61.7344C49.6406 60.5469 49.6562 60.1406 49.9219 59.7344C51.5469 57.2969 50.8438 46.7656 50.8438 42.0781C50.8438 41.25 49.8438 40.0781 48.6875 40.0781H31.3125C30.1562 40.0781 29.1562 41.25 29.1562 42.0781C29.1562 46.7656 28.4531 57.2969 30.0781 59.7344C30.3438 60.125 30.3594 60.5469 33.9219 61.7344C34.6875 61.9844 34.8594 63.2656 33.9219 63.2656C28.4375 63.2656 30.75 62.9531 25.1562 62.9531C19.4844 62.9531 22.2188 63.2656 16.5469 63.2656C15.3125 63.2656 15.6406 61.5781 16.5469 61.5781C18.1406 61.0469 18.6562 61.0312 19.9375 59.4219C21.1406 57.4062 21.1719 52.4844 21.1719 39.4531V23.6406C21.1719 20.1719 19.2656 19.2188 16.7031 18.5781C15.3281 18.2344 16.0781 16.7344 16.8594 16.7344C22.5625 16.7344 20.0781 17.0469 25.7812 17.0469C30.8906 17.0469 28.3594 16.7344 33.4688 16.7344C33.9844 16.7344 34.7969 18.0312 33.625 18.4219C32.8594 18.6719 29.3125 19 29.3125 24.5625C29.3125 31.6875 29.2812 33.2812 29.4688 35.3125C29.4688 35.5156 29.8281 37.3125 31.4688 37.3125H48.5312C50.1719 37.3125 50.5312 35.5156 50.5312 35.3125C50.7188 33.2812 50.6875 31.6875 50.6875 24.5625C50.6875 19 47.1406 18.6719 46.375 18.4219C45.2031 18.0312 46.0156 16.7344 46.5312 16.7344C51.6406 16.7344 49.1094 17.0469 54.2188 17.0469C59.9219 17.0469 57.4375 16.7344 63.1406 16.7344C63.9062 16.7344 64.6875 18.2344 63.2969 18.5781C60.7344 19.2188 58.8281 20.1875 58.8281 23.6406V39.4531C58.8281 52.4844 58.8438 57.4062 60.0625 59.4219C61.3438 61.0156 61.8438 61.0469 63.4531 61.5781C64.3594 61.5781 64.6719 63.2656 63.4531 63.2656Z" fill="white"/>
</g>
<defs>
<clipPath id="clip0_2427_1495">
<rect width="80" height="80" fill="white"/>
</clipPath>
</defs>
</svg>
