<svg width="45" height="45" viewBox="0 0 45 45" fill="none" xmlns="http://www.w3.org/2000/svg">
<circle cx="22.5" cy="22.5" r="22" stroke="#3B41E3"/>
<circle cx="22.5" cy="22.5" r="17.5" fill="#3B41E3"/>
<path d="M18.178 20.216C18.242 19.224 18.6207 18.4507 19.314 17.896C20.018 17.3413 20.914 17.064 22.002 17.064C22.7487 17.064 23.394 17.1973 23.938 17.464C24.482 17.7307 24.8927 18.0933 25.17 18.552C25.4473 19.0107 25.586 19.528 25.586 20.104C25.586 20.7653 25.41 21.3307 25.058 21.8C24.706 22.2693 24.2847 22.584 23.794 22.744V22.808C24.4233 23 24.914 23.352 25.266 23.864C25.618 24.3653 25.794 25.0107 25.794 25.8C25.794 26.4293 25.65 26.9893 25.362 27.48C25.074 27.9707 24.6473 28.36 24.082 28.648C23.5167 28.9253 22.8393 29.064 22.05 29.064C20.898 29.064 19.9487 28.7707 19.202 28.184C18.466 27.5867 18.0713 26.7333 18.018 25.624H19.778C19.8207 26.1893 20.0393 26.6533 20.434 27.016C20.8287 27.368 21.362 27.544 22.034 27.544C22.6847 27.544 23.186 27.368 23.538 27.016C23.89 26.6533 24.066 26.1893 24.066 25.624C24.066 24.8773 23.826 24.3493 23.346 24.04C22.8767 23.72 22.1513 23.56 21.17 23.56H20.754V22.056H21.186C22.05 22.0453 22.706 21.9013 23.154 21.624C23.6127 21.3467 23.842 20.9093 23.842 20.312C23.842 19.8 23.6767 19.3947 23.346 19.096C23.0153 18.7867 22.546 18.632 21.938 18.632C21.3407 18.632 20.8767 18.7867 20.546 19.096C20.2153 19.3947 20.018 19.768 19.954 20.216H18.178Z" fill="white"/>
</svg>
