<svg width="244" height="200" viewBox="0 0 244 200" fill="none" xmlns="http://www.w3.org/2000/svg">
<path opacity="0.49" d="M168.013 18.9729C119.392 32.4224 79.6405 1.33017 54.562 0.062427C16.8548 -1.83919 -21.535 39.7931 28.8496 112.68C79.2342 185.567 99.8879 201.999 154.982 194.502C199.064 188.505 228.499 146.714 236.975 117.43C250.237 71.5802 216.634 5.52753 168.013 18.9729Z" fill="url(#paint0_linear_2288_1326)"/>
<path d="M117.413 9.7168H55.5781V54.421H117.413V9.7168Z" fill="#223762"/>
<path d="M115.95 9.7168H54.8672V54.421H115.95V9.7168Z" fill="url(#paint1_linear_2288_1326)"/>
<path d="M113.565 12.3203H57.2598V51.8235H113.565V12.3203Z" fill="url(#paint2_linear_2288_1326)"/>
<path d="M58.365 12.3203H57.2598V51.8235H58.365V12.3203Z" fill="#223762"/>
<path d="M58.3613 45.0424L73.1395 35.2499L90.4124 38.9109L108.449 19.1309L113.565 24.7666V51.8199H58.3613V45.0424Z" fill="#D6E3FA"/>
<path d="M67.1326 27.2424C69.1388 27.2424 70.7651 25.2049 70.7651 22.6915C70.7651 20.1781 69.1388 18.1406 67.1326 18.1406C65.1264 18.1406 63.5 20.1781 63.5 22.6915C63.5 25.2049 65.1264 27.2424 67.1326 27.2424Z" fill="white"/>
<path d="M66.8613 39.4108L71.8307 41.5562L76.0565 38.6632L84.7641 37.7123L73.1391 35.25L66.8613 39.4108Z" fill="white"/>
<path d="M102.646 25.4899L106.633 27.8872L109.213 26.1278L111.96 27.2371L113.686 26.6886L113.565 24.7666L108.449 19.1309L102.646 25.4899Z" fill="white"/>
<path d="M58.3613 47.8755C62.853 44.9552 68.2621 43.7895 73.558 44.6005C82.5338 45.9333 83.3098 50.541 91.733 48.6029C100.156 46.6647 103.614 37.0835 107.47 37.8108C111.326 38.5381 113.687 42.6664 113.687 42.6664L113.561 51.825H58.3613V47.8755Z" fill="white"/>
<path d="M58.3613 48.6033C58.3613 48.6033 64.5822 44.8447 73.558 45.9337C82.5338 47.0227 83.3098 50.7812 91.733 49.1843C100.156 47.5875 103.614 39.8022 107.47 40.3955C111.326 40.9887 113.687 44.3531 113.687 44.3531L113.561 51.8255H58.3613V48.6033Z" fill="#3769A5"/>
<path opacity="0.49" d="M22.7551 127.918C23.7791 122.835 30.5485 121.73 33.1937 126.187C39.4471 136.723 53.1566 155.662 65.6999 166.6C83.302 181.947 53.8676 197.022 37.066 190.224C20.2644 183.426 21.0811 136.683 22.6942 128.17L22.7551 127.918Z" fill="url(#paint3_linear_2288_1326)"/>
<path d="M64.2803 100.437C64.2803 100.437 62.1958 99.5023 61.3141 98.5109C60.4323 97.5195 55.8205 91.4002 54.9713 91.2254C54.5871 91.1356 54.1873 91.1358 53.8031 91.226C53.419 91.3162 53.0609 91.494 52.7568 91.7455C52.2001 92.2372 61.3547 110.116 61.3547 110.116L69.5219 107.3L64.2803 100.437Z" fill="url(#paint4_linear_2288_1326)"/>
<path d="M52.7568 91.7461C52.7568 91.7461 52.2936 91.7461 51.8629 92.6116C51.4322 93.4771 51.7248 97.4875 53.1266 100.454C54.5284 103.42 56.105 108.987 56.4179 109.625C56.6518 109.99 56.9828 110.284 57.3738 110.472C57.7648 110.661 58.2005 110.738 58.6323 110.693C59.3962 110.539 60.7818 110.336 61.3588 110.136C61.9358 109.937 62.4559 109.031 60.3836 105.37C58.3113 101.709 57.1655 100.011 56.1497 97.0771C55.1339 94.1434 54.695 92.5669 53.9677 92.1484C53.6063 91.9104 53.1888 91.7717 52.7568 91.7461Z" fill="url(#paint5_linear_2288_1326)"/>
<path d="M131.362 120.599C131.362 120.599 111.135 103.306 104.874 99.4704C98.6124 95.6347 64.8466 99.4704 64.4687 99.4704C64.0908 99.4704 62.9531 101.831 62.9531 104.147C62.9531 106.463 66.1103 109.429 66.1103 109.429L95.7722 110.506L130.31 125.183L131.362 120.599Z" fill="url(#paint6_linear_2288_1326)"/>
<path d="M84.614 100.673C79.5755 101.047 69.4092 102.705 62.9648 103.822C62.9648 103.936 62.9648 104.05 62.9648 104.164C62.9648 106.476 66.122 109.446 66.122 109.446L95.7839 110.523L130.322 125.199L131.386 120.624C131.386 120.624 121.984 112.587 114.016 106.252C103.358 103.583 89.2217 100.332 84.614 100.673Z" fill="url(#paint7_linear_2288_1326)"/>
<path d="M69.5805 109.121C69.5805 109.121 67.7235 107.788 67.0612 106.639C66.3989 105.489 63.1036 98.5729 62.3072 98.2276C61.9486 98.0622 61.5566 97.982 61.1619 97.9932C60.7671 98.0045 60.3803 98.107 60.0318 98.2926C59.3898 98.6542 64.7655 118.032 64.7655 118.032L73.3349 116.911L69.5805 109.121Z" fill="url(#paint8_linear_2288_1326)"/>
<path d="M146.099 191.771L114.43 195.729H148.699V191.771H146.099Z" fill="url(#paint9_linear_2288_1326)"/>
<path d="M151.3 191.771L182.965 195.729H148.699V191.771H151.3Z" fill="url(#paint10_linear_2288_1326)"/>
<path d="M151.284 143.789H146.1V191.776H151.284V143.789Z" fill="url(#paint11_linear_2288_1326)"/>
<path d="M153.45 146.256H143.934V155.122H153.45V146.256Z" fill="url(#paint12_linear_2288_1326)"/>
<path d="M148.692 139.562H103.334V144.54H148.692V139.562Z" fill="url(#paint13_linear_2288_1326)"/>
<path d="M187.906 82.3848H141.845C140.724 82.3848 139.813 83.4778 139.813 84.8227V84.9243C139.722 90.9308 139.315 96.9283 138.595 102.892C138.035 107.694 137.171 112.455 136.006 117.146C134.82 121.774 133.259 126.032 131.321 129.198C129.168 132.717 126.278 135.728 122.849 138.023C119.432 140.282 115.588 141.644 111.736 141.644C109.11 141.645 106.523 141.002 104.203 139.77C103.175 139.23 101.98 139.803 101.533 141.05C101.086 142.298 101.562 143.744 102.59 144.301C105.103 145.632 107.876 146.399 110.716 146.548L110.777 146.576H156.912L177.395 134.212L184.119 122.672L188.24 91.5678L187.906 82.3848Z" fill="url(#paint14_linear_2288_1326)"/>
<path d="M148.589 139.562H137.492V144.776H148.589V139.562Z" fill="url(#paint15_linear_2288_1326)"/>
<path d="M185.005 84.8353V84.9247C184.913 90.9312 184.506 96.9287 183.786 102.893C183.227 107.694 182.362 112.455 181.198 117.146C180.011 121.775 178.451 126.033 176.513 129.198C174.36 132.718 171.469 135.729 168.041 138.024C164.623 140.283 160.78 141.644 156.928 141.644C154.301 141.645 151.714 141.002 149.394 139.771C148.366 139.23 147.172 139.803 146.725 141.051C146.278 142.298 146.753 143.745 147.781 144.301C150.597 145.797 153.736 146.58 156.924 146.581C161.568 146.581 166.05 144.956 169.983 142.359C173.95 139.703 177.291 136.216 179.775 132.14C182.181 128.186 183.9 123.286 185.192 118.146C187.126 110.426 188.081 102.169 188.572 95.798C189.064 89.4268 189.076 84.945 189.076 84.8922C189.076 83.5351 188.174 82.4299 187.045 82.4258C185.915 82.4217 185.013 83.5188 185.013 84.8638L185.005 84.8353Z" fill="url(#paint16_linear_2288_1326)"/>
<path d="M160.605 127.568C160.605 127.568 158.439 134.049 150.13 137.905C141.82 141.761 129.61 143.593 121.943 141.155C108.94 137.092 96.1776 113.562 96.1776 113.562L71.6313 117.751C70.1216 116.272 69.2472 114.264 69.1934 112.152V108.414C69.1934 108.414 94.7636 101.953 100.326 101.823C105.889 101.693 129.175 121.802 130.455 122.875C131.735 123.947 136.92 116.825 136.92 116.825L160.605 127.568Z" fill="url(#paint17_linear_2288_1326)"/>
<path d="M131.361 134.09C123.774 134.683 117.05 130.718 111.414 126.866C105.778 123.014 102.117 109.759 93.8078 109.564C87.4366 109.414 74.8811 112.372 69.3672 113.761C69.7329 115.28 70.517 116.665 71.6304 117.76L96.1767 113.57C96.1767 113.57 108.96 137.085 121.942 141.164C129.609 143.574 141.824 141.757 150.129 137.914C158.434 134.07 160.604 127.589 160.604 127.589L144.859 120.458C141.84 125.703 136.44 133.708 131.361 134.09Z" fill="url(#paint18_linear_2288_1326)"/>
<path d="M160.346 45.2957C160.346 45.2957 160.894 44.6456 163.596 43.3169C166.298 41.9882 171.934 42.6343 172.129 42.8456C172.324 43.0569 173.726 48.4204 170.963 50.0904C168.2 51.7604 165.75 52.2846 164.32 51.9514C162.889 51.6182 160.752 51.2891 160.752 51.2891L160.346 45.2957Z" fill="url(#paint19_linear_2288_1326)"/>
<path d="M192.921 53.5758C192.921 53.5758 193.303 51.5442 190.434 48.773C187.566 46.0018 181.902 44.084 179.695 45.6971C177.489 47.3102 178.098 51.0769 178.115 51.3004C178.131 51.5238 185.286 54.0431 185.286 54.0431L181.995 54.4494C181.995 54.4494 186.115 56.9199 187.801 57.2937C189.488 57.6675 192.921 53.5758 192.921 53.5758Z" fill="url(#paint20_linear_2288_1326)"/>
<path d="M155.957 72.3938C155.957 72.3938 147.184 68.8629 144.811 63.3205C142.438 57.7782 162.202 52.114 162.202 52.114C162.202 52.114 162.572 49.3957 162.86 47.3559C163.149 45.3162 160.321 44.918 160.321 44.918C160.321 44.918 153.494 46.137 141.959 50.3953C133.3 53.5849 133.019 54.4585 131.756 59.0419C130.492 63.6253 142.093 79.2323 146.733 89.0614C149.529 95.0019 155.957 72.3938 155.957 72.3938Z" fill="url(#paint21_linear_2288_1326)"/>
<path d="M169.198 74.4741C169.198 74.4741 178.17 75.1811 180.364 76.7496C182.558 78.318 184.143 82.2878 184.781 86.2373C185.419 90.1868 177.524 113.461 170.486 122.23C163.448 130.998 161.791 130.157 161.791 130.157C161.791 130.157 138.224 127.455 133.892 124.932C129.561 122.409 127.586 119.731 127.586 119.731C127.586 119.731 138.841 101.255 141.442 91.3448C144.042 81.4345 146.2 74.4416 150.665 73.1007C155.131 71.7599 160.291 71.707 160.291 71.707L169.198 74.4741Z" fill="url(#paint22_linear_2288_1326)"/>
<path d="M184.781 86.2332C184.585 85.0109 184.299 83.8048 183.924 82.625L178.463 83.0069C178.463 83.0069 180.312 89.7804 179.312 92.4053C178.313 95.0302 172.583 100.215 166.029 101.345C159.475 102.474 167.777 105.111 168.467 107.391C169.158 109.67 154.685 114.375 145.904 111.86C141.978 110.763 138.167 109.286 134.527 107.452C131.024 114.144 127.619 119.755 127.619 119.755C127.619 119.755 129.574 122.433 133.925 124.956C138.277 127.48 161.824 130.182 161.824 130.182C161.824 130.182 163.482 131.031 170.519 122.254C177.557 113.477 185.419 90.1827 184.781 86.2332Z" fill="url(#paint23_linear_2288_1326)"/>
<path d="M161.646 71.8086C161.097 71.9682 160.628 72.3296 160.334 72.8204C160.032 73.3968 159.933 74.0583 160.054 74.6977C160.175 75.337 160.508 75.9169 161 76.3432C162.256 77.3834 166.802 78.2367 169.053 77.3753C171.305 76.5139 170.959 74.8926 170.959 74.8926L161.646 71.8086Z" fill="white"/>
<path d="M162.803 64.7344L161.645 71.8126C161.645 71.8126 162.144 73.4379 164.895 74.5147C167.646 75.5915 170.97 74.8966 170.97 74.8966L173.611 68.2491L162.803 64.7344Z" fill="url(#paint24_linear_2288_1326)"/>
<path d="M168.26 39.6348C168.26 39.6348 164.058 48.7609 162.693 52.0115C161.328 55.2621 165.058 57.6391 165.058 57.6391L173.379 53.7059L174.513 42.9057L168.26 39.6348Z" fill="url(#paint25_linear_2288_1326)"/>
<path d="M164.001 50.8375C162.782 54.6042 161.331 59.1672 161.38 63.6612C161.429 68.1552 168.787 71.9503 172.546 69.8374C176.305 67.7245 179.1 63.1167 179.1 63.1167C179.1 63.1167 181.676 64.3357 183.119 62.6007C184.561 60.8657 185.557 57.867 184.529 56.8105C183.501 55.7541 181.818 56.6602 181.818 56.6602C181.818 56.6602 183.732 53.0032 181.936 49.5657C180.14 46.1282 169.438 42.9629 168.69 43.2351C167.942 43.5074 165.224 47.0709 164.001 50.8375Z" fill="url(#paint26_linear_2288_1326)"/>
<path d="M178.211 60.8324C178.211 60.8324 181.015 56.4684 181.462 54.1889C181.909 51.9094 181.283 50.0362 179.162 48.2362C177.041 46.4362 169.683 44.5793 168.281 43.5025C166.879 42.4257 166.249 41.3408 168.008 38.4356C169.768 35.5303 175.94 32.8851 182.035 35.9773C188.13 39.0695 190.068 43.0962 191.413 45.8226C192.758 48.5491 189.454 53.3072 187.191 57.5005C184.928 61.6938 181.096 67.1101 178.971 68.7111C176.846 70.312 174.156 68.7314 174.156 68.7314L179.191 62.6811C179.191 62.6811 180.068 63.5548 181.84 62.5877C183.611 61.6206 185.09 59.2599 184.843 57.7646C184.595 56.2693 182.535 55.8061 181.304 57.1388C180.072 58.4716 178.211 60.8324 178.211 60.8324Z" fill="url(#paint27_linear_2288_1326)"/>
<path d="M166.945 53.498C166.945 53.498 164.303 57.8945 164.007 59.1257C163.71 60.3569 167.079 60.6657 167.079 60.6657" stroke="#EB6057" stroke-linecap="round" stroke-linejoin="round"/>
<path d="M184.184 45.4161C181.36 42.8603 170.206 41.9948 169.316 40.0607C169.04 39.4593 169.084 38.3175 169.28 37.0254C168.786 37.4318 168.361 37.9146 168.02 38.4557C166.277 41.3609 166.894 42.4621 168.292 43.5226C169.69 44.5831 177.048 46.4563 179.174 48.2563C181.299 50.0563 181.937 51.9132 181.473 54.209C181.01 56.5047 178.223 60.8524 178.223 60.8524C178.223 60.8524 187.008 47.9719 184.184 45.4161Z" fill="url(#paint28_linear_2288_1326)"/>
<path d="M181.324 58.6998C181.324 58.6998 182.449 58.4398 182.441 59.3621C182.433 60.2845 182.1 61.0484 180.889 61.154C180.697 61.1645 180.507 61.1035 180.357 60.9828C180.207 60.862 180.107 60.69 180.076 60.4999" stroke="#EB6057" stroke-linecap="round" stroke-linejoin="round"/>
<path d="M169.934 51.7676C169.934 51.7676 170.393 54.8922 172.107 55.3229C173.06 55.5949 174.078 55.5303 174.988 55.1401" stroke="#EB6057" stroke-linecap="round" stroke-linejoin="round"/>
<path d="M167.847 50.8612C167.847 50.8612 166.685 51.9217 165.661 51.6739C164.637 51.426 165.327 49.752 165.327 49.752" stroke="#EB6057" stroke-linecap="round" stroke-linejoin="round"/>
<path d="M178.943 76.371C178.943 76.371 199.524 73.8639 202.392 71.4666C205.261 69.0693 187.557 57.6311 187.557 57.6311C187.557 57.6311 190.215 53.0478 191.876 52.7836L193.538 52.5195C193.538 52.5195 214.42 64.2055 216.431 69.8697C218.442 75.5339 206.638 83.6849 199.95 86.4316C193.262 89.1784 184.51 92.8069 180.577 91.6042C176.643 90.4015 175.526 84.7332 176.725 80.8853C177.923 77.0373 178.943 76.371 178.943 76.371Z" fill="url(#paint29_linear_2288_1326)"/>
<path d="M83.5687 195.722H88.4934L69.2294 123.83H64.3047L83.5687 195.722Z" fill="url(#paint30_linear_2288_1326)"/>
<path d="M44.8915 195.722H39.9668L59.2308 123.83H64.1555L44.8915 195.722Z" fill="url(#paint31_linear_2288_1326)"/>
<path d="M197.602 195.722H202.531L183.267 123.83H178.338L197.602 195.722Z" fill="url(#paint32_linear_2288_1326)"/>
<path d="M158.927 195.722H153.998L173.262 123.83H178.191L158.927 195.722Z" fill="url(#paint33_linear_2288_1326)"/>
<path d="M58.8441 195.722H63.7728L44.5088 123.83H39.5801L58.8441 195.722Z" fill="url(#paint34_linear_2288_1326)"/>
<path d="M20.1709 195.722H15.2422L34.5062 123.83H39.4349L20.1709 195.722Z" fill="url(#paint35_linear_2288_1326)"/>
<path d="M41.7062 67.9066L41.7958 67.4108C41.8492 67.1149 41.6527 66.8317 41.3568 66.7782L11.9314 61.4626C11.6355 61.4091 11.3523 61.6057 11.2988 61.9016L11.2092 62.3974C11.1558 62.6933 11.3523 62.9765 11.6482 63.03L41.0736 68.3456C41.3695 68.3991 41.6528 68.2025 41.7062 67.9066Z" fill="#223762"/>
<path opacity="0.48" d="M52.8915 84.1804C55.0148 82.8272 55.6391 80.0089 54.2859 77.8856C52.9327 75.7623 50.1144 75.138 47.9911 76.4912C45.8678 77.8444 45.2435 80.6627 46.5967 82.786C47.9499 84.9093 50.7682 85.5336 52.8915 84.1804Z" fill="#EF8C48"/>
<path d="M42.2785 64.7445L42.3681 64.2487C42.4215 63.9528 42.225 63.6696 41.929 63.6161L12.5037 58.3005C12.2078 58.247 11.9245 58.4436 11.8711 58.7395L11.7815 59.2353C11.728 59.5312 11.9246 59.8144 12.2205 59.8679L41.6459 65.1835C41.9418 65.237 42.225 65.0404 42.2785 64.7445Z" fill="#223762"/>
<path d="M15.0771 59.6987L14.582 59.7919C14.2864 59.8475 14.092 60.1321 14.1476 60.4277L25.4942 120.708C25.5499 121.004 25.8345 121.198 26.13 121.143L26.6252 121.049C26.9207 120.994 27.1152 120.709 27.0596 120.414L15.7129 60.133C15.6573 59.8375 15.3726 59.643 15.0771 59.6987Z" fill="#223762"/>
<path d="M49.5444 81.7041L52.0526 80.1056C52.6147 79.7474 52.7799 79.0014 52.4217 78.4393L42.0268 62.129C41.6686 61.5669 40.9226 61.4017 40.3605 61.7599L37.8523 63.3584C37.2902 63.7166 37.125 64.4626 37.4832 65.0247L47.8781 81.335C48.2363 81.8971 48.9823 82.0624 49.5444 81.7041Z" fill="url(#paint36_linear_2288_1326)"/>
<path d="M52.1865 83.0726C53.6986 82.1089 54.1431 80.102 53.1795 78.5899C52.2158 77.0779 50.2089 76.6333 48.6968 77.5969C47.1847 78.5606 46.7402 80.5676 47.7038 82.0796C48.6675 83.5917 50.6745 84.0362 52.1865 83.0726Z" fill="url(#paint37_linear_2288_1326)"/>
<path d="M44.0088 70.247C48.4784 67.4027 55.386 70.1495 59.368 76.415L43.1149 86.7723C39.1207 80.5068 39.523 73.1075 44.0088 70.247Z" fill="url(#paint38_linear_2288_1326)"/>
<path d="M59.369 76.4159L55.0009 79.1992C52.0795 74.6158 48.2762 71.3043 44.7168 69.8537C49.1945 67.6798 55.582 70.4672 59.369 76.4159Z" fill="#223762"/>
<path d="M11.9189 60.2924L11.4238 60.3856C11.1282 60.4412 10.9338 60.7259 10.9894 61.0214L22.3359 121.302C22.3915 121.598 22.6762 121.792 22.9717 121.736L23.4669 121.643C23.7624 121.588 23.9569 121.303 23.9012 121.007L12.5547 60.7268C12.4991 60.4313 12.2144 60.2368 11.9189 60.2924Z" fill="#223762"/>
<path d="M14.5389 64.8552C16.6865 64.8552 18.4275 63.1143 18.4275 60.9667C18.4275 58.8191 16.6865 57.0781 14.5389 57.0781C12.3914 57.0781 10.6504 58.8191 10.6504 60.9667C10.6504 63.1143 12.3914 64.8552 14.5389 64.8552Z" fill="#223762"/>
<path d="M13.8143 64.8552C15.9619 64.8552 17.7029 63.1143 17.7029 60.9667C17.7029 58.8191 15.9619 57.0781 13.8143 57.0781C11.6667 57.0781 9.92578 58.8191 9.92578 60.9667C9.92578 63.1143 11.6667 64.8552 13.8143 64.8552Z" fill="#4C93F4"/>
<path d="M13.8155 62.9141C14.8904 62.9141 15.7618 62.0427 15.7618 60.9678C15.7618 59.8929 14.8904 59.0215 13.8155 59.0215C12.7405 59.0215 11.8691 59.8929 11.8691 60.9678C11.8691 62.0427 12.7405 62.9141 13.8155 62.9141Z" fill="#223762"/>
<path d="M15.2405 123.83L203.09 123.83V118.032L15.2405 118.032V123.83Z" fill="url(#paint39_linear_2288_1326)"/>
<path d="M168.524 123.83H203.09V118.032H168.524V123.83Z" fill="#3769A5"/>
<path d="M15.2405 123.83L203.09 123.83V121.945L15.2405 121.945V123.83Z" fill="#83A4D6"/>
<path d="M168.69 123.83H203.09V121.945H168.69V123.83Z" fill="#223762"/>
<path d="M173.66 195.722H178.585L159.325 123.83H154.396L173.66 195.722Z" fill="url(#paint40_linear_2288_1326)"/>
<path d="M134.985 195.722H130.057L149.321 123.83H154.249L134.985 195.722Z" fill="url(#paint41_linear_2288_1326)"/>
<path d="M0 199.999H243.797L227.064 195.721H15.4323L0 199.999Z" fill="url(#paint42_linear_2288_1326)"/>
<path d="M60.0357 98.293C60.0357 98.293 59.5766 98.2199 58.9833 98.9594C58.3901 99.6989 57.87 103.705 58.6501 106.895C59.4303 110.085 59.8691 115.834 60.0357 116.537C60.1915 116.942 60.4567 117.296 60.8018 117.559C61.1469 117.823 61.5583 117.985 61.9902 118.028C62.7703 118.028 64.1681 118.106 64.7735 118.028C65.3789 117.951 66.0697 117.167 64.7735 113.152C63.4773 109.138 62.6972 107.257 62.2868 104.177C61.8764 101.097 61.7667 99.4673 61.1369 98.8944C60.8278 98.6024 60.4485 98.3952 60.0357 98.293Z" fill="url(#paint43_linear_2288_1326)"/>
<path d="M33.2505 118.044H51.3727L46.3058 93.7695H28.1836L33.2505 118.044Z" fill="#223762"/>
<path d="M31.6604 118.044H50.1117L44.9513 93.7695H26.5L31.6604 118.044Z" fill="url(#paint44_linear_2288_1326)"/>
<path d="M35.8836 101.311L29.748 118.043H39.443L36.8547 101.311H35.8836Z" fill="#223762"/>
<path d="M36.8541 101.311L30.7227 118.043H40.4136L36.8541 101.311Z" fill="#4C93F4"/>
<path d="M203.671 124.699C200.091 138.27 201.729 151.614 207.17 161.358C216.71 155.564 224.715 144.763 228.299 131.192C231.883 117.621 230.241 104.277 224.8 94.5332C215.256 100.327 207.251 111.128 203.671 124.699Z" fill="url(#paint45_linear_2288_1326)"/>
<path d="M217.914 124.154C215.671 130.462 213.816 136.901 212.359 143.435C209.771 154.812 210.425 168.334 210.425 168.334" stroke="#112244" stroke-linecap="round" stroke-linejoin="round"/>
<path d="M202.83 120.25C202.83 120.25 204.382 133.277 206.3 143.354C208.218 153.431 209.514 166.697 209.514 166.697" stroke="#112244" stroke-linecap="round" stroke-linejoin="round"/>
<path d="M199.719 142.156C199.719 142.156 202.831 150.657 205.107 156.162C207.382 161.668 209.515 167.336 209.515 167.336" stroke="#112244" stroke-linecap="round" stroke-linejoin="round"/>
<path d="M212.793 72.5148C211.168 84.4039 212.578 95.3748 216.088 102.786C221.456 96.5856 225.759 86.399 227.384 74.5058C229.01 62.6126 227.6 51.6458 224.089 44.2344C218.721 50.4349 214.418 60.6216 212.793 72.5148Z" fill="url(#paint46_linear_2288_1326)"/>
<path d="M201.766 91.5836C202.254 80.6981 202.985 61.0481 203.391 49.5938C195.838 58.9393 190.99 73.2705 190.99 89.357C190.99 105.257 195.728 119.425 203.131 128.771C202.315 117.804 201.319 101.494 201.766 91.5836Z" fill="url(#paint47_linear_2288_1326)"/>
<path d="M216.438 89.3572C216.438 73.0391 211.456 58.5251 203.716 49.1836C203.606 49.3177 203.505 49.4599 203.395 49.5899C202.989 61.0443 202.253 80.6943 201.77 91.5798C201.327 101.49 202.318 117.8 203.139 128.783C203.334 129.027 203.521 129.287 203.72 129.527C211.456 120.189 216.438 105.671 216.438 89.3572Z" fill="url(#paint48_linear_2288_1326)"/>
<path d="M216.519 100.499C213.586 110.283 213.964 119.881 216.926 126.869C223.244 122.66 228.839 114.854 231.773 105.07C234.707 95.2855 234.329 85.6881 231.367 78.6992C225.048 82.8925 219.453 90.7184 216.519 100.499Z" fill="url(#paint49_linear_2288_1326)"/>
<path d="M223.591 195.721H195.586L191.43 159.428H227.751L223.591 195.721Z" fill="url(#paint50_linear_2288_1326)"/>
<path d="M191.43 159.428L195.586 195.721H206.301L203.201 159.428H191.43Z" fill="url(#paint51_linear_2288_1326)"/>
<path d="M229.166 158.393H190.008V167.336H229.166V158.393Z" fill="#FFD46A"/>
<path d="M204.273 96.7281C205.069 96.7281 205.715 95.5765 205.715 94.156C205.715 92.7355 205.069 91.584 204.273 91.584C203.476 91.584 202.83 92.7355 202.83 94.156C202.83 95.5765 203.476 96.7281 204.273 96.7281Z" fill="url(#paint52_linear_2288_1326)"/>
<path d="M208.626 98.0201C209.631 97.0156 209.988 95.7447 209.425 95.1814C208.862 94.6181 207.591 94.9757 206.586 95.9801C205.582 96.9846 205.224 98.2555 205.788 98.8188C206.351 99.3821 207.622 99.0245 208.626 98.0201Z" fill="url(#paint53_linear_2288_1326)"/>
<path d="M208.536 112.058C209.914 110.679 210.406 108.934 209.633 108.162C208.86 107.389 207.116 107.88 205.737 109.259C204.358 110.638 203.867 112.382 204.639 113.155C205.412 113.928 207.157 113.436 208.536 112.058Z" fill="url(#paint54_linear_2288_1326)"/>
<path d="M208.115 118.532C208.939 116.764 208.803 114.957 207.812 114.496C206.821 114.035 205.351 115.094 204.528 116.862C203.704 118.629 203.84 120.436 204.831 120.898C205.822 121.359 207.292 120.3 208.115 118.532Z" fill="url(#paint55_linear_2288_1326)"/>
<path d="M182.637 125.293C187.107 136.569 194.522 145.236 202.429 149.567C191.479 137.199 180.41 94.0508 180.41 94.0508C177.635 102.624 178.171 114.018 182.637 125.293Z" fill="url(#paint56_linear_2288_1326)"/>
<path d="M200.218 118.325C195.748 107.049 188.333 98.3822 180.426 94.0508C180.426 94.0508 191.482 137.199 202.428 149.567C205.22 140.998 204.684 129.6 200.218 118.325Z" fill="url(#paint57_linear_2288_1326)"/>
<path d="M200.218 118.325C195.748 107.049 188.333 98.3822 180.426 94.0508C180.426 94.0508 191.482 137.199 202.428 149.567C205.22 140.998 204.684 129.6 200.218 118.325Z" fill="url(#paint58_linear_2288_1326)"/>
<path d="M193.319 128.378C193.886 128.14 194.003 127.129 193.58 126.119C193.157 125.109 192.354 124.483 191.787 124.72C191.22 124.958 191.103 125.969 191.526 126.979C191.949 127.989 192.752 128.616 193.319 128.378Z" fill="url(#paint59_linear_2288_1326)"/>
<path d="M200.483 129.524C201.05 129.287 201.167 128.275 200.744 127.265C200.321 126.255 199.518 125.629 198.951 125.867C198.384 126.104 198.267 127.116 198.69 128.126C199.113 129.136 199.916 129.762 200.483 129.524Z" fill="url(#paint60_linear_2288_1326)"/>
<path d="M197.59 127.233C198.006 126.214 197.88 125.199 197.308 124.965C196.736 124.732 195.935 125.368 195.519 126.386C195.103 127.405 195.229 128.42 195.801 128.654C196.373 128.887 197.174 128.251 197.59 127.233Z" fill="url(#paint61_linear_2288_1326)"/>
<path d="M197.38 131.833C197.795 130.82 197.671 129.809 197.102 129.576C196.533 129.343 195.735 129.976 195.32 130.989C194.905 132.003 195.03 133.013 195.599 133.246C196.168 133.479 196.965 132.847 197.38 131.833Z" fill="url(#paint62_linear_2288_1326)"/>
<path d="M200.92 138.01C201.49 136.618 201.319 135.231 200.538 134.911C199.757 134.592 198.662 135.46 198.092 136.852C197.522 138.243 197.694 139.63 198.474 139.95C199.255 140.27 200.35 139.401 200.92 138.01Z" fill="url(#paint63_linear_2288_1326)"/>
<path d="M202.548 142.741C202.607 141.239 201.971 139.994 201.128 139.961C200.285 139.928 199.554 141.119 199.495 142.621C199.436 144.124 200.072 145.369 200.915 145.402C201.758 145.434 202.49 144.243 202.548 142.741Z" fill="url(#paint64_linear_2288_1326)"/>
<path d="M103.309 144.54H143.746L145.095 139.562H103.309V144.54Z" fill="url(#paint65_linear_2288_1326)"/>
<path d="M100.879 72.2094H89.7989C89.3969 72.2094 89.0114 72.3691 88.7272 72.6533C88.443 72.9376 88.2833 73.3231 88.2833 73.725V80.5473C88.2811 80.7477 88.3188 80.9465 88.394 81.1323C88.4692 81.318 88.5805 81.487 88.7214 81.6295C88.8624 81.7719 89.0302 81.885 89.2151 81.9622C89.4001 82.0394 89.5985 82.0791 89.7989 82.0791H92.2369L94.5204 85.1997H95.3575L98.478 82.0791H100.916C101.318 82.0791 101.703 81.9194 101.988 81.6352C102.272 81.351 102.432 80.9655 102.432 80.5635V73.7291C102.432 73.5266 102.392 73.326 102.314 73.1393C102.236 72.9525 102.121 72.7833 101.976 72.6416C101.832 72.5 101.66 72.3887 101.472 72.3145C101.283 72.2403 101.082 72.2045 100.879 72.2094Z" fill="url(#paint66_linear_2288_1326)"/>
<path d="M100.037 72.2095H88.9609C88.559 72.2095 88.1734 72.3692 87.8892 72.6534C87.605 72.9377 87.4453 73.3232 87.4453 73.7251V80.5474C87.4453 80.9493 87.605 81.3348 87.8892 81.6191C88.1734 81.9033 88.559 82.063 88.9609 82.063H91.3989L94.5195 85.1836L97.6401 82.063H100.078C100.48 82.063 100.866 81.9033 101.15 81.6191C101.434 81.3348 101.594 80.9493 101.594 80.5474V73.7292C101.594 73.5264 101.554 73.3255 101.476 73.1384C101.397 72.9513 101.282 72.7819 101.137 72.6402C100.992 72.4985 100.82 72.3874 100.631 72.3134C100.442 72.2394 100.24 72.2041 100.037 72.2095Z" fill="url(#paint67_linear_2288_1326)"/>
<path d="M84.0237 51.483H72.9472C72.5453 51.483 72.1598 51.6426 71.8755 51.9269C71.5913 52.2111 71.4316 52.5966 71.4316 52.9986V59.8208C71.4316 60.2228 71.5913 60.6083 71.8755 60.8925C72.1598 61.1767 72.5453 61.3364 72.9472 61.3364H75.3852L77.6688 64.457H78.5058L81.6264 61.3364H84.0644C84.4663 61.3364 84.8518 61.1767 85.1361 60.8925C85.4203 60.6083 85.58 60.2228 85.58 59.8208V52.9986C85.58 52.7961 85.5395 52.5956 85.4608 52.409C85.3821 52.2225 85.2669 52.0535 85.1218 51.9123C84.9767 51.771 84.8048 51.6602 84.6162 51.5865C84.4276 51.5127 84.2262 51.4775 84.0237 51.483Z" fill="url(#paint68_linear_2288_1326)"/>
<path d="M83.1878 51.483H72.1113C71.7093 51.483 71.3238 51.6426 71.0396 51.9269C70.7554 52.2111 70.5957 52.5966 70.5957 52.9986V59.8208C70.5957 60.2228 70.7554 60.6083 71.0396 60.8925C71.3238 61.1767 71.7093 61.3364 72.1113 61.3364H74.5493L77.6699 64.457L80.7905 61.3364H83.2284C83.6304 61.3364 84.0159 61.1767 84.3001 60.8925C84.5844 60.6083 84.744 60.2228 84.744 59.8208V52.9986C84.7441 52.7961 84.7036 52.5956 84.6249 52.409C84.5462 52.2225 84.4309 52.0535 84.2859 51.9123C84.1408 51.771 83.9689 51.6602 83.7803 51.5865C83.5917 51.5127 83.3902 51.4775 83.1878 51.483Z" fill="url(#paint69_linear_2288_1326)"/>
<path d="M120.034 59.2329H108.953C108.551 59.2329 108.166 59.3925 107.881 59.6768C107.597 59.961 107.438 60.3465 107.438 60.7485V67.5748C107.438 67.9767 107.597 68.3622 107.881 68.6465C108.166 68.9307 108.551 69.0904 108.953 69.0904H111.391L113.675 72.211H114.512L117.632 69.0904H120.07C120.472 69.0904 120.858 68.9307 121.142 68.6465C121.426 68.3622 121.586 67.9767 121.586 67.5748V60.7485C121.586 60.5463 121.546 60.3462 121.467 60.1599C121.389 59.9736 121.274 59.8049 121.129 59.6636C120.984 59.5224 120.813 59.4115 120.625 59.3376C120.437 59.2636 120.236 59.228 120.034 59.2329Z" fill="url(#paint70_linear_2288_1326)"/>
<path d="M119.196 59.2329H108.115C107.916 59.2329 107.719 59.2721 107.535 59.3482C107.351 59.4244 107.184 59.536 107.044 59.6768C106.903 59.8175 106.791 59.9846 106.715 60.1685C106.639 60.3523 106.6 60.5494 106.6 60.7485V67.5748C106.6 67.7738 106.639 67.9709 106.715 68.1548C106.791 68.3386 106.903 68.5057 107.044 68.6465C107.184 68.7872 107.351 68.8988 107.535 68.975C107.719 69.0512 107.916 69.0904 108.115 69.0904H110.553L113.674 72.211L116.794 69.0904H119.232C119.634 69.0904 120.02 68.9307 120.304 68.6465C120.588 68.3622 120.748 67.9767 120.748 67.5748V60.7485C120.748 60.5463 120.708 60.3462 120.629 60.1599C120.551 59.9736 120.436 59.8049 120.291 59.6636C120.147 59.5224 119.975 59.4115 119.787 59.3376C119.599 59.2636 119.398 59.228 119.196 59.2329Z" fill="url(#paint71_linear_2288_1326)"/>
<path d="M102.747 118.061C102.747 118.061 88.9039 118.215 83.2844 117.748C77.6649 117.281 75.4626 113.815 74.9425 112.262C74.6401 111.411 74.4648 110.52 74.4224 109.617H56.7715C56.814 110.52 56.9892 111.411 57.2916 112.262C57.8117 113.815 60.014 117.281 65.6335 117.748C71.253 118.215 85.0966 118.061 85.0966 118.061H102.747Z" fill="url(#paint72_linear_2288_1326)"/>
<path d="M134.38 115.91H116.692C116.567 115.91 116.465 116.012 116.465 116.138V117.804C116.465 117.929 116.567 118.031 116.692 118.031H134.38C134.505 118.031 134.607 117.929 134.607 117.804V116.138C134.607 116.012 134.505 115.91 134.38 115.91Z" fill="#223762"/>
<path d="M85.377 118.031H119.358C120.021 118.031 120.415 117.381 120.24 116.581L114.482 90.1205C114.308 89.3079 113.629 88.6699 112.971 88.6699H78.9895C78.3272 88.6699 77.9331 89.32 78.1078 90.1205L83.8655 116.581C84.0402 117.381 84.7188 118.031 85.377 118.031Z" fill="#223762"/>
<path d="M83.7029 118.031H117.684C118.346 118.031 118.741 117.381 118.566 116.581L112.808 90.1205C112.633 89.3079 111.955 88.6699 111.297 88.6699H77.3235C76.6612 88.6699 76.2671 89.32 76.4418 90.1205L82.1995 116.581C82.3701 117.381 83.0487 118.031 83.7029 118.031Z" fill="url(#paint73_linear_2288_1326)"/>
<path d="M95.8438 100.58C95.6599 100.144 95.5237 99.689 95.4375 99.2233C95.0515 99.2124 94.6738 99.336 94.3688 99.5728C93.1498 100.499 92.9142 102.937 93.8244 105.018C94.7345 107.098 96.4574 108.032 97.6682 107.102C98.6231 106.371 98.9644 104.705 98.6271 103.014C97.6032 102.994 96.5061 102.096 95.8438 100.58Z" fill="#D6E3FA"/>
<path d="M129.094 100.974V95.5578L134.051 91.6855L134.717 92.677L130.333 96.1023V100.974H129.094Z" fill="url(#paint74_linear_2288_1326)"/>
<path d="M133.833 118.34H125.966L124.512 101.307H135.292L133.833 118.34Z" fill="url(#paint75_linear_2288_1326)"/>
<path d="M135.274 100.283H124.604L124.047 102.091H135.753L135.274 100.283Z" fill="url(#paint76_linear_2288_1326)"/>
<path d="M139.07 109.316L137.526 110.617L136.274 109.967L135.998 112.035L141.593 115.895L146.201 113.729L147.542 113.335V110.657L139.07 109.316Z" fill="url(#paint77_linear_2288_1326)"/>
<path d="M137.221 118.158L135.291 111.246H149.354L148.529 118.158H137.221Z" fill="url(#paint78_linear_2288_1326)"/>
<path d="M148.529 118.158H156.054L158.062 111.246H149.354L148.529 118.158Z" fill="url(#paint79_linear_2288_1326)"/>
<path d="M140.54 103.766L137.525 110.275L151.41 112.53L151.702 105.578L140.54 103.766Z" fill="url(#paint80_linear_2288_1326)"/>
<path d="M151.703 105.578L159.13 106.785L160.008 113.924L151.41 112.53L151.703 105.578Z" fill="url(#paint81_linear_2288_1326)"/>
<defs>
<linearGradient id="paint0_linear_2288_1326" x1="47.4005" y1="2.8079" x2="227.361" y2="150.938" gradientUnits="userSpaceOnUse">
<stop stop-color="#EAF1FC"/>
<stop offset="1" stop-color="#C0D4F4"/>
</linearGradient>
<linearGradient id="paint1_linear_2288_1326" x1="99.4454" y1="12.9187" x2="78.869" y2="41.004" gradientUnits="userSpaceOnUse">
<stop stop-color="#4C93F4"/>
<stop offset="1" stop-color="#0B63DA"/>
</linearGradient>
<linearGradient id="paint2_linear_2288_1326" x1="14550.1" y1="1265.76" x2="12732.6" y2="3856.35" gradientUnits="userSpaceOnUse">
<stop stop-color="#4C93F4"/>
<stop offset="1" stop-color="#0B63DA"/>
</linearGradient>
<linearGradient id="paint3_linear_2288_1326" x1="41383.6" y1="2155.23" x2="-2927.65" y2="1660.63" gradientUnits="userSpaceOnUse">
<stop stop-color="#EAF1FC"/>
<stop offset="1" stop-color="#C0D4F4"/>
</linearGradient>
<linearGradient id="paint4_linear_2288_1326" x1="38.6854" y1="93.9997" x2="73.2461" y2="106.056" gradientUnits="userSpaceOnUse">
<stop stop-color="#223762"/>
<stop offset="1" stop-color="#041B48"/>
</linearGradient>
<linearGradient id="paint5_linear_2288_1326" x1="41.037" y1="96.2953" x2="65.7814" y2="104.925" gradientUnits="userSpaceOnUse">
<stop stop-color="#3769A5"/>
<stop offset="1" stop-color="#08448B"/>
</linearGradient>
<linearGradient id="paint6_linear_2288_1326" x1="13547.8" y1="7721.66" x2="17631.6" y2="7181.65" gradientUnits="userSpaceOnUse">
<stop stop-color="#3769A5"/>
<stop offset="1" stop-color="#08448B"/>
</linearGradient>
<linearGradient id="paint7_linear_2288_1326" x1="13562.5" y1="7011.43" x2="17629.5" y2="6412.52" gradientUnits="userSpaceOnUse">
<stop stop-color="#223762"/>
<stop offset="1" stop-color="#041B48"/>
</linearGradient>
<linearGradient id="paint8_linear_2288_1326" x1="1569.25" y1="4913.35" x2="2778.8" y2="5393.26" gradientUnits="userSpaceOnUse">
<stop stop-color="#223762"/>
<stop offset="1" stop-color="#041B48"/>
</linearGradient>
<linearGradient id="paint9_linear_2288_1326" x1="11691.8" y1="2098.21" x2="11757.3" y2="2295.17" gradientUnits="userSpaceOnUse">
<stop stop-color="#223762"/>
<stop offset="1" stop-color="#041B48"/>
</linearGradient>
<linearGradient id="paint10_linear_2288_1326" x1="152724" y1="2098.21" x2="152659" y2="2295.17" gradientUnits="userSpaceOnUse">
<stop stop-color="#223762"/>
<stop offset="1" stop-color="#041B48"/>
</linearGradient>
<linearGradient id="paint11_linear_2288_1326" x1="1881.9" y1="21292.3" x2="2225.74" y2="21259.1" gradientUnits="userSpaceOnUse">
<stop stop-color="#223762"/>
<stop offset="1" stop-color="#041B48"/>
</linearGradient>
<linearGradient id="paint12_linear_2288_1326" x1="3518.66" y1="3523.7" x2="3639.29" y2="3408.2" gradientUnits="userSpaceOnUse">
<stop stop-color="#223762"/>
<stop offset="1" stop-color="#041B48"/>
</linearGradient>
<linearGradient id="paint13_linear_2288_1326" x1="14779.5" y1="2114.89" x2="14776.2" y2="2010.47" gradientUnits="userSpaceOnUse">
<stop stop-color="#223762"/>
<stop offset="1" stop-color="#041B48"/>
</linearGradient>
<linearGradient id="paint14_linear_2288_1326" x1="33217.9" y1="23544.4" x2="33091.2" y2="22939.9" gradientUnits="userSpaceOnUse">
<stop stop-color="#223762"/>
<stop offset="1" stop-color="#041B48"/>
</linearGradient>
<linearGradient id="paint15_linear_2288_1326" x1="4113.7" y1="2078.86" x2="4106.99" y2="2028.55" gradientUnits="userSpaceOnUse">
<stop stop-color="#223762"/>
<stop offset="1" stop-color="#041B48"/>
</linearGradient>
<linearGradient id="paint16_linear_2288_1326" x1="14619.4" y1="27844.3" x2="15276.4" y2="27157" gradientUnits="userSpaceOnUse">
<stop stop-color="#3769A5"/>
<stop offset="1" stop-color="#08448B"/>
</linearGradient>
<linearGradient id="paint17_linear_2288_1326" x1="20797.7" y1="12371.4" x2="28141.5" y2="11492.9" gradientUnits="userSpaceOnUse">
<stop stop-color="#4C93F4"/>
<stop offset="1" stop-color="#0B63DA"/>
</linearGradient>
<linearGradient id="paint18_linear_2288_1326" x1="26427.7" y1="10293.6" x2="30194.4" y2="11389.9" gradientUnits="userSpaceOnUse">
<stop stop-color="#3769A5"/>
<stop offset="1" stop-color="#08448B"/>
</linearGradient>
<linearGradient id="paint19_linear_2288_1326" x1="169.316" y1="50.115" x2="165.128" y2="45.738" gradientUnits="userSpaceOnUse">
<stop stop-color="#F8A695"/>
<stop offset="1" stop-color="#E56045"/>
</linearGradient>
<linearGradient id="paint20_linear_2288_1326" x1="7332.06" y1="304.945" x2="7144.24" y2="100.227" gradientUnits="userSpaceOnUse">
<stop stop-color="#F8A695"/>
<stop offset="1" stop-color="#E56045"/>
</linearGradient>
<linearGradient id="paint21_linear_2288_1326" x1="133.657" y1="52.366" x2="156.404" y2="68.9848" gradientUnits="userSpaceOnUse">
<stop stop-color="#FFC063"/>
<stop offset="0.95" stop-color="#E44D0B"/>
</linearGradient>
<linearGradient id="paint22_linear_2288_1326" x1="174.96" y1="79.8526" x2="154.713" y2="112.075" gradientUnits="userSpaceOnUse">
<stop stop-color="#FFC063"/>
<stop offset="1" stop-color="#E58F0F"/>
</linearGradient>
<linearGradient id="paint23_linear_2288_1326" x1="18510.7" y1="7237.39" x2="24753.4" y2="13198.4" gradientUnits="userSpaceOnUse">
<stop stop-color="#FFC063"/>
<stop offset="0.95" stop-color="#E44D0B"/>
</linearGradient>
<linearGradient id="paint24_linear_2288_1326" x1="6124.91" y1="-804.279" x2="6173.17" y2="-937.696" gradientUnits="userSpaceOnUse">
<stop stop-color="#F8A695"/>
<stop offset="1" stop-color="#E56045"/>
</linearGradient>
<linearGradient id="paint25_linear_2288_1326" x1="7027.14" y1="-3137.02" x2="6947.02" y2="-3068.99" gradientUnits="userSpaceOnUse">
<stop stop-color="#223762"/>
<stop offset="1" stop-color="#041B48"/>
</linearGradient>
<linearGradient id="paint26_linear_2288_1326" x1="12761.2" y1="-4299.16" x2="13796.4" y2="-5632.57" gradientUnits="userSpaceOnUse">
<stop stop-color="#F8A695"/>
<stop offset="1" stop-color="#E56045"/>
</linearGradient>
<linearGradient id="paint27_linear_2288_1326" x1="14475.9" y1="-6022.62" x2="14108.8" y2="-3953.26" gradientUnits="userSpaceOnUse">
<stop stop-color="#223762"/>
<stop offset="1" stop-color="#041B48"/>
</linearGradient>
<linearGradient id="paint28_linear_2288_1326" x1="11051.7" y1="-5886.04" x2="10713.7" y2="-6360.3" gradientUnits="userSpaceOnUse">
<stop stop-color="#223762"/>
<stop offset="1" stop-color="#041B48"/>
</linearGradient>
<linearGradient id="paint29_linear_2288_1326" x1="19109.7" y1="5653.62" x2="16766.2" y2="9060.86" gradientUnits="userSpaceOnUse">
<stop stop-color="#FFC063"/>
<stop offset="1" stop-color="#E58F0F"/>
</linearGradient>
<linearGradient id="paint30_linear_2288_1326" x1="105435" y1="31070.3" x2="105435" y2="19563.3" gradientUnits="userSpaceOnUse">
<stop stop-color="#3769A5"/>
<stop offset="1" stop-color="#08448B"/>
</linearGradient>
<linearGradient id="paint31_linear_2288_1326" x1="104010" y1="31070.3" x2="104010" y2="19563.3" gradientUnits="userSpaceOnUse">
<stop stop-color="#3769A5"/>
<stop offset="1" stop-color="#08448B"/>
</linearGradient>
<linearGradient id="paint32_linear_2288_1326" x1="112129" y1="25212.5" x2="112129" y2="21698.5" gradientUnits="userSpaceOnUse">
<stop stop-color="#3769A5"/>
<stop offset="1" stop-color="#08448B"/>
</linearGradient>
<linearGradient id="paint33_linear_2288_1326" x1="110704" y1="25212.5" x2="110704" y2="21698.5" gradientUnits="userSpaceOnUse">
<stop stop-color="#3769A5"/>
<stop offset="1" stop-color="#08448B"/>
</linearGradient>
<linearGradient id="paint34_linear_2288_1326" x1="51.6764" y1="171.24" x2="51.6764" y2="123.107" gradientUnits="userSpaceOnUse">
<stop stop-color="#A7BDE5"/>
<stop offset="1" stop-color="#2F66CB"/>
</linearGradient>
<linearGradient id="paint35_linear_2288_1326" x1="-104306" y1="30421.1" x2="-104306" y2="21904.8" gradientUnits="userSpaceOnUse">
<stop stop-color="#A7BDE5"/>
<stop offset="1" stop-color="#2F66CB"/>
</linearGradient>
<linearGradient id="paint36_linear_2288_1326" x1="-8654.58" y1="4582.96" x2="-8922.03" y2="4499.87" gradientUnits="userSpaceOnUse">
<stop stop-color="#4C93F4"/>
<stop offset="1" stop-color="#0B63DA"/>
</linearGradient>
<linearGradient id="paint37_linear_2288_1326" x1="15109.6" y1="1501.78" x2="15083.2" y2="1466.99" gradientUnits="userSpaceOnUse">
<stop stop-color="#FFC063"/>
<stop offset="0.95" stop-color="#E44D0B"/>
</linearGradient>
<linearGradient id="paint38_linear_2288_1326" x1="-32624.7" y1="3766.77" x2="-32989.2" y2="3274.53" gradientUnits="userSpaceOnUse">
<stop stop-color="#4C93F4"/>
<stop offset="1" stop-color="#0B63DA"/>
</linearGradient>
<linearGradient id="paint39_linear_2288_1326" x1="824613" y1="1805.91" x2="845700" y2="40709.5" gradientUnits="userSpaceOnUse">
<stop stop-color="#A7BDE5"/>
<stop offset="1" stop-color="#2F66CB"/>
</linearGradient>
<linearGradient id="paint40_linear_2288_1326" x1="-112433" y1="28239.2" x2="-112433" y2="19288.7" gradientUnits="userSpaceOnUse">
<stop stop-color="#A7BDE5"/>
<stop offset="1" stop-color="#2F66CB"/>
</linearGradient>
<linearGradient id="paint41_linear_2288_1326" x1="-111027" y1="28239.2" x2="-111027" y2="19288.7" gradientUnits="userSpaceOnUse">
<stop stop-color="#A7BDE5"/>
<stop offset="1" stop-color="#2F66CB"/>
</linearGradient>
<linearGradient id="paint42_linear_2288_1326" x1="1.17942e+06" y1="2279.2" x2="1.03314e+06" y2="2279.2" gradientUnits="userSpaceOnUse">
<stop stop-color="#223762"/>
<stop offset="1" stop-color="#041B48"/>
</linearGradient>
<linearGradient id="paint43_linear_2288_1326" x1="910.836" y1="4981.49" x2="1430.27" y2="5094.93" gradientUnits="userSpaceOnUse">
<stop stop-color="#3769A5"/>
<stop offset="1" stop-color="#08448B"/>
</linearGradient>
<linearGradient id="paint44_linear_2288_1326" x1="57560.4" y1="5502.75" x2="58750.4" y2="6943.54" gradientUnits="userSpaceOnUse">
<stop stop-color="#4C93F4"/>
<stop offset="1" stop-color="#0B63DA"/>
</linearGradient>
<linearGradient id="paint45_linear_2288_1326" x1="3349.27" y1="-894.534" x2="5206.07" y2="-708.854" gradientUnits="userSpaceOnUse">
<stop stop-color="#223762"/>
<stop offset="1" stop-color="#041B48"/>
</linearGradient>
<linearGradient id="paint46_linear_2288_1326" x1="7906.49" y1="26558.7" x2="4494.09" y2="27979.6" gradientUnits="userSpaceOnUse">
<stop stop-color="#223762"/>
<stop offset="1" stop-color="#041B48"/>
</linearGradient>
<linearGradient id="paint47_linear_2288_1326" x1="6020.13" y1="17428.9" x2="6398.62" y2="17428.9" gradientUnits="userSpaceOnUse">
<stop stop-color="#3769A5"/>
<stop offset="1" stop-color="#08448B"/>
</linearGradient>
<linearGradient id="paint48_linear_2288_1326" x1="8019.28" y1="10102.5" x2="-2457.11" y2="18849.1" gradientUnits="userSpaceOnUse">
<stop stop-color="#4C93F4"/>
<stop offset="1" stop-color="#0B63DA"/>
</linearGradient>
<linearGradient id="paint49_linear_2288_1326" x1="16259.8" y1="23679.1" x2="13271.6" y2="26399.1" gradientUnits="userSpaceOnUse">
<stop stop-color="#3769A5"/>
<stop offset="1" stop-color="#08448B"/>
</linearGradient>
<linearGradient id="paint50_linear_2288_1326" x1="241.469" y1="162.426" x2="192.628" y2="184.214" gradientUnits="userSpaceOnUse">
<stop stop-color="#FF9F5B"/>
<stop offset="1" stop-color="#E5670E"/>
</linearGradient>
<linearGradient id="paint51_linear_2288_1326" x1="8899.19" y1="16020.3" x2="8610.09" y2="16020.3" gradientUnits="userSpaceOnUse">
<stop stop-color="#FF9F5B"/>
<stop offset="1" stop-color="#E5670E"/>
</linearGradient>
<linearGradient id="paint52_linear_2288_1326" x1="1694.51" y1="1088.51" x2="1658.39" y2="1142.13" gradientUnits="userSpaceOnUse">
<stop stop-color="#4C93F4"/>
<stop offset="1" stop-color="#0B63DA"/>
</linearGradient>
<linearGradient id="paint53_linear_2288_1326" x1="3131.51" y1="-2641.2" x2="3095.66" y2="-2617.89" gradientUnits="userSpaceOnUse">
<stop stop-color="#4C93F4"/>
<stop offset="1" stop-color="#0B63DA"/>
</linearGradient>
<linearGradient id="paint54_linear_2288_1326" x1="4458.72" y1="-3734.48" x2="4409.57" y2="-3702.51" gradientUnits="userSpaceOnUse">
<stop stop-color="#4C93F4"/>
<stop offset="1" stop-color="#0B63DA"/>
</linearGradient>
<linearGradient id="paint55_linear_2288_1326" x1="4312.45" y1="-1248.29" x2="4277.22" y2="-1201.42" gradientUnits="userSpaceOnUse">
<stop stop-color="#4C93F4"/>
<stop offset="1" stop-color="#0B63DA"/>
</linearGradient>
<linearGradient id="paint56_linear_2288_1326" x1="10699.6" y1="12553.1" x2="14024.9" y2="17988.9" gradientUnits="userSpaceOnUse">
<stop stop-color="#3769A5"/>
<stop offset="1" stop-color="#08448B"/>
</linearGradient>
<linearGradient id="paint57_linear_2288_1326" x1="11049.6" y1="12339.3" x2="14375.1" y2="17774.7" gradientUnits="userSpaceOnUse">
<stop stop-color="#4C93F4"/>
<stop offset="1" stop-color="#0B63DA"/>
</linearGradient>
<linearGradient id="paint58_linear_2288_1326" x1="10939.8" y1="11355.6" x2="15706.7" y2="19146.7" gradientUnits="userSpaceOnUse">
<stop stop-color="#4C93F4"/>
<stop offset="1" stop-color="#0B63DA"/>
</linearGradient>
<linearGradient id="paint59_linear_2288_1326" x1="2391.58" y1="4028.7" x2="2384.13" y2="4066.44" gradientUnits="userSpaceOnUse">
<stop stop-color="#4C93F4"/>
<stop offset="1" stop-color="#0B63DA"/>
</linearGradient>
<linearGradient id="paint60_linear_2288_1326" x1="2444.29" y1="4048.36" x2="2436.84" y2="4086.09" gradientUnits="userSpaceOnUse">
<stop stop-color="#4C93F4"/>
<stop offset="1" stop-color="#0B63DA"/>
</linearGradient>
<linearGradient id="paint61_linear_2288_1326" x1="2326.38" y1="-227.094" x2="2311.99" y2="-205.935" gradientUnits="userSpaceOnUse">
<stop stop-color="#4C93F4"/>
<stop offset="1" stop-color="#0B63DA"/>
</linearGradient>
<linearGradient id="paint62_linear_2288_1326" x1="2326.2" y1="-195.027" x2="2311.88" y2="-173.98" gradientUnits="userSpaceOnUse">
<stop stop-color="#4C93F4"/>
<stop offset="1" stop-color="#0B63DA"/>
</linearGradient>
<linearGradient id="paint63_linear_2288_1326" x1="3256.62" y1="-411.412" x2="3236.95" y2="-382.523" gradientUnits="userSpaceOnUse">
<stop stop-color="#4C93F4"/>
<stop offset="1" stop-color="#0B63DA"/>
</linearGradient>
<linearGradient id="paint64_linear_2288_1326" x1="3166.58" y1="918.824" x2="3158.01" y2="952.692" gradientUnits="userSpaceOnUse">
<stop stop-color="#4C93F4"/>
<stop offset="1" stop-color="#0B63DA"/>
</linearGradient>
<linearGradient id="paint65_linear_2288_1326" x1="13388.6" y1="2094.28" x2="13385.3" y2="1998.04" gradientUnits="userSpaceOnUse">
<stop stop-color="#223762"/>
<stop offset="1" stop-color="#041B48"/>
</linearGradient>
<linearGradient id="paint66_linear_2288_1326" x1="3179.85" y1="2637.62" x2="3356.89" y2="2555.52" gradientUnits="userSpaceOnUse">
<stop stop-color="#FFC063"/>
<stop offset="0.95" stop-color="#E44D0B"/>
</linearGradient>
<linearGradient id="paint67_linear_2288_1326" x1="3434.94" y1="2279.06" x2="3288.02" y2="3064.47" gradientUnits="userSpaceOnUse">
<stop stop-color="#FFC063"/>
<stop offset="0.95" stop-color="#E44D0B"/>
</linearGradient>
<linearGradient id="paint68_linear_2288_1326" x1="2576.25" y1="1951.87" x2="2753.2" y2="1869.71" gradientUnits="userSpaceOnUse">
<stop stop-color="#FFC063"/>
<stop offset="0.95" stop-color="#E44D0B"/>
</linearGradient>
<linearGradient id="paint69_linear_2288_1326" x1="2831.36" y1="1596.5" x2="2684.43" y2="2381.91" gradientUnits="userSpaceOnUse">
<stop stop-color="#FFC063"/>
<stop offset="0.95" stop-color="#E44D0B"/>
</linearGradient>
<linearGradient id="paint70_linear_2288_1326" x1="3866.08" y1="2207.7" x2="4042.91" y2="2125.56" gradientUnits="userSpaceOnUse">
<stop stop-color="#FFC063"/>
<stop offset="0.95" stop-color="#E44D0B"/>
</linearGradient>
<linearGradient id="paint71_linear_2288_1326" x1="4121.05" y1="1852.22" x2="3974.04" y2="2637.85" gradientUnits="userSpaceOnUse">
<stop stop-color="#FFC063"/>
<stop offset="0.95" stop-color="#E44D0B"/>
</linearGradient>
<linearGradient id="paint72_linear_2288_1326" x1="8796.8" y1="2296.97" x2="8811.89" y2="2598.7" gradientUnits="userSpaceOnUse">
<stop stop-color="#FFC063"/>
<stop offset="0.95" stop-color="#E44D0B"/>
</linearGradient>
<linearGradient id="paint73_linear_2288_1326" x1="17812.8" y1="6437.45" x2="16593.1" y2="9712.58" gradientUnits="userSpaceOnUse">
<stop stop-color="#4C93F4"/>
<stop offset="1" stop-color="#0B63DA"/>
</linearGradient>
<linearGradient id="paint74_linear_2288_1326" x1="1948.66" y1="2270.25" x2="1841.02" y2="2380.14" gradientUnits="userSpaceOnUse">
<stop stop-color="#FFC063"/>
<stop offset="0.95" stop-color="#E44D0B"/>
</linearGradient>
<linearGradient id="paint75_linear_2288_1326" x1="3606.95" y1="4772.5" x2="3476.43" y2="4563.53" gradientUnits="userSpaceOnUse">
<stop stop-color="#4C93F4"/>
<stop offset="1" stop-color="#0B63DA"/>
</linearGradient>
<linearGradient id="paint76_linear_2288_1326" x1="3957.27" y1="556.427" x2="3933.59" y2="496.724" gradientUnits="userSpaceOnUse">
<stop stop-color="#4C93F4"/>
<stop offset="1" stop-color="#0B63DA"/>
</linearGradient>
<linearGradient id="paint77_linear_2288_1326" x1="3998.77" y1="1920.63" x2="4309.22" y2="2009.08" gradientUnits="userSpaceOnUse">
<stop stop-color="#FFC063"/>
<stop offset="0.95" stop-color="#E44D0B"/>
</linearGradient>
<linearGradient id="paint78_linear_2288_1326" x1="4817.71" y1="625.753" x2="5304.43" y2="625.753" gradientUnits="userSpaceOnUse">
<stop stop-color="#4C93F4"/>
<stop offset="1" stop-color="#0B63DA"/>
</linearGradient>
<linearGradient id="paint79_linear_2288_1326" x1="3633.02" y1="625.753" x2="3856.65" y2="625.753" gradientUnits="userSpaceOnUse">
<stop stop-color="#4C93F4"/>
<stop offset="1" stop-color="#0B63DA"/>
</linearGradient>
<linearGradient id="paint80_linear_2288_1326" x1="5066.06" y1="2016.34" x2="5551.81" y2="2094.84" gradientUnits="userSpaceOnUse">
<stop stop-color="#4C93F4"/>
<stop offset="1" stop-color="#0B63DA"/>
</linearGradient>
<linearGradient id="paint81_linear_2288_1326" x1="3352.61" y1="1690.8" x2="3552.3" y2="1723.08" gradientUnits="userSpaceOnUse">
<stop stop-color="#4C93F4"/>
<stop offset="1" stop-color="#0B63DA"/>
</linearGradient>
</defs>
</svg>
