<svg width="100" height="100" viewBox="0 0 100 100" fill="none" xmlns="http://www.w3.org/2000/svg">
<circle cx="51.5" cy="46.5" r="27.5" fill="#1ABC9C"/>
<path d="M45.4688 55.5049C44.7917 56.182 44.1484 56.5205 43.5391 56.5205C43.1497 56.5205 42.8874 56.3766 42.752 56.0889C42.9466 55.8519 43.0439 55.4964 43.0439 55.0225V54.832C43.0439 54.7812 43.0397 54.7347 43.0312 54.6924C42.6081 54.3115 42.3965 53.863 42.3965 53.3467C42.3965 52.8219 42.6419 52.2887 43.1328 51.7471C42.9889 51.4593 42.917 51.1546 42.917 50.833C42.917 50.5029 42.9635 50.1982 43.0566 49.9189C43.1582 49.6312 43.2936 49.3815 43.4629 49.1699C43.8184 48.7044 44.1654 48.4717 44.5039 48.4717C44.8509 48.4717 45.0964 48.6071 45.2402 48.8779C44.9355 49.1995 44.7832 49.7031 44.7832 50.3887C44.7832 51.0742 44.8805 51.6709 45.0752 52.1787C45.2783 52.6865 45.5618 53.1224 45.9258 53.4863C46.7044 54.2819 47.6989 54.6797 48.9092 54.6797C49.7217 54.6797 50.4115 54.4469 50.9785 53.9814C51.5879 53.4821 51.8926 52.8008 51.8926 51.9375C51.8926 51.3281 51.7487 50.833 51.4609 50.4521C51.0124 49.8597 50.3099 49.2334 49.3535 48.5732C48.6172 48.057 48.029 47.7988 47.5889 47.7988C47.1403 47.7988 46.6452 47.9808 46.1035 48.3447C46.2474 47.9131 46.3193 47.5111 46.3193 47.1387C46.3193 47.054 46.2389 46.944 46.0781 46.8086L45.6084 46.3896C44.1273 45.027 43.2513 43.7617 42.9805 42.5938C42.8874 42.1875 42.8408 41.6797 42.8408 41.0703C42.8408 40.4525 42.9889 39.8304 43.2852 39.2041C43.5898 38.5693 44.0046 38.0319 44.5293 37.5918C45.6211 36.6608 47.0091 36.1953 48.6934 36.1953C49.7174 36.1953 50.6569 36.3604 51.5117 36.6904C51.8757 36.8343 52.2904 36.9062 52.7559 36.9062C52.9505 36.9062 53.124 36.8978 53.2764 36.8809C53.4372 36.8555 53.5768 36.7666 53.6953 36.6143C53.8053 36.4535 53.8604 36.3096 53.8604 36.1826C53.8604 36.0557 53.8434 35.9499 53.8096 35.8652C53.8688 35.8398 53.9492 35.8271 54.0508 35.8271C54.1608 35.8271 54.2793 35.8652 54.4062 35.9414C54.5332 36.0091 54.6475 36.1064 54.749 36.2334C54.9775 36.5212 55.0918 36.847 55.0918 37.2109C55.0918 37.5664 54.9902 37.8372 54.7871 38.0234C55.0749 38.2773 55.2188 38.6709 55.2188 39.2041C55.2188 39.7288 55.041 40.1689 54.6855 40.5244C54.7533 40.7529 54.7871 40.9603 54.7871 41.1465C54.7871 41.3242 54.7533 41.4977 54.6855 41.667C54.6263 41.8278 54.5417 41.9674 54.4316 42.0859C54.1862 42.3483 53.9535 42.4795 53.7334 42.4795C53.3864 42.4795 53.0944 42.4202 52.8574 42.3018C53.0013 41.9632 53.0732 41.5993 53.0732 41.21C53.0732 40.8206 52.9844 40.4229 52.8066 40.0166C52.6374 39.6019 52.3962 39.2422 52.083 38.9375C51.4229 38.3112 50.5596 37.998 49.4932 37.998C48.8161 37.998 48.2617 38.2054 47.8301 38.6201C47.4238 39.0094 47.2207 39.4792 47.2207 40.0293C47.2207 40.444 47.3223 40.791 47.5254 41.0703C47.8809 41.5527 48.4437 42.0521 49.2139 42.5684L49.8232 42.9746C50.1618 43.1862 50.3903 43.292 50.5088 43.292C50.6273 43.292 50.7458 43.2793 50.8643 43.2539C50.9827 43.2285 51.1139 43.1947 51.2578 43.1523C51.5625 43.0508 51.8587 42.9069 52.1465 42.7207L51.9814 43.4316C51.9307 43.6686 51.9053 43.8421 51.9053 43.9521C51.9053 44.1299 51.9941 44.2907 52.1719 44.4346C53.7546 45.8057 54.8125 46.9525 55.3457 47.875C55.8112 48.679 56.0439 49.5465 56.0439 50.4775C56.0439 51.4085 55.8916 52.2083 55.5869 52.877C55.2822 53.5456 54.8379 54.138 54.2539 54.6543C52.9674 55.8053 51.2959 56.3809 49.2393 56.3809C47.792 56.3809 46.5352 56.0889 45.4688 55.5049ZM44.6055 40.1309C44.2839 40.2663 44.123 40.6175 44.123 41.1846C44.123 42.3441 44.8975 43.6178 46.4463 45.0059L47.208 45.6914C47.4704 45.9284 47.5846 46.1104 47.5508 46.2373C47.5254 46.3643 47.5 46.4658 47.4746 46.542C47.4577 46.6182 47.4365 46.6901 47.4111 46.7578C47.3857 46.8255 47.3688 46.8763 47.3604 46.9102C47.6566 46.7324 47.8978 46.6436 48.084 46.6436C48.4564 46.6436 48.8076 46.7451 49.1377 46.9482C50.7712 47.9639 51.8799 48.8695 52.4639 49.665C52.887 50.249 53.1071 50.9769 53.124 51.8486C53.124 52.1618 53.1029 52.4242 53.0605 52.6357C53.5091 52.348 53.7334 51.891 53.7334 51.2646C53.7334 50.6553 53.6488 50.1855 53.4795 49.8555C53.3187 49.5254 53.1283 49.2334 52.9082 48.9795C52.6882 48.7171 52.4004 48.4336 52.0449 48.1289C51.6979 47.8242 51.2663 47.4941 50.75 47.1387L48.9473 45.9072C47.4661 44.9339 46.3405 43.9056 45.5703 42.8223C44.8932 41.8659 44.5716 40.9688 44.6055 40.1309Z" fill="white"/>
</svg>
