<svg width="85" height="70" viewBox="0 0 85 70" fill="none" xmlns="http://www.w3.org/2000/svg">
<g filter="url(#filter0_d_2921_696)">
<rect x="22.196" y="21.3229" width="41.1042" height="27.3542" rx="5.67708" fill="#1F72CD" stroke="#D9D9D9" stroke-width="2.64583"/>
<path fill-rule="evenodd" clip-rule="evenodd" d="M28.7183 30.625L24.625 39.6834H29.5253L30.1328 38.2391H31.5214L32.1289 39.6834H37.5227V38.5811L38.0034 39.6834H40.7935L41.2741 38.5578V39.6834H52.4919L53.8559 38.2766L55.1331 39.6834L60.8948 39.6951L56.7885 35.1795L60.8948 30.625H55.2225L53.8947 32.0058L52.6577 30.625H40.4542L39.4063 32.9631L38.3338 30.625H33.4438V31.6898L32.8998 30.625H28.7183ZM45.4713 31.9117H51.913L53.8833 34.04L55.917 31.9117H57.8873L54.8937 35.1787L57.8873 38.4079H55.8277L53.8574 36.255L51.8133 38.4079H45.4713V31.9117ZM47.0629 34.443V33.2565V33.2553H51.0824L52.8362 35.153L51.0047 37.061H47.0629V35.7656H50.5772V34.443H47.0629ZM29.6659 31.9117H32.0546L34.7697 38.0543V31.9117H37.3864L39.4835 36.3159L41.4162 31.9117H44.0198V38.4118H42.4355L42.4226 33.3184L40.113 38.4118H38.6958L36.3732 33.3184V38.4118H33.1141L32.4963 36.9545H29.1582L28.5416 38.4105H26.7954L29.6659 31.9117ZM29.7306 35.6084L30.8304 33.0125L31.9289 35.6084H29.7306Z" fill="white"/>
</g>
<defs>
<filter id="filter0_d_2921_696" x="0.873047" y="0" width="83.75" height="70" filterUnits="userSpaceOnUse" color-interpolation-filters="sRGB">
<feFlood flood-opacity="0" result="BackgroundImageFix"/>
<feColorMatrix in="SourceAlpha" type="matrix" values="0 0 0 0 0 0 0 0 0 0 0 0 0 0 0 0 0 0 127 0" result="hardAlpha"/>
<feOffset/>
<feGaussianBlur stdDeviation="10"/>
<feComposite in2="hardAlpha" operator="out"/>
<feColorMatrix type="matrix" values="0 0 0 0 0 0 0 0 0 0 0 0 0 0 0 0 0 0 0.07 0"/>
<feBlend mode="normal" in2="BackgroundImageFix" result="effect1_dropShadow_2921_696"/>
<feBlend mode="normal" in="SourceGraphic" in2="effect1_dropShadow_2921_696" result="shape"/>
</filter>
</defs>
</svg>
