<svg width="61" height="42" viewBox="0 0 61 42" fill="none" xmlns="http://www.w3.org/2000/svg">
<path d="M0 4C0 1.79086 1.79086 0 4 0H57C59.2091 0 61 1.79086 61 4V37.83C61 40.0391 59.2091 41.83 57 41.83H4C1.79086 41.83 0 40.0391 0 37.83V4Z" fill="#0060AF"/>
<path fill-rule="evenodd" clip-rule="evenodd" d="M12.5445 24.9251C12.5445 24.3637 12.5512 22.8631 12.5359 22.6782C12.5493 20.4454 10.7554 18.8702 9.62203 18.993C8.83781 19.0546 8.18044 19.344 7.82769 20.1765C7.50047 20.9524 7.79303 21.9844 8.88047 22.2266C10.0431 22.4866 10.7222 22.703 11.2136 23.0083C11.8157 23.382 12.3072 24.096 12.3203 24.926" fill="white"/>
<path fill-rule="evenodd" clip-rule="evenodd" d="M12.0602 24.9254C12.064 24.2058 11.6202 23.5695 11.0401 23.2275C10.5256 22.9253 9.83484 22.7268 8.72046 22.4709C8.37599 22.3912 8.01566 22.2141 7.90411 21.9883C7.60903 22.2574 7.55543 22.8623 7.60735 23.216C7.66768 23.625 8.19597 24.2993 8.99141 24.3257C9.47718 24.3433 10.0913 24.2311 10.3859 24.1744C10.8939 24.0751 11.6978 24.3631 11.8258 24.9245" fill="white"/>
<path fill-rule="evenodd" clip-rule="evenodd" d="M12.955 15.5137C11.6061 15.5137 10.4413 16.3186 10.4453 17.7115C10.4495 18.8828 11.4904 19.5099 11.8619 19.9577C12.4232 20.6326 12.727 21.4315 12.7584 22.6539C12.7831 23.6267 12.7818 24.5873 12.7873 24.9278H13.0849C13.0799 24.5716 13.0664 23.5518 13.0817 22.6238C13.1019 21.401 13.4166 20.6326 13.9782 19.9577C14.3529 19.5099 15.3928 18.8828 15.3951 17.7115C15.4003 16.3186 14.2358 15.5137 12.8883 15.5137" fill="white"/>
<path fill-rule="evenodd" clip-rule="evenodd" d="M13.2985 24.9251C13.2985 24.3637 13.2915 22.8631 13.3065 22.6782C13.2933 20.4454 15.0861 18.8702 16.2204 18.993C17.0046 19.0546 17.6612 19.344 18.0151 20.1765C18.3418 20.9524 18.0477 21.9844 16.9617 22.2266C15.7982 22.4866 15.1201 22.703 14.6274 23.0083C14.026 23.382 13.5689 24.096 13.5549 24.926" fill="white"/>
<path fill-rule="evenodd" clip-rule="evenodd" d="M13.7852 24.9254C13.781 24.2058 14.2247 23.5695 14.803 23.2275C15.3198 22.9253 16.0113 22.7268 17.1247 22.4709C17.4699 22.3912 17.8298 22.2141 17.9393 21.9883C18.2358 22.2574 18.2894 22.8623 18.2374 23.216C18.1759 23.625 17.6489 24.2993 16.8549 24.3257C16.3694 24.3433 15.7518 24.2311 15.4586 24.1744C14.9525 24.0751 14.1464 24.3631 14.0178 24.9245" fill="white"/>
<path fill-rule="evenodd" clip-rule="evenodd" d="M14.1998 27.2477L14.0273 26.108L14.4439 26.0508C14.5452 26.0384 14.6687 26.0544 14.7181 26.1118C14.7727 26.1718 14.7894 26.2215 14.7999 26.3002C14.8158 26.3978 14.7846 26.5103 14.6634 26.5664V26.5698C14.7987 26.5698 14.8805 26.6578 14.9043 26.8064C14.9077 26.8379 14.9181 26.9136 14.9077 26.9768C14.8802 27.1273 14.7811 27.1758 14.6136 27.197L14.1998 27.2477ZM14.4671 27.0439C14.5165 27.0374 14.5666 27.035 14.6058 27.0124C14.6658 26.9769 14.6603 26.9013 14.6519 26.8449C14.6312 26.7213 14.5955 26.6742 14.4506 26.6936L14.3594 26.7063L14.4172 27.0501L14.4671 27.0439ZM14.3803 26.516C14.4354 26.508 14.51 26.5019 14.5412 26.4546C14.5576 26.4229 14.5784 26.3978 14.5646 26.3274C14.5477 26.2441 14.5172 26.1923 14.4 26.2124L14.291 26.2283L14.3341 26.5203L14.3803 26.516Z" fill="white"/>
<path fill-rule="evenodd" clip-rule="evenodd" d="M16.0055 26.5634C16.0087 26.5846 16.0125 26.6082 16.0139 26.6294C16.0476 26.8372 16.0055 27.0093 15.7473 27.0567C15.3655 27.1231 15.2924 26.9086 15.2254 26.6082L15.1896 26.4455C15.137 26.1582 15.1144 25.9405 15.4865 25.8733C15.6963 25.8388 15.8349 25.9144 15.8926 26.1033C15.9015 26.1315 15.9128 26.1593 15.917 26.1878L15.6887 26.2304C15.6623 26.1593 15.6274 26.0325 15.5246 26.0431C15.3403 26.0633 15.4012 26.2708 15.4201 26.3577L15.4887 26.6697C15.5094 26.764 15.5503 26.9147 15.7099 26.8857C15.8394 26.8622 15.7828 26.6796 15.7713 26.6046" fill="white"/>
<path fill-rule="evenodd" clip-rule="evenodd" d="M16.3738 26.9106L16.2949 25.7312L16.6015 25.6465L17.2446 26.6723L17.0031 26.7377L16.8507 26.477L16.5826 26.5498L16.6172 26.8462L16.3738 26.9106ZM16.5618 26.3586L16.756 26.3078L16.498 25.8306L16.5618 26.3586Z" fill="white"/>
<path fill-rule="evenodd" clip-rule="evenodd" d="M8.7952 26.0172C8.89118 25.7393 8.97705 25.5344 9.34341 25.6254C9.53943 25.675 9.66094 25.7531 9.65519 25.9592C9.65421 26.005 9.63751 26.0519 9.62657 26.0971L9.39855 26.0402C9.42844 25.9263 9.44738 25.836 9.29248 25.7929C9.11343 25.7484 9.0698 25.945 9.0451 26.0298L8.95235 26.3389C8.92289 26.4307 8.88753 26.5824 9.0451 26.6217C9.17531 26.6533 9.25417 26.5377 9.30132 26.3689L9.14192 26.3305L9.19706 26.1517L9.57212 26.2608L9.39406 26.8567L9.22148 26.8143L9.26034 26.6883H9.25543C9.17587 26.7915 9.07906 26.8023 8.99417 26.7874C8.61911 26.6957 8.65825 26.4739 8.74777 26.1775" fill="white"/>
<path fill-rule="evenodd" clip-rule="evenodd" d="M10.1914 26.5231L10.0785 27.0079L9.82422 26.9582L10.0952 25.8262L10.5286 25.9147C10.7823 25.9643 10.8589 26.0664 10.823 26.277C10.8025 26.3977 10.7367 26.5278 10.576 26.5172L10.5743 26.5153C10.7102 26.5582 10.7217 26.6203 10.698 26.7274C10.6877 26.7731 10.6171 27.0497 10.6658 27.0944L10.6675 27.1284L10.4044 27.0662C10.3935 26.9896 10.4308 26.8517 10.4455 26.7752C10.4603 26.7077 10.484 26.6125 10.4082 26.5768C10.349 26.5481 10.3268 26.5495 10.2598 26.5356L10.1914 26.5231ZM10.2344 26.3482L10.4056 26.3899C10.5095 26.4037 10.5673 26.3549 10.5878 26.2411C10.6063 26.1369 10.5824 26.0962 10.489 26.076L10.3055 26.0423L10.2344 26.3482Z" fill="white"/>
<path fill-rule="evenodd" clip-rule="evenodd" d="M11.821 26.077L12.0724 26.1034L11.9641 26.8994C11.9115 27.1517 11.8037 27.2619 11.497 27.2275C11.185 27.1917 11.1109 27.0632 11.1297 26.8088L11.2388 26.0137L11.4922 26.0398L11.3835 26.8172C11.3719 26.9017 11.3504 27.0268 11.5162 27.042C11.6634 27.0521 11.6968 26.9638 11.7135 26.8541" fill="white"/>
<path fill-rule="evenodd" clip-rule="evenodd" d="M12.3516 27.2689L12.4273 26.1309L12.9103 26.1498C13.1387 26.1601 13.1984 26.3287 13.1913 26.4897C13.1846 26.5876 13.1509 26.697 13.0566 26.7563C12.9793 26.8067 12.8798 26.8186 12.7878 26.8145L12.6304 26.8067L12.5989 27.2836L12.3516 27.2689ZM12.6367 26.6326L12.7647 26.6391C12.8687 26.6425 12.9376 26.6053 12.9465 26.4672C12.9517 26.3346 12.8962 26.312 12.7615 26.3067L12.6602 26.3035L12.6367 26.6326Z" fill="white"/>
<path fill-rule="evenodd" clip-rule="evenodd" d="M46.424 16.6139L44.504 19.7679C43.7792 19.2352 42.8944 18.8433 41.7653 18.8433C39.0933 18.8433 38.0078 20.6457 38.0078 21.9154C38.0078 22.858 38.6897 24.2485 41.0672 24.2485C42.0653 24.2485 43.4839 23.6203 43.8922 23.3344L41.9933 26.9935C41.0881 27.157 40.7907 27.2583 40.0245 27.2797C35.7691 27.3947 34.0497 25.0288 34.0508 22.6116C34.0537 19.4158 37.1931 15.5293 42.3978 15.5293C42.7166 15.5293 43.1067 15.6292 43.4402 15.7398L43.7774 15.3496" fill="white"/>
<path fill-rule="evenodd" clip-rule="evenodd" d="M54.3478 15.4492L54.8915 26.9122H50.8451L50.8429 24.9463H48.0836L47.1756 26.9122H42.7871L47.3751 18.7267L46.3406 18.7206L48.3061 15.4492H54.3478ZM50.8177 18.9569L49.2578 22.2911H50.8648L50.8177 18.9569Z" fill="white"/>
<path fill-rule="evenodd" clip-rule="evenodd" d="M31.4935 15.4459C33.4973 15.4561 34.6296 16.4405 34.6296 17.8623C34.6296 19.1733 33.4354 20.3335 32.1245 20.9335C33.4742 21.3827 33.5909 22.4849 33.5909 23.2646C33.5909 25.1486 31.5022 26.9089 28.7869 26.9089H22.8652L25.1751 18.8374L24.2263 18.8325L26.1659 15.4459C26.1659 15.4459 29.864 15.4358 31.4935 15.4459ZM29.5274 20.0935C29.9419 20.0935 30.6737 19.9986 30.8567 19.2726C31.0572 18.4844 30.3704 18.4632 30.0409 18.4632L28.8637 18.4586L28.4531 20.0935H29.5274ZM27.8643 22.1184L27.3223 24.0023H28.7086C29.2538 24.0023 29.9971 23.7573 30.1792 23.1442C30.3591 22.5294 29.8395 22.1184 29.2962 22.1184H27.8643Z" fill="white"/>
<path fill-rule="evenodd" clip-rule="evenodd" d="M13.0084 28.3218C10.958 28.3218 8.85103 27.8648 6.74673 26.9609L6.6951 26.9379L6.6704 26.8903C5.72608 25.0863 5.22656 23.1134 5.22656 21.183C5.22656 19.2554 5.7056 17.3667 6.65048 15.5652L6.67658 15.5173L6.72919 15.4935C8.67578 14.6589 10.7697 14.2363 12.9551 14.2363C14.9906 14.2363 17.1648 14.7068 19.2412 15.5995L19.2944 15.621L19.3191 15.6697C20.2814 17.5069 20.7889 19.4795 20.7889 21.378C20.7889 23.2689 20.3016 25.1594 19.338 26.9954L19.3128 27.0435L19.2592 27.0659C17.3422 27.8871 15.1806 28.3218 13.0084 28.3218ZM6.94169 26.7141C8.98579 27.5845 11.0247 28.0239 13.0086 28.0239C15.1122 28.0239 17.2042 27.6077 19.0666 26.8189C19.9917 25.0397 20.4606 23.2086 20.4606 21.3787C20.4606 19.5411 19.9712 17.6298 19.0454 15.8466C17.0303 14.9893 14.9259 14.5347 12.9553 14.5347C10.8396 14.5347 8.81166 14.9408 6.92401 15.7421C6.01786 17.4881 5.55664 19.3178 5.55664 21.1836C5.55664 23.0527 6.03582 24.9648 6.94169 26.7141Z" fill="white"/>
<path fill-rule="evenodd" clip-rule="evenodd" d="M57 1H4C2.34315 1 1 2.34315 1 4V37.83C1 39.4869 2.34315 40.83 4 40.83H57C58.6569 40.83 60 39.4869 60 37.83V4C60 2.34315 58.6569 1 57 1ZM4 0C1.79086 0 0 1.79086 0 4V37.83C0 40.0391 1.79086 41.83 4 41.83H57C59.2091 41.83 61 40.0391 61 37.83V4C61 1.79086 59.2091 0 57 0H4Z" fill="#D9D9D9"/>
</svg>
