<svg width="61" height="42" viewBox="0 0 61 42" fill="none" xmlns="http://www.w3.org/2000/svg">
<path d="M0 4C0 1.79086 1.79086 0 4 0H57C59.2091 0 61 1.79086 61 4V37.83C61 40.0391 59.2091 41.83 57 41.83H4C1.79086 41.83 0 40.0391 0 37.83V4Z" fill="white"/>
<path fill-rule="evenodd" clip-rule="evenodd" d="M9.89114 24.8381L11.9613 27.2992H6.83594L9.89114 24.8381ZM9.23948 24.0784L5.23016 27.3073L5.22852 19.3662L9.23948 24.0784ZM18.8862 16.0826C18.8862 16.0826 18.006 15.6826 16.9835 15.741C15.8145 15.8071 14.8366 16.2375 14.2744 16.8054C13.9206 17.1622 13.5295 17.5974 13.3331 18.0701C13.0482 18.7539 12.9874 19.6574 12.9874 19.6574C12.9874 19.6574 12.5785 19.3243 12.0663 18.3536C11.4707 17.2245 11.3078 16.5405 11.2271 15.7603C11.1552 15.0755 11.268 14.3984 11.268 14.3984H18.8862V16.0826ZM18.8858 18.3333V23.3405C18.8858 23.3405 18.4122 23.5151 18.0259 23.5151C17.6396 23.5151 16.9817 23.4602 16.2176 23.0569C15.4591 22.6569 15.0392 22.1729 14.7137 21.7344C14.3836 21.2883 14.1111 20.67 14.03 20.2244C13.9649 19.8679 13.8948 18.9788 14.274 18.2561C14.4798 17.864 15.0322 17.1917 16.0956 17.1535C16.9624 17.1216 17.4431 17.3404 17.8837 17.5725C18.7221 18.0151 18.8858 18.3333 18.8858 18.3333ZM10.591 22.9894L11.9651 21.8897C11.5272 21.3527 11.4114 21.1503 10.9219 20.457C10.4206 19.7473 10.0008 18.9666 9.64177 18.0505C9.25315 17.0582 9.15928 16.5011 9.20218 15.7603C9.25594 14.8177 9.47918 14.3984 9.47918 14.3984H5.22656L5.22854 16.5988C5.22854 16.5988 8.4838 20.5152 10.591 22.9894ZM14.5168 27.2959H18.8858V24.2376C18.8858 24.2376 17.8022 24.7148 17.0977 24.7533C16.6784 24.7768 16.2713 24.7923 15.6146 24.6246C14.8846 24.4384 14.4698 24.2568 13.7932 23.721C13.2497 23.2913 12.6283 22.6566 12.6283 22.6566L11.2461 23.763C11.8874 24.516 12.361 25.0642 12.506 25.2118C13.1294 25.8442 13.3935 26.0766 13.8134 26.302C14.2331 26.5278 15.6353 26.5156 15.6353 26.5156L14.5168 27.2959Z" fill="#E94E0F"/>
<path fill-rule="evenodd" clip-rule="evenodd" d="M51.9305 24.5743C51.9305 25.4605 52.055 26.9171 51.0213 27.2717V27.3307H54.9473V27.2717C53.9142 26.8976 54.0382 25.4605 54.0382 24.5743V17.1526C54.0382 16.2669 53.9142 14.81 54.9473 14.436V14.377H51.0213V14.436C52.0752 14.81 51.9305 16.2472 51.9305 17.1526V24.5743ZM37.5338 17.1526L44.6215 25.7164C45.5304 26.8383 46.1713 27.4883 47.6384 27.9605V16.9164C47.6384 15.8141 47.6384 15.0265 48.7131 14.436V14.377H45.076V14.436C46.1713 15.0265 46.1503 15.8141 46.1503 16.9164V24.3776L38.5879 15.2824L38.2982 14.8886C38.1539 14.7312 38.0714 14.6329 37.9887 14.3967V14.377H34.9713V14.436C36.0459 15.0265 36.0459 15.8141 36.0459 16.9164V24.7717C36.0459 25.8738 36.0459 26.6611 34.9511 27.2717V27.3307H38.6086V27.2717C37.5133 26.6611 37.5338 25.8738 37.5338 24.7717V17.1526ZM25.9804 19.5937V15.7352L27.3646 15.597C28.6046 15.4789 29.9268 16.1878 29.9268 17.5463C29.9268 19.1606 28.0051 19.5937 26.6623 19.5937H25.9804ZM25.9804 25.7551V20.8923L27.4266 20.8137C29.2451 20.7152 31.1873 21.5423 31.1873 23.4518C31.1873 25.322 29.4727 26.07 27.7779 25.9126L25.9804 25.7551ZM23.8723 24.5548C23.8723 25.4605 23.9964 26.8976 22.9629 27.2717V27.3307H26.3725C27.9222 27.3307 29.5551 27.3899 31.0012 26.7205C32.3857 26.0904 33.481 24.7909 33.481 23.275C33.481 21.3461 31.9723 20.1647 30.1125 19.7904C31.2905 19.2984 32.1787 18.5504 32.1787 17.2314C32.1787 15.4792 30.5881 14.377 27.8607 14.377H22.9629V14.436C24.0173 14.81 23.8723 16.2472 23.8723 17.1328V24.5548Z" fill="#005B6A"/>
<path fill-rule="evenodd" clip-rule="evenodd" d="M57 1H4C2.34315 1 1 2.34315 1 4V37.83C1 39.4869 2.34315 40.83 4 40.83H57C58.6569 40.83 60 39.4869 60 37.83V4C60 2.34315 58.6569 1 57 1ZM4 0C1.79086 0 0 1.79086 0 4V37.83C0 40.0391 1.79086 41.83 4 41.83H57C59.2091 41.83 61 40.0391 61 37.83V4C61 1.79086 59.2091 0 57 0H4Z" fill="#D9D9D9"/>
</svg>
