<svg width="61" height="42" viewBox="0 0 61 42" fill="none" xmlns="http://www.w3.org/2000/svg">
<path d="M0 4C0 1.79086 1.79086 0 4 0H57C59.2091 0 61 1.79086 61 4V37.83C61 40.0391 59.2091 41.83 57 41.83H4C1.79086 41.83 0 40.0391 0 37.83V4Z" fill="#00529C"/>
<path fill-rule="evenodd" clip-rule="evenodd" d="M18.084 18.1465H20.9913C22.1687 18.1465 23.0463 18.6466 23.0463 19.6994C23.0463 20.4713 22.6395 20.9011 21.9327 21.1289V21.1462C22.7751 21.3134 23.2098 21.7521 23.2098 22.4972C23.2098 23.9625 21.8781 24.2693 20.7463 24.2693H18.084V18.1465ZM19.7676 20.5681H20.2389C20.7914 20.5681 21.3622 20.4365 21.3622 19.9185C21.3622 19.3578 20.8187 19.3047 20.2566 19.3047H19.7676V20.5681ZM19.7676 23.1114H20.2665C20.8818 23.1114 21.5246 23.0235 21.5246 22.4006C21.5246 21.7344 20.8639 21.6725 20.2842 21.6725H19.7676V23.1114Z" fill="white"/>
<path fill-rule="evenodd" clip-rule="evenodd" d="M25.4213 18.1465H27.4863L29.9225 24.2693H28.0748L27.6043 22.9626H25.2314L24.733 24.2693H23.0215L25.4213 18.1465ZM26.4527 19.4099H26.4337L25.6191 21.8048H27.2039L26.4527 19.4099Z" fill="white"/>
<path fill-rule="evenodd" clip-rule="evenodd" d="M30.1543 18.1465H32.3006L34.438 22.3047H34.4556L34.4289 18.1465H35.969V24.2693H33.8768L31.6663 20.0852H31.6489L31.7029 24.2693H30.1543V18.1465Z" fill="white"/>
<path fill-rule="evenodd" clip-rule="evenodd" d="M36.543 18.1465H38.2272V20.6472H38.2454L40.1466 18.1465H42.176L39.839 20.9972L42.3571 24.2693H40.21L38.2454 21.4888H38.2272V24.2693H36.543V18.1465Z" fill="white"/>
<path fill-rule="evenodd" clip-rule="evenodd" d="M44.4453 18.1465H47.3527C48.5297 18.1465 49.4085 18.6466 49.4085 19.6994C49.4085 20.4713 49.0016 20.9011 48.2948 21.1289V21.1462C49.137 21.3134 49.5717 21.7521 49.5717 22.4972C49.5717 23.9625 48.2403 24.2693 47.1087 24.2693H44.4453V18.1465ZM46.1289 20.5681H46.5995C47.1521 20.5681 47.7222 20.4365 47.7222 19.9185C47.7222 19.3578 47.1794 19.3047 46.6182 19.3047H46.1289V20.5681ZM46.1289 23.1114H46.6273C47.2426 23.1114 47.8859 23.0235 47.8859 22.4006C47.8859 21.7344 47.2249 21.6725 46.6452 21.6725H46.1289V23.1114Z" fill="white"/>
<path fill-rule="evenodd" clip-rule="evenodd" d="M49.9434 18.1465H52.9502C54.073 18.1465 54.9881 18.6375 54.9881 19.6908C54.9881 20.5065 54.5895 21.0504 53.7747 21.2343V21.2517C54.3169 21.3924 54.3539 21.857 54.6709 22.6027L55.287 24.2693H53.5302L53.1677 23.1647C52.8234 22.112 52.6059 21.8482 51.981 21.8482H51.6276V24.2693H49.9434V18.1465ZM51.627 20.6909H52.071C52.6144 20.6909 53.3029 20.673 53.3029 19.9802C53.3029 19.4104 52.7136 19.3047 52.071 19.3047H51.627V20.6909Z" fill="white"/>
<mask id="mask0_2921_682" style="mask-type:luminance" maskUnits="userSpaceOnUse" x="3" y="15" width="55" height="13">
<path fill-rule="evenodd" clip-rule="evenodd" d="M3.48633 27.3614H57.4366V15.0586H3.48633V27.3614Z" fill="white"/>
</mask>
<g mask="url(#mask0_2921_682)">
<path fill-rule="evenodd" clip-rule="evenodd" d="M55.752 24.2693H57.4362V18.1465H55.752V24.2693Z" fill="white"/>
<path fill-rule="evenodd" clip-rule="evenodd" d="M14.2399 15.0586H5.42391C4.35382 15.0586 3.48633 15.9197 3.48633 16.9821V17.0024V25.4385C3.48633 26.4905 4.33783 27.3457 5.39414 27.3614H14.2353C15.3056 27.3614 16.1734 26.5003 16.1734 25.4385L16.1775 16.9821C16.1775 15.9197 15.3103 15.0586 14.2399 15.0586ZM6.47148 26.3752L5.99046 26.3803C5.40827 26.3803 4.93635 25.917 4.93635 25.3454L4.93359 25.2639V17.4542L4.93663 17.0337C4.9584 16.4804 5.39229 16.0351 5.96069 16.0351H6.93844C7.8244 16.0351 8.54303 16.7813 8.54303 17.6619C8.54303 18.0971 8.36689 18.4923 8.08158 18.7796L5.5869 21.2314L7.92501 23.5375C8.22658 23.8384 8.40879 24.2341 8.40879 24.6675C8.40879 25.6108 7.5413 26.3752 6.47148 26.3752ZM13.6609 26.3674L9.30163 26.3656C9.30163 26.3656 9.8058 25.3104 9.8058 24.6573C9.8058 23.8611 9.5307 23.1496 9.1004 22.6788L7.60938 21.2066L9.13127 19.6836C9.58417 19.2711 9.88519 18.539 9.88519 17.7052C9.88519 17.0449 9.69664 16.4599 9.39314 16.0351H10.4495C11.3357 16.0351 12.0543 16.7813 12.0543 17.6619C12.0543 18.0971 11.8785 18.4923 11.5932 18.7796L9.14616 21.2058L14.2284 26.2257C14.0674 26.3239 13.8643 26.3674 13.6609 26.3674ZM14.7262 24.8006L11.084 21.2051L12.8187 19.4974C13.1721 19.0699 13.3959 18.4257 13.3959 17.7056C13.3959 17.041 13.2046 16.4419 12.8984 16.0168L13.6749 16.0392C14.2571 16.0392 14.729 16.5033 14.729 17.0746L14.7262 24.8006Z" fill="white"/>
</g>
<path fill-rule="evenodd" clip-rule="evenodd" d="M57 1H4C2.34315 1 1 2.34315 1 4V37.83C1 39.4869 2.34315 40.83 4 40.83H57C58.6569 40.83 60 39.4869 60 37.83V4C60 2.34315 58.6569 1 57 1ZM4 0C1.79086 0 0 1.79086 0 4V37.83C0 40.0391 1.79086 41.83 4 41.83H57C59.2091 41.83 61 40.0391 61 37.83V4C61 1.79086 59.2091 0 57 0H4Z" fill="#D9D9D9"/>
</svg>
