<svg width="61" height="42" viewBox="0 0 61 42" fill="none" xmlns="http://www.w3.org/2000/svg">
<path d="M0 4C0 1.79086 1.79086 0 4 0H57C59.2091 0 61 1.79086 61 4V37.83C61 40.0391 59.2091 41.83 57 41.83H4C1.79086 41.83 0 40.0391 0 37.83V4Z" fill="white"/>
<path fill-rule="evenodd" clip-rule="evenodd" d="M28.7871 7.25109H32.2319V6.69336H28.7871V7.25109Z" fill="#00AB4E"/>
<path fill-rule="evenodd" clip-rule="evenodd" d="M28.1506 15.9277V16.9687H23.0977V17.2576H38.196V16.9687H32.869V15.9277H28.1506Z" fill="#00AB4E"/>
<path fill-rule="evenodd" clip-rule="evenodd" d="M23.9629 18.6752V18.9496H37.2559V18.6752H32.8692V17.6777H28.1506V18.6752H23.9629Z" fill="#00AB4E"/>
<path fill-rule="evenodd" clip-rule="evenodd" d="M28.1517 19.3672V20.3501H25.6328V20.6252H35.7686V20.3501H32.8701V19.3672H28.1517Z" fill="#00AB4E"/>
<path fill-rule="evenodd" clip-rule="evenodd" d="M28.7871 22.3683H32.2315V21.8105H28.7871V22.3683Z" fill="#00AB4E"/>
<path fill-rule="evenodd" clip-rule="evenodd" d="M25.6328 8.31442H28.2473C28.9882 8.01592 29.7885 7.83789 30.6253 7.83789C31.4815 7.83789 32.3019 8.00722 33.0586 8.31442H35.7686V8.60332H25.6328V8.31442Z" fill="#00AB4E"/>
<path fill-rule="evenodd" clip-rule="evenodd" d="M23.9629 9.98988H25.7775C26.1142 9.62869 26.4858 9.3032 26.8875 9.02344L34.368 9.02433C34.7851 9.31547 35.1692 9.61731 35.5159 9.98988H37.2559V10.2783H23.9629V9.98988Z" fill="#00AB4E"/>
<path fill-rule="evenodd" clip-rule="evenodd" d="M23.0977 11.8238H24.5305C24.7221 11.4235 24.9493 11.0474 25.2035 10.6934L36.0677 10.7043C36.3171 11.0543 36.5372 11.4289 36.7252 11.8238H38.196V12.0986H23.0977V11.8238Z" fill="#00AB4E"/>
<path fill-rule="evenodd" clip-rule="evenodd" d="M22.6582 13.4717H23.9661C24.0404 13.1284 24.1378 12.7942 24.2564 12.4707L37.0132 12.4734C37.1287 12.792 37.2174 13.132 37.2892 13.4717H38.5907V13.7615H22.6582V13.4717Z" fill="#00AB4E"/>
<path fill-rule="evenodd" clip-rule="evenodd" d="M22.6582 15.1782H23.7866V15.1385C23.7866 14.8141 23.8061 14.4949 23.8438 14.1816L37.4113 14.1852C37.4478 14.4975 37.4633 14.8152 37.4633 15.1385V15.1782H38.5907V15.4814H22.6582V15.1782Z" fill="#00AB4E"/>
<path fill-rule="evenodd" clip-rule="evenodd" d="M28.7539 28.5573C28.7823 28.5614 28.8101 28.5649 28.837 28.5669C28.8643 28.57 28.8976 28.5709 28.9365 28.5709C29.0799 28.5709 29.1936 28.5209 29.2768 28.4214C29.3602 28.3217 29.4021 28.1841 29.4021 28.0074C29.4021 27.8532 29.3596 27.7271 29.2746 27.627C29.1908 27.5273 29.0819 27.4775 28.9496 27.4775C28.9324 27.4775 28.907 27.4794 28.8743 27.4826C28.8417 27.4865 28.8022 27.4925 28.7539 27.5011V28.5573ZM28.7539 30.7769C28.8108 30.7859 28.8611 30.7928 28.907 30.7975C28.9527 30.8017 28.991 30.8045 29.0215 30.8045C29.2184 30.8045 29.3805 30.7316 29.5066 30.5887C29.6328 30.4448 29.696 30.259 29.696 30.033C29.696 29.7857 29.6343 29.5882 29.5098 29.4394C29.3858 29.2908 29.2209 29.2171 29.0146 29.2171C28.9863 29.2171 28.9252 29.2236 28.8325 29.2368C28.7978 29.2416 28.7716 29.2453 28.7539 29.2475V30.7769ZM27.2129 31.4878C27.3085 31.3951 27.3753 31.2938 27.4142 31.1834C27.4531 31.0739 27.4726 30.8972 27.4726 30.653V27.5967C27.4726 27.3519 27.4531 27.1762 27.4142 27.0679C27.3753 26.9605 27.3085 26.8604 27.2129 26.7676H28.8944C29.446 26.7676 29.8685 26.8644 30.1633 27.0558C30.4574 27.2488 30.6035 27.5236 30.6035 27.8817C30.6035 28.0877 30.5462 28.271 30.4303 28.4307C30.3143 28.5903 30.1453 28.7212 29.9235 28.8233C30.2287 28.9162 30.4589 29.0664 30.6163 29.2756C30.7728 29.4838 30.8509 29.7433 30.8509 30.0535C30.8509 30.2371 30.8208 30.4119 30.76 30.5785C30.6991 30.7454 30.6101 30.8955 30.4925 31.0294C30.3429 31.1947 30.1692 31.3121 29.9741 31.382C29.7778 31.453 29.5071 31.4878 29.1618 31.4878H27.2129Z" fill="#0089CF"/>
<path fill-rule="evenodd" clip-rule="evenodd" d="M32.6996 29.868C32.6996 30.173 32.7563 30.4057 32.8716 30.5659C32.9873 30.7259 33.1546 30.806 33.3736 30.806C33.6088 30.806 33.785 30.7275 33.9038 30.5694C34.0217 30.4119 34.0808 30.1775 34.0808 29.868V27.5968C34.0808 27.3952 34.0631 27.2326 34.0264 27.1077C33.9916 26.9832 33.9207 26.8696 33.8142 26.7676H35.6092C35.5166 26.8582 35.4499 26.9554 35.4094 27.0604C35.3696 27.164 35.3493 27.3428 35.3493 27.5968V30.653C35.3493 30.8969 35.3696 31.0738 35.4094 31.1832C35.4499 31.2943 35.5166 31.3951 35.6092 31.4874H34.1069V30.9892C33.9243 31.2032 33.7279 31.3616 33.5174 31.4619C33.3066 31.5626 33.0673 31.6133 32.8004 31.6133C32.5725 31.6133 32.3697 31.5743 32.1936 31.4975C32.0179 31.4212 31.8654 31.3064 31.7375 31.1546C31.6263 31.0187 31.5476 30.8618 31.5007 30.6824C31.4537 30.5041 31.4306 30.246 31.4306 29.9081V27.5968C31.4306 27.3428 31.4114 27.164 31.3719 27.0604C31.3333 26.9554 31.2664 26.8582 31.1699 26.7676H32.9587C32.8644 26.8608 32.7966 26.9607 32.758 27.0687C32.7182 27.176 32.6996 27.3523 32.6996 27.5968V29.868Z" fill="#0089CF"/>
<path fill-rule="evenodd" clip-rule="evenodd" d="M37.6156 30.6513C37.6156 30.8965 37.6352 31.0735 37.6753 31.1826C37.7157 31.2937 37.7821 31.3947 37.8754 31.4871H36.0859C36.1812 31.3947 36.249 31.2937 36.2882 31.1826C36.3271 31.0735 36.3466 30.8965 36.3466 30.6513V27.5962C36.3466 27.3424 36.3271 27.1636 36.2882 27.0599C36.249 26.9553 36.1812 26.8579 36.0859 26.7676H37.8754C37.7801 26.8603 37.7123 26.9601 37.6734 27.0683C37.6348 27.1756 37.6156 27.3517 37.6156 27.5962V28.932L38.6018 27.5962C38.6763 27.499 38.7252 27.4204 38.7514 27.3601C38.7775 27.3001 38.7903 27.2424 38.7903 27.1853C38.7903 27.1332 38.7741 27.0784 38.7402 27.0203C38.7066 26.9629 38.6365 26.8783 38.5296 26.7676H40.1313L38.6335 28.7454L40.3931 31.4871H39.7106C39.3563 31.4871 39.106 31.4484 38.9607 31.3701C38.8145 31.2921 38.6468 31.0991 38.4542 30.7906L37.6156 29.4417V30.6513Z" fill="#0089CF"/>
<path fill-rule="evenodd" clip-rule="evenodd" d="M43.2563 31.5998C42.5085 31.5998 41.8953 31.3671 41.4167 30.9027C40.9379 30.4383 40.6992 29.8439 40.6992 29.121C40.6992 28.7907 40.7695 28.4682 40.9099 28.1543C41.0499 27.8402 41.2482 27.5631 41.5045 27.3227C41.7397 27.1072 42.007 26.9426 42.3072 26.8281C42.6075 26.7139 42.9236 26.6562 43.2563 26.6562C44.0102 26.6562 44.6267 26.8867 45.1034 27.3467C45.5813 27.8071 45.8196 28.4004 45.8196 29.1282C45.8196 29.4592 45.7481 29.7838 45.6052 30.1019C45.4628 30.4206 45.2664 30.6962 45.0137 30.9297C44.7812 31.1474 44.5149 31.3131 44.2156 31.428C43.9153 31.5424 43.5954 31.5998 43.2563 31.5998ZM42.0488 28.9683C42.0488 29.5529 42.1636 30.0229 42.3926 30.3775C42.6211 30.7327 42.9221 30.9091 43.296 30.9091C43.6585 30.9091 43.9454 30.771 44.1559 30.4939C44.3671 30.2154 44.4725 29.832 44.4725 29.3426C44.4725 28.7574 44.357 28.2887 44.1269 27.9365C43.8968 27.5835 43.5938 27.4077 43.2182 27.4077C42.8601 27.4077 42.575 27.547 42.3649 27.8259C42.1541 28.1048 42.0488 28.4854 42.0488 28.9683Z" fill="#0089CF"/>
<path fill-rule="evenodd" clip-rule="evenodd" d="M48.1241 26.7676C48.5719 26.7676 48.9261 26.8819 49.187 27.1108C49.4479 27.3394 49.5777 27.6476 49.5777 28.0349C49.5777 28.4695 49.4384 28.8112 49.161 29.0603C48.8829 29.3096 48.5018 29.4343 48.0174 29.4343C47.9634 29.4343 47.8755 29.4298 47.7529 29.4209H47.7369C47.9473 29.303 48.1044 29.1553 48.2049 28.9786C48.3054 28.8007 48.3562 28.582 48.3562 28.3217C48.3562 28.0665 48.2942 27.8642 48.1683 27.7132C48.0435 27.5636 47.8728 27.487 47.6554 27.4844V30.6513C47.6554 30.8959 47.6751 31.0735 47.7163 31.1832C47.7555 31.2932 47.8222 31.395 47.9159 31.4877H46.127C46.2213 31.395 46.2891 31.2932 46.3283 31.1832C46.3675 31.0735 46.3868 30.8959 46.3868 30.6513V27.6C46.3868 27.3547 46.3675 27.1777 46.3283 27.0693C46.2891 26.9611 46.2213 26.861 46.127 26.7676H48.1241Z" fill="#0089CF"/>
<path fill-rule="evenodd" clip-rule="evenodd" d="M51.4018 30.6513C51.4018 30.8965 51.4212 31.0735 51.4615 31.1826C51.5016 31.2937 51.5683 31.3947 51.6623 31.4871H49.873C49.9683 31.3947 50.0358 31.2937 50.0744 31.1826C50.1133 31.0735 50.1329 30.8965 50.1329 30.6513V27.5962C50.1329 27.3424 50.1133 27.1636 50.0744 27.0599C50.0358 26.9553 49.9683 26.8579 49.873 26.7676H51.6623C51.5664 26.8603 51.4999 26.9601 51.4607 27.0683C51.4212 27.1756 51.4018 27.3517 51.4018 27.5962V30.6513Z" fill="#0089CF"/>
<path fill-rule="evenodd" clip-rule="evenodd" d="M52.1529 31.4874C52.2683 31.3583 52.35 31.2199 52.3964 31.0722C52.4435 30.9231 52.4673 30.6672 52.4673 30.3053V27.77C52.4673 27.5208 52.4396 27.3289 52.3836 27.1922C52.3286 27.0563 52.2357 26.9149 52.1074 26.7676H53.5031L55.5587 29.6563V27.7936C55.5587 27.5646 55.5332 27.3756 55.4823 27.2242C55.4333 27.0739 55.3516 26.9214 55.2379 26.7676H56.5333C56.4397 26.9288 56.3718 27.0867 56.3301 27.2416C56.2878 27.397 56.2657 27.5882 56.2657 27.8142V28.0079V31.6061C55.6338 31.5291 55.0715 31.1578 54.5834 30.4923C54.5658 30.4668 54.5535 30.4494 54.5442 30.438L53.1753 28.579V30.5838C53.1753 30.8237 53.1981 31.0064 53.2435 31.1322C53.2888 31.2587 53.3666 31.3767 53.4748 31.4874H52.1529Z" fill="#0089CF"/>
<path fill-rule="evenodd" clip-rule="evenodd" d="M7.45117 28.5573C7.47975 28.5614 7.50724 28.5649 7.53442 28.5669C7.56144 28.57 7.59455 28.5709 7.63407 28.5709C7.77666 28.5709 7.89021 28.5209 7.97299 28.4214C8.05702 28.3217 8.09856 28.1841 8.09856 28.0074C8.09856 27.8532 8.05608 27.7271 7.97205 27.627C7.88771 27.5273 7.77854 27.4775 7.64656 27.4775C7.62907 27.4775 7.60408 27.4794 7.57144 27.4826C7.53879 27.4865 7.49928 27.4925 7.45117 27.5011V28.5573ZM7.45117 30.7769C7.50787 30.7859 7.55832 30.7928 7.60408 30.7975C7.65015 30.8017 7.68826 30.8045 7.71778 30.8045C7.91645 30.8045 8.07779 30.7316 8.20337 30.5887C8.32956 30.4448 8.39251 30.259 8.39251 30.033C8.39251 29.7857 8.33113 29.5882 8.20696 29.4394C8.0831 29.2908 7.91833 29.2171 7.71185 29.2171C7.68373 29.2171 7.62313 29.2236 7.52958 29.2368C7.4949 29.2416 7.46898 29.2453 7.45117 29.2475V30.7769ZM5.9082 31.4878C6.00363 31.3951 6.07064 31.2938 6.10984 31.1834C6.14904 31.0739 6.16841 30.8972 6.16841 30.653V27.5967C6.16841 27.3519 6.14904 27.1762 6.10984 27.0679C6.07064 26.9605 6.00363 26.8604 5.9082 26.7676H7.59018C8.14167 26.7676 8.564 26.8644 8.85857 27.0558C9.15282 27.2488 9.29995 27.5236 9.29995 27.8817C9.29995 28.0877 9.24169 28.271 9.1258 28.4307C9.00897 28.5903 8.84076 28.7212 8.6196 28.8233C8.92479 28.9162 9.15516 29.0664 9.31151 29.2756C9.46847 29.4838 9.54688 29.7433 9.54688 30.0535C9.54688 30.2371 9.51611 30.4119 9.45551 30.5785C9.39491 30.7454 9.30557 30.8955 9.18828 31.0294C9.03787 31.1947 8.86481 31.3121 8.66911 31.382C8.47372 31.453 8.20258 31.4878 7.85725 31.4878H5.9082Z" fill="#0089CF"/>
<path fill-rule="evenodd" clip-rule="evenodd" d="M11.4785 29.4252H12.4086L11.9447 27.9716L11.4785 29.4252ZM9.86914 31.4877C9.9716 31.3628 10.0544 31.2441 10.1203 31.1315C10.1851 31.0182 10.2374 30.9023 10.2766 30.7854L11.3382 27.6172C11.3449 27.5965 11.3546 27.5681 11.3676 27.5317C11.4151 27.403 11.4388 27.3001 11.4388 27.2229C11.4388 27.1525 11.4237 27.0841 11.392 27.0188C11.3607 26.9537 11.3026 26.8693 11.2177 26.7676H12.8193L14.1038 30.6384C14.1605 30.8091 14.2317 30.9659 14.318 31.1105C14.4031 31.2552 14.4982 31.3814 14.603 31.4877H12.6404C12.7402 31.3698 12.8051 31.278 12.8357 31.2126C12.866 31.1473 12.8812 31.0766 12.8812 31.0022C12.8812 30.957 12.8782 30.9135 12.8735 30.8735C12.8676 30.8325 12.8595 30.7977 12.8482 30.7677L12.6207 30.0888H11.2565L11.0448 30.7371C11.019 30.8211 11.0015 30.882 10.9943 30.9206C10.987 30.9592 10.9834 30.993 10.9834 31.0225C10.9834 31.1039 11.0009 31.1834 11.0368 31.2603C11.0724 31.3372 11.1268 31.4133 11.1978 31.4877H9.86914Z" fill="#0089CF"/>
<path fill-rule="evenodd" clip-rule="evenodd" d="M15.015 31.4874C15.1306 31.3583 15.2116 31.2199 15.2585 31.0722C15.306 30.9231 15.3295 30.6672 15.3295 30.3053V27.77C15.3295 27.5208 15.3013 27.3289 15.2458 27.1922C15.1902 27.0563 15.0976 26.9149 14.9688 26.7676H16.3654L18.4203 29.6563V27.7936C18.4203 27.5646 18.3953 27.3756 18.3452 27.2242C18.2947 27.0739 18.2131 26.9214 18.0995 26.7676H19.3948C19.3017 26.9288 19.2339 27.0867 19.1914 27.2416C19.1486 27.397 19.1285 27.5882 19.1285 27.8142V28.0079V31.6061C18.4948 31.5291 17.9347 31.1578 17.4454 30.4923C17.4274 30.4668 17.4145 30.4494 17.4062 30.438L16.0368 28.579V30.5838C16.0368 30.8237 16.06 31.0064 16.1052 31.1322C16.1512 31.2587 16.229 31.3767 16.338 31.4874H15.015Z" fill="#0089CF"/>
<path fill-rule="evenodd" clip-rule="evenodd" d="M21.4995 30.6513C21.4995 30.8965 21.5199 31.0735 21.5597 31.1826C21.5996 31.2937 21.6667 31.3947 21.7597 31.4871H19.9707C20.0666 31.3947 20.1334 31.2937 20.1727 31.1826C20.2115 31.0735 20.2309 30.8965 20.2309 30.6513V27.5962C20.2309 27.3424 20.2115 27.1636 20.1727 27.0599C20.1334 26.9553 20.0666 26.8579 19.9707 26.7676H21.7597C21.6645 26.8603 21.5972 26.9601 21.558 27.0683C21.5188 27.1756 21.4995 27.3517 21.4995 27.5962V28.932L22.4856 27.5962C22.56 27.499 22.6101 27.4204 22.6362 27.3601C22.6624 27.3001 22.6754 27.2424 22.6754 27.1853C22.6754 27.1332 22.6582 27.0784 22.6246 27.0203C22.5907 26.9629 22.5208 26.8783 22.4142 26.7676H24.0166L22.5189 28.7454L24.2769 31.4871H23.5955C23.2411 31.4871 22.9909 31.4484 22.8456 31.3701C22.6996 31.2921 22.5309 31.0991 22.3393 30.7906L21.4995 29.4417V30.6513Z" fill="#0089CF"/>
<path fill-rule="evenodd" clip-rule="evenodd" d="M57 1H4C2.34314 1 1 2.34314 1 4V37.8286C1 39.4854 2.34314 40.8286 4 40.8286H57C58.6569 40.8286 60 39.4854 60 37.8286V4C60 2.34315 58.6569 1 57 1ZM4 0C1.79086 0 0 1.79086 0 4V37.8286C0 40.0377 1.79086 41.8286 4 41.8286H57C59.2091 41.8286 61 40.0377 61 37.8286V4C61 1.79086 59.2091 0 57 0H4Z" fill="#D9D9D9"/>
</svg>
