<svg width="61" height="42" viewBox="0 0 61 42" fill="none" xmlns="http://www.w3.org/2000/svg">
<path d="M0 4C0 1.79086 1.79086 0 4 0H57C59.2091 0 61 1.79086 61 4V37.83C61 40.0391 59.2091 41.83 57 41.83H4C1.79086 41.83 0 40.0391 0 37.83V4Z" fill="#EE3124"/>
<path fill-rule="evenodd" clip-rule="evenodd" d="M5.22656 27.4383H19.1597V14.2227H5.22656V27.4383Z" fill="white"/>
<path fill-rule="evenodd" clip-rule="evenodd" d="M14.5136 16.7188H7.10938L10.3881 20.8288H17.793L14.5136 16.7188Z" fill="#ED3124"/>
<path fill-rule="evenodd" clip-rule="evenodd" d="M17.791 20.8281H10.3861L7.10742 24.9378H14.5116L17.791 20.8281Z" fill="#820024"/>
<path fill-rule="evenodd" clip-rule="evenodd" d="M52.7019 23.5908H50.8965V21.5537H52.7019C53.5441 21.5537 53.8454 22.0773 53.8454 22.567C53.8454 23.0623 53.5441 23.5908 52.7019 23.5908ZM50.8965 18.0689H52.587C53.2963 18.0689 53.7187 18.4238 53.7187 19.0221C53.7187 19.6185 53.2963 19.9731 52.587 19.9731H50.8965V18.0689ZM54.491 20.7202C54.896 20.5095 55.5603 19.9159 55.5603 18.949C55.5603 17.4389 54.4743 16.4991 52.7256 16.4991H49.0527V25.1586H52.8802C54.6111 25.1586 55.6873 24.1992 55.6873 22.6512C55.6873 21.4882 54.9679 20.9487 54.491 20.7202ZM41.8809 22.0305C41.8116 21.9182 38.6563 16.4808 38.6563 16.4808H36.8535V25.141H38.6957V19.9676C38.8358 20.1942 41.8809 25.211 41.8809 25.211C41.8809 25.211 44.9118 20.1948 45.047 19.9688V25.141H46.8912V16.4808H45.0894C45.0894 16.4808 41.9452 21.9182 41.8809 22.0305ZM32.748 25.1586H34.5968V16.4991H32.748V25.1586ZM29.6952 23.0724C29.1576 23.4795 28.5068 23.6937 27.8208 23.6937C26.1552 23.6937 24.8598 22.4361 24.8598 20.8295C24.8598 19.2226 26.1552 17.964 27.8208 17.964C28.5068 17.964 29.1576 18.1785 29.6952 18.5863L29.7208 18.6056L31.0054 17.3878L30.9761 17.362C30.0972 16.6417 28.9787 16.2441 27.8208 16.2441C25.126 16.2441 22.9336 18.3015 22.9336 20.8295C22.9336 23.3569 25.126 25.4136 27.8208 25.4136C28.9787 25.4136 30.0972 25.017 30.9761 24.2967L31.0054 24.2696L29.7208 23.0531L29.6952 23.0724Z" fill="white"/>
<path fill-rule="evenodd" clip-rule="evenodd" d="M57 1H4C2.34314 1 1 2.34314 1 4V37.8286C1 39.4854 2.34315 40.8286 4 40.8286H57C58.6569 40.8286 60 39.4854 60 37.8286V4C60 2.34315 58.6569 1 57 1ZM4 0C1.79086 0 0 1.79086 0 4V37.8286C0 40.0377 1.79086 41.8286 4 41.8286H57C59.2091 41.8286 61 40.0377 61 37.8286V4C61 1.79086 59.2091 0 57 0H4Z" fill="#D9D9D9"/>
</svg>
