<svg width="61" height="42" viewBox="0 0 61 42" fill="none" xmlns="http://www.w3.org/2000/svg">
<path d="M0 4C0 1.79086 1.79086 0 4 0H57C59.2091 0 61 1.79086 61 4V37.83C61 40.0391 59.2091 41.83 57 41.83H4C1.79086 41.83 0 40.0391 0 37.83V4Z" fill="white"/>
<path fill-rule="evenodd" clip-rule="evenodd" d="M6.98774 21.443H7.79882C8.26531 21.443 8.63954 21.4781 9.05228 21.934C9.34171 22.247 9.66326 22.9455 9.66326 24.0695C9.66326 24.4752 9.66965 24.8746 9.59033 25.2858C9.45916 25.936 9.14655 26.9744 7.35458 26.9744C6.87668 26.9744 6.98774 26.9627 6.98774 26.9627V21.443ZM7.91109 27.9322C10.3215 27.9322 11.4023 26.9043 11.4023 24.0976C11.4023 23.3549 11.1736 22.1118 10.4482 21.3517C9.70006 20.5736 8.73318 20.4746 7.91309 20.4746H5.22656V27.9322H7.91109Z" fill="#004F38"/>
<path fill-rule="evenodd" clip-rule="evenodd" d="M15.526 26.0007C15.526 26.2474 15.5146 26.5792 15.2435 26.8156C15.0126 27.0091 14.6906 27.025 14.5632 27.025C14.2587 27.025 13.9865 26.9184 13.8687 26.5595C13.8391 26.4441 13.8262 26.329 13.8262 26.2181C13.8262 25.6731 14.2043 25.4437 14.6255 25.3474C14.8478 25.2993 14.994 25.288 15.526 25.2462V26.0007ZM15.5246 24.5729L14.6455 24.6549C13.6957 24.7612 13.3368 24.8432 12.9294 25.0994C12.2761 25.5246 12.2676 26.1459 12.2676 26.3508C12.2676 26.8592 12.4279 27.2436 12.6484 27.4652C12.9398 27.7874 13.3999 27.9067 13.845 27.9067C14.9354 27.9067 15.4551 27.4335 15.4551 27.4335L15.4661 27.7706H16.9319V24.2417C16.9319 23.8435 16.9437 23.2876 16.4659 22.8913C16.218 22.6854 15.9985 22.5928 15.6627 22.5453C15.3254 22.4894 15.2065 22.4668 14.8817 22.4668C13.8909 22.4668 13.1415 22.6317 12.7135 23.3573C12.5296 23.6709 12.5428 23.9853 12.5428 24.2257H13.8909C13.9019 24.0161 13.9106 23.7263 14.0852 23.5244C14.172 23.4095 14.3757 23.2463 14.7518 23.2463C14.8742 23.2463 15.2323 23.2463 15.4142 23.529C15.5132 23.6965 15.5246 23.9158 15.5246 24.1621V24.5729Z" fill="#004F38"/>
<path fill-rule="evenodd" clip-rule="evenodd" d="M27.2305 26.0007C27.2305 26.2474 27.22 26.5792 26.9454 26.8156C26.7216 27.0091 26.3956 27.025 26.2649 27.025C25.9617 27.025 25.6895 26.9184 25.5736 26.5595C25.5431 26.4441 25.5332 26.329 25.5332 26.2181C25.5332 25.6731 25.908 25.4437 26.3316 25.3474C26.5539 25.2993 26.6998 25.288 27.2305 25.2462V26.0007ZM27.2297 24.5729L26.3515 24.6549C25.3983 24.7612 25.0442 24.8432 24.6345 25.0994C23.9841 25.5246 23.9727 26.1459 23.9727 26.3508C23.9727 26.8592 24.133 27.2436 24.3519 27.4652C24.6453 27.7874 25.1087 27.9067 25.5518 27.9067C26.6429 27.9067 27.1616 27.4335 27.1616 27.4335L27.1704 27.7706H28.6372V24.2417C28.6372 23.8435 28.6469 23.2876 28.173 22.8913C27.924 22.6854 27.7011 22.5928 27.3678 22.5453C27.0314 22.4894 26.9137 22.4668 26.5866 22.4668C25.5955 22.4668 24.8465 22.6317 24.4204 23.3573C24.236 23.6709 24.2484 23.9853 24.2484 24.2257H25.5955C25.6079 24.0161 25.6172 23.7263 25.7908 23.5244C25.8746 23.4095 26.0788 23.2463 26.459 23.2463C26.5799 23.2463 26.9382 23.2463 27.1226 23.529C27.2193 23.6965 27.2297 23.9158 27.2297 24.1621V24.5729Z" fill="#004F38"/>
<path fill-rule="evenodd" clip-rule="evenodd" d="M49.3802 27.7693H47.8476V24.6114C47.8476 24.4076 47.8476 24.2407 47.8263 24.0681C47.815 23.9032 47.7618 23.3653 47.0941 23.3653C46.9167 23.3653 46.7666 23.4082 46.6701 23.4463C46.2178 23.6458 46.207 23.9956 46.1971 24.2752V27.7693H44.6582V22.6002H46.1971V23.189C46.5847 22.8587 46.9325 22.498 47.7934 22.498C48.5182 22.498 48.8766 22.765 49.0246 22.9299C49.3664 23.2954 49.3664 23.7709 49.3802 24.1419V27.7693Z" fill="#004F38"/>
<path fill-rule="evenodd" clip-rule="evenodd" d="M22.8469 27.7693H21.3128V24.6114C21.3128 24.4076 21.3128 24.2407 21.2882 24.0681C21.2794 23.9032 21.226 23.3653 20.5505 23.3653C20.3819 23.3653 20.2305 23.4082 20.1344 23.4463C19.6797 23.6458 19.6668 23.9956 19.657 24.2752V27.7693H18.1191V22.6002H19.657V23.189C20.0486 22.8587 20.3928 22.498 21.2561 22.498C21.9825 22.498 22.3371 22.765 22.4884 22.9299C22.8341 23.2954 22.8341 23.7709 22.8469 24.1419V27.7693Z" fill="#004F38"/>
<path fill-rule="evenodd" clip-rule="evenodd" d="M29.7617 22.5996H31.3001V23.2016C31.594 22.9481 32.1133 22.4941 33.0379 22.4941C34.0917 22.4941 34.3851 23.0965 34.4585 23.292C35.0849 22.7139 35.4991 22.4941 36.102 22.4941C36.395 22.4941 36.5992 22.5405 36.7944 22.6084C37.619 22.9103 37.6392 23.6143 37.6523 24.069V27.7662H36.0927V24.3997C36.0829 24.0324 36.0721 23.8276 35.9699 23.6642C35.9527 23.6229 35.7988 23.3639 35.4117 23.3639C35.281 23.3639 35.0301 23.3946 34.9113 23.4576C34.4838 23.6549 34.4664 23.9928 34.4585 24.27V27.7662H32.9343V24.4198C32.9343 24.0233 32.9419 23.3639 32.2445 23.3639C32.0901 23.3639 31.8169 23.4062 31.6819 23.4783C31.3001 23.7039 31.2893 24.0324 31.3001 24.4925V27.7662H29.7617V22.5996Z" fill="#004F38"/>
<path fill-rule="evenodd" clip-rule="evenodd" d="M42.1894 25.0735C42.1894 25.3696 42.1772 25.6487 42.1466 25.9347C42.114 26.2183 42.0638 26.7916 41.6018 27.033C41.4691 27.0933 41.33 27.1252 41.1866 27.1252C40.3151 27.1252 40.2372 26.2534 40.2176 25.9347C40.1982 25.6966 40.1836 25.4622 40.1836 25.2311C40.1836 25.0254 40.1982 24.7384 40.2304 24.3999C40.2615 24.1262 40.3232 23.6015 40.7674 23.3547C40.9197 23.2817 41.0658 23.2511 41.2344 23.2511C42.0638 23.2511 42.1372 24.0784 42.157 24.3999C42.1772 24.6257 42.1894 24.8539 42.1894 25.0735ZM43.7549 25.0994C43.7549 24.6424 43.7549 23.7846 43.2233 23.2005C42.5764 22.4668 41.6523 22.4668 41.3287 22.4668C40.949 22.4668 40.0773 22.4818 39.3944 23.0723C38.6211 23.7332 38.6211 24.7825 38.6211 25.3155C38.6211 26.3251 38.8593 27.3942 40.197 27.7655C40.5862 27.8807 40.7941 27.8992 41.1853 27.8992C41.5536 27.8992 42.4689 27.8992 43.1499 27.1751C43.7549 26.5373 43.7549 25.5758 43.7549 25.0994Z" fill="#004F38"/>
<path fill-rule="evenodd" clip-rule="evenodd" d="M5.22656 10.0371V13.5845H13.2251V11.6526L5.22656 10.0371Z" fill="#F15B22"/>
<path fill-rule="evenodd" clip-rule="evenodd" d="M22.7939 13.5845L13.2246 10.0371L13.2266 11.6526L22.7939 13.5845Z" fill="#FFC222"/>
<path fill-rule="evenodd" clip-rule="evenodd" d="M13.2227 13.5862H22.7884L13.2227 11.6543V13.5862Z" fill="#F7931D"/>
<path fill-rule="evenodd" clip-rule="evenodd" d="M22.7891 13.582V13.5852L42.8827 17.6463V13.582H22.7891Z" fill="#F15B22"/>
<path fill-rule="evenodd" clip-rule="evenodd" d="M55.7688 20.25V13.582H42.8848V17.6478L55.7688 20.25Z" fill="#F7931D"/>
<path fill-rule="evenodd" clip-rule="evenodd" d="M42.8843 17.6471L22.7949 13.5859L42.8843 20.2525V17.6471Z" fill="#FFC222"/>
<path fill-rule="evenodd" clip-rule="evenodd" d="M57 1H4C2.34314 1 1 2.34314 1 4V37.8286C1 39.4854 2.34315 40.8286 4 40.8286H57C58.6569 40.8286 60 39.4854 60 37.8286V4C60 2.34315 58.6569 1 57 1ZM4 0C1.79086 0 0 1.79086 0 4V37.8286C0 40.0377 1.79086 41.8286 4 41.8286H57C59.2091 41.8286 61 40.0377 61 37.8286V4C61 1.79086 59.2091 0 57 0H4Z" fill="#D9D9D9"/>
</svg>
