<svg width="61" height="42" viewBox="0 0 61 42" fill="none" xmlns="http://www.w3.org/2000/svg">
<path d="M0 4C0 1.79086 1.79086 0 4 0H57C59.2091 0 61 1.79086 61 4V37.83C61 40.0391 59.2091 41.83 57 41.83H4C1.79086 41.83 0 40.0391 0 37.83V4Z" fill="#FFC134"/>
<path d="M5.91016 16.5879H13.4326V24.1173H5.91016V16.5879Z" fill="white"/>
<path fill-rule="evenodd" clip-rule="evenodd" d="M14.7016 17.9168C14.189 18.9729 14.1634 19.5693 14.1634 20.2402C14.1634 20.9112 14.189 21.5076 14.7016 22.5637C14.7194 22.6027 14.7401 22.6439 14.7619 22.6872C14.9134 22.988 15.1146 23.3872 14.6888 23.8434C14.2916 24.2286 13.843 24.154 13.5483 23.9925C13.7149 24.2907 13.7789 24.7256 13.3945 25.0983C12.9111 25.5111 12.4898 25.3028 12.1769 25.148C12.1413 25.1304 12.1072 25.1135 12.0745 25.0983C10.9852 24.6013 10.3701 24.5765 9.67811 24.5765C8.98609 24.5765 8.37096 24.6013 7.28168 25.0983C7.24635 25.1148 7.20931 25.1333 7.17063 25.1527C6.85862 25.309 6.4406 25.5184 5.96172 25.0983C5.57727 24.7131 5.64134 24.2783 5.80794 23.9925C5.50038 24.154 5.05185 24.2286 4.66739 23.8434C4.22943 23.3741 4.44448 22.9651 4.60408 22.6615C4.62194 22.6276 4.6391 22.5949 4.65458 22.5637C5.16718 21.5076 5.19281 20.9112 5.19281 20.2402C5.19281 19.5693 5.16718 18.9729 4.65458 17.9168C4.63685 17.8777 4.61608 17.8365 4.59429 17.7933C4.44278 17.4925 4.24166 17.0933 4.66739 16.6371C5.06466 16.2643 5.51319 16.3264 5.80794 16.488C5.64134 16.1898 5.57727 15.7549 5.96172 15.3822C6.44578 14.9575 6.86766 15.166 7.18073 15.3208C7.21576 15.3381 7.24943 15.3547 7.28168 15.3697C8.37096 15.8667 8.98609 15.8916 9.67811 15.8916C10.3701 15.8916 10.9852 15.8667 12.0745 15.3697C12.1148 15.3525 12.1573 15.3324 12.202 15.3113C12.5122 15.1644 12.9239 14.9694 13.3945 15.3822C13.7789 15.7673 13.7149 16.2022 13.5483 16.488C13.8558 16.3264 14.2916 16.2519 14.6888 16.6371C15.1268 17.1064 14.9117 17.5154 14.7521 17.8189C14.7343 17.8529 14.7171 17.8855 14.7016 17.9168ZM10.4341 21.3595L12.9715 23.422L10.8442 20.9494C10.8442 20.9494 10.511 20.614 10.511 20.2412C10.511 19.8685 10.8442 19.533 10.8442 19.533L12.9843 17.0605L12.9715 17.0481L10.4341 19.123C10.4341 19.123 10.0881 19.446 9.70364 19.446C9.31919 19.446 8.97318 19.123 8.97318 19.123L6.42297 17.0481L6.41016 17.0605L8.55028 19.533C8.55028 19.533 8.88348 19.8685 8.88348 20.2412C8.88348 20.614 8.55028 20.9494 8.55028 20.9494L6.41016 23.422H6.42297L8.97318 21.3595C8.97318 21.3595 9.31919 21.0364 9.70364 21.0364C10.0881 21.0364 10.4341 21.3595 10.4341 21.3595Z" fill="url(#paint0_radial_2921_688)"/>
<path d="M8.88348 20.2404C8.88348 19.8677 8.55028 19.5322 8.55028 19.5322L6.4486 17.1094L8.07612 19.8428C8.2299 20.0913 8.2299 20.4019 8.07612 20.6504L6.41016 23.4211L8.55028 20.9486C8.55028 20.9486 8.88348 20.6132 8.88348 20.2404Z" fill="url(#paint1_linear_2921_688)"/>
<path d="M10.1895 18.9101C9.88191 19.1461 9.47182 19.1834 9.12581 19.0095L8.20312 18.5001L8.97203 19.1213C8.97203 19.1213 9.31804 19.4443 9.70249 19.4443C10.0869 19.4443 10.433 19.1213 10.433 19.1213L12.9704 17.0464L13.4317 16.5742L10.1895 18.9101Z" fill="url(#paint2_linear_2921_688)"/>
<path d="M13.5598 23.9798L12.9832 23.4083L12.9704 23.4207L10.433 21.3582C10.433 21.3582 10.0869 21.0352 9.70249 21.0352C9.31804 21.0352 8.97203 21.3582 8.97203 21.3582L8.20312 21.9794L8.90796 21.6067C9.34367 21.3706 9.88191 21.4079 10.292 21.6937L13.5598 23.9798Z" fill="url(#paint3_linear_2921_688)"/>
<path d="M9.0764 23.869L8.49972 23.3969C8.49972 23.3969 8.42283 23.3223 8.33312 23.3223C8.24341 23.3223 8.16652 23.3969 8.16652 23.3969L7.58984 23.869L8.07682 23.3099C8.07682 23.3099 8.15371 23.2353 8.15371 23.1484C8.15371 23.0614 8.07682 22.9868 8.07682 22.9868L7.58984 22.4277L8.16652 22.8999C8.16652 22.8999 8.24341 22.9744 8.33312 22.9744C8.42283 22.9744 8.49972 22.8999 8.49972 22.8999L9.0764 22.4277L8.58942 22.9868C8.58942 22.9868 8.51253 23.0614 8.51253 23.1484C8.51253 23.2353 8.58942 23.3099 8.58942 23.3099L9.0764 23.869Z" fill="white"/>
<path d="M12.5352 17.5687L12.9837 17.929L12.5992 17.4941L12.5352 17.5687Z" fill="white"/>
<path d="M12.4319 17.3083L12.1371 16.9729C12.1371 16.9729 12.009 16.8362 12.009 16.6995C12.009 16.5504 12.1371 16.4262 12.1371 16.4262L12.9701 15.457L11.9706 16.2646C11.9706 16.2646 11.8296 16.3889 11.6886 16.3889C11.5348 16.3889 11.4067 16.2646 11.4067 16.2646L10.8685 15.8049C10.83 15.8173 10.7916 15.8173 10.7531 15.8298L11.2529 16.4013C11.2529 16.4013 11.3811 16.538 11.3811 16.6747C11.3811 16.8238 11.2529 16.948 11.2529 16.948L10.4199 17.9171L11.4195 17.1095C11.4195 17.1095 11.5605 16.9853 11.7014 16.9853C11.8552 16.9853 11.9834 17.1095 11.9834 17.1095L12.3166 17.3829" fill="white"/>
<path d="M12.3184 17.3956L12.4337 17.495L12.5362 17.408L12.4337 17.3086" fill="#EAEAEA"/>
<path fill-rule="evenodd" clip-rule="evenodd" d="M21.7626 22.6146H21.7883H21.8011V23.4098H22.8263V15.0977H21.7498V18.5393H21.7242C21.391 18.0175 20.8015 17.6323 19.7891 17.6323C18.0975 17.6323 17.2773 18.9742 17.2773 20.49C17.2773 22.0307 18.0206 23.5465 19.7763 23.5465C20.8143 23.5465 21.4807 23.0371 21.7626 22.6146ZM21.7372 20.6008C21.7372 21.5451 21.2374 22.713 20.02 22.713C18.8666 22.713 18.3797 21.4581 18.4053 20.576C18.3797 19.5447 18.841 18.4762 20.0072 18.4762C21.1734 18.4762 21.7372 19.5447 21.7372 20.6008Z" fill="#1D1D1B"/>
<path fill-rule="evenodd" clip-rule="evenodd" d="M23.9023 16.5007H25.1198V15.3203H23.9023V16.5007ZM25.0569 17.7556H23.9805V23.4088H25.0569V17.7556Z" fill="#1D1D1B"/>
<path fill-rule="evenodd" clip-rule="evenodd" d="M28.5424 25.8828C30.6441 25.8828 31.554 24.8889 31.554 23.1743H31.5411V17.7695H30.5416V18.6144H30.5159C30.1955 17.9931 29.6189 17.6328 28.5937 17.6328C26.838 17.6328 25.9922 19.1859 25.9922 20.6396C25.9922 22.1057 26.8252 23.4227 28.4911 23.4227C29.2344 23.4227 29.9905 23.1246 30.4519 22.5406H30.4775V23.0997C30.4775 24.2925 29.7983 25.038 28.6705 25.038C27.8888 25.038 27.389 24.8889 26.5689 24.5285L26.4535 25.4977C27.389 25.8083 27.9273 25.8828 28.5424 25.8828ZM28.774 18.4663C29.9146 18.4663 30.4784 19.4727 30.4784 20.6531C30.4784 21.7092 29.7736 22.5789 28.774 22.5789C27.7616 22.5789 27.1465 21.647 27.1465 20.5785C27.1465 19.6094 27.6847 18.4663 28.774 18.4663Z" fill="#1D1D1B"/>
<path fill-rule="evenodd" clip-rule="evenodd" d="M32.4727 16.5007H33.6901V15.3203H32.4727V16.5007ZM33.6116 17.7556H32.5352V23.4088H33.6116V17.7556Z" fill="#1D1D1B"/>
<path fill-rule="evenodd" clip-rule="evenodd" d="M35.5907 15.0977H34.873V23.4098H35.5907V22.5152H35.6163C36.0008 23.2359 36.6031 23.5465 37.4361 23.5465C39.038 23.5465 39.8325 22.2667 39.8325 20.5894C39.8325 18.8748 39.1533 17.6323 37.4361 17.6323C36.2955 17.6323 35.7188 18.4399 35.6163 18.7133H35.5907V15.0977ZM35.5898 20.5888C35.5898 19.5575 35.9999 18.2281 37.3199 18.2281C38.7039 18.2281 39.0499 19.4954 39.0499 20.5888C39.0499 21.6822 38.6911 22.9495 37.3199 22.9495C36.0384 22.9495 35.5898 21.62 35.5898 20.5888Z" fill="#1D1D1B"/>
<path fill-rule="evenodd" clip-rule="evenodd" d="M44.2258 22.5021H44.2386V23.4091H44.9434C44.8922 23.0239 44.8922 22.6884 44.8922 22.2287V19.7313C44.8922 18.2528 44.277 17.6191 42.8417 17.6191C42.3291 17.6191 41.573 17.7931 41.1245 18.0043V18.6752C41.6627 18.3522 42.2394 18.2155 42.8417 18.2155C43.8157 18.2155 44.1745 18.7001 44.1745 19.6692V19.955H44.0335C42.5214 19.955 40.4453 20.042 40.4453 21.943C40.4453 22.4648 40.7144 23.5457 42.3676 23.5457C43.098 23.5457 43.9054 23.173 44.2258 22.5021ZM43.9835 20.5632H44.1886H44.2014V20.9111C44.2014 21.5199 44.1629 22.9487 42.4713 22.9487C41.805 22.9487 41.2539 22.6754 41.2539 21.9299C41.2539 20.6874 42.7405 20.5632 43.9835 20.5632Z" fill="#1D1D1B"/>
<path d="M45.9946 19.0989C45.9946 18.6641 45.9946 18.2168 45.9434 17.7695H46.6354V18.7759H46.661C46.9045 18.2665 47.3402 17.6328 48.5448 17.6328C49.9801 17.6328 50.5312 18.5647 50.5312 19.8071V23.4227H49.8135V19.9811C49.8135 18.9126 49.4291 18.2292 48.4295 18.2292C47.1095 18.2292 46.6995 19.3474 46.6995 20.2917V23.4227H45.9818V19.0989H45.9946Z" fill="#1D1D1B"/>
<path d="M51.6085 15.0977H52.3262V20.08L54.9276 17.7566H55.8503L53.0054 20.2664L56.1963 23.4098H55.1968L52.3134 20.5024V23.4098H51.5957V15.0977H51.6085Z" fill="#1D1D1B"/>
<path fill-rule="evenodd" clip-rule="evenodd" d="M46.5355 24.1035H46.1895V26.7873H46.5226V26.5263H46.5483C46.638 26.663 46.8558 26.8245 47.189 26.8245C47.7529 26.8245 47.9964 26.3275 47.9964 25.8306C47.9964 25.346 47.7273 24.9111 47.1762 24.9111C46.843 24.9111 46.6508 25.0354 46.5483 25.2093H46.5355V24.1035ZM46.5352 25.8799C46.5352 25.5444 46.7274 25.1965 47.099 25.1965C47.4707 25.1965 47.6244 25.5444 47.6116 25.8675C47.6116 26.1532 47.4578 26.5633 47.0862 26.5633C46.7018 26.5633 46.5352 26.1905 46.5352 25.8799Z" fill="#1D1D1B"/>
<path d="M48.1731 27.2961C48.2115 27.3085 48.2756 27.3209 48.3397 27.3209C48.6472 27.3209 48.7498 26.9109 48.7498 26.8736C48.7498 26.8364 48.7113 26.737 48.6857 26.6748L48.0449 24.9727H48.4294L48.942 26.4885H48.9548L49.4674 24.9727H49.8134L49.1214 26.8364C48.9932 27.1843 48.8523 27.5943 48.3909 27.5943C48.2756 27.5943 48.2115 27.5819 48.1603 27.5694L48.1731 27.2961Z" fill="#1D1D1B"/>
<path fill-rule="evenodd" clip-rule="evenodd" d="M51.4416 24.291H50.6855V26.7884H51.4416C52.2874 26.7884 52.8129 26.3659 52.8129 25.5211C52.8129 24.7507 52.2105 24.291 51.4416 24.291ZM51.4422 26.4781H51.0577H51.0449V24.602H51.4806C52.0189 24.602 52.429 24.9499 52.429 25.5338C52.429 26.1799 52.0829 26.4781 51.4422 26.4781Z" fill="#1D1D1B"/>
<path fill-rule="evenodd" clip-rule="evenodd" d="M53.1328 24.291H53.8376C54.3759 24.291 54.7475 24.465 54.7475 24.9247C54.7475 25.2726 54.5425 25.4465 54.2093 25.5211V25.5335C54.5553 25.5583 54.8116 25.782 54.8116 26.1299C54.8116 26.6641 54.3502 26.8008 53.8248 26.8008H53.1328V24.291ZM53.5167 25.3597H53.7089C54.0678 25.3597 54.3753 25.3225 54.3753 24.9622C54.3753 24.664 54.119 24.5894 53.9012 24.5894H53.5167V25.3597ZM53.7858 26.502H53.5039V25.6447H53.7474C54.0678 25.6447 54.4138 25.7068 54.4138 26.092C54.4138 26.4399 54.119 26.502 53.7858 26.502Z" fill="#1D1D1B"/>
<path d="M56.3766 24.6756C56.1844 24.6011 56.0818 24.5762 55.8896 24.5762C55.6846 24.5762 55.4411 24.6508 55.4411 24.9117C55.4411 25.3963 56.556 25.2845 56.556 26.1045C56.556 26.6388 56.1331 26.85 55.6077 26.85C55.4283 26.85 55.2489 26.8003 55.0823 26.7506L55.1207 26.4151C55.2489 26.4648 55.4667 26.5394 55.659 26.5394C55.864 26.5394 56.1716 26.4275 56.1716 26.1293C56.1716 25.5702 55.0566 25.7193 55.0566 24.949C55.0566 24.5017 55.4155 24.2656 55.8896 24.2656C56.0562 24.2656 56.2613 24.2905 56.4407 24.3526L56.3766 24.6756Z" fill="#1D1D1B"/>
<path fill-rule="evenodd" clip-rule="evenodd" d="M57 1H4C2.34314 1 1 2.34314 1 4V37.8286C1 39.4854 2.34314 40.8286 4 40.8286H57C58.6569 40.8286 60 39.4854 60 37.8286V4C60 2.34315 58.6569 1 57 1ZM4 0C1.79086 0 0 1.79086 0 4V37.8286C0 40.0377 1.79086 41.8286 4 41.8286H57C59.2091 41.8286 61 40.0377 61 37.8286V4C61 1.79086 59.2091 0 57 0H4Z" fill="#D9D9D9"/>
<defs>
<radialGradient id="paint0_radial_2921_688" cx="0" cy="0" r="1" gradientUnits="userSpaceOnUse" gradientTransform="translate(10.4129 19.2644) scale(6.09239 5.90436)">
<stop offset="0.1684" stop-color="#F29020"/>
<stop offset="0.3042" stop-color="#F18D21"/>
<stop offset="0.4222" stop-color="#F08224"/>
<stop offset="0.5333" stop-color="#ED702A"/>
<stop offset="0.5765" stop-color="#EB672D"/>
<stop offset="0.6167" stop-color="#EA5E2F"/>
<stop offset="0.6834" stop-color="#E74433"/>
<stop offset="0.7143" stop-color="#E63635"/>
<stop offset="0.7553" stop-color="#E43231"/>
<stop offset="0.8001" stop-color="#DE2425"/>
<stop offset="0.8367" stop-color="#D71416"/>
<stop offset="0.9694" stop-color="#BA1819"/>
</radialGradient>
<linearGradient id="paint1_linear_2921_688" x1="6.41151" y1="17.1572" x2="6.41151" y2="23.4548" gradientUnits="userSpaceOnUse">
<stop stop-color="#6B2A70"/>
<stop offset="0.0967907" stop-color="#742D6C"/>
<stop offset="0.2518" stop-color="#8B3362"/>
<stop offset="0.4456" stop-color="#B13F51"/>
<stop offset="0.6689" stop-color="#E64E39"/>
<stop offset="0.6786" stop-color="#E84F38"/>
</linearGradient>
<linearGradient id="paint2_linear_2921_688" x1="10.4403" y1="20.5932" x2="13.6846" y2="16.7341" gradientUnits="userSpaceOnUse">
<stop offset="0.0408163" stop-color="#81358A"/>
<stop offset="0.199" stop-color="#A63E64"/>
<stop offset="0.283" stop-color="#AE475D"/>
<stop offset="0.4175" stop-color="#C45E4A"/>
<stop offset="0.5847" stop-color="#E7842A"/>
<stop offset="0.6326" stop-color="#F29020"/>
</linearGradient>
<linearGradient id="paint3_linear_2921_688" x1="8.19934" y1="23.9792" x2="13.5602" y2="23.9792" gradientUnits="userSpaceOnUse">
<stop stop-color="#AA3364"/>
<stop offset="0.161" stop-color="#B3375E"/>
<stop offset="0.4187" stop-color="#CA414D"/>
<stop offset="0.6786" stop-color="#E84F38"/>
<stop offset="0.7256" stop-color="#E74B35"/>
<stop offset="0.777" stop-color="#E33D2E"/>
<stop offset="0.8303" stop-color="#DD2821"/>
<stop offset="0.8673" stop-color="#D71416"/>
<stop offset="1" stop-color="#C41512"/>
</linearGradient>
</defs>
</svg>
