<svg width="85" height="70" viewBox="0 0 85 70" fill="none" xmlns="http://www.w3.org/2000/svg">
<g filter="url(#filter0_d_2921_694)">
<rect x="21.696" y="21.3229" width="41.1042" height="27.3542" rx="5.67708" fill="white" stroke="#D9D9D9" stroke-width="2.64583"/>
<path d="M44.1793 44.3748C49.0512 44.3983 53.4981 40.365 53.4981 35.4586C53.4981 30.0936 49.0512 26.3847 44.1793 26.3867H39.9863C35.0564 26.3847 30.998 30.0946 30.998 35.4586C30.998 40.366 35.0564 44.3983 39.9863 44.3748H44.1793Z" fill="#0079BE"/>
<path d="M40.0088 27.1309C35.5034 27.1324 31.8531 30.8172 31.8516 35.3652C31.8531 39.9126 35.5034 43.5974 40.0088 43.5989C44.5147 43.5974 48.1665 39.9126 48.167 35.3652C48.1665 30.8172 44.5152 27.1324 40.0088 27.1309ZM34.8385 35.3652C34.8375 34.3136 35.1538 33.2863 35.746 32.4174C36.3382 31.5484 37.1788 30.8784 38.1578 30.4948V40.235C37.1787 39.8517 36.338 39.1818 35.7458 38.3129C35.1536 37.444 34.8374 36.4167 34.8385 35.3652ZM41.8592 40.237V30.4943C42.839 30.8773 43.6803 31.5473 44.2729 32.4165C44.8655 33.2857 45.1819 34.3136 45.1805 35.3657C45.1817 36.4176 44.8652 37.4454 44.2726 38.3146C43.68 39.1838 42.8389 39.8538 41.8592 40.237Z" fill="white"/>
<path d="M44.1793 44.3748C49.0512 44.3983 53.4981 40.365 53.4981 35.4586C53.4981 30.0936 49.0512 26.3847 44.1793 26.3867H39.9863C35.0564 26.3847 30.998 30.0946 30.998 35.4586C30.998 40.366 35.0564 44.3983 39.9863 44.3748H44.1793Z" fill="#0079BE"/>
<path d="M40.0088 27.1309C35.5034 27.1324 31.8531 30.8172 31.8516 35.3652C31.8531 39.9126 35.5034 43.5974 40.0088 43.5989C44.5147 43.5974 48.1665 39.9126 48.167 35.3652C48.1665 30.8172 44.5152 27.1324 40.0088 27.1309ZM34.8385 35.3652C34.8375 34.3136 35.1538 33.2863 35.746 32.4174C36.3382 31.5484 37.1788 30.8784 38.1578 30.4948V40.235C37.1787 39.8517 36.338 39.1818 35.7458 38.3129C35.1536 37.444 34.8374 36.4167 34.8385 35.3652ZM41.8592 40.237V30.4943C42.839 30.8773 43.6803 31.5473 44.2729 32.4165C44.8655 33.2857 45.1819 34.3136 45.1805 35.3657C45.1817 36.4176 44.8652 37.4454 44.2726 38.3146C43.68 39.1838 42.8389 39.8538 41.8592 40.237Z" fill="white"/>
</g>
<defs>
<filter id="filter0_d_2921_694" x="0.373047" y="0" width="83.75" height="70" filterUnits="userSpaceOnUse" color-interpolation-filters="sRGB">
<feFlood flood-opacity="0" result="BackgroundImageFix"/>
<feColorMatrix in="SourceAlpha" type="matrix" values="0 0 0 0 0 0 0 0 0 0 0 0 0 0 0 0 0 0 127 0" result="hardAlpha"/>
<feOffset/>
<feGaussianBlur stdDeviation="10"/>
<feComposite in2="hardAlpha" operator="out"/>
<feColorMatrix type="matrix" values="0 0 0 0 0 0 0 0 0 0 0 0 0 0 0 0 0 0 0.07 0"/>
<feBlend mode="normal" in2="BackgroundImageFix" result="effect1_dropShadow_2921_694"/>
<feBlend mode="normal" in="SourceGraphic" in2="effect1_dropShadow_2921_694" result="shape"/>
</filter>
</defs>
</svg>
