<svg width="61" height="42" viewBox="0 0 61 42" fill="none" xmlns="http://www.w3.org/2000/svg">
<path d="M0 4C0 1.79086 1.79086 0 4 0H57C59.2091 0 61 1.79086 61 4V37.83C61 40.0391 59.2091 41.83 57 41.83H4C1.79086 41.83 0 40.0391 0 37.83V4Z" fill="white"/>
<path fill-rule="evenodd" clip-rule="evenodd" d="M11.229 21.5177C11.2224 21.5177 11.229 24.5139 11.229 24.5139C11.229 24.8911 10.8792 25.2209 10.4215 25.2209H9.9822V25.3743H13.697V25.2209H13.258C12.8056 25.2209 12.4503 24.8858 12.4503 24.5139V21.4706V17.8383C12.4503 17.4729 12.7999 17.132 13.258 17.132H13.697V16.9785H9.9822V17.132H10.4215C10.8849 17.132 11.229 17.4729 11.229 17.8383V21.0925H6.82693V17.8383C6.82693 17.4729 7.18335 17.132 7.63598 17.132H8.07466V16.9785H4.35938V17.132H4.79805C5.25534 17.132 5.60604 17.4729 5.60604 17.8383V21.4706V24.5139C5.60604 24.8858 5.25534 25.2209 4.79805 25.2209H4.35938V25.3743H8.07466V25.2209H7.63598C7.18335 25.2209 6.82693 24.8858 6.82693 24.5139C6.82693 24.5139 6.83318 21.5177 6.82693 21.5177H11.229Z" fill="#231F20"/>
<path fill-rule="evenodd" clip-rule="evenodd" d="M20.0625 23.1773C20.0945 23.6706 19.7635 24.4201 19.3057 24.8018C18.8648 25.17 18.2374 25.4912 17.3975 25.4912C16.4436 25.4912 15.6226 25.0197 15.3236 24.9142C15.1426 24.8494 14.9049 24.8568 14.7634 24.9373C14.5989 25.0322 14.4964 25.1839 14.4578 25.468H14.3184V22.5583H14.4578C14.5855 23.4531 15.0365 23.9797 15.3178 24.2776C15.7755 24.767 16.6396 25.0437 17.4735 24.92C18.1356 24.8215 18.8598 24.156 18.7814 23.3337C18.7529 23.0361 18.6818 22.6027 18.0141 22.1993C17.5958 21.9456 16.9996 21.5856 16.4363 21.2393C15.7254 20.8035 15.079 20.3306 14.8979 20.1382C14.6594 19.8884 14.3633 19.5268 14.3633 18.9487C14.3633 18.4545 14.5667 17.8893 14.9992 17.5128C15.4316 17.1362 16.0174 16.8535 16.8565 16.8535C17.6962 16.8535 18.3329 17.2656 18.5483 17.3604C18.764 17.4534 19.0042 17.4322 19.1405 17.3604C19.2735 17.2894 19.3626 17.1839 19.4007 16.9003H19.5409V19.6561H19.4007C19.2735 18.7605 18.8536 18.0904 18.5616 17.8431C18.2695 17.5952 17.6962 17.2538 16.8439 17.4071C16.0255 17.5538 15.6278 17.8956 15.5525 18.5017C15.4954 18.9636 15.7658 19.2476 15.921 19.4198C16.2401 19.7738 18.2586 20.8327 19.1723 21.5639C19.6434 21.9401 20.0118 22.3879 20.0625 23.1773Z" fill="#231F20"/>
<path fill-rule="evenodd" clip-rule="evenodd" d="M25.9472 21.0877C27.5647 21.6011 28.0257 22.6577 27.7259 23.7469C27.3732 25.0257 25.8143 25.2866 25.3082 25.3478C25.08 25.3751 24.4984 25.3733 23.9224 25.3733C22.8946 25.3738 21.594 25.3703 20.5508 25.3703V25.2181H21.085C21.425 25.2181 21.8135 24.9529 21.8135 24.5531V17.8499C21.8135 17.4486 21.425 17.1786 21.0882 17.1786H20.5544V17.0254H23.7786C24.5544 17.0254 24.9765 17.0939 25.2472 17.1436C25.7061 17.225 27.0421 17.59 27.3607 18.7444C27.6058 19.6379 27.1238 20.7636 25.9472 21.0877ZM23.0215 20.8519C23.4668 20.9576 24.7777 20.9867 25.2861 20.6875C26.0829 20.2193 26.3599 19.4678 26.2122 18.8023C26.1247 18.403 25.8961 18.0352 25.5018 17.7783C24.726 17.2716 23.607 17.3545 23.0215 17.519V20.8519ZM23.0215 24.9002C23.6495 25.0807 24.8458 25.2186 25.6804 24.6654C26.6799 24.0032 26.8904 22.3831 25.4789 21.5398C24.9106 21.1992 23.4921 21.2237 23.0215 21.325V24.9002Z" fill="#231F20"/>
<path fill-rule="evenodd" clip-rule="evenodd" d="M36.227 17.1253L36.3575 19.9692L36.1733 19.9749C36.084 19.256 35.7915 18.7492 35.423 18.4198C35.3167 18.3254 35.1153 18.133 34.8238 17.9638C34.3398 17.6809 33.6192 17.4309 32.7637 17.5724C31.4782 17.7839 30.8173 18.5699 30.4867 19.3265C30.0795 20.257 29.8219 21.8481 30.5119 23.1895C31.0727 24.2788 32.1494 24.7326 32.9799 24.8495C33.6882 24.9491 35.2571 24.9193 36.4541 23.4255L36.6439 23.5424C35.7148 24.7552 34.48 25.5336 33.0693 25.5213C31.2625 25.5064 30.1277 24.5851 29.6086 24.0374C29.0615 23.4596 28.642 22.3651 28.6368 21.4113C28.6321 20.5636 28.8339 19.6195 29.1635 19.0681C29.7288 18.1201 30.9129 17.1779 32.4704 17.037C33.638 16.9315 34.405 17.1432 35.06 17.4897C35.3879 17.6634 35.5719 17.6832 35.7503 17.6142C35.9285 17.5425 36.0714 17.4021 36.0714 17.1253H36.227Z" fill="#231F20"/>
<path fill-rule="evenodd" clip-rule="evenodd" d="M43.8828 25.3742H52.945V16.9883H43.8828V25.3742Z" fill="white"/>
<path fill-rule="evenodd" clip-rule="evenodd" d="M39.3496 21.1809L43.8813 25.3752V16.9863L39.3496 21.1809Z" fill="#EE3624"/>
<path fill-rule="evenodd" clip-rule="evenodd" d="M43.8809 25.374H52.9434L48.412 21.1797L43.8809 25.374Z" fill="#EE3624"/>
<path fill-rule="evenodd" clip-rule="evenodd" d="M48.4124 21.1809L52.9443 16.9863H43.8809L48.4124 21.1809Z" fill="#EE3624"/>
<path fill-rule="evenodd" clip-rule="evenodd" d="M52.9453 16.9863V25.3752L57.4764 21.1809L52.9453 16.9863Z" fill="#EE3624"/>
<path fill-rule="evenodd" clip-rule="evenodd" d="M57 1H4C2.34314 1 1 2.34314 1 4V37.8286C1 39.4854 2.34314 40.8286 4 40.8286H57C58.6569 40.8286 60 39.4854 60 37.8286V4C60 2.34315 58.6569 1 57 1ZM4 0C1.79086 0 0 1.79086 0 4V37.8286C0 40.0377 1.79086 41.8286 4 41.8286H57C59.2091 41.8286 61 40.0377 61 37.8286V4C61 1.79086 59.2091 0 57 0H4Z" fill="#D9D9D9"/>
</svg>
