<svg width="61" height="42" viewBox="0 0 61 42" fill="none" xmlns="http://www.w3.org/2000/svg">
<path d="M0 4C0 1.79086 1.79086 0 4 0H57C59.2091 0 61 1.79086 61 4V37.83C61 40.0391 59.2091 41.83 57 41.83H4C1.79086 41.83 0 40.0391 0 37.83V4Z" fill="white"/>
<path fill-rule="evenodd" clip-rule="evenodd" d="M38.9989 11.7148C38.7969 11.7154 38.5955 11.722 38.3973 11.7437C37.6216 11.8284 36.8919 12.2006 36.3679 12.7748C35.9791 13.2008 35.7092 13.7283 35.5947 14.2924C35.5382 14.5709 35.531 14.8501 35.531 15.1323V17.0053V17.9133V18.1801C35.531 18.2515 35.5138 18.2571 35.5931 18.2571H36.8342H38.0707H39.3148C39.7209 18.2571 40.1303 18.2419 40.5353 18.2785C40.9342 18.3146 41.3404 18.4275 41.663 18.6713C42.1167 19.0143 42.3012 19.6059 42.1461 20.1501C41.9973 20.6725 41.5511 21.0227 41.041 21.1682C40.9845 21.1843 40.9274 21.1981 40.8698 21.2099C40.8365 21.2167 40.7914 21.2155 40.7611 21.2295C40.7462 21.2364 40.708 21.245 40.736 21.2714C40.743 21.278 40.7725 21.2779 40.7943 21.2777C40.8032 21.2776 40.8108 21.2776 40.8152 21.278C40.9752 21.2933 41.1345 21.3208 41.2898 21.363C41.7648 21.4918 42.2258 21.7687 42.4459 22.2233C42.7064 22.7612 42.5736 23.4275 42.1528 23.8448C41.8214 24.1736 41.3588 24.3413 40.9009 24.3969C40.6713 24.4247 40.44 24.419 40.2092 24.419H38.9652H37.7211H36.4845H35.8625H35.707C35.6715 24.419 35.5713 24.4016 35.5422 24.419C35.5252 24.4293 35.531 24.4442 35.531 24.4714V25.6145V27.6316V29.6699V30.8764C35.531 30.8885 35.5227 30.9414 35.531 30.9512C35.5409 30.9627 35.6243 30.9525 35.6448 30.9525H35.8003H36.4223H37.6589H38.903H40.143C40.8818 30.9525 41.5853 30.762 42.1839 30.3165C42.9959 29.7126 43.4755 28.7523 43.4796 27.7445C43.4798 27.7055 43.4799 27.6664 43.4799 27.6274V27.5704C43.4798 27.4841 43.4796 27.3977 43.4796 27.3114V26.249C43.4796 25.7347 43.4796 25.2204 43.4796 24.7062C43.4796 24.0743 43.4796 23.4426 43.4796 22.8109C43.4796 22.1137 43.4796 21.4165 43.4796 20.7194C43.4796 19.998 43.4796 19.2766 43.4796 18.5552C43.4796 17.8595 43.4796 17.164 43.4796 16.4683C43.4796 15.8479 43.4796 15.2277 43.4796 14.6074C43.4796 14.1041 43.4796 13.6009 43.4796 13.0977V12.0924C43.4796 11.9697 43.4796 11.847 43.4796 11.7242H43.4669C43.0717 11.7248 42.6763 11.7242 42.2809 11.7242H41.041H39.7968C39.5511 11.7242 39.3013 11.7155 39.0522 11.7148H38.9989ZM37.0872 19.2307C37.0771 19.2529 37.0872 19.3018 37.0872 19.3257V20.1787V20.5774C37.0872 20.6107 37.0711 20.7251 37.0955 20.7421C37.1164 20.7565 37.2068 20.7421 37.2337 20.7421H37.383H37.6703H38.2409C38.4283 20.7421 38.6161 20.7453 38.8034 20.7421C39.0355 20.738 39.2603 20.6714 39.4252 20.508C39.6119 20.3231 39.6786 20.0512 39.6218 19.8017C39.596 19.6913 39.5461 19.5879 39.4724 19.4994C39.3312 19.3298 39.1207 19.2359 38.8979 19.2185C38.792 19.2103 38.6851 19.2141 38.579 19.2141H38.0084H37.4266H37.1434C37.1281 19.2141 37.1179 19.2127 37.1104 19.2127C37.0991 19.2127 37.0942 19.2158 37.0872 19.2307ZM38.3131 21.7425H37.0869C37.0869 21.7582 37.0869 21.774 37.0869 21.7897V22.6429V23.1467V23.3307C37.0869 23.3569 37.076 23.4123 37.0869 23.4365C37.1034 23.473 37.2557 23.4524 37.3046 23.4524H37.6149H38.2281H38.8446C39.045 23.4524 39.2372 23.44 39.4148 23.3345C39.6306 23.2063 39.7776 22.9823 39.8145 22.7327C39.8568 22.4474 39.7608 22.1522 39.5466 21.9585C39.3733 21.8019 39.1583 21.7442 38.9297 21.7425C38.8611 21.742 38.7926 21.7418 38.7241 21.7418C38.5871 21.7418 38.4501 21.7425 38.3131 21.7425Z" fill="url(#paint0_linear_2921_691)"/>
<mask id="mask0_2921_691" style="mask-type:luminance" maskUnits="userSpaceOnUse" x="35" y="11" width="9" height="20">
<path fill-rule="evenodd" clip-rule="evenodd" d="M38.9989 11.7148C38.7969 11.7154 38.5955 11.722 38.3973 11.7437C37.6216 11.8284 36.8919 12.2006 36.3679 12.7748C35.9791 13.2008 35.7092 13.7283 35.5947 14.2924C35.5382 14.5709 35.531 14.8501 35.531 15.1323V17.0053V17.9133V18.1801C35.531 18.2515 35.5138 18.2571 35.5931 18.2571H36.8342H38.0707H39.3148C39.7209 18.2571 40.1303 18.2419 40.5353 18.2785C40.9342 18.3146 41.3404 18.4275 41.663 18.6713C42.1167 19.0143 42.3012 19.6059 42.1461 20.1501C41.9973 20.6725 41.5511 21.0227 41.041 21.1682C40.9845 21.1843 40.9274 21.1981 40.8698 21.2099C40.8365 21.2167 40.7914 21.2155 40.7611 21.2295C40.7462 21.2364 40.708 21.245 40.736 21.2714C40.743 21.278 40.7725 21.2779 40.7943 21.2777C40.8032 21.2776 40.8108 21.2776 40.8152 21.278C40.9752 21.2933 41.1345 21.3208 41.2898 21.363C41.7648 21.4918 42.2258 21.7687 42.4459 22.2233C42.7064 22.7612 42.5736 23.4275 42.1528 23.8448C41.8214 24.1736 41.3588 24.3413 40.9009 24.3969C40.6713 24.4247 40.44 24.419 40.2092 24.419H38.9652H37.7211H36.4845H35.8625H35.707C35.6715 24.419 35.5713 24.4016 35.5422 24.419C35.5252 24.4293 35.531 24.4442 35.531 24.4714V25.6145V27.6316V29.6699V30.8764C35.531 30.8885 35.5227 30.9414 35.531 30.9512C35.5409 30.9627 35.6243 30.9525 35.6448 30.9525H35.8003H36.4223H37.6589H38.903H40.143C40.8818 30.9525 41.5853 30.762 42.1839 30.3165C42.9959 29.7126 43.4755 28.7523 43.4796 27.7445C43.4798 27.7055 43.4799 27.6664 43.4799 27.6274V27.5704C43.4798 27.4841 43.4796 27.3977 43.4796 27.3114V26.249C43.4796 25.7347 43.4796 25.2204 43.4796 24.7062C43.4796 24.0743 43.4796 23.4426 43.4796 22.8109C43.4796 22.1137 43.4796 21.4165 43.4796 20.7194C43.4796 19.998 43.4796 19.2766 43.4796 18.5552C43.4796 17.8595 43.4796 17.164 43.4796 16.4683C43.4796 15.8479 43.4796 15.2277 43.4796 14.6074C43.4796 14.1041 43.4796 13.6009 43.4796 13.0977V12.0924C43.4796 11.9697 43.4796 11.847 43.4796 11.7242H43.4669C43.0717 11.7248 42.6763 11.7242 42.2809 11.7242H41.041H39.7968C39.5511 11.7242 39.3013 11.7155 39.0522 11.7148H38.9989ZM37.0872 19.2307C37.0771 19.2529 37.0872 19.3018 37.0872 19.3257V20.1787V20.5774C37.0872 20.6107 37.0711 20.7251 37.0955 20.7421C37.1164 20.7565 37.2068 20.7421 37.2337 20.7421H37.383H37.6703H38.2409C38.4283 20.7421 38.6161 20.7453 38.8034 20.7421C39.0355 20.738 39.2603 20.6714 39.4252 20.508C39.6119 20.3231 39.6786 20.0512 39.6218 19.8017C39.596 19.6913 39.5461 19.5879 39.4724 19.4994C39.3312 19.3298 39.1207 19.2359 38.8979 19.2185C38.792 19.2103 38.6851 19.2141 38.579 19.2141H38.0084H37.4266H37.1434C37.1281 19.2141 37.1179 19.2127 37.1104 19.2127C37.0991 19.2127 37.0942 19.2158 37.0872 19.2307ZM38.3131 21.7425H37.0869C37.0869 21.7582 37.0869 21.774 37.0869 21.7897V22.6429V23.1467V23.3307C37.0869 23.3569 37.076 23.4123 37.0869 23.4365C37.1034 23.473 37.2557 23.4524 37.3046 23.4524H37.6149H38.2281H38.8446C39.045 23.4524 39.2372 23.44 39.4148 23.3345C39.6306 23.2063 39.7776 22.9823 39.8145 22.7327C39.8568 22.4474 39.7608 22.1522 39.5466 21.9585C39.3733 21.8019 39.1583 21.7442 38.9297 21.7425C38.8611 21.742 38.7926 21.7418 38.7241 21.7418C38.5871 21.7418 38.4501 21.7425 38.3131 21.7425Z" fill="white"/>
</mask>
<g mask="url(#mask0_2921_691)">
</g>
<path fill-rule="evenodd" clip-rule="evenodd" d="M20.16 11.7576C19.6972 11.8316 19.2529 12.0068 18.8646 12.2651C17.9701 12.8604 17.4348 13.8684 17.4308 14.9291C17.4297 15.241 17.4308 15.5528 17.4308 15.8648V17.8512V20.1606V22.0655V22.6404V22.7922C17.4308 22.851 17.4303 22.8387 17.4983 22.8705C17.5739 22.9058 17.6499 22.9401 17.7263 22.9734C18.3359 23.2392 18.9788 23.4414 19.6423 23.521C20.1193 23.5783 20.6286 23.5942 21.0791 23.407C21.4399 23.2571 21.7275 22.9804 21.8753 22.6217C21.9703 22.3911 21.9975 22.1476 21.9975 21.901V19.167V18.5515V18.3552C21.9975 18.3356 21.9862 18.2743 21.9975 18.2578C22.0116 18.2373 22.1231 18.2504 22.1552 18.2504H22.3983H22.8776H24.8012V18.3068V21.0057C24.8012 21.3226 24.8018 21.6395 24.8012 21.9563C24.8005 22.3255 24.7455 22.696 24.592 23.0352C24.4389 23.3734 24.1936 23.659 23.8903 23.8764C23.1547 24.4038 22.1799 24.5413 21.2909 24.5808C20.6548 24.6091 20.0162 24.5847 19.383 24.5224C18.7286 24.4582 18.0665 24.3627 17.4308 24.1941V24.413V25.9137V28.1031V30.081V30.7102V30.8868C17.4308 30.8963 17.4238 30.9427 17.4308 30.9503C17.4441 30.9646 17.5646 30.9504 17.5884 30.9504H17.7495H18.0794H18.7315H20.0385H21.3461C21.9004 30.9504 22.469 30.9879 23.0108 30.8532C23.9582 30.6178 24.7633 29.9589 25.173 29.0864C25.398 28.6076 25.4717 28.0986 25.4717 27.5772V26.718V25.2704V23.3944V21.2592V19.0071V16.806V14.8235V13.2033V12.1138V11.7151H25.1467H23.7885H22.4297H21.075C21.0147 11.7151 20.9544 11.7148 20.8941 11.7148C20.6486 11.7148 20.4037 11.7187 20.16 11.7576Z" fill="url(#paint1_linear_2921_691)"/>
<mask id="mask1_2921_691" style="mask-type:luminance" maskUnits="userSpaceOnUse" x="17" y="11" width="9" height="20">
<path fill-rule="evenodd" clip-rule="evenodd" d="M20.16 11.7576C19.6972 11.8316 19.2529 12.0068 18.8646 12.2651C17.9701 12.8604 17.4348 13.8684 17.4308 14.9291C17.4297 15.241 17.4308 15.5528 17.4308 15.8648V17.8512V20.1606V22.0655V22.6404V22.7922C17.4308 22.851 17.4303 22.8387 17.4983 22.8705C17.5739 22.9058 17.6499 22.9401 17.7263 22.9734C18.3359 23.2392 18.9788 23.4414 19.6423 23.521C20.1193 23.5783 20.6286 23.5942 21.0791 23.407C21.4399 23.2571 21.7275 22.9804 21.8753 22.6217C21.9703 22.3911 21.9975 22.1476 21.9975 21.901V19.167V18.5515V18.3552C21.9975 18.3356 21.9862 18.2743 21.9975 18.2578C22.0116 18.2373 22.1231 18.2504 22.1552 18.2504H22.3983H22.8776H24.8012V18.3068V21.0057C24.8012 21.3226 24.8018 21.6395 24.8012 21.9563C24.8005 22.3255 24.7455 22.696 24.592 23.0352C24.4389 23.3734 24.1936 23.659 23.8903 23.8764C23.1547 24.4038 22.1799 24.5413 21.2909 24.5808C20.6548 24.6091 20.0162 24.5847 19.383 24.5224C18.7286 24.4582 18.0665 24.3627 17.4308 24.1941V24.413V25.9137V28.1031V30.081V30.7102V30.8868C17.4308 30.8963 17.4238 30.9427 17.4308 30.9503C17.4441 30.9646 17.5646 30.9504 17.5884 30.9504H17.7495H18.0794H18.7315H20.0385H21.3461C21.9004 30.9504 22.469 30.9879 23.0108 30.8532C23.9582 30.6178 24.7633 29.9589 25.173 29.0864C25.398 28.6076 25.4717 28.0986 25.4717 27.5772V26.718V25.2704V23.3944V21.2592V19.0071V16.806V14.8235V13.2033V12.1138V11.7151H25.1467H23.7885H22.4297H21.075C21.0147 11.7151 20.9544 11.7148 20.8941 11.7148C20.6486 11.7148 20.4037 11.7187 20.16 11.7576Z" fill="white"/>
</mask>
<g mask="url(#mask1_2921_691)">
</g>
<path fill-rule="evenodd" clip-rule="evenodd" d="M29.4973 11.7228C29.1487 11.7446 28.8038 11.8225 28.4807 11.9542C27.7683 12.2447 27.1761 12.787 26.8271 13.4674C26.5986 13.9128 26.4831 14.408 26.481 14.9072C26.4806 14.9879 26.481 15.0687 26.481 15.1496V16.5658V19.0835C26.5027 19.065 26.525 19.0467 26.5477 19.0286C26.6274 18.9647 26.7105 18.9049 26.796 18.8489C27.3287 18.5004 27.9503 18.3052 28.5739 18.1899C29.0815 18.0961 29.5983 18.0558 30.1142 18.046C30.6217 18.0364 31.1307 18.0535 31.6355 18.1076C32.1506 18.1627 32.6625 18.2487 33.1689 18.3562C33.2311 18.3694 33.2932 18.383 33.3552 18.397C33.3884 18.4046 33.5156 18.4148 33.5333 18.44C33.5459 18.458 33.5333 18.5299 33.5333 18.5507V18.8103V19.7893C33.4613 19.7534 33.389 19.7182 33.3161 19.6841C32.7651 19.4262 32.1843 19.2346 31.5815 19.1404C30.7716 19.0137 29.8551 19.0172 29.1557 19.497C28.4807 19.9602 28.2444 20.782 28.3173 21.5635C28.3883 22.324 28.8131 22.976 29.5283 23.2801C30.2349 23.5804 31.0548 23.54 31.7947 23.3952C32.4018 23.2763 32.9806 23.0586 33.5333 22.7857V22.8824V24.0233C33.5333 24.0446 33.5461 24.1167 33.5333 24.135C33.516 24.1595 33.387 24.1699 33.3552 24.1771C33.2261 24.2063 33.0964 24.2336 32.9665 24.2595C32.4563 24.3611 31.9408 24.4418 31.4222 24.4877C30.9146 24.5327 30.4019 24.5416 29.8927 24.5226C29.373 24.5033 28.8527 24.4503 28.3444 24.3387C27.6744 24.1918 27.0075 23.939 26.481 23.4919V23.7021V25.1714V27.3638V29.4981V30.7637C26.481 30.7787 26.471 30.8412 26.481 30.8532C26.5027 30.8793 26.6835 30.8579 26.7259 30.8579H27.3859H28.713H30.0331C30.4989 30.8579 30.973 30.8825 31.4378 30.8496C32.2806 30.7901 33.0788 30.3957 33.6344 29.7652C34.1666 29.1612 34.4291 28.3969 34.4291 27.6003V26.8859V25.52V23.6753V21.5226V19.2421V16.986V14.9418V13.2638V12.1316V11.7163H34.1854H32.1363H30.0952C29.9987 11.7163 29.9018 11.7148 29.8051 11.7148C29.7023 11.7148 29.5996 11.7165 29.4973 11.7228Z" fill="url(#paint2_linear_2921_691)"/>
<mask id="mask2_2921_691" style="mask-type:luminance" maskUnits="userSpaceOnUse" x="26" y="11" width="9" height="20">
<path fill-rule="evenodd" clip-rule="evenodd" d="M29.4973 11.7228C29.1487 11.7446 28.8038 11.8225 28.4807 11.9542C27.7683 12.2447 27.1761 12.787 26.8271 13.4674C26.5986 13.9128 26.4831 14.408 26.481 14.9072C26.4806 14.9879 26.481 15.0687 26.481 15.1496V16.5658V19.0835C26.5027 19.065 26.525 19.0467 26.5477 19.0286C26.6274 18.9647 26.7105 18.9049 26.796 18.8489C27.3287 18.5004 27.9503 18.3052 28.5739 18.1899C29.0815 18.0961 29.5983 18.0558 30.1142 18.046C30.6217 18.0364 31.1307 18.0535 31.6355 18.1076C32.1506 18.1627 32.6625 18.2487 33.1689 18.3562C33.2311 18.3694 33.2932 18.383 33.3552 18.397C33.3884 18.4046 33.5156 18.4148 33.5333 18.44C33.5459 18.458 33.5333 18.5299 33.5333 18.5507V18.8103V19.7893C33.4613 19.7534 33.389 19.7182 33.3161 19.6841C32.7651 19.4262 32.1843 19.2346 31.5815 19.1404C30.7716 19.0137 29.8551 19.0172 29.1557 19.497C28.4807 19.9602 28.2444 20.782 28.3173 21.5635C28.3883 22.324 28.8131 22.976 29.5283 23.2801C30.2349 23.5804 31.0548 23.54 31.7947 23.3952C32.4018 23.2763 32.9806 23.0586 33.5333 22.7857V22.8824V24.0233C33.5333 24.0446 33.5461 24.1167 33.5333 24.135C33.516 24.1595 33.387 24.1699 33.3552 24.1771C33.2261 24.2063 33.0964 24.2336 32.9665 24.2595C32.4563 24.3611 31.9408 24.4418 31.4222 24.4877C30.9146 24.5327 30.4019 24.5416 29.8927 24.5226C29.373 24.5033 28.8527 24.4503 28.3444 24.3387C27.6744 24.1918 27.0075 23.939 26.481 23.4919V23.7021V25.1714V27.3638V29.4981V30.7637C26.481 30.7787 26.471 30.8412 26.481 30.8532C26.5027 30.8793 26.6835 30.8579 26.7259 30.8579H27.3859H28.713H30.0331C30.4989 30.8579 30.973 30.8825 31.4378 30.8496C32.2806 30.7901 33.0788 30.3957 33.6344 29.7652C34.1666 29.1612 34.4291 28.3969 34.4291 27.6003V26.8859V25.52V23.6753V21.5226V19.2421V16.986V14.9418V13.2638V12.1316V11.7163H34.1854H32.1363H30.0952C29.9987 11.7163 29.9018 11.7148 29.8051 11.7148C29.7023 11.7148 29.5996 11.7165 29.4973 11.7228Z" fill="white"/>
</mask>
<g mask="url(#mask2_2921_691)">
</g>
<path fill-rule="evenodd" clip-rule="evenodd" d="M57 1H4C2.34314 1 1 2.34314 1 4V37.8286C1 39.4854 2.34315 40.8286 4 40.8286H57C58.6569 40.8286 60 39.4854 60 37.8286V4C60 2.34315 58.6569 1 57 1ZM4 0C1.79086 0 0 1.79086 0 4V37.8286C0 40.0377 1.79086 41.8286 4 41.8286H57C59.2091 41.8286 61 40.0377 61 37.8286V4C61 1.79086 59.2091 0 57 0H4Z" fill="#D9D9D9"/>
<defs>
<linearGradient id="paint0_linear_2921_691" x1="43.4799" y1="10.8827" x2="35.7962" y2="10.8827" gradientUnits="userSpaceOnUse">
<stop stop-color="#43C311"/>
<stop offset="1" stop-color="#288C00"/>
</linearGradient>
<linearGradient id="paint1_linear_2921_691" x1="17.4485" y1="31.0048" x2="25.5729" y2="31.0048" gradientUnits="userSpaceOnUse">
<stop stop-color="#21469E"/>
<stop offset="1" stop-color="#1E81EB"/>
</linearGradient>
<linearGradient id="paint2_linear_2921_691" x1="34.4291" y1="11.7148" x2="26.4766" y2="11.7148" gradientUnits="userSpaceOnUse">
<stop stop-color="#F42D3E"/>
<stop offset="1" stop-color="#9C0017"/>
</linearGradient>
</defs>
</svg>
