<svg width="61" height="42" viewBox="0 0 61 42" fill="none" xmlns="http://www.w3.org/2000/svg">
<path d="M0 4C0 1.79086 1.79086 0 4 0H57C59.2091 0 61 1.79086 61 4V37.83C61 40.0391 59.2091 41.83 57 41.83H4C1.79086 41.83 0 40.0391 0 37.83V4Z" fill="#05B0EE"/>
<path fill-rule="evenodd" clip-rule="evenodd" d="M40.5431 24.7987C39.5834 26.878 38.0583 28.4584 35.953 29.5077C35.3169 29.8246 34.6454 30.0528 33.9498 30.2157C33.9027 30.2267 33.8524 30.2245 33.7499 30.2327C34.1229 29.9829 34.4572 29.7674 34.7659 29.5183C36.4584 28.1525 37.5489 26.441 37.8149 24.3201C38.1125 21.9472 37.4725 19.7974 35.9042 17.9289C34.7488 16.5522 33.2897 15.5652 31.6169 14.8398C30.9528 14.5518 30.308 14.231 29.5961 14.0617C28.748 13.86 27.8871 13.7842 27.0059 13.7904C27.5891 13.3393 28.2335 12.9915 28.9144 12.7073C30.2849 12.1351 31.7182 11.857 33.2115 11.9402C34.8844 12.0333 36.378 12.612 37.6875 13.6078C39.6424 15.0942 40.8785 17.0218 41.3058 19.3855C41.6437 21.2544 41.3413 23.0693 40.5431 24.7987ZM31.7492 29.671C31.4182 29.8694 31.0566 30.0134 30.7002 30.1664C30.5118 30.2473 30.3398 30.2463 30.1483 30.1979C27.0392 29.4133 24.8997 27.5424 23.57 24.7631C23.5564 24.7348 23.5282 24.7025 23.5736 24.6421C25.172 26.004 27.0504 26.5045 29.145 26.2486C30.4251 26.0922 31.5748 25.5956 32.524 24.7542C34.81 22.7278 35.0351 20.2633 34.0935 17.528C34.3061 17.6934 34.4397 17.8799 34.5792 18.0579C35.4459 19.1632 35.9612 20.4091 36.1117 21.7832C36.5027 25.3535 34.7825 27.8524 31.7492 29.671ZM28.331 30.7351C25.6704 30.9537 23.5758 29.8884 21.8431 28.0475C20.7358 26.871 20.0185 25.4894 19.7915 23.9116C19.4619 21.6198 19.875 19.486 21.4047 17.6289C21.6032 17.3881 21.8281 17.1685 22.0782 16.9712C21.1028 19.7004 21.3307 22.3766 22.4571 24.9903C23.6005 27.6435 25.5779 29.5326 28.3319 30.6573C28.3752 30.6564 28.4311 30.6644 28.4286 30.7077C28.4252 30.7641 28.367 30.7328 28.331 30.7351ZM25.3262 15.9587C27.0037 14.7769 29.1766 14.8639 30.7813 16.1384C31.8785 17.0098 32.6352 18.1049 32.8099 19.4668C33.0631 21.441 32.585 23.2228 30.9329 24.5555C29.3158 25.86 26.859 25.8102 25.2593 24.4874C24.1528 23.5723 23.5577 22.3967 23.3368 21.0272C23.2825 20.6913 23.2449 20.3538 23.2483 20.0104C23.3015 18.3569 23.9121 16.9551 25.3262 15.9587ZM43.144 19.4864C42.6442 16.9234 41.326 14.8259 39.1984 13.2146C37.2117 11.7097 34.9204 10.9973 32.4129 10.8853C31.3997 10.8402 30.3994 10.9448 29.4157 11.1729C27.0972 11.7103 25.0663 12.725 23.5088 14.5124C23.4519 14.5777 23.3879 14.6297 23.3034 14.6671C21.7708 15.3441 20.471 16.3119 19.4329 17.5919C17.8553 19.5372 17.1619 21.7319 17.5201 24.1931C17.8606 26.5328 19.0592 28.39 21.0526 29.7587C23.1265 31.1827 25.4879 31.7288 27.9958 31.7882C28.7569 31.8062 29.5038 31.6874 30.2457 31.5292C30.53 31.4686 30.8048 31.3388 31.1079 31.3838C31.6835 31.4691 32.2615 31.5165 32.8732 31.5037C33.4124 31.5209 33.9764 31.4793 34.5354 31.3824C37.9305 30.7933 40.4792 29.045 42.1292 26.1371C43.3112 24.0541 43.5975 21.8128 43.144 19.4864Z" fill="white"/>
<path fill-rule="evenodd" clip-rule="evenodd" d="M57 1H4C2.34314 1 1 2.34314 1 4V37.8286C1 39.4854 2.34314 40.8286 4 40.8286H57C58.6569 40.8286 60 39.4854 60 37.8286V4C60 2.34315 58.6569 1 57 1ZM4 0C1.79086 0 0 1.79086 0 4V37.8286C0 40.0377 1.79086 41.8286 4 41.8286H57C59.2091 41.8286 61 40.0377 61 37.8286V4C61 1.79086 59.2091 0 57 0H4Z" fill="#D9D9D9"/>
</svg>
