<svg width="61" height="42" viewBox="0 0 61 42" fill="none" xmlns="http://www.w3.org/2000/svg">
<path d="M0 4C0 1.79086 1.79086 0 4 0H57C59.2091 0 61 1.79086 61 4V37.83C61 40.0391 59.2091 41.83 57 41.83H4C1.79086 41.83 0 40.0391 0 37.83V4Z" fill="#003D79"/>
<path fill-rule="evenodd" clip-rule="evenodd" d="M4.41441 22.1553C4.41441 21.4052 4.40065 20.7756 4.35938 20.2143H5.79145L5.8586 21.1787H5.89878C6.22336 20.6691 6.81694 20.0664 7.92416 20.0664C8.78839 20.0664 9.46342 20.5496 9.74645 21.2723H9.77425C10.0042 20.9109 10.2733 20.6433 10.5836 20.4551C10.9485 20.2011 11.3672 20.0664 11.9072 20.0664C13.0006 20.0664 14.1069 20.8027 14.1069 22.8916V26.7337H12.4871V23.133C12.4871 22.0487 12.1096 21.4052 11.3135 21.4052C10.7455 21.4052 10.3266 21.8076 10.1522 22.2764C10.1112 22.4366 10.0708 22.6375 10.0708 22.8236V26.7337H8.45032V22.9583C8.45032 22.0487 8.08638 21.4052 7.31668 21.4052C6.69558 21.4052 6.27757 21.8879 6.1287 22.3421C6.06072 22.5038 6.03348 22.6908 6.03348 22.8778V26.7337H4.41441V22.1553Z" fill="white"/>
<path fill-rule="evenodd" clip-rule="evenodd" d="M20.418 25.1675C20.418 25.7562 20.4449 26.3309 20.5125 26.7337H19.0134L18.9058 26.011H18.8648C18.46 26.5202 17.7715 26.8811 16.921 26.8811C15.5977 26.8811 14.8555 25.9313 14.8555 24.94C14.8555 23.2927 16.3265 22.4634 18.7568 22.4767V22.3692C18.7568 21.9406 18.5811 21.2315 17.4202 21.2315C16.7719 21.2315 16.0966 21.4325 15.6513 21.7131L15.3269 20.643C15.8138 20.3479 16.6651 20.0664 17.7038 20.0664C19.8108 20.0664 20.418 21.3926 20.418 22.8111V25.1675ZM18.7986 23.5474C17.6242 23.5204 16.5039 23.7747 16.5039 24.7656C16.5039 25.4076 16.9223 25.7027 17.449 25.7027C18.1098 25.7027 18.5966 25.2741 18.7446 24.8057C18.7848 24.6852 18.7986 24.5508 18.7986 24.4441V23.5474Z" fill="white"/>
<path fill-rule="evenodd" clip-rule="evenodd" d="M21.5659 22.1553C21.5659 21.4052 21.5511 20.7756 21.5117 20.2143H22.9686L23.05 21.1915H23.0899C23.3738 20.6834 24.0893 20.0664 25.1826 20.0664C26.3305 20.0664 27.5185 20.8027 27.5185 22.8649V26.7337H25.8582V23.0527C25.8582 22.115 25.5072 21.4052 24.6025 21.4052C23.9409 21.4052 23.4821 21.8739 23.3061 22.3694C23.253 22.5171 23.2389 22.7183 23.2389 22.9044V26.7337H21.5659V22.1553Z" fill="white"/>
<path fill-rule="evenodd" clip-rule="evenodd" d="M34.7188 17.5938V24.8982C34.7188 25.5675 34.7453 26.2917 34.7724 26.733H33.2873L33.2208 25.7023H33.1933C32.8015 26.4256 32.0038 26.8803 31.0463 26.8803C29.4809 26.8803 28.2384 25.5552 28.2384 23.547C28.2246 21.3646 29.6017 20.0657 31.1811 20.0657C32.0854 20.0657 32.734 20.441 33.0305 20.9234H33.0579V17.5938H34.7188ZM33.058 22.9306C33.058 22.7981 33.0441 22.6367 33.0181 22.5032C32.8693 21.8606 32.3425 21.3381 31.5864 21.3381C30.5199 21.3381 29.9258 22.2758 29.9258 23.4941C29.9258 24.6852 30.5199 25.5556 31.5729 25.5556C32.2477 25.5556 32.8421 25.1005 33.0039 24.3912C33.0441 24.2433 33.058 24.0828 33.058 23.9082V22.9306Z" fill="white"/>
<path fill-rule="evenodd" clip-rule="evenodd" d="M35.8906 26.7319H37.5664V20.2129H35.8906V26.7319Z" fill="white"/>
<path fill-rule="evenodd" clip-rule="evenodd" d="M38.7418 22.3151C38.7418 21.4319 38.7278 20.8018 38.6875 20.2134H40.1324L40.1852 21.458H40.2412C40.5647 20.5343 41.3344 20.2134 42.0361 20.2134C42.1978 20.2134 42.2922 20.1859 42.4276 20.2134V21.6597C42.2922 21.6329 42.144 21.6062 41.9415 21.6062C41.1451 21.6062 40.6046 22.1144 40.4563 22.8503C40.43 22.9976 40.4027 23.1724 40.4027 23.3607V26.7332H38.7418V22.3151Z" fill="white"/>
<path fill-rule="evenodd" clip-rule="evenodd" d="M43.1973 26.7319H44.8705V20.2129H43.1973V26.7319Z" fill="white"/>
<path fill-rule="evenodd" clip-rule="evenodd" d="M42.8007 12.3311C41.7956 12.9083 39.4248 14.2566 38.5398 14.7587C38.0005 15.0312 36.7513 15.1502 36.0447 14.2054C36.0321 14.1884 35.1049 13.0397 35.0671 12.9964C35.0406 12.9659 34.4412 12.0843 33.1057 12.0567C32.9084 12.0521 31.9274 12.0469 30.9701 12.5864C29.6978 13.3072 26.7387 14.9848 26.7387 14.9848C26.7379 14.9848 26.7379 14.9863 26.7363 14.9863C25.52 15.6764 24.5723 16.2138 24.5723 16.2138L25.692 17.5775C26.2158 18.2225 27.3971 18.7214 28.4215 18.1383C28.4215 18.1383 32.2065 15.9647 32.2204 15.9585C33.8574 15.0682 35.1205 15.0682 35.9589 15.3995C36.7114 15.7148 37.366 16.5004 37.366 16.5004C37.366 16.5004 38.2216 17.5518 38.3725 17.7358C38.8593 18.33 39.6651 18.0965 39.6651 18.0965C39.6651 18.0965 39.9637 18.063 40.4137 17.798C40.4137 17.798 44.0801 15.6899 44.0824 15.6893C45.2466 15.012 46.3143 14.8855 46.86 14.9353C48.5692 15.0893 49.1002 16.2734 49.8413 17.0994C50.2777 17.5853 50.6715 17.8612 51.2738 17.8472C51.6695 17.8389 52.1165 17.601 52.1824 17.558L56.5728 15.0455C56.5728 15.0455 56.1223 14.3727 55.1997 13.3259C54.374 12.392 53.497 12.8145 52.7977 13.158C52.504 13.3021 51.4396 14.0042 50.385 14.494C49.6336 14.8429 48.5543 14.738 47.9628 14.0132C47.9275 13.9691 46.9705 12.8203 46.8699 12.6789C46.4837 12.1992 45.7301 11.7695 44.7643 11.7695C44.1771 11.7695 43.5107 11.9284 42.8007 12.3311Z" fill="url(#paint0_linear_2921_681)"/>
<path fill-rule="evenodd" clip-rule="evenodd" d="M57 1H4C2.34314 1 1 2.34314 1 4V37.8286C1 39.4854 2.34315 40.8286 4 40.8286H57C58.6569 40.8286 60 39.4854 60 37.8286V4C60 2.34315 58.6569 1 57 1ZM4 0C1.79086 0 0 1.79086 0 4V37.8286C0 40.0377 1.79086 41.8286 4 41.8286H57C59.2091 41.8286 61 40.0377 61 37.8286V4C61 1.79086 59.2091 0 57 0H4Z" fill="#D9D9D9"/>
<defs>
<linearGradient id="paint0_linear_2921_681" x1="24.5723" y1="18.3965" x2="56.5728" y2="18.3965" gradientUnits="userSpaceOnUse">
<stop stop-color="#FFCA06"/>
<stop offset="0.330844" stop-color="#FBAA18"/>
<stop offset="0.694742" stop-color="#FFC907"/>
<stop offset="1" stop-color="#FAA619"/>
</linearGradient>
</defs>
</svg>
