<svg width="61" height="42" viewBox="0 0 61 42" fill="none" xmlns="http://www.w3.org/2000/svg">
<path d="M0 4C0 1.79086 1.79086 0 4 0H57C59.2091 0 61 1.79086 61 4V37.83C61 40.0391 59.2091 41.83 57 41.83H4C1.79086 41.83 0 40.0391 0 37.83V4Z" fill="white"/>
<path fill-rule="evenodd" clip-rule="evenodd" d="M30.7277 15.7989C30.5473 15.8116 30.3477 15.9921 30.276 16.0911C30.1166 16.3115 30.1659 16.4014 30.1491 16.6625C30.1231 16.5438 29.6526 16.0762 29.5387 15.991C29.2993 15.8122 29.0371 15.6427 28.6895 15.5112C26.4587 14.6667 24.0586 16.5034 24.5282 18.8259C24.6753 18.6973 24.7225 18.5983 24.9114 18.4967C25.4938 18.1831 26.1415 18.3813 26.4488 18.8461C26.8113 19.3947 26.6248 20.3357 25.5684 20.5197C26.4944 21.3957 28.2651 21.4611 29.4246 20.6112C29.8521 20.2979 30.2769 19.8055 30.4946 19.1364C30.7677 18.2966 30.6177 17.7593 30.3601 17.0058C30.4809 17.0922 30.6265 17.1824 30.8277 17.1935C31.0793 17.2077 31.1967 17.109 31.3694 17.0393C31.3218 17.1955 31.2421 17.3361 31.1861 17.5111C30.8721 18.4907 31.1769 19.7543 31.9115 20.4037C32.0947 20.5659 31.9583 20.4815 32.2542 20.708C33.4236 21.6045 34.9694 21.5015 36.1521 20.6062C35.9737 20.5049 35.5453 20.5315 35.2613 20.0739C34.5988 19.007 35.996 17.8636 36.9757 18.694C37.0588 18.7647 37.0662 18.8133 37.1546 18.8763C37.272 18.6398 37.2053 18.0127 37.1463 17.7456C36.6855 15.66 34.0981 14.7011 32.2829 16.0016C31.9834 16.2164 31.865 16.389 31.6096 16.6474C31.6283 16.0264 31.4139 16.0238 31.1053 15.8009C32.0691 15.6623 32.4283 15.4974 33.0217 15.0232C33.487 14.6515 33.8746 13.9376 33.9819 13.2952C34.117 12.4873 33.8868 11.7471 33.51 11.1999C33.1917 10.7371 32.5262 10.1576 31.9337 10.041C32.2837 10.9871 31.632 11.6057 30.9206 11.6036C30.1544 11.6011 29.4962 10.8121 29.9032 10.0531C29.4545 10.0723 28.6944 10.7461 28.3915 11.168C27.5305 12.3675 27.7704 14.0754 28.8282 14.9853C29.4131 15.4886 29.745 15.6277 30.7277 15.7989Z" fill="#2A4095"/>
<path fill-rule="evenodd" clip-rule="evenodd" d="M24.4941 8.9995C24.819 8.95602 34.8952 8.99282 35.7443 8.99282C36.1934 8.99282 37.1668 8.91941 37.5033 9.09998C37.9846 9.35823 37.9088 9.89476 37.9088 10.5234V23.1968C37.909 23.6187 37.9325 24.2392 37.2136 24.337C36.759 24.3991 35.8401 24.3472 35.337 24.3472H25.939C25.4894 24.3472 24.4955 24.4262 24.1735 24.2332C23.6923 23.9448 23.782 23.4561 23.782 22.8044V10.131C23.782 9.83488 23.7622 9.57976 23.9122 9.35614C24.0282 9.18337 24.212 9.03725 24.4941 8.9995ZM37.2582 8.41211H24.4252L24.2679 8.46348C24.0957 8.50704 24.0075 8.53472 23.8494 8.63191C23.6631 8.74663 23.5503 8.85301 23.4357 9.01815C23.1429 9.43883 23.1922 9.77951 23.1922 10.3435V22.8658C23.1922 23.3746 23.1304 23.838 23.3822 24.2426C23.5724 24.5483 23.8595 24.8063 24.3345 24.8937C24.7073 24.9623 33.2394 24.9165 34.053 24.9165C34.5841 24.9165 36.98 24.9469 37.2994 24.901C37.7833 24.8314 38.0872 24.5681 38.28 24.2817C38.558 23.8695 38.4995 23.4647 38.4995 22.9264V10.3734C38.4995 9.81977 38.5506 9.44083 38.2685 9.0283C37.9136 8.50895 37.4261 8.49524 37.2582 8.41211Z" fill="#2A4095"/>
<path fill-rule="evenodd" clip-rule="evenodd" d="M7.85352 27.2754H10.7294C11.356 27.2754 11.8249 27.4184 12.1374 27.7057C12.4487 27.9929 12.6051 28.402 12.6051 28.9328C12.6051 29.4771 12.4345 29.9037 12.0946 30.2099C11.7546 30.5173 11.2349 30.6704 10.5366 30.6704H9.58852V32.6652H7.85352V27.2754ZM9.58789 29.5784H10.0137C10.3499 29.5784 10.5855 29.5221 10.7209 29.4102C10.8566 29.2987 10.9243 29.1556 10.9243 28.9812C10.9243 28.8118 10.8655 28.6687 10.7472 28.5509C10.6299 28.433 10.4085 28.3741 10.0828 28.3741H9.58789V29.5784ZM14.692 30.023L13.207 29.8725C13.263 29.6215 13.3438 29.4246 13.4493 29.2816C13.5547 29.1373 13.7059 29.0129 13.9053 28.9076C14.0471 28.831 14.2424 28.7722 14.4914 28.7307C14.7401 28.6893 15.0098 28.668 15.3002 28.668C15.7651 28.668 16.1377 28.693 16.4203 28.7432C16.7018 28.7935 16.9375 28.8989 17.125 29.0581C17.2579 29.1686 17.362 29.3255 17.4375 29.5273C17.5145 29.7294 17.5522 29.9226 17.5522 30.107V31.8333C17.5522 32.0177 17.564 32.1621 17.5886 32.2662C17.6121 32.3704 17.6654 32.5033 17.7463 32.6653H16.2913C16.2326 32.5648 16.195 32.4895 16.1766 32.437C16.1599 32.3842 16.1417 32.3025 16.1232 32.1909C15.9201 32.3791 15.7181 32.5135 15.5164 32.5938C15.2414 32.7015 14.9225 32.7555 14.5591 32.7555C14.0757 32.7555 13.7083 32.6476 13.4585 32.4305C13.207 32.2147 13.082 31.9474 13.082 31.6313C13.082 31.334 13.1718 31.0893 13.3528 30.8975C13.5341 30.7054 13.8673 30.5624 14.3532 30.4696C14.9353 30.3567 15.3133 30.2777 15.4865 30.2311C15.6596 30.1861 15.8432 30.1272 16.036 30.0531C16.036 29.8687 15.9971 29.7407 15.9176 29.6666C15.8395 29.5926 15.7013 29.5561 15.5033 29.5561C15.2493 29.5561 15.0593 29.5952 14.9314 29.6741C14.8324 29.7369 14.753 29.8523 14.692 30.023ZM16.0356 30.806C15.822 30.88 15.5993 30.9453 15.3661 31.0029C15.051 31.0844 14.8505 31.1646 14.7669 31.2438C14.6798 31.3252 14.6367 31.4182 14.6367 31.5222C14.6367 31.6415 14.6798 31.7394 14.7643 31.8146C14.8505 31.8898 14.9754 31.9275 15.1409 31.9275C15.314 31.9275 15.4754 31.886 15.6254 31.8046C15.7739 31.723 15.8794 31.6238 15.9418 31.506C16.0044 31.3881 16.0356 31.235 16.0356 31.0469V30.806ZM18.4824 28.7582H19.9309V29.3945C20.147 29.1333 20.3646 28.9477 20.5859 28.8361C20.8074 28.7243 21.0758 28.668 21.3935 28.668C21.8235 28.668 22.1582 28.7908 22.4018 29.0382C22.644 29.284 22.7652 29.6654 22.7652 30.181V32.6653H21.2022V30.516C21.2022 30.2702 21.1552 30.097 21.0615 29.9954C20.9678 29.8938 20.8361 29.8423 20.6668 29.8423C20.4807 29.8423 20.3282 29.9113 20.2122 30.0481C20.0963 30.1861 20.0376 30.4319 20.0376 30.7884V32.6653H18.4824V28.7582ZM23.75 32.6641H25.3052V28.7571H23.75V32.6641ZM26.2969 28.7582H27.7453V29.3945C27.9615 29.1333 28.1792 28.9477 28.4004 28.8361C28.622 28.7243 28.8901 28.668 29.2081 28.668C29.6378 28.668 29.9726 28.7908 30.2161 29.0382C30.4586 29.284 30.5795 29.6654 30.5795 30.181V32.6653H29.0165V30.516C29.0165 30.2702 28.9697 30.097 28.8757 29.9954C28.782 29.8938 28.6505 29.8423 28.4812 29.8423C28.2949 29.8423 28.1425 29.9113 28.0267 30.0481C27.9106 30.1861 27.8522 30.4319 27.8522 30.7884V32.6653H26.2969V28.7582Z" fill="#FF0000"/>
<path fill-rule="evenodd" clip-rule="evenodd" d="M32.0059 27.2754H35.2452C35.7845 27.2754 36.1988 27.4047 36.4881 27.6617C36.7771 27.9188 36.9217 28.2376 36.9217 28.6178C36.9217 28.9363 36.8188 29.2099 36.6118 29.437C36.4748 29.59 36.2731 29.7094 36.0086 29.7984C36.4112 29.8913 36.7055 30.0506 36.8955 30.2777C37.0846 30.5046 37.1797 30.7895 37.1797 31.132C37.1797 31.4119 37.1118 31.6628 36.9777 31.8859C36.8422 32.1093 36.6574 32.285 36.424 32.4157C36.2783 32.4957 36.0593 32.5548 35.7664 32.591C35.377 32.6402 35.119 32.6652 34.9915 32.6652H32.0059V27.2754ZM33.748 29.391H34.5023C34.7717 29.391 34.9607 29.3457 35.0659 29.2568C35.1717 29.1663 35.2251 29.0372 35.2251 28.8677C35.2251 28.7111 35.1717 28.588 35.0659 28.5001C34.9607 28.4112 34.7756 28.3673 34.5138 28.3673H33.748V29.391ZM33.748 31.5054H34.6298C34.928 31.5054 35.1378 31.4539 35.2601 31.3523C35.3827 31.2505 35.4439 31.1152 35.4439 30.9432C35.4439 30.784 35.384 30.656 35.2629 30.5592C35.1418 30.4628 34.9294 30.4138 34.626 30.4138H33.748V31.5054ZM39.3969 30.023L37.9122 29.8725C37.9681 29.6215 38.0489 29.4246 38.1544 29.2816C38.2599 29.1373 38.411 29.0129 38.6102 28.9076C38.7522 28.831 38.9475 28.7722 39.1964 28.7307C39.4452 28.6893 39.7148 28.668 40.0053 28.668C40.4702 28.668 40.8428 28.693 41.1254 28.7432C41.4068 28.7935 41.6424 28.8989 41.8301 29.0581C41.9627 29.1686 42.067 29.3255 42.1426 29.5273C42.2195 29.7294 42.2573 29.9226 42.2573 30.107V31.8333C42.2573 32.0177 42.269 32.1621 42.2937 32.2662C42.3171 32.3704 42.3706 32.5032 42.4514 32.6652H40.9964C40.9379 32.5648 40.9002 32.4895 40.8817 32.4369C40.865 32.3842 40.8467 32.3025 40.8286 32.1909C40.6252 32.3791 40.4233 32.5135 40.2216 32.5938C39.9465 32.7015 39.6275 32.7555 39.2642 32.7555C38.7808 32.7555 38.4135 32.6476 38.1634 32.4305C37.9122 32.2147 37.7871 31.9474 37.7871 31.6313C37.7871 31.334 37.8768 31.0893 38.0579 30.8975C38.2391 30.7054 38.5724 30.5623 39.0583 30.4696C39.6405 30.3567 40.0181 30.2777 40.1916 30.2311C40.3647 30.1861 40.5485 30.1272 40.741 30.0531C40.741 29.8687 40.7021 29.7407 40.6226 29.6666C40.5443 29.5926 40.4064 29.5561 40.2083 29.5561C39.9544 29.5561 39.7644 29.5952 39.6365 29.6741C39.5375 29.7369 39.4581 29.8523 39.3969 30.023ZM40.7406 30.806C40.5272 30.88 40.3045 30.9452 40.0711 31.0029C39.7561 31.0843 39.5556 31.1646 39.4722 31.2438C39.3849 31.3252 39.3418 31.4182 39.3418 31.5222C39.3418 31.6415 39.3849 31.7394 39.4695 31.8146C39.5556 31.8898 39.6803 31.9275 39.8459 31.9275C40.0192 31.9275 40.1806 31.886 40.3305 31.8046C40.4791 31.723 40.5843 31.6238 40.6469 31.506C40.7095 31.3881 40.7406 31.235 40.7406 31.0469V30.806ZM43.1875 28.7582H44.6361V29.3944C44.8523 29.1333 45.0697 28.9477 45.2912 28.8361C45.5126 28.7243 45.7809 28.668 46.0987 28.668C46.5286 28.668 46.8632 28.7908 47.1069 29.0382C47.3491 29.284 47.4703 29.6654 47.4703 30.181V32.6652H45.9073V30.516C45.9073 30.2702 45.8603 30.097 45.7666 29.9954C45.6728 29.8937 45.5413 29.8423 45.3719 29.8423C45.1856 29.8423 45.0333 29.9113 44.9173 30.0481C44.8014 30.1861 44.7427 30.4319 44.7427 30.7884V32.6652H43.1875V28.7582ZM48.4006 27.2754H49.987V30.0506L51.1477 28.7582H53.0585L51.6049 30.1258L53.1444 32.6652H51.3951L50.5721 31.0993L49.987 31.6501V32.6652H48.4006V27.2754Z" fill="#2A4095"/>
<path fill-rule="evenodd" clip-rule="evenodd" d="M24.7031 22.2429H25.2984C25.4281 22.2429 25.525 22.2726 25.59 22.332C25.6545 22.3915 25.6867 22.476 25.6867 22.586C25.6867 22.6986 25.6511 22.787 25.581 22.8504C25.5105 22.9141 25.4029 22.9456 25.2586 22.9456H25.0623V23.3587H24.7031V22.2429ZM25.0625 22.7209H25.1505C25.2201 22.7209 25.2689 22.7092 25.2969 22.6861C25.3248 22.6631 25.3389 22.6333 25.3389 22.5971C25.3389 22.5621 25.3269 22.5326 25.3022 22.5082C25.2781 22.4838 25.2322 22.4716 25.1648 22.4716H25.0625V22.7209ZM26.4482 23.1748H26.0427L25.9846 23.3587H25.6192L26.0551 22.2429H26.4468L26.8809 23.3587H26.5063L26.4482 23.1748ZM26.3726 22.9332L26.2461 22.5322L26.1192 22.9332H26.3726ZM26.9981 22.2429H27.3319L27.7665 22.8588V22.2429H28.1046V23.3587H27.7665L27.3346 22.746V23.3587H26.9981V22.2429ZM28.3575 23.3587H28.7165V22.2429H28.3575V23.3587ZM28.9747 22.2429H29.3088L29.7431 22.8588V22.2429H30.0812V23.3587H29.7431L29.3111 22.746V23.3587H28.9747V22.2429ZM31.4385 22.9553V22.7233H31.9919V23.1978C31.886 23.2675 31.7925 23.3149 31.7112 23.34C31.6299 23.3653 31.5332 23.3778 31.4217 23.3778C31.2842 23.3778 31.172 23.3551 31.0854 23.3101C30.9989 23.265 30.9316 23.1978 30.884 23.1084C30.8363 23.0192 30.8126 22.9168 30.8126 22.8012C30.8126 22.6794 30.8386 22.5735 30.8907 22.4835C30.9429 22.3936 31.0189 22.3254 31.1198 22.2785C31.1981 22.2427 31.3038 22.2246 31.4364 22.2246C31.5643 22.2246 31.66 22.2358 31.7235 22.2582C31.787 22.2803 31.8395 22.3149 31.8814 22.362C31.923 22.409 31.9546 22.4684 31.9758 22.5403L31.631 22.6003C31.6168 22.5578 31.5927 22.5255 31.559 22.5031C31.5249 22.4804 31.4818 22.4693 31.429 22.4693C31.3508 22.4693 31.2881 22.4955 31.2414 22.5478C31.1948 22.6004 31.1716 22.6836 31.1716 22.797C31.1716 22.9176 31.1951 23.0038 31.2423 23.0554C31.2893 23.1071 31.3549 23.133 31.4391 23.133C31.479 23.133 31.5171 23.1278 31.5535 23.1164C31.5896 23.1054 31.631 23.0862 31.6781 23.0598V22.9553H31.4385ZM32.211 23.3587V22.2429H32.8075C32.918 22.2429 33.0028 22.2519 33.0611 22.2703C33.1196 22.2885 33.1668 22.3227 33.2024 22.3719C33.2384 22.4217 33.2561 22.482 33.2561 22.5532C33.2561 22.6151 33.2423 22.6685 33.2149 22.7133C33.1877 22.7586 33.1499 22.795 33.1018 22.8231C33.0712 22.8407 33.029 22.8555 32.9761 22.8672C33.0188 22.8808 33.0496 22.8946 33.0691 22.9083C33.0821 22.9175 33.1012 22.9372 33.1262 22.9669C33.1509 22.9968 33.1677 23.0199 33.1762 23.0363L33.3501 23.3587H32.9457L32.7543 23.0184C32.7301 22.9742 32.7087 22.9456 32.6896 22.9325C32.6638 22.9154 32.6343 22.9066 32.6018 22.9066H32.5703V23.3587H32.211ZM32.5704 22.6978H32.7215C32.7379 22.6978 32.7697 22.6927 32.8166 22.6825C32.8403 22.6781 32.8597 22.6665 32.8746 22.6475C32.8896 22.6286 32.8972 22.6071 32.8972 22.5826C32.8972 22.5465 32.8852 22.5188 32.8615 22.4996C32.8378 22.48 32.7934 22.4704 32.7277 22.4704H32.5704V22.6978ZM33.3907 22.8021C33.3907 22.62 33.4431 22.4782 33.5486 22.3768C33.6541 22.2753 33.8009 22.2246 33.989 22.2246C34.1818 22.2246 34.3303 22.2746 34.4346 22.3739C34.539 22.4738 34.5911 22.6135 34.5911 22.793C34.5911 22.9231 34.5685 23.0299 34.5229 23.1134C34.4772 23.1967 34.4112 23.2617 34.3253 23.3083C34.2389 23.3547 34.1315 23.3778 34.0029 23.3778C33.8724 23.3778 33.7645 23.3577 33.6786 23.3178C33.5931 23.2775 33.5236 23.2143 33.4704 23.1272C33.4174 23.0409 33.3907 22.9323 33.3907 22.8021ZM33.7481 22.8032C33.7481 22.9156 33.77 22.9967 33.8135 23.0459C33.8571 23.0949 33.9165 23.1194 33.9913 23.1194C34.0683 23.1194 34.1281 23.0953 34.1703 23.0474C34.2126 22.9991 34.2336 22.9127 34.2336 22.7879C34.2336 22.683 34.2115 22.6064 34.1675 22.558C34.1234 22.5095 34.0636 22.4853 33.9881 22.4853C33.9161 22.4853 33.8578 22.5099 33.814 22.5591C33.77 22.6082 33.7481 22.6896 33.7481 22.8032ZM35.5377 22.2429H35.8951V22.9074C35.8951 22.9731 35.8845 23.0354 35.8631 23.094C35.8416 23.1526 35.8085 23.2038 35.7626 23.2477C35.7171 23.2917 35.6694 23.3223 35.6197 23.3402C35.55 23.3648 35.4665 23.3773 35.3691 23.3773C35.3126 23.3773 35.2511 23.3732 35.1846 23.3659C35.1181 23.3584 35.0624 23.3433 35.0176 23.3206C34.9727 23.2981 34.9317 23.2661 34.8949 23.2247C34.8576 23.1832 34.8322 23.1402 34.8185 23.096C34.7963 23.0252 34.7853 22.9622 34.7853 22.9074V22.2429H35.1429V22.9231C35.1429 22.9841 35.1604 23.0316 35.1952 23.0656C35.2302 23.1 35.2789 23.1171 35.3408 23.1171C35.402 23.1171 35.4501 23.1002 35.4853 23.0665C35.5201 23.033 35.5377 22.9851 35.5377 22.9231V22.2429ZM36.129 22.2429H36.7243C36.854 22.2429 36.951 22.2726 37.0159 22.332C37.0802 22.3915 37.1126 22.476 37.1126 22.586C37.1126 22.6986 37.0771 22.787 37.0069 22.8504C36.9364 22.9141 36.8289 22.9456 36.6845 22.9456H36.4882V23.3587H36.129V22.2429ZM36.4884 22.7209H36.5764C36.646 22.7209 36.6948 22.7092 36.723 22.6861C36.7507 22.6631 36.7649 22.6333 36.7649 22.5971C36.7649 22.5621 36.7528 22.5326 36.7282 22.5082C36.704 22.4838 36.6582 22.4716 36.5907 22.4716H36.4884V22.7209Z" fill="#2A4095"/>
<path fill-rule="evenodd" clip-rule="evenodd" d="M24.5379 26.4453C25.0777 26.4453 25.5152 26.8668 25.5152 27.3867C25.5152 27.9067 25.0777 28.3282 24.5379 28.3282C23.9981 28.3282 23.5605 27.9067 23.5605 27.3867C23.5605 26.8668 23.9981 26.4453 24.5379 26.4453Z" fill="#2A4095"/>
<path fill-rule="evenodd" clip-rule="evenodd" d="M57 1H4C2.34314 1 1 2.34314 1 4V37.8286C1 39.4854 2.34315 40.8286 4 40.8286H57C58.6569 40.8286 60 39.4854 60 37.8286V4C60 2.34315 58.6569 1 57 1ZM4 0C1.79086 0 0 1.79086 0 4V37.8286C0 40.0377 1.79086 41.8286 4 41.8286H57C59.2091 41.8286 61 40.0377 61 37.8286V4C61 1.79086 59.2091 0 57 0H4Z" fill="#D9D9D9"/>
</svg>
