<svg width="61" height="42" viewBox="0 0 61 42" fill="none" xmlns="http://www.w3.org/2000/svg">
<path d="M0 4C0 1.79086 1.79086 0 4 0H57C59.2091 0 61 1.79086 61 4V37.83C61 40.0391 59.2091 41.83 57 41.83H4C1.79086 41.83 0 40.0391 0 37.83V4Z" fill="white"/>
<mask id="mask0_2921_693" style="mask-type:luminance" maskUnits="userSpaceOnUse" x="0" y="0" width="61" height="42">
<path d="M0 5.76118C0 2.57937 2.57936 0 5.76117 0H55.2388C58.4206 0 61 2.57936 61 5.76117V36.0688C61 39.2506 58.4206 41.83 55.2388 41.83H5.76117C2.57936 41.83 0 39.2506 0 36.0688V5.76118Z" fill="white"/>
</mask>
<g mask="url(#mask0_2921_693)">
<path fill-rule="evenodd" clip-rule="evenodd" d="M21.8056 11.8732L21.7852 12.2539L29.4562 20.8165L29.7318 20.8586L29.7665 20.842L29.9011 20.6055L26.6295 10.1862L26.0743 9.83008L21.8056 11.8732Z" fill="#0096B8"/>
<path fill-rule="evenodd" clip-rule="evenodd" d="M29.4562 20.8165L29.7314 20.8586L24.0744 12.6696L21.7852 12.2539L29.4562 20.8165Z" fill="#005675"/>
<path fill-rule="evenodd" clip-rule="evenodd" d="M26.0748 9.83008L24.1191 12.0207L24.9178 12.3529L26.63 10.1865V10.1862L26.0748 9.83008Z" fill="#0BBBEF"/>
<path fill-rule="evenodd" clip-rule="evenodd" d="M24.916 12.3535L29.7659 20.8427L29.9006 20.6054L26.6294 10.1875L24.916 12.3535Z" fill="#007290"/>
<path fill-rule="evenodd" clip-rule="evenodd" d="M33.6831 9.85193L30.4023 23.9425L30.518 24.2069L30.573 24.2304L30.9445 24.1378L39.0848 12.4051L39.0758 11.793L34.1152 9.62305L33.6831 9.85193Z" fill="#81B73E"/>
<path fill-rule="evenodd" clip-rule="evenodd" d="M35.781 12.6724L30.5742 24.2295L30.9448 24.137L39.0855 12.4043L35.781 12.6724Z" fill="#69931D"/>
<path fill-rule="evenodd" clip-rule="evenodd" d="M30.4023 23.941L30.5184 24.2054L34.8441 12.1819L33.6831 9.85156L30.4023 23.941Z" fill="#277933"/>
<path fill-rule="evenodd" clip-rule="evenodd" d="M39.0762 11.793L35.5938 11.8358L35.7814 12.673L39.0856 12.4047L39.0766 11.793H39.0762Z" fill="#AECC53"/>
<path fill-rule="evenodd" clip-rule="evenodd" d="M33.6836 9.85138L34.8435 12.1814L35.5935 11.8359L34.1157 9.62305L33.6836 9.85138Z" fill="#69931D"/>
<path fill-rule="evenodd" clip-rule="evenodd" d="M33.0853 5.85742L26.7351 5.92248L26.5371 6.2842L30.0458 15.9067L30.2542 16.0401L30.2603 16.041L30.4536 15.9347L33.4957 6.26234L33.0853 5.85742Z" fill="#E4032E"/>
<path fill-rule="evenodd" clip-rule="evenodd" d="M26.5371 6.28357L30.0458 15.906L30.253 16.0396L28.9978 7.44856L26.5371 6.2832V6.28357Z" fill="#791B15"/>
<path fill-rule="evenodd" clip-rule="evenodd" d="M30.1934 7.45004L30.2619 16.0402L30.4552 15.9332L33.4971 6.26172L30.1934 7.45004Z" fill="#B51227"/>
<path fill-rule="evenodd" clip-rule="evenodd" d="M38.0789 31.8238C38.0839 31.7229 38.0899 31.562 38.095 31.3421V27.1103L38.0814 26.6998C38.0781 26.6128 38.074 26.5536 38.0696 26.5218C38.0651 26.4889 38.0582 26.4607 38.0487 26.435C38.017 26.3308 37.9475 26.257 37.843 26.2122C37.7464 26.1713 37.6033 26.1515 37.418 26.1502V26.0067L39.8133 26.0059C40.1618 26.0073 40.4761 26.0298 40.7568 26.0758C41.0377 26.1206 41.2637 26.1831 41.4369 26.2629C41.9373 26.5027 42.1848 26.9062 42.182 27.4792C42.1881 28.2997 41.6534 28.8229 40.5466 28.958L40.361 28.9883C40.6099 28.9975 40.9462 29.0806 41.1031 29.1175C41.2585 29.1537 41.4108 29.2111 41.5604 29.2895C42.1475 29.5873 42.4369 30.063 42.4311 30.7221C42.4339 31.5214 42.0477 32.0405 41.2634 32.2863C41.0923 32.3358 40.8772 32.3745 40.6177 32.4031C40.3569 32.4314 40.0744 32.4458 39.7689 32.4464H37.418V32.3022C37.695 32.2987 37.8854 32.256 37.9697 32.1559C38.0046 32.1223 38.0298 32.0847 38.0462 32.0418C38.0631 31.9985 38.0734 31.9239 38.0789 31.8238ZM38.8164 26.2039V28.8891H39.7512C40.8382 28.8826 41.4012 28.4273 41.407 27.5152C41.4147 26.6295 40.8217 26.1973 39.6711 26.2039H38.8164ZM41.5945 30.65C41.5879 30.0247 41.3639 29.5819 40.9165 29.3341C40.7805 29.2648 40.6082 29.2109 40.4008 29.1725C40.194 29.1344 39.9653 29.1153 39.7155 29.1147H38.8164V32.2493H39.7155C40.367 32.252 40.8432 32.1293 41.1366 31.8724C41.2849 31.7485 41.3978 31.5816 41.4762 31.3714C41.5542 31.1614 41.5931 30.9201 41.5945 30.65Z" fill="black"/>
<path fill-rule="evenodd" clip-rule="evenodd" d="M45.8602 32.26C45.8115 32.1632 45.7772 32.0478 45.7629 31.7525L45.7583 31.6657L45.7008 31.7316C45.6322 31.8086 45.5649 31.8771 45.4997 31.9345C45.4334 31.9923 45.3564 32.0518 45.2705 32.1117C45.0816 32.2521 44.8993 32.3509 44.7247 32.4082C44.5499 32.4656 44.3532 32.4933 44.1338 32.4913C43.7517 32.4933 43.4583 32.4017 43.2487 32.2218C43.1318 32.1157 43.0394 31.982 42.9718 31.8198C42.9052 31.6577 42.8706 31.4838 42.8691 31.2966C42.8732 30.6074 43.2925 30.1633 44.1505 29.9662C44.3774 29.9129 44.6172 29.8693 44.8694 29.8357C45.122 29.8014 45.4092 29.7732 45.7295 29.7514L45.7629 29.1504C45.7629 28.9449 45.7534 28.778 45.7335 28.6515C45.7136 28.5232 45.6806 28.4112 45.6341 28.3169C45.5071 28.0665 45.2474 27.9467 44.8726 27.9467C44.2709 27.9432 43.945 28.2326 43.9111 28.8064C43.9079 28.898 43.8994 28.9627 43.8872 29.0008C43.8758 29.0378 43.8563 29.0647 43.8288 29.0845C43.7687 29.1254 43.6733 29.1485 43.5368 29.1504C43.2416 29.1544 43.1312 29.0661 43.1361 28.9171C43.138 28.7616 43.1893 28.6109 43.2918 28.4657C43.3952 28.3201 43.5384 28.1931 43.7237 28.0856C44.0567 27.8992 44.4832 27.8042 45.0062 27.8022C45.5787 27.8042 45.9625 27.9346 46.1721 28.1851C46.2571 28.2899 46.32 28.4203 46.3606 28.5779C46.4017 28.7347 46.4224 28.9344 46.422 29.1767L46.4213 29.2276L46.4167 29.4628L46.4042 30.0836L46.3952 30.9368L46.3863 31.35C46.3873 31.5444 46.3952 31.6926 46.4089 31.8586C46.4217 32.0201 46.4791 32.2006 46.6073 32.2481C46.7407 32.2981 46.8694 32.3179 47.1142 32.3193C47.294 32.3161 47.4324 32.2949 47.5262 32.2548C47.633 32.2094 47.699 32.1117 47.7276 31.9734C47.7551 31.8389 47.7668 31.6333 47.7643 31.3586V28.9501C47.7701 28.622 47.7323 28.3914 47.6399 28.2708C47.5493 28.1535 47.3809 28.1027 47.1496 28.1054V27.9768L48.4234 27.8839V28.9073L48.4898 28.7874C48.6781 28.4493 48.8919 28.2095 49.1303 28.0659C49.3682 27.9222 49.6664 27.8503 50.0256 27.8544C50.5662 27.8465 50.942 28.0289 51.162 28.394C51.2431 28.5165 51.3015 28.6635 51.3366 28.8362C51.3715 29.0088 51.3895 29.229 51.3881 29.4977V31.3586C51.3849 31.636 51.3963 31.8429 51.4228 31.9774C51.4503 32.1157 51.5149 32.2126 51.6223 32.2567C51.7114 32.2943 51.9184 32.3141 52.0946 32.3185C52.2602 32.3141 52.3878 32.2929 52.4755 32.2548C52.5796 32.2086 52.6429 32.111 52.6696 31.9734C52.6957 31.8384 52.7071 31.6333 52.7036 31.3586V26.9832C52.7071 26.7323 52.6965 26.5465 52.6717 26.4265C52.6456 26.3011 52.5816 26.2155 52.4771 26.1779C52.3862 26.1457 52.2501 26.1306 52.0714 26.1298V26.0021L53.3961 25.9336C53.3795 26.2306 53.367 26.5337 53.3582 26.8441C53.3497 27.1676 53.3452 27.4503 53.3452 27.6922V30.6316L54.8043 29.0187C55.0108 28.7881 55.1239 28.5943 55.1256 28.4389C55.1359 28.2227 54.92 28.1252 54.5646 28.1073V27.9795H56.4612V28.1092C56.3473 28.1225 56.2483 28.1437 56.1638 28.1727C56.0721 28.2042 55.9782 28.2496 55.8821 28.3083C55.7848 28.3675 55.7028 28.4224 55.637 28.4718C55.5697 28.5224 55.4902 28.5949 55.3992 28.6885C55.3081 28.7822 55.1754 28.9238 55.0016 29.1143L54.5202 29.6374L55.7809 31.6387C55.9249 31.8758 56.0573 32.0432 56.1789 32.138C56.295 32.2291 56.4432 32.2876 56.6215 32.3153V32.4458H55.4683C55.4367 32.3813 55.3929 32.2969 55.3373 32.1934L55.1539 31.8554L55.0133 31.601L54.0806 30.067L53.3471 30.8953L53.3452 31.3586C53.3418 31.6333 53.353 31.8389 53.3795 31.9734C53.4065 32.1117 53.4707 32.2086 53.5765 32.2548C53.6692 32.2949 53.8066 32.3161 53.9858 32.3193V32.4458H50.088V32.3193C50.352 32.312 50.5335 32.2686 50.606 32.171C50.6351 32.1335 50.6572 32.0907 50.673 32.0425C50.6881 31.9944 50.6978 31.9318 50.7022 31.8554C50.7074 31.7954 50.7128 31.7084 50.7186 31.5944C50.7253 31.4799 50.7284 31.4013 50.7291 31.3592V29.5517C50.7308 29.1063 50.6834 28.7763 50.5834 28.5666C50.4311 28.2366 50.1569 28.0711 49.7679 28.0697C49.3338 28.0684 48.988 28.2767 48.7316 28.6885C48.6349 28.8442 48.5599 29.0214 48.5056 29.219C48.452 29.4166 48.4239 29.6118 48.4234 29.8028V31.3586C48.4201 31.636 48.4315 31.8429 48.4579 31.9774C48.4854 32.1157 48.55 32.2126 48.6575 32.2567C48.7515 32.2962 48.891 32.3161 49.0733 32.3193V32.4458H47.1561C46.9863 32.4517 46.662 32.4603 46.5017 32.4583C46.3331 32.4557 46.2521 32.4379 46.0987 32.4261C45.9625 32.3858 45.9052 32.3502 45.8602 32.26ZM43.5996 31.269C43.6028 31.5624 43.6734 31.8001 43.8144 31.9794C43.9558 32.1599 44.1468 32.2528 44.3828 32.2568C44.6212 32.2536 44.8469 32.1908 45.0571 32.0697C45.2674 31.9478 45.4334 31.785 45.5533 31.5834C45.6264 31.4548 45.6798 31.2895 45.7132 31.0884C45.7465 30.8894 45.7629 30.6411 45.7629 30.344V29.8826C45.3358 29.9202 45.0303 29.961 44.8087 30.0085C44.585 30.056 44.3877 30.1239 44.2155 30.2134C43.8076 30.4177 43.6028 30.7723 43.5996 31.269Z" fill="black"/>
<path fill-rule="evenodd" clip-rule="evenodd" d="M6.0918 29.7356V31.3375C6.08848 31.5944 6.10317 31.7855 6.13555 31.9101C6.16841 32.0345 6.23886 32.1169 6.34801 32.1571C6.45669 32.1972 6.62429 32.2205 6.8497 32.2243V32.4484H4.35547V32.2243C4.56777 32.2205 4.72494 32.1972 4.82746 32.1571C4.92935 32.1169 4.99522 32.0345 5.02539 31.9101C5.05524 31.7855 5.06899 31.5944 5.06583 31.3375V27.1255C5.06867 26.8685 5.05556 26.6774 5.02665 26.5528C4.99759 26.4276 4.93393 26.3447 4.83662 26.3031C4.739 26.2615 4.5891 26.2373 4.3869 26.23V26.0059H6.76267C7.56354 26.0026 8.15037 26.145 8.52285 26.4335C8.89548 26.7222 9.07966 27.1762 9.07524 27.7977C9.07809 28.6701 8.74115 29.2412 8.06491 29.5115C7.88862 29.5807 7.66369 29.6353 7.39057 29.6748C7.11682 29.7144 6.8129 29.7349 6.47849 29.7356H6.0918ZM6.0918 29.4866H6.5025C6.99582 29.4845 7.35866 29.3674 7.59165 29.1333C7.71818 28.9982 7.81407 28.8204 7.87978 28.6009C7.94486 28.3821 7.97803 28.1318 7.97835 27.8497C7.97582 26.7889 7.51504 26.2578 6.59728 26.2564H6.0918V29.4866Z" fill="black"/>
<path fill-rule="evenodd" clip-rule="evenodd" d="M13.0896 30.0035H10.1878C10.1907 30.3158 10.2088 30.5779 10.242 30.7896C10.275 31.0005 10.3283 31.1935 10.4012 31.3686C10.6423 31.9355 11.0146 32.2188 11.5185 32.2188C11.8038 32.2169 12.0624 32.1324 12.2947 31.9645C12.5266 31.7965 12.7198 31.5546 12.8735 31.2404L13.079 31.3774C12.877 31.7833 12.6301 32.0811 12.3386 32.2715C12.0472 32.4613 11.6918 32.5557 11.2718 32.5536C10.6113 32.545 10.0036 32.3321 9.62327 31.9151C9.24258 31.4979 9.0486 30.926 9.04102 30.2011C9.0486 29.4703 9.23626 28.8925 9.60384 28.4667C9.9711 28.0412 10.5576 27.8237 11.1898 27.8145C11.6101 27.8152 12.0161 27.912 12.3042 28.1045C12.5923 28.2962 12.8048 28.5776 12.9418 28.9479C12.9865 29.0705 13.0206 29.2107 13.0435 29.3697C13.0665 29.5278 13.082 29.7393 13.0896 30.0035ZM10.1973 29.7559H12.0126C12.0052 29.4909 11.9912 29.2776 11.9704 29.1161C11.95 28.9539 11.9172 28.8097 11.8731 28.6825C11.7196 28.2319 11.4842 28.0085 11.1667 28.0123C10.8105 28.0158 10.5449 28.2674 10.3698 28.7681C10.3249 28.898 10.2892 29.0403 10.2617 29.1945C10.2345 29.3488 10.2129 29.5359 10.1973 29.7559Z" fill="black"/>
<path fill-rule="evenodd" clip-rule="evenodd" d="M13.2783 27.9377L14.8879 27.8256C14.8966 27.9879 14.9029 28.1235 14.9073 28.2336C14.9118 28.3443 14.9138 28.4411 14.9138 28.5255V28.7845C15.2635 28.1394 15.6859 27.8139 16.181 27.8086C16.3949 27.8126 16.5688 27.8757 16.7021 27.9969C16.8357 28.1189 16.9046 28.275 16.9086 28.465C16.9056 28.623 16.8477 28.7496 16.7353 28.845C16.623 28.9398 16.4751 28.9894 16.2923 28.9913C16.0725 28.9985 15.9384 28.907 15.8899 28.7153C15.8581 28.5966 15.8254 28.5163 15.7913 28.4734C15.7575 28.4305 15.7077 28.4108 15.6414 28.4129H15.6245C15.4559 28.4272 15.2962 28.5623 15.1447 28.8194C15.0765 28.9472 15.0252 29.0882 14.9909 29.2429C14.9566 29.3978 14.9396 29.5764 14.9396 29.7782V31.376C14.9361 31.6311 14.9486 31.8189 14.9764 31.9401C15.004 32.0606 15.0672 32.1396 15.1651 32.1774C15.2635 32.2142 15.4163 32.2352 15.6245 32.2399V32.4469H13.2441V32.2399C13.4381 32.2405 13.582 32.2215 13.6752 32.1827C13.7691 32.1438 13.8294 32.0627 13.8572 31.9401C13.8853 31.8161 13.8976 31.6284 13.8951 31.376V28.9829C13.9027 28.6269 13.8676 28.3956 13.789 28.2889C13.7103 28.1821 13.5402 28.134 13.2783 28.1453V27.9377Z" fill="black"/>
<path fill-rule="evenodd" clip-rule="evenodd" d="M18.8197 27.8257L18.8284 28.6809C19.1751 28.1052 19.6717 27.8145 20.3183 27.8086C20.9757 27.8047 21.3812 28.1065 21.534 28.716C21.7197 28.4016 21.9324 28.1716 22.1707 28.026C22.4091 27.8791 22.6877 27.8066 23.0065 27.8086C23.5104 27.8112 23.8815 27.9787 24.1198 28.3093C24.2127 28.4352 24.2794 28.588 24.3187 28.7694C24.3585 28.951 24.3778 29.1864 24.3767 29.4758V31.3761C24.3737 31.6285 24.3863 31.8162 24.4141 31.9394C24.4419 32.0627 24.5027 32.1438 24.5959 32.1827C24.6898 32.2216 24.8335 32.2405 25.0275 32.2393V32.4469H22.7068V32.2393C22.8925 32.2405 23.0302 32.2216 23.1201 32.1827C23.2101 32.1438 23.2687 32.0627 23.2953 31.9394C23.3227 31.8162 23.3347 31.6285 23.3322 31.3761V29.4842C23.3343 29.0304 23.2787 28.7028 23.1664 28.5018C23.0537 28.3002 22.8721 28.2019 22.6212 28.2059C22.3202 28.2 22.066 28.3582 21.8594 28.6809C21.6812 28.9499 21.5924 29.2412 21.5937 29.5535V31.3761C21.5912 31.6285 21.6033 31.8162 21.6305 31.9394C21.658 32.0627 21.7172 32.1438 21.8082 32.1827C21.8995 32.2216 22.039 32.2405 22.2276 32.2393V32.4469H19.9327V32.2393C20.1182 32.2405 20.2561 32.2216 20.3461 32.1827C20.436 32.1438 20.4944 32.0627 20.5211 31.9394C20.5483 31.8162 20.5608 31.6285 20.5576 31.3761V29.4758C20.562 28.6204 20.3309 28.1973 19.8641 28.2059C19.5738 28.2164 19.3302 28.3555 19.1344 28.6224C18.938 28.89 18.836 29.2234 18.8284 29.6225V31.3761C18.8257 31.6312 18.8377 31.8208 18.8649 31.9435C18.8919 32.0665 18.9502 32.147 19.0401 32.1846C19.1301 32.2222 19.2677 32.2405 19.4534 32.2393V32.4469H17.1328V32.2393C17.3271 32.2405 17.4704 32.2222 17.5642 32.1846C17.6576 32.147 17.7184 32.0665 17.7462 31.9435C17.7741 31.8208 17.7866 31.6312 17.7835 31.3761V28.9749C17.7926 28.6231 17.7576 28.3957 17.6786 28.2916C17.5999 28.1869 17.4238 28.1388 17.1502 28.1453V27.9377L18.8197 27.8257Z" fill="black"/>
<path fill-rule="evenodd" clip-rule="evenodd" d="M31.1167 28.2213V31.1062C31.1164 31.2939 31.1233 31.4495 31.1371 31.5726C31.1508 31.6958 31.1726 31.7992 31.2023 31.8835C31.2383 31.9799 31.2946 32.0569 31.3701 32.1151C31.446 32.1723 31.5301 32.2019 31.6215 32.2032C31.8046 32.2007 32.0043 32.1109 32.2213 31.9358L32.3411 32.1511C31.9972 32.4424 31.6064 32.5861 31.1682 32.5834C30.6956 32.5762 30.3733 32.4174 30.2004 32.1084C30.1666 32.0399 30.1402 31.9621 30.1214 31.8738C30.103 31.7862 30.0898 31.6683 30.0825 31.5186C30.0752 31.3696 30.0716 31.1687 30.0719 30.9163V28.2213H29.584V27.9624C29.7707 27.955 29.9285 27.9155 30.0582 27.8436C30.188 27.7713 30.301 27.6586 30.3977 27.5044C30.4733 27.3871 30.5359 27.2566 30.5847 27.1136C30.6338 26.9705 30.6769 26.7927 30.7144 26.5798L31.1426 26.5371C31.1369 26.651 31.1317 26.7671 31.1281 26.885C31.1244 27.0023 31.1214 27.1439 31.1197 27.3092C31.1176 27.4746 31.1167 27.6868 31.1167 27.9445H32.1529V28.2213H31.1167Z" fill="black"/>
<path fill-rule="evenodd" clip-rule="evenodd" d="M29.5808 32.2624V32.4448C29.3304 32.4614 29.2291 32.4614 28.9658 32.4614C28.7568 32.4614 28.5404 32.4579 28.3608 32.3902C28.2498 32.348 28.1879 32.3118 28.1049 32.2241C28.0471 32.1312 28.0103 32.1258 27.9918 31.8683C27.7707 32.1094 27.5407 32.286 27.3017 32.4001C27.062 32.5134 26.8043 32.5695 26.5278 32.5682C26.1168 32.5636 25.7953 32.4495 25.5631 32.2248C25.3311 32.0001 25.2134 31.6911 25.209 31.2983C25.2076 30.557 25.6642 30.0963 26.5788 29.9164C26.9914 29.8354 27.4593 29.7808 27.9833 29.7518V29.1904C27.9876 28.7409 27.9403 28.4293 27.8421 28.2559C27.7433 28.0826 27.5678 27.9997 27.3154 28.0077C27.047 28.0016 26.8559 28.0998 26.7417 28.3009C26.7003 28.3707 26.6698 28.4497 26.6507 28.5401C26.6318 28.6296 26.6163 28.7541 26.6047 28.9142C26.598 29.0685 26.5537 29.1778 26.4719 29.2425C26.3902 29.3077 26.2604 29.3392 26.0824 29.3379C25.6856 29.3348 25.4859 29.2022 25.4831 28.9405C25.4843 28.7877 25.5312 28.6414 25.6235 28.5031C25.7154 28.364 25.8457 28.2421 26.0141 28.1367C26.3705 27.9154 26.8387 27.8059 27.4184 27.8086C28.0076 27.8059 28.43 27.9239 28.6854 28.163C28.8006 28.2725 28.8851 28.4121 28.9391 28.5815C28.9933 28.7515 29.0198 28.969 29.0192 29.2345L29.0105 29.9857L29.0021 30.7369C28.9952 30.9834 28.992 31.1388 28.9936 31.2033C28.9905 31.5152 29.0003 31.7424 29.0227 31.8855C29.0453 32.0291 29.0699 32.0924 29.1631 32.1701C29.3266 32.2645 29.4669 32.2617 29.5808 32.2624ZM27.9832 30.616V29.9512C27.3702 29.9928 26.9353 30.1072 26.6785 30.2938C26.4221 30.4809 26.2973 30.7722 26.305 31.1683C26.3076 31.4792 26.3707 31.7257 26.4946 31.9082C26.618 32.0908 26.7862 32.1837 26.9985 32.1875C27.1727 32.1863 27.3335 32.1356 27.4812 32.0353C27.6288 31.9359 27.7445 31.7962 27.8291 31.6177C27.884 31.5084 27.9235 31.3752 27.9482 31.2169C27.972 31.0588 27.9839 30.8585 27.9832 30.616Z" fill="black"/>
<path fill-rule="evenodd" clip-rule="evenodd" d="M36.952 32.2637V32.4462C36.7015 32.4627 36.6004 32.4634 36.3371 32.4634C36.1279 32.4634 35.912 32.46 35.7319 32.3921C35.6209 32.3501 35.5591 32.3144 35.4763 32.2255C35.4184 32.1332 35.3814 32.1278 35.3631 31.8703C35.1419 32.1107 34.9119 32.2879 34.6728 32.402C34.4333 32.5147 34.1753 32.5714 33.8989 32.5701C33.4879 32.5654 33.1666 32.4508 32.9344 32.2267C32.7023 32.002 32.5847 31.6931 32.5801 31.3003C32.5788 30.5589 33.0355 30.0984 33.9501 29.9185C34.3627 29.8374 34.8306 29.7827 35.3544 29.7537V29.1923C35.3586 28.743 35.3114 28.4313 35.2132 28.2573C35.1146 28.0839 34.9389 28.0017 34.6865 28.0096C34.4183 28.0037 34.227 28.1019 34.1128 28.3027C34.0714 28.3726 34.0409 28.4517 34.022 28.542C34.003 28.6316 33.9875 28.756 33.9762 28.9162C33.9692 29.0698 33.925 29.1791 33.843 29.2444C33.7615 29.3096 33.6316 29.3412 33.4535 29.3399C33.0568 29.3367 32.8571 29.2043 32.8541 28.9426C32.8554 28.7897 32.9023 28.6434 32.9946 28.5051C33.0865 28.3661 33.217 28.244 33.3852 28.1393C33.7417 27.9174 34.2099 27.8079 34.7895 27.8106C35.3787 27.8079 35.8013 27.9258 36.0567 28.165C36.1718 28.2745 36.2564 28.4142 36.3102 28.5835C36.3642 28.7535 36.3911 28.971 36.3903 29.2358L36.3818 29.9877L36.3734 30.7389C36.3665 30.9852 36.3633 31.1407 36.3647 31.2053C36.3617 31.517 36.3715 31.7444 36.3938 31.8875C36.4165 32.031 36.441 32.0945 36.5344 32.1721C36.6977 32.2664 36.8381 32.2631 36.952 32.2637ZM35.3543 30.6187V29.9531C34.7413 29.9953 34.3066 30.1099 34.0497 30.2963C33.7927 30.4835 33.6684 30.7747 33.6761 31.1708C33.6788 31.4819 33.742 31.7283 33.8657 31.9107C33.9892 32.0933 34.1574 32.1862 34.3696 32.1901C34.544 32.1888 34.7048 32.1381 34.8525 32.0379C34.9999 31.9384 35.1158 31.7987 35.2 31.6202C35.2553 31.5107 35.2948 31.3777 35.3191 31.2194C35.3433 31.0614 35.3551 30.8611 35.3543 30.6187Z" fill="black"/>
</g>
<path fill-rule="evenodd" clip-rule="evenodd" d="M57 1H4C2.34314 1 1 2.34314 1 4V37.8286C1 39.4854 2.34314 40.8286 4 40.8286H57C58.6569 40.8286 60 39.4854 60 37.8286V4C60 2.34315 58.6569 1 57 1ZM4 0C1.79086 0 0 1.79086 0 4V37.8286C0 40.0377 1.79086 41.8286 4 41.8286H57C59.2091 41.8286 61 40.0377 61 37.8286V4C61 1.79086 59.2091 0 57 0H4Z" fill="#D9D9D9"/>
</svg>
